{
  "header": {
    "PPQ": 192,
    "timeSignature": [
      4,
      4
    ],
    "bpm": 87.00002175000543
  },
  "tracks": [
    {
      "name": "",
      "notes": [],
      "controlChanges": {},
      "instrument": ""
    },
    {
      "name": "====================",
      "notes": [],
      "controlChanges": {},
      "instrument": ""
    },
    {
      "name": "Led Zeppelin's      ",
      "notes": [],
      "controlChanges": {},
      "instrument": ""
    },
    {
      "name": "Whole Lotta Love    ",
      "notes": [],
      "controlChanges": {},
      "instrument": ""
    },
    {
      "name": "for the Roland SC-55",
      "notes": [],
      "controlChanges": {},
      "instrument": ""
    },
    {
      "name": "SCC-1, and other    ",
      "notes": [],
      "controlChanges": {},
      "instrument": ""
    },
    {
      "name": "GS/GM MIDI synths.  ",
      "notes": [],
      "controlChanges": {},
      "instrument": ""
    },
    {
      "name": "Want more? Call:    ",
      "notes": [],
      "controlChanges": {},
      "instrument": ""
    },
    {
      "name": "Power Windows BBS   ",
      "notes": [],
      "controlChanges": {},
      "instrument": ""
    },
    {
      "name": "205-881-8619        ",
      "notes": [],
      "controlChanges": {},
      "instrument": ""
    },
    {
      "name": "-.\\\\.               ",
      "notes": [],
      "controlChanges": {},
      "instrument": ""
    },
    {
      "name": "====================",
      "notes": [],
      "controlChanges": {},
      "instrument": ""
    },
    {
      "name": "Melody              ",
      "notes": [
        {
          "name": "B4",
          "midi": 71,
          "time": 12.941807109375,
          "velocity": 0.84251968503937,
          "duration": 0.22270109375000047
        },
        {
          "name": "B4",
          "midi": 71,
          "time": 13.279450703125,
          "velocity": 0.9212598425196851,
          "duration": 0.32327578125000045
        },
        {
          "name": "B4",
          "midi": 71,
          "time": 13.785916093750002,
          "velocity": 0.9212598425196851,
          "duration": 0.38433898437499714
        },
        {
          "name": "A4",
          "midi": 69,
          "time": 14.13074359375,
          "velocity": 0.7086614173228346,
          "duration": 0.1436781249999992
        },
        {
          "name": "G4",
          "midi": 67,
          "time": 14.310341249999999,
          "velocity": 0.889763779527559,
          "duration": 0.5603446875000007
        },
        {
          "name": "D4",
          "midi": 62,
          "time": 15.510053593749998,
          "velocity": 0.8110236220472441,
          "duration": 0.1939654687499992
        },
        {
          "name": "E4",
          "midi": 64,
          "time": 15.675283437499997,
          "velocity": 0.84251968503937,
          "duration": 0.1688217968749992
        },
        {
          "name": "E4",
          "midi": 64,
          "time": 15.854881093749997,
          "velocity": 0.8110236220472441,
          "duration": 0.15086203125000175
        },
        {
          "name": "E4",
          "midi": 64,
          "time": 16.02729484375,
          "velocity": 0.7795275590551181,
          "duration": 0.07902296874999948
        },
        {
          "name": "E4",
          "midi": 64,
          "time": 16.199708593749996,
          "velocity": 0.9212598425196851,
          "duration": 0.22270109375000047
        },
        {
          "name": "G4",
          "midi": 67,
          "time": 16.544536093749997,
          "velocity": 0.9133858267716536,
          "duration": 0.5818964062499994
        },
        {
          "name": "E4",
          "midi": 64,
          "time": 17.072553203124997,
          "velocity": 0.9212598425196851,
          "duration": 0.4489941406249969
        },
        {
          "name": "B4",
          "midi": 71,
          "time": 18.459047109374993,
          "velocity": 0.8661417322834646,
          "duration": 0.19396546874999743
        },
        {
          "name": "B4",
          "midi": 71,
          "time": 18.78591484374999,
          "velocity": 0.7952755905511811,
          "duration": 0.068247109375001
        },
        {
          "name": "B4",
          "midi": 71,
          "time": 18.95114468749999,
          "velocity": 0.8503937007874016,
          "duration": 0.28376429687499893
        },
        {
          "name": "B4",
          "midi": 71,
          "time": 19.31393195312499,
          "velocity": 0.8740157480314961,
          "duration": 0.12212640625000049
        },
        {
          "name": "B4",
          "midi": 71,
          "time": 19.49352960937499,
          "velocity": 0.8740157480314961,
          "duration": 0.1903735156250015
        },
        {
          "name": "A4",
          "midi": 69,
          "time": 19.82039734374999,
          "velocity": 0.8740157480314961,
          "duration": 0.5244251562499969
        },
        {
          "name": "D4",
          "midi": 62,
          "time": 21.034477499999984,
          "velocity": 0.5905511811023622,
          "duration": 0.1149425000000015
        },
        {
          "name": "E4",
          "midi": 64,
          "time": 21.210483203124983,
          "velocity": 0.8267716535433071,
          "duration": 0.3627872656249984
        },
        {
          "name": "E4",
          "midi": 64,
          "time": 21.716948593749983,
          "velocity": 0.889763779527559,
          "duration": 0.19396546875000098
        },
        {
          "name": "G4",
          "midi": 67,
          "time": 22.06177609374998,
          "velocity": 0.8740157480314961,
          "duration": 0.6609193749999989
        },
        {
          "name": "E4",
          "midi": 64,
          "time": 22.758614999999978,
          "velocity": 0.8740157480314961,
          "duration": 0.41307460937500196
        },
        {
          "name": "B4",
          "midi": 71,
          "time": 24.831171953124976,
          "velocity": 0.889763779527559,
          "duration": 0.5244251562500004
        },
        {
          "name": "A4",
          "midi": 69,
          "time": 25.337637343749975,
          "velocity": 0.8740157480314961,
          "duration": 0.3807470312499994
        },
        {
          "name": "G4",
          "midi": 67,
          "time": 25.847694687499974,
          "velocity": 0.905511811023622,
          "duration": 0.3304596874999959
        },
        {
          "name": "E4",
          "midi": 64,
          "time": 26.19970609374997,
          "velocity": 0.905511811023622,
          "duration": 0.43103437499999586
        },
        {
          "name": "D4",
          "midi": 62,
          "time": 27.76220570312497,
          "velocity": 0.7795275590551181,
          "duration": 0.12571835937499998
        },
        {
          "name": "E4",
          "midi": 64,
          "time": 27.93461945312497,
          "velocity": 0.889763779527559,
          "duration": 0.13290226562499896
        },
        {
          "name": "D4",
          "midi": 62,
          "time": 28.09625734374997,
          "velocity": 0.7322834645669292,
          "duration": 0.06465515625000151
        },
        {
          "name": "E4",
          "midi": 64,
          "time": 28.26867109374997,
          "velocity": 0.905511811023622,
          "duration": 0.34482750000000095
        },
        {
          "name": "G4",
          "midi": 67,
          "time": 28.785912343749963,
          "velocity": 0.8582677165354331,
          "duration": 0.4597699999999989
        },
        {
          "name": "D4",
          "midi": 62,
          "time": 29.295969687499962,
          "velocity": 0.7795275590551181,
          "duration": 0.39870679687500044
        },
        {
          "name": "E4",
          "midi": 64,
          "time": 30.528009609374962,
          "velocity": 0.6771653543307087,
          "duration": 0.057471249999998975
        },
        {
          "name": "B4",
          "midi": 71,
          "time": 30.69323945312496,
          "velocity": 0.9212598425196851,
          "duration": 0.09698273437500049
        },
        {
          "name": "B4",
          "midi": 71,
          "time": 30.854877343749962,
          "velocity": 0.8267716535433071,
          "duration": 0.17241374999999692
        },
        {
          "name": "A4",
          "midi": 69,
          "time": 31.01651523437496,
          "velocity": 0.6850393700787402,
          "duration": 0.09698273437499694
        },
        {
          "name": "A4",
          "midi": 69,
          "time": 31.192520937499957,
          "velocity": 0.7952755905511811,
          "duration": 0.05387929687499948
        },
        {
          "name": "B4",
          "midi": 71,
          "time": 31.354158828124955,
          "velocity": 0.905511811023622,
          "duration": 0.16882179687500454
        },
        {
          "name": "A4",
          "midi": 69,
          "time": 31.52298062499996,
          "velocity": 0.84251968503937,
          "duration": 0.7219825781250009
        },
        {
          "name": "E4",
          "midi": 64,
          "time": 33.28662960937496,
          "velocity": 0.6771653543307087,
          "duration": 0.057471249999998975
        },
        {
          "name": "B4",
          "midi": 71,
          "time": 33.45185945312497,
          "velocity": 0.9212598425196851,
          "duration": 0.09698273437499694
        },
        {
          "name": "B4",
          "midi": 71,
          "time": 33.61349734374996,
          "velocity": 0.8267716535433071,
          "duration": 0.17241375000000403
        },
        {
          "name": "A4",
          "midi": 69,
          "time": 33.775135234374964,
          "velocity": 0.6850393700787402,
          "duration": 0.09698273437500404
        },
        {
          "name": "A4",
          "midi": 69,
          "time": 33.95114093749997,
          "velocity": 0.7952755905511811,
          "duration": 0.053879296875003035
        },
        {
          "name": "B4",
          "midi": 71,
          "time": 34.11277882812497,
          "velocity": 0.905511811023622,
          "duration": 0.16882179687499388
        },
        {
          "name": "A4",
          "midi": 69,
          "time": 34.28160062499997,
          "velocity": 0.84251968503937,
          "duration": 0.7219825781250009
        },
        {
          "name": "B4",
          "midi": 71,
          "time": 35.91953124999997,
          "velocity": 0.84251968503937,
          "duration": 0.7507182031250039
        },
        {
          "name": "D4",
          "midi": 62,
          "time": 37.40659984374997,
          "velocity": 0.7952755905511811,
          "duration": 0.11494249999999795
        },
        {
          "name": "A3",
          "midi": 57,
          "time": 37.40659984374997,
          "velocity": 0.6692913385826772,
          "duration": 0.12212640624999693
        },
        {
          "name": "D4",
          "midi": 62,
          "time": 37.57901359374997,
          "velocity": 0.7480314960629921,
          "duration": 0.10775859374999897
        },
        {
          "name": "A3",
          "midi": 57,
          "time": 37.57901359374997,
          "velocity": 0.5590551181102362,
          "duration": 0.11494249999999795
        },
        {
          "name": "A3",
          "midi": 57,
          "time": 37.74424343749997,
          "velocity": 0.6535433070866141,
          "duration": 0.13290226562499896
        },
        {
          "name": "D4",
          "midi": 62,
          "time": 37.74424343749997,
          "velocity": 0.7637795275590551,
          "duration": 0.143678125000001
        },
        {
          "name": "D4",
          "midi": 62,
          "time": 37.91665718749997,
          "velocity": 0.7952755905511811,
          "duration": 0.12931031249999592
        },
        {
          "name": "A3",
          "midi": 57,
          "time": 37.92384109374997,
          "velocity": 0.7007874015748031,
          "duration": 0.11494249999999795
        },
        {
          "name": "D4",
          "midi": 62,
          "time": 38.08907093749997,
          "velocity": 0.7244094488188977,
          "duration": 0.10057468749999998
        },
        {
          "name": "A3",
          "midi": 57,
          "time": 38.08907093749997,
          "velocity": 0.5669291338582677,
          "duration": 0.053879296875003035
        },
        {
          "name": "A3",
          "midi": 57,
          "time": 38.26866859374997,
          "velocity": 0.8110236220472441,
          "duration": 0.5675285937499979
        },
        {
          "name": "D4",
          "midi": 62,
          "time": 38.26866859374997,
          "velocity": 0.8740157480314961,
          "duration": 0.5531607812499999
        },
        {
          "name": "A3",
          "midi": 57,
          "time": 40.158035937499974,
          "velocity": 0.5433070866141733,
          "duration": 0.13290226562499896
        },
        {
          "name": "D4",
          "midi": 62,
          "time": 40.16521984374997,
          "velocity": 0.5669291338582677,
          "duration": 0.093390781250001
        },
        {
          "name": "A3",
          "midi": 57,
          "time": 40.33044968749997,
          "velocity": 0.2755905511811024,
          "duration": 0.143678125000001
        },
        {
          "name": "D4",
          "midi": 62,
          "time": 40.33763359374997,
          "velocity": 0.6377952755905512,
          "duration": 0.10416664062500303
        },
        {
          "name": "A3",
          "midi": 57,
          "time": 40.510047343749974,
          "velocity": 0.5984251968503937,
          "duration": 0.09698273437499694
        },
        {
          "name": "D4",
          "midi": 62,
          "time": 40.510047343749974,
          "velocity": 0.7244094488188977,
          "duration": 0.07543101562499999
        },
        {
          "name": "A3",
          "midi": 57,
          "time": 40.68246109374997,
          "velocity": 0.5196850393700787,
          "duration": 0.10775859374999897
        },
        {
          "name": "D4",
          "midi": 62,
          "time": 40.68246109374997,
          "velocity": 0.6771653543307087,
          "duration": 0.07543101562499999
        },
        {
          "name": "A3",
          "midi": 57,
          "time": 40.85487484374997,
          "velocity": 0.5669291338582677,
          "duration": 0.07543101562499999
        },
        {
          "name": "D4",
          "midi": 62,
          "time": 40.85487484374997,
          "velocity": 0.7637795275590551,
          "duration": 0.068247109375001
        },
        {
          "name": "A3",
          "midi": 57,
          "time": 41.027288593749965,
          "velocity": 0.8582677165354331,
          "duration": 0.5818964062500029
        },
        {
          "name": "D4",
          "midi": 62,
          "time": 41.03806445312497,
          "velocity": 0.905511811023622,
          "duration": 0.5459768750000009
        },
        {
          "name": "A3",
          "midi": 57,
          "time": 42.916655937499975,
          "velocity": 0.5433070866141733,
          "duration": 0.13290226562499896
        },
        {
          "name": "D4",
          "midi": 62,
          "time": 42.923839843749974,
          "velocity": 0.5669291338582677,
          "duration": 0.093390781250001
        },
        {
          "name": "A3",
          "midi": 57,
          "time": 43.08906968749997,
          "velocity": 0.2755905511811024,
          "duration": 0.143678125000001
        },
        {
          "name": "D4",
          "midi": 62,
          "time": 43.09625359374997,
          "velocity": 0.6377952755905512,
          "duration": 0.10416664062500303
        },
        {
          "name": "A3",
          "midi": 57,
          "time": 43.268667343749975,
          "velocity": 0.5984251968503937,
          "duration": 0.09698273437499694
        },
        {
          "name": "D4",
          "midi": 62,
          "time": 43.268667343749975,
          "velocity": 0.7244094488188977,
          "duration": 0.07543101562499999
        },
        {
          "name": "A3",
          "midi": 57,
          "time": 43.44108109374997,
          "velocity": 0.5196850393700787,
          "duration": 0.10775859374999897
        },
        {
          "name": "D4",
          "midi": 62,
          "time": 43.44108109374997,
          "velocity": 0.6771653543307087,
          "duration": 0.07543101562499999
        },
        {
          "name": "A3",
          "midi": 57,
          "time": 43.61349484374997,
          "velocity": 0.5669291338582677,
          "duration": 0.07543101562499999
        },
        {
          "name": "D4",
          "midi": 62,
          "time": 43.61349484374997,
          "velocity": 0.7637795275590551,
          "duration": 0.068247109375001
        },
        {
          "name": "A3",
          "midi": 57,
          "time": 43.785908593749966,
          "velocity": 0.8582677165354331,
          "duration": 0.5818964062500029
        },
        {
          "name": "D4",
          "midi": 62,
          "time": 43.79668445312497,
          "velocity": 0.905511811023622,
          "duration": 0.5459768750000009
        },
        {
          "name": "A3",
          "midi": 57,
          "time": 45.675275937499975,
          "velocity": 0.5433070866141733,
          "duration": 0.13290226562499896
        },
        {
          "name": "D4",
          "midi": 62,
          "time": 45.682459843749974,
          "velocity": 0.5669291338582677,
          "duration": 0.093390781250001
        },
        {
          "name": "A3",
          "midi": 57,
          "time": 45.84768968749997,
          "velocity": 0.2755905511811024,
          "duration": 0.143678125000001
        },
        {
          "name": "D4",
          "midi": 62,
          "time": 45.85487359374997,
          "velocity": 0.6377952755905512,
          "duration": 0.10416664062500303
        },
        {
          "name": "A3",
          "midi": 57,
          "time": 46.027287343749975,
          "velocity": 0.5984251968503937,
          "duration": 0.09698273437499694
        },
        {
          "name": "D4",
          "midi": 62,
          "time": 46.027287343749975,
          "velocity": 0.7244094488188977,
          "duration": 0.07543101562499999
        },
        {
          "name": "A3",
          "midi": 57,
          "time": 46.19970109374997,
          "velocity": 0.5196850393700787,
          "duration": 0.10775859374999897
        },
        {
          "name": "D4",
          "midi": 62,
          "time": 46.19970109374997,
          "velocity": 0.6771653543307087,
          "duration": 0.07543101562499999
        },
        {
          "name": "A3",
          "midi": 57,
          "time": 46.37211484374997,
          "velocity": 0.5669291338582677,
          "duration": 0.07543101562499999
        },
        {
          "name": "D4",
          "midi": 62,
          "time": 46.37211484374997,
          "velocity": 0.7637795275590551,
          "duration": 0.068247109375001
        },
        {
          "name": "A3",
          "midi": 57,
          "time": 46.544528593749966,
          "velocity": 0.8582677165354331,
          "duration": 0.5818964062500029
        },
        {
          "name": "D4",
          "midi": 62,
          "time": 46.55530445312497,
          "velocity": 0.905511811023622,
          "duration": 0.5459768750000009
        },
        {
          "name": "B4",
          "midi": 71,
          "time": 48.97628085937498,
          "velocity": 0.889763779527559,
          "duration": 0.23347695312499894
        },
        {
          "name": "B4",
          "midi": 71,
          "time": 49.30314859374998,
          "velocity": 0.84251968503937,
          "duration": 0.459770000000006
        },
        {
          "name": "B4",
          "midi": 71,
          "time": 49.79883812499999,
          "velocity": 0.8582677165354331,
          "duration": 0.287356250000002
        },
        {
          "name": "A4",
          "midi": 69,
          "time": 50.07901046874999,
          "velocity": 0.8267716535433071,
          "duration": 0.27658039062499995
        },
        {
          "name": "G4",
          "midi": 67,
          "time": 50.359182812499995,
          "velocity": 0.7637795275590551,
          "duration": 0.5531607812499999
        },
        {
          "name": "G4",
          "midi": 67,
          "time": 51.33619406249999,
          "velocity": 0.7795275590551181,
          "duration": 0.19037351562500504
        },
        {
          "name": "A4",
          "midi": 69,
          "time": 51.555303203125,
          "velocity": 0.7244094488188977,
          "duration": 0.161637890625002
        },
        {
          "name": "G4",
          "midi": 67,
          "time": 51.727716953125004,
          "velocity": 0.7480314960629921,
          "duration": 0.15445398437500302
        },
        {
          "name": "A4",
          "midi": 69,
          "time": 51.871395078125005,
          "velocity": 0.7795275590551181,
          "duration": 0.10416664062500303
        },
        {
          "name": "B4",
          "midi": 71,
          "time": 52.05099273437501,
          "velocity": 0.889763779527559,
          "duration": 0.25862062499999894
        },
        {
          "name": "B4",
          "midi": 71,
          "time": 52.39582023437501,
          "velocity": 0.8582677165354331,
          "duration": 0.229885000000003
        },
        {
          "name": "A4",
          "midi": 69,
          "time": 52.61852132812501,
          "velocity": 0.7244094488188977,
          "duration": 0.28376429687499893
        },
        {
          "name": "G4",
          "midi": 67,
          "time": 52.92383734375001,
          "velocity": 0.7952755905511811,
          "duration": 0.5280171093749999
        },
        {
          "name": "E4",
          "midi": 64,
          "time": 54.26722781250001,
          "velocity": 0.6771653543307087,
          "duration": 0.10057468749999998
        },
        {
          "name": "B4",
          "midi": 71,
          "time": 54.457601328125016,
          "velocity": 0.8582677165354331,
          "duration": 0.21910914062500098
        },
        {
          "name": "B4",
          "midi": 71,
          "time": 54.791652968750014,
          "velocity": 0.8740157480314961,
          "duration": 0.4489941406249969
        },
        {
          "name": "B4",
          "midi": 71,
          "time": 55.49926773437502,
          "velocity": 0.8582677165354331,
          "duration": 0.287356250000002
        },
        {
          "name": "B4",
          "midi": 71,
          "time": 55.81895156250002,
          "velocity": 0.889763779527559,
          "duration": 0.474137812500004
        },
        {
          "name": "A4",
          "midi": 69,
          "time": 56.55171000000003,
          "velocity": 0.8582677165354331,
          "duration": 0.18318960937499895
        },
        {
          "name": "G4",
          "midi": 67,
          "time": 56.90012945312503,
          "velocity": 0.6141732283464567,
          "duration": 0.06465515625000506
        },
        {
          "name": "A4",
          "midi": 69,
          "time": 57.07972710937504,
          "velocity": 0.9212598425196851,
          "duration": 0.19396546875000098
        },
        {
          "name": "G4",
          "midi": 67,
          "time": 57.417370703125044,
          "velocity": 0.6692913385826772,
          "duration": 0.057471249999998975
        },
        {
          "name": "A4",
          "midi": 69,
          "time": 57.579008593750046,
          "velocity": 0.889763779527559,
          "duration": 0.16522984374999794
        },
        {
          "name": "A4",
          "midi": 69,
          "time": 57.90587632812505,
          "velocity": 0.8582677165354331,
          "duration": 0.4022987499999999
        },
        {
          "name": "A4",
          "midi": 69,
          "time": 58.43030148437505,
          "velocity": 0.889763779527559,
          "duration": 0.3160918749999979
        },
        {
          "name": "G4",
          "midi": 67,
          "time": 58.80386460937505,
          "velocity": 0.84251968503937,
          "duration": 0.11494249999999795
        },
        {
          "name": "E4",
          "midi": 64,
          "time": 59.12354843750005,
          "velocity": 0.905511811023622,
          "duration": 0.6285917968750141
        },
        {
          "name": "B4",
          "midi": 71,
          "time": 61.04524335937507,
          "velocity": 0.8740157480314961,
          "duration": 0.4346263281249989
        },
        {
          "name": "B4",
          "midi": 71,
          "time": 61.53734093750007,
          "velocity": 0.8740157480314961,
          "duration": 0.312499921875002
        },
        {
          "name": "B4",
          "midi": 71,
          "time": 62.061766093750066,
          "velocity": 0.905511811023622,
          "duration": 0.298132109375004
        },
        {
          "name": "A4",
          "midi": 69,
          "time": 62.40659359375007,
          "velocity": 0.8267716535433071,
          "duration": 0.161637890625002
        },
        {
          "name": "G4",
          "midi": 67,
          "time": 62.56823148437507,
          "velocity": 0.7086614173228346,
          "duration": 0.42025851562500094
        },
        {
          "name": "D4",
          "midi": 62,
          "time": 62.96334632812507,
          "velocity": 0.8110236220472441,
          "duration": 0.43103437500000297
        },
        {
          "name": "D4",
          "midi": 62,
          "time": 63.61348984375008,
          "velocity": 0.7480314960629921,
          "duration": 0.18318960937500606
        },
        {
          "name": "E4",
          "midi": 64,
          "time": 63.785903593750085,
          "velocity": 0.84251968503937,
          "duration": 0.136494218750002
        },
        {
          "name": "E4",
          "midi": 64,
          "time": 63.979869062500086,
          "velocity": 0.7244094488188977,
          "duration": 0.07183906250000405
        },
        {
          "name": "E4",
          "midi": 64,
          "time": 64.1235471875001,
          "velocity": 0.8110236220472441,
          "duration": 0.07543101562499999
        },
        {
          "name": "E4",
          "midi": 64,
          "time": 64.30314484375009,
          "velocity": 0.889763779527559,
          "duration": 0.16522984374999794
        },
        {
          "name": "E4",
          "midi": 64,
          "time": 64.60846085937509,
          "velocity": 0.9212598425196851,
          "duration": 0.5280171093749857
        },
        {
          "name": "E4",
          "midi": 64,
          "time": 66.39006960937506,
          "velocity": 0.6771653543307087,
          "duration": 0.05747125000000608
        },
        {
          "name": "B4",
          "midi": 71,
          "time": 66.55529945312506,
          "velocity": 0.9212598425196851,
          "duration": 0.09698273437500404
        },
        {
          "name": "B4",
          "midi": 71,
          "time": 66.71693734375006,
          "velocity": 0.8267716535433071,
          "duration": 0.17241375000000403
        },
        {
          "name": "A4",
          "midi": 69,
          "time": 66.87857523437506,
          "velocity": 0.6850393700787402,
          "duration": 0.09698273437500404
        },
        {
          "name": "A4",
          "midi": 69,
          "time": 67.05458093750006,
          "velocity": 0.7952755905511811,
          "duration": 0.05387929687499593
        },
        {
          "name": "B4",
          "midi": 71,
          "time": 67.21621882812506,
          "velocity": 0.905511811023622,
          "duration": 0.16882179687499388
        },
        {
          "name": "A4",
          "midi": 69,
          "time": 67.38504062500006,
          "velocity": 0.84251968503937,
          "duration": 0.7219825781249938
        },
        {
          "name": "B3",
          "midi": 59,
          "time": 68.23992546875003,
          "velocity": 0.7952755905511811,
          "duration": 0.34482749999999385
        },
        {
          "name": "B4",
          "midi": 71,
          "time": 68.56679320312503,
          "velocity": 0.7637795275590551,
          "duration": 0.3232757812499898
        },
        {
          "name": "E4",
          "midi": 64,
          "time": 69.14868960937503,
          "velocity": 0.6771653543307087,
          "duration": 0.05747125000000608
        },
        {
          "name": "C1",
          "midi": 24,
          "time": 69.25644820312503,
          "velocity": 0.3937007874015748,
          "duration": 0.007183906250006089
        },
        {
          "name": "B4",
          "midi": 71,
          "time": 69.31391945312504,
          "velocity": 0.9212598425196851,
          "duration": 0.09698273437500404
        },
        {
          "name": "B4",
          "midi": 71,
          "time": 69.47555734375004,
          "velocity": 0.8267716535433071,
          "duration": 0.17241375000000403
        },
        {
          "name": "A4",
          "midi": 69,
          "time": 69.63719523437504,
          "velocity": 0.6850393700787402,
          "duration": 0.09698273437500404
        },
        {
          "name": "A4",
          "midi": 69,
          "time": 69.81320093750004,
          "velocity": 0.7952755905511811,
          "duration": 0.05387929687499593
        },
        {
          "name": "B4",
          "midi": 71,
          "time": 69.97483882812504,
          "velocity": 0.905511811023622,
          "duration": 0.16882179687499388
        },
        {
          "name": "A4",
          "midi": 69,
          "time": 70.14366062500004,
          "velocity": 0.84251968503937,
          "duration": 0.7219825781249938
        },
        {
          "name": "D4",
          "midi": 62,
          "time": 71.00932132812503,
          "velocity": 0.8582677165354331,
          "duration": 0.3412355468749837
        },
        {
          "name": "E4",
          "midi": 64,
          "time": 71.33618906250001,
          "velocity": 0.7795275590551181,
          "duration": 0.34482749999999385
        },
        {
          "name": "B4",
          "midi": 71,
          "time": 72.424550859375,
          "velocity": 0.937007874015748,
          "duration": 0.5675285937499694
        },
        {
          "name": "A3",
          "midi": 57,
          "time": 73.60630343749996,
          "velocity": 0.6535433070866141,
          "duration": 0.13290226562500607
        },
        {
          "name": "D4",
          "midi": 62,
          "time": 73.60630343749996,
          "velocity": 0.7637795275590551,
          "duration": 0.1436781250000081
        },
        {
          "name": "D4",
          "midi": 62,
          "time": 73.78590109374997,
          "velocity": 0.7952755905511811,
          "duration": 0.12571835937499998
        },
        {
          "name": "A3",
          "midi": 57,
          "time": 73.78590109374997,
          "velocity": 0.7007874015748031,
          "duration": 0.11494249999999795
        },
        {
          "name": "D4",
          "midi": 62,
          "time": 73.95113093749997,
          "velocity": 0.7244094488188977,
          "duration": 0.10057468749999998
        },
        {
          "name": "A3",
          "midi": 57,
          "time": 73.95113093749997,
          "velocity": 0.5669291338582677,
          "duration": 0.05387929687499593
        },
        {
          "name": "A3",
          "midi": 57,
          "time": 74.13072859374996,
          "velocity": 0.8110236220472441,
          "duration": 0.5675285937499979
        },
        {
          "name": "D4",
          "midi": 62,
          "time": 74.13072859374996,
          "velocity": 0.8740157480314961,
          "duration": 0.5531607812499999
        },
        {
          "name": "A3",
          "midi": 57,
          "time": 76.02009593749995,
          "velocity": 0.5433070866141733,
          "duration": 0.13290226562500607
        },
        {
          "name": "D4",
          "midi": 62,
          "time": 76.02727984374995,
          "velocity": 0.5669291338582677,
          "duration": 0.09339078124999389
        },
        {
          "name": "A3",
          "midi": 57,
          "time": 76.19250968749995,
          "velocity": 0.2755905511811024,
          "duration": 0.1436781250000081
        },
        {
          "name": "D4",
          "midi": 62,
          "time": 76.19969359374996,
          "velocity": 0.6377952755905512,
          "duration": 0.10416664062499592
        },
        {
          "name": "A3",
          "midi": 57,
          "time": 76.37210734374996,
          "velocity": 0.5984251968503937,
          "duration": 0.09698273437500404
        },
        {
          "name": "D4",
          "midi": 62,
          "time": 76.37210734374996,
          "velocity": 0.7244094488188977,
          "duration": 0.07543101562499999
        },
        {
          "name": "A3",
          "midi": 57,
          "time": 76.54452109374996,
          "velocity": 0.5196850393700787,
          "duration": 0.10775859375000607
        },
        {
          "name": "D4",
          "midi": 62,
          "time": 76.54452109374996,
          "velocity": 0.6771653543307087,
          "duration": 0.07543101562499999
        },
        {
          "name": "A3",
          "midi": 57,
          "time": 76.71693484374997,
          "velocity": 0.5669291338582677,
          "duration": 0.07543101562499999
        },
        {
          "name": "D4",
          "midi": 62,
          "time": 76.71693484374997,
          "velocity": 0.7637795275590551,
          "duration": 0.0682471093749939
        },
        {
          "name": "A3",
          "midi": 57,
          "time": 76.88934859374997,
          "velocity": 0.8582677165354331,
          "duration": 0.5818964062499958
        },
        {
          "name": "D4",
          "midi": 62,
          "time": 76.90012445312497,
          "velocity": 0.905511811023622,
          "duration": 0.5459768749999938
        },
        {
          "name": "A3",
          "midi": 57,
          "time": 78.77871593749995,
          "velocity": 0.5433070866141733,
          "duration": 0.13290226562500607
        },
        {
          "name": "D4",
          "midi": 62,
          "time": 78.78589984374996,
          "velocity": 0.5669291338582677,
          "duration": 0.09339078124999389
        },
        {
          "name": "A3",
          "midi": 57,
          "time": 78.95112968749996,
          "velocity": 0.2755905511811024,
          "duration": 0.1436781250000081
        },
        {
          "name": "D4",
          "midi": 62,
          "time": 78.95831359374996,
          "velocity": 0.6377952755905512,
          "duration": 0.10416664062499592
        },
        {
          "name": "A3",
          "midi": 57,
          "time": 79.13072734374997,
          "velocity": 0.5984251968503937,
          "duration": 0.09698273437500404
        },
        {
          "name": "D4",
          "midi": 62,
          "time": 79.13072734374997,
          "velocity": 0.7244094488188977,
          "duration": 0.07543101562499999
        },
        {
          "name": "A3",
          "midi": 57,
          "time": 79.30314109374997,
          "velocity": 0.5196850393700787,
          "duration": 0.10775859375000607
        },
        {
          "name": "D4",
          "midi": 62,
          "time": 79.30314109374997,
          "velocity": 0.6771653543307087,
          "duration": 0.07543101562499999
        },
        {
          "name": "A3",
          "midi": 57,
          "time": 79.47555484374998,
          "velocity": 0.5669291338582677,
          "duration": 0.07543101562499999
        },
        {
          "name": "D4",
          "midi": 62,
          "time": 79.47555484374998,
          "velocity": 0.7637795275590551,
          "duration": 0.0682471093749939
        },
        {
          "name": "A3",
          "midi": 57,
          "time": 79.64796859374998,
          "velocity": 0.8582677165354331,
          "duration": 0.5818964062499958
        },
        {
          "name": "D4",
          "midi": 62,
          "time": 79.65874445312498,
          "velocity": 0.905511811023622,
          "duration": 0.5459768749999938
        },
        {
          "name": "A3",
          "midi": 57,
          "time": 81.53733593749996,
          "velocity": 0.5433070866141733,
          "duration": 0.13290226562500607
        },
        {
          "name": "D4",
          "midi": 62,
          "time": 81.54451984374997,
          "velocity": 0.5669291338582677,
          "duration": 0.09339078124999389
        },
        {
          "name": "A3",
          "midi": 57,
          "time": 81.70974968749996,
          "velocity": 0.2755905511811024,
          "duration": 0.1436781250000081
        },
        {
          "name": "D4",
          "midi": 62,
          "time": 81.71693359374997,
          "velocity": 0.6377952755905512,
          "duration": 0.10416664062499592
        },
        {
          "name": "A3",
          "midi": 57,
          "time": 81.88934734374998,
          "velocity": 0.5984251968503937,
          "duration": 0.09698273437500404
        },
        {
          "name": "D4",
          "midi": 62,
          "time": 81.88934734374998,
          "velocity": 0.7244094488188977,
          "duration": 0.07543101562499999
        },
        {
          "name": "D4",
          "midi": 62,
          "time": 82.06176109374998,
          "velocity": 0.6771653543307087,
          "duration": 0.07543101562499999
        },
        {
          "name": "A3",
          "midi": 57,
          "time": 82.06176109374998,
          "velocity": 0.5196850393700787,
          "duration": 0.10775859375000607
        },
        {
          "name": "A3",
          "midi": 57,
          "time": 82.23417484374998,
          "velocity": 0.5669291338582677,
          "duration": 0.07543101562499999
        },
        {
          "name": "D4",
          "midi": 62,
          "time": 82.23417484374998,
          "velocity": 0.7637795275590551,
          "duration": 0.0682471093749939
        },
        {
          "name": "A3",
          "midi": 57,
          "time": 82.40658859374999,
          "velocity": 0.8582677165354331,
          "duration": 0.5818964062499958
        },
        {
          "name": "D4",
          "midi": 62,
          "time": 82.41736445312499,
          "velocity": 0.905511811023622,
          "duration": 0.5459768749999938
        },
        {
          "name": "B4",
          "midi": 71,
          "time": 134.48272500000002,
          "velocity": 0.8740157480314961,
          "duration": 0.16522984375004057
        },
        {
          "name": "B4",
          "midi": 71,
          "time": 134.83114445312506,
          "velocity": 0.952755905511811,
          "duration": 0.5136492968750019
        },
        {
          "name": "B4",
          "midi": 71,
          "time": 135.68243734375008,
          "velocity": 0.889763779527559,
          "duration": 0.33764359374998776
        },
        {
          "name": "A4",
          "midi": 69,
          "time": 136.02726484375006,
          "velocity": 0.8582677165354331,
          "duration": 0.16522984375001215
        },
        {
          "name": "G4",
          "midi": 67,
          "time": 136.19967859375006,
          "velocity": 0.7952755905511811,
          "duration": 0.5100573437499918
        },
        {
          "name": "A4",
          "midi": 69,
          "time": 137.24493695312506,
          "velocity": 0.8267716535433071,
          "duration": 0.20114937500002839
        },
        {
          "name": "A4",
          "midi": 69,
          "time": 137.4748219531251,
          "velocity": 0.7952755905511811,
          "duration": 0.08261492187500608
        },
        {
          "name": "B4",
          "midi": 71,
          "time": 137.5861725000001,
          "velocity": 0.905511811023622,
          "duration": 0.2693964843750223
        },
        {
          "name": "A4",
          "midi": 69,
          "time": 137.9238160937501,
          "velocity": 0.9212598425196851,
          "duration": 0.5100573437500202
        },
        {
          "name": "G4",
          "midi": 67,
          "time": 138.44105734375012,
          "velocity": 0.7795275590551181,
          "duration": 0.5100573437499918
        },
        {
          "name": "E4",
          "midi": 64,
          "time": 138.9582985937501,
          "velocity": 0.6456692913385826,
          "duration": 0.16522984375001215
        },
        {
          "name": "D4",
          "midi": 62,
          "time": 139.1307123437501,
          "velocity": 0.7952755905511811,
          "duration": 0.323275781250004
        },
        {
          "name": "E4",
          "midi": 64,
          "time": 139.4755398437501,
          "velocity": 0.889763779527559,
          "duration": 0.16522984375001215
        },
        {
          "name": "B3",
          "midi": 59,
          "time": 139.64795359375012,
          "velocity": 0.7322834645669292,
          "duration": 0.33764359374998776
        },
        {
          "name": "B4",
          "midi": 71,
          "time": 140.6824360937501,
          "velocity": 0.84251968503937,
          "duration": 0.32686773437498573
        },
        {
          "name": "B4",
          "midi": 71,
          "time": 141.0272635937501,
          "velocity": 0.6377952755905512,
          "duration": 0.161637890625002
        },
        {
          "name": "B4",
          "midi": 71,
          "time": 141.1996773437501,
          "velocity": 0.905511811023622,
          "duration": 0.16522984375001215
        },
        {
          "name": "B4",
          "midi": 71,
          "time": 141.5445048437501,
          "velocity": 0.9212598425196851,
          "duration": 0.3376435937500162
        },
        {
          "name": "A4",
          "midi": 69,
          "time": 142.06174609375014,
          "velocity": 0.937007874015748,
          "duration": 0.16522984375001215
        },
        {
          "name": "G4",
          "midi": 67,
          "time": 142.40657359375015,
          "velocity": 0.5590551181102362,
          "duration": 0.16522984375001215
        },
        {
          "name": "A4",
          "midi": 69,
          "time": 142.58976320312516,
          "velocity": 0.9212598425196851,
          "duration": 0.3412355468749979
        },
        {
          "name": "A4",
          "midi": 69,
          "time": 143.09622859375017,
          "velocity": 0.905511811023622,
          "duration": 0.16522984375001215
        },
        {
          "name": "B4",
          "midi": 71,
          "time": 143.44105609375018,
          "velocity": 0.889763779527559,
          "duration": 0.33764359374998776
        },
        {
          "name": "A4",
          "midi": 69,
          "time": 143.78588359375016,
          "velocity": 0.8582677165354331,
          "duration": 0.16522984375001215
        },
        {
          "name": "G4",
          "midi": 67,
          "time": 143.95829734375016,
          "velocity": 0.7480314960629921,
          "duration": 0.16522984375001215
        },
        {
          "name": "G4",
          "midi": 67,
          "time": 144.30312484375017,
          "velocity": 0.905511811023622,
          "duration": 0.15086203124999997
        },
        {
          "name": "E4",
          "midi": 64,
          "time": 144.47553859375017,
          "velocity": 0.7007874015748031,
          "duration": 0.16522984375001215
        },
        {
          "name": "D4",
          "midi": 62,
          "time": 144.64795234375018,
          "velocity": 0.8582677165354331,
          "duration": 0.5100573437500202
        },
        {
          "name": "B4",
          "midi": 71,
          "time": 146.20686000000023,
          "velocity": 0.7952755905511811,
          "duration": 0.6034481250000283
        },
        {
          "name": "B4",
          "midi": 71,
          "time": 146.90010695312526,
          "velocity": 0.84251968503937,
          "duration": 0.36997117187499384
        },
        {
          "name": "A4",
          "midi": 69,
          "time": 147.40657234375027,
          "velocity": 0.8740157480314961,
          "duration": 0.22270109375000402
        },
        {
          "name": "A4",
          "midi": 69,
          "time": 147.76217570312528,
          "velocity": 0.8582677165354331,
          "duration": 0.323275781250004
        },
        {
          "name": "D4",
          "midi": 62,
          "time": 148.0962273437503,
          "velocity": 0.7480314960629921,
          "duration": 0.4777297656250141
        },
        {
          "name": "D4",
          "midi": 62,
          "time": 149.1307098437503,
          "velocity": 0.6535433070866141,
          "duration": 0.18318960937500606
        },
        {
          "name": "E4",
          "midi": 64,
          "time": 149.3031235937503,
          "velocity": 0.8267716535433071,
          "duration": 0.1436781250000081
        },
        {
          "name": "D4",
          "midi": 62,
          "time": 149.47553734375032,
          "velocity": 0.5511811023622047,
          "duration": 0.0933907812500081
        },
        {
          "name": "E4",
          "midi": 64,
          "time": 149.64795109375032,
          "velocity": 0.7952755905511811,
          "duration": 0.10416664062501013
        },
        {
          "name": "E4",
          "midi": 64,
          "time": 149.83114070312533,
          "velocity": 0.6850393700787402,
          "duration": 0.05747124999999187
        },
        {
          "name": "E4",
          "midi": 64,
          "time": 150.00355445312533,
          "velocity": 0.7086614173228346,
          "duration": 0.05747124999999187
        },
        {
          "name": "G4",
          "midi": 67,
          "time": 150.16519234375033,
          "velocity": 0.84251968503937,
          "duration": 0.20114937500002839
        },
        {
          "name": "E4",
          "midi": 64,
          "time": 150.34838195312537,
          "velocity": 0.8740157480314961,
          "duration": 0.1795976562499959
        },
        {
          "name": "D4",
          "midi": 62,
          "time": 150.52079570312537,
          "velocity": 0.8267716535433071,
          "duration": 0.7722699218749938
        },
        {
          "name": "E4",
          "midi": 64,
          "time": 151.88932984375037,
          "velocity": 0.6377952755905512,
          "duration": 0.06465515625001217
        },
        {
          "name": "B4",
          "midi": 71,
          "time": 152.06174359375044,
          "velocity": 0.7637795275590551,
          "duration": 0.12212640625000404
        },
        {
          "name": "B4",
          "midi": 71,
          "time": 152.23415734375044,
          "velocity": 0.7795275590551181,
          "duration": 0.09698273437498983
        },
        {
          "name": "B4",
          "midi": 71,
          "time": 152.41734695312542,
          "velocity": 0.8267716535433071,
          "duration": 0.20833328124999184
        },
        {
          "name": "A4",
          "midi": 69,
          "time": 152.58976070312542,
          "velocity": 0.7086614173228346,
          "duration": 0.09339078124997968
        },
        {
          "name": "A4",
          "midi": 69,
          "time": 152.7621744531254,
          "velocity": 0.8110236220472441,
          "duration": 0.19755742187501824
        },
        {
          "name": "G4",
          "midi": 67,
          "time": 152.9345882031254,
          "velocity": 0.6692913385826772,
          "duration": 0.06824710937502232
        },
        {
          "name": "A4",
          "midi": 69,
          "time": 153.10341000000042,
          "velocity": 0.8110236220472441,
          "duration": 0.211925234375002
        },
        {
          "name": "G4",
          "midi": 67,
          "time": 153.27941570312544,
          "velocity": 0.5433070866141733,
          "duration": 0.03951148437499796
        },
        {
          "name": "B4",
          "midi": 71,
          "time": 153.44105359375044,
          "velocity": 0.84251968503937,
          "duration": 0.2191091406250223
        },
        {
          "name": "A4",
          "midi": 69,
          "time": 153.78588109375048,
          "velocity": 0.8582677165354331,
          "duration": 0.4669539062499837
        },
        {
          "name": "E4",
          "midi": 64,
          "time": 154.65872570312547,
          "velocity": 0.7952755905511811,
          "duration": 0.19037351562499794
        },
        {
          "name": "B4",
          "midi": 71,
          "time": 154.83113945312547,
          "velocity": 0.8110236220472441,
          "duration": 0.11135054687500201
        },
        {
          "name": "B4",
          "midi": 71,
          "time": 155.00355320312548,
          "velocity": 0.7480314960629921,
          "duration": 0.0933907812500081
        },
        {
          "name": "B4",
          "midi": 71,
          "time": 155.1831508593755,
          "velocity": 0.8740157480314961,
          "duration": 0.08620687500001623
        },
        {
          "name": "B4",
          "midi": 71,
          "time": 155.35556460937553,
          "velocity": 0.8267716535433071,
          "duration": 0.0754310156250142
        },
        {
          "name": "A#4",
          "midi": 70,
          "time": 155.52079445312555,
          "velocity": 0.937007874015748,
          "duration": 0.36278726562500196
        },
        {
          "name": "G4",
          "midi": 67,
          "time": 156.03803570312553,
          "velocity": 0.905511811023622,
          "duration": 0.2191091406250223
        },
        {
          "name": "D4",
          "midi": 62,
          "time": 156.38286320312554,
          "velocity": 0.889763779527559,
          "duration": 0.3412355468750832
        },
        {
          "name": "B4",
          "midi": 71,
          "time": 158.26863859375064,
          "velocity": 0.889763779527559,
          "duration": 0.33764359374998776
        },
        {
          "name": "G4",
          "midi": 67,
          "time": 158.60628218750063,
          "velocity": 0.8740157480314961,
          "duration": 0.5890803124999877
        },
        {
          "name": "B4",
          "midi": 71,
          "time": 160.51001734375066,
          "velocity": 0.8582677165354331,
          "duration": 0.24066085937499793
        },
        {
          "name": "A4",
          "midi": 69,
          "time": 160.85484484375067,
          "velocity": 0.8740157480314961,
          "duration": 0.3556033593750101
        },
        {
          "name": "G4",
          "midi": 67,
          "time": 161.19967234375068,
          "velocity": 0.8267716535433071,
          "duration": 0.2370689062500162
        },
        {
          "name": "B4",
          "midi": 71,
          "time": 161.5552757031257,
          "velocity": 0.8582677165354331,
          "duration": 0.323275781250004
        },
        {
          "name": "G4",
          "midi": 67,
          "time": 161.8893273437507,
          "velocity": 0.8740157480314961,
          "duration": 0.6034481249999999
        },
        {
          "name": "B4",
          "midi": 71,
          "time": 162.8160512500007,
          "velocity": 0.84251968503937,
          "duration": 0.7507182031249613
        },
        {
          "name": "D4",
          "midi": 62,
          "time": 164.30311984375064,
          "velocity": 0.7952755905511811,
          "duration": 0.11494250000001216
        },
        {
          "name": "A3",
          "midi": 57,
          "time": 164.30311984375064,
          "velocity": 0.6692913385826772,
          "duration": 0.12212640625000404
        },
        {
          "name": "D4",
          "midi": 62,
          "time": 164.47553359375064,
          "velocity": 0.7480314960629921,
          "duration": 0.10775859374999186
        },
        {
          "name": "A3",
          "midi": 57,
          "time": 164.47553359375064,
          "velocity": 0.5590551181102362,
          "duration": 0.11494249999998374
        },
        {
          "name": "A3",
          "midi": 57,
          "time": 164.64076343750062,
          "velocity": 0.6535433070866141,
          "duration": 0.13290226562500607
        },
        {
          "name": "D4",
          "midi": 62,
          "time": 164.64076343750062,
          "velocity": 0.7637795275590551,
          "duration": 0.1436781250000081
        },
        {
          "name": "D4",
          "midi": 62,
          "time": 164.81317718750063,
          "velocity": 0.7952755905511811,
          "duration": 0.12931031249999592
        },
        {
          "name": "A3",
          "midi": 57,
          "time": 164.82036109375062,
          "velocity": 0.7007874015748031,
          "duration": 0.11494250000001216
        },
        {
          "name": "D4",
          "midi": 62,
          "time": 164.98559093750063,
          "velocity": 0.7244094488188977,
          "duration": 0.10057468749999998
        },
        {
          "name": "A3",
          "midi": 57,
          "time": 164.98559093750063,
          "velocity": 0.5669291338582677,
          "duration": 0.05387929687501014
        },
        {
          "name": "A3",
          "midi": 57,
          "time": 165.16518859375063,
          "velocity": 0.8110236220472441,
          "duration": 0.5675285937500121
        },
        {
          "name": "D4",
          "midi": 62,
          "time": 165.16518859375063,
          "velocity": 0.8740157480314961,
          "duration": 0.5531607812499999
        },
        {
          "name": "A3",
          "midi": 57,
          "time": 167.05455593750062,
          "velocity": 0.5433070866141733,
          "duration": 0.13290226562500607
        },
        {
          "name": "D4",
          "midi": 62,
          "time": 167.06173984375062,
          "velocity": 0.5669291338582677,
          "duration": 0.0933907812500081
        },
        {
          "name": "A3",
          "midi": 57,
          "time": 167.22696968750063,
          "velocity": 0.2755905511811024,
          "duration": 0.1436781250000081
        },
        {
          "name": "D4",
          "midi": 62,
          "time": 167.23415359375062,
          "velocity": 0.6377952755905512,
          "duration": 0.10416664062501013
        },
        {
          "name": "A3",
          "midi": 57,
          "time": 167.40656734375062,
          "velocity": 0.5984251968503937,
          "duration": 0.09698273437501825
        },
        {
          "name": "D4",
          "midi": 62,
          "time": 167.40656734375062,
          "velocity": 0.7244094488188977,
          "duration": 0.0754310156250142
        },
        {
          "name": "A3",
          "midi": 57,
          "time": 167.57898109375066,
          "velocity": 0.5196850393700787,
          "duration": 0.10775859375002028
        },
        {
          "name": "D4",
          "midi": 62,
          "time": 167.57898109375066,
          "velocity": 0.6771653543307087,
          "duration": 0.0754310156250142
        },
        {
          "name": "A3",
          "midi": 57,
          "time": 167.7513948437507,
          "velocity": 0.5669291338582677,
          "duration": 0.07543101562498578
        },
        {
          "name": "D4",
          "midi": 62,
          "time": 167.7513948437507,
          "velocity": 0.7637795275590551,
          "duration": 0.0682471093749939
        },
        {
          "name": "A3",
          "midi": 57,
          "time": 167.92380859375066,
          "velocity": 0.8582677165354331,
          "duration": 0.5818964062500243
        },
        {
          "name": "D4",
          "midi": 62,
          "time": 167.93458445312567,
          "velocity": 0.905511811023622,
          "duration": 0.545976875000008
        },
        {
          "name": "A3",
          "midi": 57,
          "time": 169.8131759375007,
          "velocity": 0.5433070866141733,
          "duration": 0.13290226562500607
        },
        {
          "name": "D4",
          "midi": 62,
          "time": 169.82035984375068,
          "velocity": 0.5669291338582677,
          "duration": 0.0933907812500081
        },
        {
          "name": "A3",
          "midi": 57,
          "time": 169.9855896875007,
          "velocity": 0.2755905511811024,
          "duration": 0.1436781250000081
        },
        {
          "name": "D4",
          "midi": 62,
          "time": 169.99277359375068,
          "velocity": 0.6377952755905512,
          "duration": 0.10416664062501013
        },
        {
          "name": "A3",
          "midi": 57,
          "time": 170.1651873437507,
          "velocity": 0.5984251968503937,
          "duration": 0.09698273437501825
        },
        {
          "name": "D4",
          "midi": 62,
          "time": 170.1651873437507,
          "velocity": 0.7244094488188977,
          "duration": 0.0754310156250142
        },
        {
          "name": "A3",
          "midi": 57,
          "time": 170.33760109375072,
          "velocity": 0.5196850393700787,
          "duration": 0.10775859375002028
        },
        {
          "name": "D4",
          "midi": 62,
          "time": 170.33760109375072,
          "velocity": 0.6771653543307087,
          "duration": 0.0754310156250142
        },
        {
          "name": "A3",
          "midi": 57,
          "time": 170.51001484375075,
          "velocity": 0.5669291338582677,
          "duration": 0.07543101562498578
        },
        {
          "name": "D4",
          "midi": 62,
          "time": 170.51001484375075,
          "velocity": 0.7637795275590551,
          "duration": 0.0682471093749939
        },
        {
          "name": "A3",
          "midi": 57,
          "time": 170.68242859375073,
          "velocity": 0.8582677165354331,
          "duration": 0.5818964062500243
        },
        {
          "name": "D4",
          "midi": 62,
          "time": 170.69320445312573,
          "velocity": 0.905511811023622,
          "duration": 0.545976875000008
        },
        {
          "name": "A3",
          "midi": 57,
          "time": 172.57179593750075,
          "velocity": 0.5433070866141733,
          "duration": 0.13290226562500607
        },
        {
          "name": "D4",
          "midi": 62,
          "time": 172.57897984375074,
          "velocity": 0.5669291338582677,
          "duration": 0.0933907812500081
        },
        {
          "name": "A3",
          "midi": 57,
          "time": 172.74420968750076,
          "velocity": 0.2755905511811024,
          "duration": 0.1436781250000081
        },
        {
          "name": "D4",
          "midi": 62,
          "time": 172.75139359375075,
          "velocity": 0.6377952755905512,
          "duration": 0.10416664062501013
        },
        {
          "name": "A3",
          "midi": 57,
          "time": 172.92380734375075,
          "velocity": 0.5984251968503937,
          "duration": 0.09698273437501825
        },
        {
          "name": "D4",
          "midi": 62,
          "time": 172.92380734375075,
          "velocity": 0.7244094488188977,
          "duration": 0.0754310156250142
        },
        {
          "name": "A3",
          "midi": 57,
          "time": 173.09622109375078,
          "velocity": 0.5196850393700787,
          "duration": 0.10775859375002028
        },
        {
          "name": "D4",
          "midi": 62,
          "time": 173.09622109375078,
          "velocity": 0.6771653543307087,
          "duration": 0.0754310156250142
        },
        {
          "name": "A3",
          "midi": 57,
          "time": 173.26863484375082,
          "velocity": 0.5669291338582677,
          "duration": 0.07543101562498578
        },
        {
          "name": "D4",
          "midi": 62,
          "time": 173.26863484375082,
          "velocity": 0.7637795275590551,
          "duration": 0.0682471093749939
        },
        {
          "name": "A3",
          "midi": 57,
          "time": 173.4410485937508,
          "velocity": 0.8582677165354331,
          "duration": 0.5818964062500243
        },
        {
          "name": "D4",
          "midi": 62,
          "time": 173.4518244531258,
          "velocity": 0.905511811023622,
          "duration": 0.545976875000008
        },
        {
          "name": "B4",
          "midi": 71,
          "time": 179.21690921875083,
          "velocity": 0.937007874015748,
          "duration": 1.31106289062501
        },
        {
          "name": "B4",
          "midi": 71,
          "time": 180.71834562500086,
          "velocity": 0.9212598425196851,
          "duration": 1.756465078125018
        },
        {
          "name": "B4",
          "midi": 71,
          "time": 182.63644859375088,
          "velocity": 0.937007874015748,
          "duration": 0.43821828124998774
        },
        {
          "name": "G4",
          "midi": 67,
          "time": 183.42308632812586,
          "velocity": 0.8740157480314961,
          "duration": 0.9015802343750181
        },
        {
          "name": "B3",
          "midi": 59,
          "time": 184.38213781250087,
          "velocity": 0.6299212598425197,
          "duration": 0.8405170312500161
        },
        {
          "name": "B4",
          "midi": 71,
          "time": 186.6522521875009,
          "velocity": 0.952755905511811,
          "duration": 0.42025851562499383
        },
        {
          "name": "B4",
          "midi": 71,
          "time": 187.1659014843759,
          "velocity": 0.8582677165354331,
          "duration": 1.1673847656250302
        },
        {
          "name": "B4",
          "midi": 71,
          "time": 189.4252400000009,
          "velocity": 0.9212598425196851,
          "duration": 1.5948271875000444
        },
        {
          "name": "G4",
          "midi": 67,
          "time": 191.24636023437597,
          "velocity": 0.905511811023622,
          "duration": 0.90876414062501
        },
        {
          "name": "B3",
          "midi": 59,
          "time": 192.22337148437597,
          "velocity": 0.7007874015748031,
          "duration": 1.41163757812501
        },
        {
          "name": "B4",
          "midi": 71,
          "time": 197.895065468751,
          "velocity": 0.9212598425196851,
          "duration": 8.46623351562505
        },
        {
          "name": "B3",
          "midi": 59,
          "time": 209.99994750000113,
          "velocity": 0.8110236220472441,
          "duration": 0.3771550781249857
        },
        {
          "name": "B3",
          "midi": 59,
          "time": 210.69319445312613,
          "velocity": 0.8582677165354331,
          "duration": 0.3412355468749979
        },
        {
          "name": "C#4",
          "midi": 61,
          "time": 211.02724609375113,
          "velocity": 0.84251968503937,
          "duration": 0.3915228906249979
        },
        {
          "name": "D4",
          "midi": 62,
          "time": 211.54448734375111,
          "velocity": 0.8582677165354331,
          "duration": 0.4813217187500527
        },
        {
          "name": "B3",
          "midi": 59,
          "time": 212.7513835937512,
          "velocity": 0.84251968503937,
          "duration": 0.4705458593749938
        },
        {
          "name": "B3",
          "midi": 59,
          "time": 213.4410385937512,
          "velocity": 0.7795275590551181,
          "duration": 0.373563125000004
        },
        {
          "name": "C#4",
          "midi": 61,
          "time": 213.7858660937512,
          "velocity": 0.7795275590551181,
          "duration": 0.4094826562499918
        },
        {
          "name": "D4",
          "midi": 62,
          "time": 214.29592343750122,
          "velocity": 0.8110236220472441,
          "duration": 0.5603446874999918
        },
        {
          "name": "B4",
          "midi": 71,
          "time": 215.50281968750122,
          "velocity": 0.6771653543307087,
          "duration": 0.12212640625000404
        },
        {
          "name": "E4",
          "midi": 64,
          "time": 215.6824173437512,
          "velocity": 0.6456692913385826,
          "duration": 0.4525860937499999
        },
        {
          "name": "B4",
          "midi": 71,
          "time": 223.79304750000122,
          "velocity": 0.7086614173228346,
          "duration": 0.25143671874999995
        },
        {
          "name": "A4",
          "midi": 69,
          "time": 224.13787500000123,
          "velocity": 0.8582677165354331,
          "duration": 0.545976875000008
        },
        {
          "name": "E4",
          "midi": 64,
          "time": 224.82034609375123,
          "velocity": 0.8110236220472441,
          "duration": 0.6681032812500405
        },
        {
          "name": "A4",
          "midi": 69,
          "time": 226.71689734375124,
          "velocity": 0.6377952755905512,
          "duration": 0.1257183593750142
        },
        {
          "name": "A4",
          "midi": 69,
          "time": 226.88931109375125,
          "velocity": 0.889763779527559,
          "duration": 0.15445398437501012
        },
        {
          "name": "A4",
          "midi": 69,
          "time": 227.06890875000127,
          "velocity": 0.6377952755905512,
          "duration": 0.10057468749999998
        },
        {
          "name": "A4",
          "midi": 69,
          "time": 227.24491445312628,
          "velocity": 0.7086614173228346,
          "duration": 0.1257183593750142
        },
        {
          "name": "A4",
          "midi": 69,
          "time": 227.4137362500013,
          "velocity": 0.6850393700787402,
          "duration": 0.05747124999999187
        },
        {
          "name": "B4",
          "midi": 71,
          "time": 227.5861500000013,
          "velocity": 0.889763779527559,
          "duration": 0.3663792187500121
        },
        {
          "name": "A4",
          "midi": 69,
          "time": 227.93456945312633,
          "velocity": 0.8110236220472441,
          "duration": 0.35201140624999994
        },
        {
          "name": "G4",
          "midi": 67,
          "time": 228.27939695312634,
          "velocity": 0.7480314960629921,
          "duration": 0.35201140624999994
        },
        {
          "name": "D4",
          "midi": 62,
          "time": 228.61344859375134,
          "velocity": 0.8110236220472441,
          "duration": 0.5100573437499918
        }
      ],
      "controlChanges": {
        "1": [
          {
            "number": 1,
            "time": 200.129260312501,
            "value": 0.047244094488188976
          },
          {
            "number": 1,
            "time": 200.15440398437602,
            "value": 0.05511811023622047
          },
          {
            "number": 1,
            "time": 200.183139609376,
            "value": 0.03937007874015748
          },
          {
            "number": 1,
            "time": 200.20469132812602,
            "value": 0.047244094488188976
          },
          {
            "number": 1,
            "time": 200.222651093751,
            "value": 0.007874015748031496
          },
          {
            "number": 1,
            "time": 200.272938437501,
            "value": 0.031496062992125984
          },
          {
            "number": 1,
            "time": 200.290898203126,
            "value": 0.44881889763779526
          },
          {
            "number": 1,
            "time": 200.31604187500102,
            "value": 0.5354330708661418
          },
          {
            "number": 1,
            "time": 200.34477750000102,
            "value": 0.5511811023622047
          },
          {
            "number": 1,
            "time": 200.402248750001,
            "value": 0.5984251968503937
          },
          {
            "number": 1,
            "time": 200.423800468751,
            "value": 0.6220472440944882
          },
          {
            "number": 1,
            "time": 200.452536093751,
            "value": 0.6299212598425197
          },
          {
            "number": 1,
            "time": 200.463311953126,
            "value": 0.6377952755905512
          },
          {
            "number": 1,
            "time": 200.492047578126,
            "value": 0.6456692913385826
          },
          {
            "number": 1,
            "time": 200.51719125000102,
            "value": 0.6535433070866141
          },
          {
            "number": 1,
            "time": 200.53155906250103,
            "value": 0.6614173228346457
          },
          {
            "number": 1,
            "time": 200.64290960937603,
            "value": 0.6692913385826772
          },
          {
            "number": 1,
            "time": 200.66446132812604,
            "value": 0.6850393700787402
          },
          {
            "number": 1,
            "time": 200.71115671875103,
            "value": 0.6929133858267716
          },
          {
            "number": 1,
            "time": 200.73270843750103,
            "value": 0.6771653543307087
          },
          {
            "number": 1,
            "time": 200.75066820312603,
            "value": 0.6299212598425197
          },
          {
            "number": 1,
            "time": 200.77581187500104,
            "value": 0.5354330708661418
          },
          {
            "number": 1,
            "time": 200.80454750000104,
            "value": 0.47244094488188976
          },
          {
            "number": 1,
            "time": 200.87279460937603,
            "value": 0.4330708661417323
          },
          {
            "number": 1,
            "time": 200.89434632812603,
            "value": 0.36220472440944884
          },
          {
            "number": 1,
            "time": 200.92308195312603,
            "value": 0.3543307086614173
          },
          {
            "number": 1,
            "time": 200.94104171875102,
            "value": 0.3779527559055118
          },
          {
            "number": 1,
            "time": 200.96259343750103,
            "value": 0.5039370078740157
          },
          {
            "number": 1,
            "time": 200.98055320312602,
            "value": 0.5433070866141733
          },
          {
            "number": 1,
            "time": 201.00569687500104,
            "value": 0.5511811023622047
          },
          {
            "number": 1,
            "time": 201.03443250000103,
            "value": 0.6771653543307087
          },
          {
            "number": 1,
            "time": 201.05598421875104,
            "value": 0.6850393700787402
          },
          {
            "number": 1,
            "time": 201.07394398437603,
            "value": 0.7007874015748031
          },
          {
            "number": 1,
            "time": 201.09190375000102,
            "value": 0.7244094488188977
          },
          {
            "number": 1,
            "time": 201.13141523437602,
            "value": 0.7322834645669292
          },
          {
            "number": 1,
            "time": 201.16374281250103,
            "value": 0.7480314960629921
          },
          {
            "number": 1,
            "time": 201.20684625000104,
            "value": 0.7637795275590551
          },
          {
            "number": 1,
            "time": 201.22121406250105,
            "value": 0.7874015748031497
          },
          {
            "number": 1,
            "time": 201.24635773437606,
            "value": 0.8031496062992126
          },
          {
            "number": 1,
            "time": 201.26431750000106,
            "value": 0.8110236220472441
          },
          {
            "number": 1,
            "time": 201.28586921875106,
            "value": 0.8188976377952756
          },
          {
            "number": 1,
            "time": 201.31460484375106,
            "value": 0.8267716535433071
          },
          {
            "number": 1,
            "time": 201.33256460937605,
            "value": 0.8346456692913385
          },
          {
            "number": 1,
            "time": 201.35411632812605,
            "value": 0.8503937007874016
          },
          {
            "number": 1,
            "time": 201.37207609375105,
            "value": 0.8582677165354331
          },
          {
            "number": 1,
            "time": 201.39362781250105,
            "value": 0.8661417322834646
          },
          {
            "number": 1,
            "time": 201.44032320312604,
            "value": 0.8740157480314961
          },
          {
            "number": 1,
            "time": 201.63069671875104,
            "value": 0.8582677165354331
          },
          {
            "number": 1,
            "time": 201.67020820312604,
            "value": 0.8503937007874016
          },
          {
            "number": 1,
            "time": 201.70971968750104,
            "value": 0.84251968503937
          },
          {
            "number": 1,
            "time": 201.76359898437605,
            "value": 0.8503937007874016
          },
          {
            "number": 1,
            "time": 201.85339781250104,
            "value": 0.8267716535433071
          },
          {
            "number": 1,
            "time": 201.89650125000105,
            "value": 0.8188976377952756
          },
          {
            "number": 1,
            "time": 201.93601273437605,
            "value": 0.8110236220472441
          },
          {
            "number": 1,
            "time": 201.95397250000104,
            "value": 0.7795275590551181
          },
          {
            "number": 1,
            "time": 201.98270812500104,
            "value": 0.7637795275590551
          },
          {
            "number": 1,
            "time": 202.00425984375104,
            "value": 0.7559055118110236
          },
          {
            "number": 1,
            "time": 202.02221960937604,
            "value": 0.7637795275590551
          },
          {
            "number": 1,
            "time": 202.06173109375104,
            "value": 0.7165354330708661
          },
          {
            "number": 1,
            "time": 202.09046671875103,
            "value": 0.6929133858267716
          },
          {
            "number": 1,
            "time": 202.16589773437602,
            "value": 0.7165354330708661
          },
          {
            "number": 1,
            "time": 202.20540921875102,
            "value": 0.7244094488188977
          },
          {
            "number": 1,
            "time": 202.223368984376,
            "value": 0.7086614173228346
          },
          {
            "number": 1,
            "time": 202.252104609376,
            "value": 0.7322834645669292
          },
          {
            "number": 1,
            "time": 202.273656328126,
            "value": 0.7401574803149606
          },
          {
            "number": 1,
            "time": 202.359863203126,
            "value": 0.7480314960629921
          },
          {
            "number": 1,
            "time": 202.385006875001,
            "value": 0.7559055118110236
          },
          {
            "number": 1,
            "time": 202.435294218751,
            "value": 0.7244094488188977
          },
          {
            "number": 1,
            "time": 202.453253984376,
            "value": 0.5433070866141733
          },
          {
            "number": 1,
            "time": 202.474805703126,
            "value": 0.5275590551181102
          },
          {
            "number": 1,
            "time": 202.492765468751,
            "value": 0.5196850393700787
          },
          {
            "number": 1,
            "time": 202.514317187501,
            "value": 0.5511811023622047
          },
          {
            "number": 1,
            "time": 202.532276953126,
            "value": 0.5590551181102362
          },
          {
            "number": 1,
            "time": 202.586156250001,
            "value": 0.5669291338582677
          },
          {
            "number": 1,
            "time": 202.625667734376,
            "value": 0.5590551181102362
          },
          {
            "number": 1,
            "time": 202.643627500001,
            "value": 0.5826771653543307
          },
          {
            "number": 1,
            "time": 202.672363125001,
            "value": 0.5590551181102362
          },
          {
            "number": 1,
            "time": 202.693914843751,
            "value": 0.4251968503937008
          },
          {
            "number": 1,
            "time": 202.711874609376,
            "value": 0.4409448818897638
          },
          {
            "number": 1,
            "time": 202.733426328126,
            "value": 0.4566929133858268
          },
          {
            "number": 1,
            "time": 202.751386093751,
            "value": 0.4645669291338583
          },
          {
            "number": 1,
            "time": 202.772937812501,
            "value": 0.47244094488188976
          },
          {
            "number": 1,
            "time": 202.80167343750102,
            "value": 0.48031496062992124
          },
          {
            "number": 1,
            "time": 202.82681710937604,
            "value": 0.4881889763779528
          },
          {
            "number": 1,
            "time": 202.87351250000103,
            "value": 0.4645669291338583
          },
          {
            "number": 1,
            "time": 202.89506421875103,
            "value": 0.4566929133858268
          },
          {
            "number": 1,
            "time": 202.92379984375103,
            "value": 0.47244094488188976
          },
          {
            "number": 1,
            "time": 202.94175960937602,
            "value": 0.4409448818897638
          },
          {
            "number": 1,
            "time": 202.96331132812603,
            "value": 0.3937007874015748
          },
          {
            "number": 1,
            "time": 202.98127109375102,
            "value": 0.3779527559055118
          },
          {
            "number": 1,
            "time": 203.017190625001,
            "value": 0.2677165354330709
          },
          {
            "number": 1,
            "time": 203.03155843750102,
            "value": 0.23622047244094488
          },
          {
            "number": 1,
            "time": 203.05670210937603,
            "value": 0.1889763779527559
          },
          {
            "number": 1,
            "time": 203.07466187500103,
            "value": 0
          },
          {
            "number": 1,
            "time": 232.24132125000136,
            "value": 0
          }
        ],
        "7": [
          {
            "number": 7,
            "time": 0,
            "value": 0.6614173228346457
          },
          {
            "number": 7,
            "time": 231.89649375000135,
            "value": 0.7874015748031497
          }
        ],
        "10": [
          {
            "number": 10,
            "time": 0,
            "value": 0.5118110236220472
          },
          {
            "number": 10,
            "time": 232.58614875000137,
            "value": 0.5039370078740157
          }
        ],
        "11": [
          {
            "number": 11,
            "time": 232.93097625000138,
            "value": 1
          }
        ],
        "64": [
          {
            "number": 64,
            "time": 233.2758037500014,
            "value": 0
          }
        ],
        "91": [
          {
            "number": 91,
            "time": 10.089796328125,
            "value": 0.984251968503937
          },
          {
            "number": 91,
            "time": 233.7930450000014,
            "value": 0.31496062992125984
          }
        ],
        "93": [
          {
            "number": 93,
            "time": 10.089796328125,
            "value": 0.984251968503937
          },
          {
            "number": 93,
            "time": 234.3102862500014,
            "value": 0
          }
        ],
        "121": [
          {
            "number": 121,
            "time": 231.72408000000135,
            "value": 0
          }
        ],
        "123": [
          {
            "number": 123,
            "time": 235.68959625000142,
            "value": 0
          }
        ]
      },
      "instrument": ""
    },
    {
      "name": "Drum                ",
      "notes": [
        {
          "name": "E2",
          "midi": 40,
          "time": 34.30315234375,
          "velocity": 0.968503937007874,
          "duration": 0.017959765625001012
        },
        {
          "name": "E2",
          "midi": 40,
          "time": 34.321112109375,
          "velocity": 0.905511811023622,
          "duration": 0.10775859374999897
        },
        {
          "name": "E2",
          "midi": 40,
          "time": 34.658755703125,
          "velocity": 0.984251968503937,
          "duration": 0.08620687500000201
        },
        {
          "name": "E2",
          "midi": 40,
          "time": 34.838353359375006,
          "velocity": 0.937007874015748,
          "duration": 0.07543101562499999
        },
        {
          "name": "E2",
          "midi": 40,
          "time": 35.003583203125004,
          "velocity": 0.9921259842519685,
          "duration": 0.08261492187499897
        },
        {
          "name": "A2",
          "midi": 45,
          "time": 35.183180859375,
          "velocity": 0.968503937007874,
          "duration": 0.06106320312500202
        },
        {
          "name": "A2",
          "midi": 45,
          "time": 35.355594609375004,
          "velocity": 0.984251968503937,
          "duration": 0.06106320312500202
        },
        {
          "name": "G2",
          "midi": 43,
          "time": 35.52082445312501,
          "velocity": 0.952755905511811,
          "duration": 0.06465515624999796
        },
        {
          "name": "G2",
          "midi": 43,
          "time": 35.682462343750004,
          "velocity": 0.9921259842519685,
          "duration": 0.07543101562499999
        },
        {
          "name": "C2",
          "midi": 36,
          "time": 35.865651953125,
          "velocity": 0.952755905511811,
          "duration": 0.15445398437500302
        },
        {
          "name": "C#3",
          "midi": 49,
          "time": 35.894387578125006,
          "velocity": 0.9212598425196851,
          "duration": 0.03951148437499796
        },
        {
          "name": "C2",
          "midi": 36,
          "time": 36.210479453125004,
          "velocity": 0.937007874015748,
          "duration": 0.2873562499999949
        },
        {
          "name": "F#2",
          "midi": 42,
          "time": 36.228439218750005,
          "velocity": 0.8740157480314961,
          "duration": 0.046695390624996946
        },
        {
          "name": "F#2",
          "midi": 42,
          "time": 36.551715,
          "velocity": 0.889763779527559,
          "duration": 0.05747125000000608
        },
        {
          "name": "E2",
          "midi": 40,
          "time": 36.555306953125005,
          "velocity": 0.937007874015748,
          "duration": 0.255028671875003
        },
        {
          "name": "F#2",
          "midi": 42,
          "time": 36.882174687500004,
          "velocity": 0.7086614173228346,
          "duration": 0.053879296875003035
        },
        {
          "name": "F#2",
          "midi": 42,
          "time": 37.227002187500005,
          "velocity": 0.889763779527559,
          "duration": 0.05387929687499593
        },
        {
          "name": "C2",
          "midi": 36,
          "time": 37.234186093750004,
          "velocity": 0.968503937007874,
          "duration": 0.32686773437499994
        },
        {
          "name": "F#2",
          "midi": 42,
          "time": 37.586197500000004,
          "velocity": 0.7086614173228346,
          "duration": 0.05028734374999999
        },
        {
          "name": "C2",
          "midi": 36,
          "time": 37.75142734375,
          "velocity": 0.937007874015748,
          "duration": 0.1795976562499959
        },
        {
          "name": "F#2",
          "midi": 42,
          "time": 37.9166571875,
          "velocity": 0.8582677165354331,
          "duration": 0.05387929687499593
        },
        {
          "name": "C2",
          "midi": 36,
          "time": 38.107030703125,
          "velocity": 0.889763779527559,
          "duration": 0.143678125000001
        },
        {
          "name": "F#2",
          "midi": 42,
          "time": 38.257892734375,
          "velocity": 0.6850393700787402,
          "duration": 0.03232757812499898
        },
        {
          "name": "E2",
          "midi": 40,
          "time": 38.279444453124995,
          "velocity": 0.984251968503937,
          "duration": 0.33405164062500603
        },
        {
          "name": "F#2",
          "midi": 42,
          "time": 38.419530625,
          "velocity": 0.7795275590551181,
          "duration": 0.03232757812499898
        },
        {
          "name": "F#2",
          "midi": 42,
          "time": 38.62068,
          "velocity": 0.905511811023622,
          "duration": 0.05028734374999999
        },
        {
          "name": "C2",
          "midi": 36,
          "time": 38.624271953125,
          "velocity": 0.937007874015748,
          "duration": 0.2119252343749949
        },
        {
          "name": "C2",
          "midi": 36,
          "time": 38.969099453125,
          "velocity": 0.8582677165354331,
          "duration": 0.29454015625000096
        },
        {
          "name": "F#2",
          "midi": 42,
          "time": 38.969099453125,
          "velocity": 0.8110236220472441,
          "duration": 0.053879296875003035
        },
        {
          "name": "E2",
          "midi": 40,
          "time": 39.313926953125,
          "velocity": 0.984251968503937,
          "duration": 0.25862062500000604
        },
        {
          "name": "F#2",
          "midi": 42,
          "time": 39.3247028125,
          "velocity": 0.889763779527559,
          "duration": 0.053879296875003035
        },
        {
          "name": "F#2",
          "midi": 42,
          "time": 39.6551625,
          "velocity": 0.7086614173228346,
          "duration": 0.03232757812499898
        },
        {
          "name": "F#2",
          "midi": 42,
          "time": 39.9856221875,
          "velocity": 0.84251968503937,
          "duration": 0.05387929687499593
        },
        {
          "name": "C2",
          "midi": 36,
          "time": 39.99999,
          "velocity": 0.952755905511811,
          "duration": 0.2909482031249979
        },
        {
          "name": "F#2",
          "midi": 42,
          "time": 40.3448175,
          "velocity": 0.7086614173228346,
          "duration": 0.03951148437499796
        },
        {
          "name": "C2",
          "midi": 36,
          "time": 40.517231249999995,
          "velocity": 0.905511811023622,
          "duration": 0.1544539843749959
        },
        {
          "name": "F#2",
          "midi": 42,
          "time": 40.53878296874999,
          "velocity": 0.889763779527559,
          "duration": 0.046695390624996946
        },
        {
          "name": "C2",
          "midi": 36,
          "time": 40.86565070312499,
          "velocity": 0.968503937007874,
          "duration": 0.211925234375002
        },
        {
          "name": "F#2",
          "midi": 42,
          "time": 41.03447249999999,
          "velocity": 0.889763779527559,
          "duration": 0.03951148437499796
        },
        {
          "name": "C2",
          "midi": 36,
          "time": 41.382891953125,
          "velocity": 0.952755905511811,
          "duration": 0.12571835937499998
        },
        {
          "name": "C#3",
          "midi": 49,
          "time": 41.411627578125,
          "velocity": 0.905511811023622,
          "duration": 0.03951148437499796
        },
        {
          "name": "C2",
          "midi": 36,
          "time": 41.727719453125,
          "velocity": 0.937007874015748,
          "duration": 0.2658045312499979
        },
        {
          "name": "F#2",
          "midi": 42,
          "time": 41.763638984375,
          "velocity": 0.8110236220472441,
          "duration": 0.046695390624996946
        },
        {
          "name": "E2",
          "midi": 40,
          "time": 42.072546953125,
          "velocity": 0.937007874015748,
          "duration": 0.28376429687499893
        },
        {
          "name": "F#2",
          "midi": 42,
          "time": 42.108466484375,
          "velocity": 0.9212598425196851,
          "duration": 0.046695390624996946
        },
        {
          "name": "F#2",
          "midi": 42,
          "time": 42.43533421875,
          "velocity": 0.8110236220472441,
          "duration": 0.046695390624996946
        },
        {
          "name": "C2",
          "midi": 36,
          "time": 42.75142609375,
          "velocity": 0.937007874015748,
          "duration": 0.2873562499999949
        },
        {
          "name": "F#2",
          "midi": 42,
          "time": 42.772977812499995,
          "velocity": 0.84251968503937,
          "duration": 0.04310343750000101
        },
        {
          "name": "F#2",
          "midi": 42,
          "time": 43.10343749999999,
          "velocity": 0.8267716535433071,
          "duration": 0.03232757812499898
        },
        {
          "name": "C2",
          "midi": 36,
          "time": 43.27585124999999,
          "velocity": 0.9212598425196851,
          "duration": 0.16522984374999794
        },
        {
          "name": "F#2",
          "midi": 42,
          "time": 43.290219062499986,
          "velocity": 0.7795275590551181,
          "duration": 0.025143671874999995
        },
        {
          "name": "C2",
          "midi": 36,
          "time": 43.624270703124985,
          "velocity": 0.968503937007874,
          "duration": 0.211925234375002
        },
        {
          "name": "F#2",
          "midi": 42,
          "time": 43.63504656249999,
          "velocity": 0.937007874015748,
          "duration": 0.025143671874999995
        },
        {
          "name": "C2",
          "midi": 36,
          "time": 44.13791999999999,
          "velocity": 0.952755905511811,
          "duration": 0.10775859374999897
        },
        {
          "name": "C#3",
          "midi": 49,
          "time": 44.14151195312499,
          "velocity": 0.889763779527559,
          "duration": 0.046695390624996946
        },
        {
          "name": "C2",
          "midi": 36,
          "time": 44.47556359374999,
          "velocity": 0.9212598425196851,
          "duration": 0.25143671875000706
        },
        {
          "name": "F#2",
          "midi": 42,
          "time": 44.48633945312499,
          "velocity": 0.84251968503937,
          "duration": 0.053879296875003035
        },
        {
          "name": "E2",
          "midi": 40,
          "time": 44.82039109375,
          "velocity": 0.968503937007874,
          "duration": 0.25862062499999894
        },
        {
          "name": "F#2",
          "midi": 42,
          "time": 44.827574999999996,
          "velocity": 0.889763779527559,
          "duration": 0.068247109375001
        },
        {
          "name": "F#2",
          "midi": 42,
          "time": 45.16521859375,
          "velocity": 0.7795275590551181,
          "duration": 0.05028734374999999
        },
        {
          "name": "C2",
          "midi": 36,
          "time": 45.51004609375,
          "velocity": 0.905511811023622,
          "duration": 0.29454015625000096
        },
        {
          "name": "F#2",
          "midi": 42,
          "time": 45.51004609375,
          "velocity": 0.8740157480314961,
          "duration": 0.06465515624999796
        },
        {
          "name": "F#2",
          "midi": 42,
          "time": 45.85487359375,
          "velocity": 0.7086614173228346,
          "duration": 0.035919531250002024
        },
        {
          "name": "C2",
          "midi": 36,
          "time": 46.027287343750004,
          "velocity": 0.937007874015748,
          "duration": 0.14367812499999388
        },
        {
          "name": "F#2",
          "midi": 42,
          "time": 46.03447125,
          "velocity": 0.7952755905511811,
          "duration": 0.03951148437499796
        },
        {
          "name": "C2",
          "midi": 36,
          "time": 46.37211484375,
          "velocity": 0.968503937007874,
          "duration": 0.2981321093749969
        },
        {
          "name": "F#2",
          "midi": 42,
          "time": 46.37211484375,
          "velocity": 0.8582677165354331,
          "duration": 0.046695390624996946
        },
        {
          "name": "C2",
          "midi": 36,
          "time": 46.900131953125,
          "velocity": 0.9212598425196851,
          "duration": 0.15445398437500302
        },
        {
          "name": "C#3",
          "midi": 49,
          "time": 46.900131953125,
          "velocity": 0.905511811023622,
          "duration": 0.035919531250002024
        },
        {
          "name": "C2",
          "midi": 36,
          "time": 47.244959453125,
          "velocity": 0.9212598425196851,
          "duration": 0.2478447656249969
        },
        {
          "name": "F#2",
          "midi": 42,
          "time": 47.244959453125,
          "velocity": 0.8582677165354331,
          "duration": 0.046695390624996946
        },
        {
          "name": "E2",
          "midi": 40,
          "time": 47.58978695312499,
          "velocity": 0.937007874015748,
          "duration": 0.305316015625003
        },
        {
          "name": "F#2",
          "midi": 42,
          "time": 47.58978695312499,
          "velocity": 0.84251968503937,
          "duration": 0.053879296875003035
        },
        {
          "name": "F#2",
          "midi": 42,
          "time": 47.93461445312499,
          "velocity": 0.7952755905511811,
          "duration": 0.06465515624999796
        },
        {
          "name": "C2",
          "midi": 36,
          "time": 48.26866609374999,
          "velocity": 0.937007874015748,
          "duration": 0.27658039062500706
        },
        {
          "name": "F#2",
          "midi": 42,
          "time": 48.279441953124994,
          "velocity": 0.8582677165354331,
          "duration": 0.053879296875003035
        },
        {
          "name": "F#2",
          "midi": 42,
          "time": 48.61349359375,
          "velocity": 0.84251968503937,
          "duration": 0.06465515624999796
        },
        {
          "name": "C2",
          "midi": 36,
          "time": 48.78590734375,
          "velocity": 0.968503937007874,
          "duration": 0.18318960937499895
        },
        {
          "name": "F#2",
          "midi": 42,
          "time": 48.958321093749994,
          "velocity": 0.84251968503937,
          "duration": 0.06465515625000506
        },
        {
          "name": "C2",
          "midi": 36,
          "time": 49.141510703125,
          "velocity": 0.889763779527559,
          "duration": 0.11494249999999795
        },
        {
          "name": "F#2",
          "midi": 42,
          "time": 49.295964687499996,
          "velocity": 0.6771653543307087,
          "duration": 0.05387929687499593
        },
        {
          "name": "E2",
          "midi": 40,
          "time": 49.310332499999994,
          "velocity": 0.968503937007874,
          "duration": 0.30172406249999995
        },
        {
          "name": "C2",
          "midi": 36,
          "time": 49.65875195312499,
          "velocity": 0.937007874015748,
          "duration": 0.15086203124999997
        },
        {
          "name": "F#2",
          "midi": 42,
          "time": 49.65875195312499,
          "velocity": 0.905511811023622,
          "duration": 0.053879296875003035
        },
        {
          "name": "F#2",
          "midi": 42,
          "time": 49.99280359374999,
          "velocity": 0.6692913385826772,
          "duration": 0.05028734374999999
        },
        {
          "name": "C2",
          "midi": 36,
          "time": 50.00357945312499,
          "velocity": 0.937007874015748,
          "duration": 0.2298849999999959
        },
        {
          "name": "E2",
          "midi": 40,
          "time": 50.33763109374999,
          "velocity": 0.9212598425196851,
          "duration": 0.265804531250005
        },
        {
          "name": "F#2",
          "midi": 42,
          "time": 50.34840695312499,
          "velocity": 0.889763779527559,
          "duration": 0.053879296875003035
        },
        {
          "name": "F#2",
          "midi": 42,
          "time": 50.6896425,
          "velocity": 0.7637795275590551,
          "duration": 0.03951148437499796
        },
        {
          "name": "C2",
          "midi": 36,
          "time": 51.02728609374999,
          "velocity": 0.9212598425196851,
          "duration": 0.29454015625000096
        },
        {
          "name": "F#2",
          "midi": 42,
          "time": 51.03446999999999,
          "velocity": 0.8740157480314961,
          "duration": 0.05028734374999999
        },
        {
          "name": "F#2",
          "midi": 42,
          "time": 51.372113593749994,
          "velocity": 0.7086614173228346,
          "duration": 0.03951148437499796
        },
        {
          "name": "C2",
          "midi": 36,
          "time": 51.54452734374999,
          "velocity": 0.9212598425196851,
          "duration": 0.1795976562499959
        },
        {
          "name": "F#2",
          "midi": 42,
          "time": 51.71694109374999,
          "velocity": 0.8267716535433071,
          "duration": 0.05028734374999999
        },
        {
          "name": "C2",
          "midi": 36,
          "time": 51.889354843749985,
          "velocity": 0.8582677165354331,
          "duration": 0.136494218750002
        },
        {
          "name": "E2",
          "midi": 40,
          "time": 52.05458468749999,
          "velocity": 0.937007874015748,
          "duration": 0.3412355468749979
        },
        {
          "name": "F#2",
          "midi": 42,
          "time": 52.05458468749999,
          "velocity": 0.6771653543307087,
          "duration": 0.046695390624996946
        },
        {
          "name": "F#2",
          "midi": 42,
          "time": 52.40659609374999,
          "velocity": 0.8582677165354331,
          "duration": 0.06465515624999796
        },
        {
          "name": "C2",
          "midi": 36,
          "time": 52.41377999999999,
          "velocity": 0.9212598425196851,
          "duration": 0.30890796874999893
        },
        {
          "name": "F#2",
          "midi": 42,
          "time": 52.744239687499984,
          "velocity": 0.7007874015748031,
          "duration": 0.04310343750000101
        },
        {
          "name": "C2",
          "midi": 36,
          "time": 52.93461320312498,
          "velocity": 0.889763779527559,
          "duration": 0.13290226562499896
        },
        {
          "name": "E2",
          "midi": 40,
          "time": 53.096251093749984,
          "velocity": 0.968503937007874,
          "duration": 0.47054585937500093
        },
        {
          "name": "F#2",
          "midi": 42,
          "time": 53.096251093749984,
          "velocity": 0.8267716535433071,
          "duration": 0.05028734374999999
        },
        {
          "name": "F#2",
          "midi": 42,
          "time": 53.441078593749985,
          "velocity": 0.5826771653543307,
          "duration": 0.035919531250002024
        },
        {
          "name": "F#2",
          "midi": 42,
          "time": 53.785906093749986,
          "velocity": 0.8267716535433071,
          "duration": 0.05028734374999999
        },
        {
          "name": "C2",
          "midi": 36,
          "time": 53.79668195312499,
          "velocity": 0.952755905511811,
          "duration": 0.2873562499999949
        },
        {
          "name": "F#2",
          "midi": 42,
          "time": 54.13073359374998,
          "velocity": 0.5433070866141733,
          "duration": 0.02873562500000304
        },
        {
          "name": "C2",
          "midi": 36,
          "time": 54.303147343749984,
          "velocity": 0.905511811023622,
          "duration": 0.19396546874999387
        },
        {
          "name": "F#2",
          "midi": 42,
          "time": 54.47556109374998,
          "velocity": 0.8740157480314961,
          "duration": 0.06465515624999796
        },
        {
          "name": "C2",
          "midi": 36,
          "time": 54.64797484374998,
          "velocity": 0.8267716535433071,
          "duration": 0.12571835937499998
        },
        {
          "name": "E2",
          "midi": 40,
          "time": 54.820388593749975,
          "velocity": 0.952755905511811,
          "duration": 0.3160918749999979
        },
        {
          "name": "F#2",
          "midi": 42,
          "time": 54.820388593749975,
          "velocity": 0.6377952755905512,
          "duration": 0.03951148437499796
        },
        {
          "name": "C2",
          "midi": 36,
          "time": 55.15803218749997,
          "velocity": 0.905511811023622,
          "duration": 0.3053160156249959
        },
        {
          "name": "F#2",
          "midi": 42,
          "time": 55.17239999999997,
          "velocity": 0.889763779527559,
          "duration": 0.05028734374999999
        },
        {
          "name": "F#2",
          "midi": 42,
          "time": 55.51004359374996,
          "velocity": 0.7086614173228346,
          "duration": 0.05028734374999999
        },
        {
          "name": "C2",
          "midi": 36,
          "time": 55.68245734374996,
          "velocity": 0.8267716535433071,
          "duration": 0.13290226562499896
        },
        {
          "name": "E2",
          "midi": 40,
          "time": 55.84768718749996,
          "velocity": 0.968503937007874,
          "duration": 0.3591953124999989
        },
        {
          "name": "F#2",
          "midi": 42,
          "time": 55.854871093749956,
          "velocity": 0.905511811023622,
          "duration": 0.05028734374999999
        },
        {
          "name": "F#2",
          "midi": 42,
          "time": 56.206882499999956,
          "velocity": 0.5196850393700787,
          "duration": 0.03232757812499898
        },
        {
          "name": "C2",
          "midi": 36,
          "time": 56.54452609374996,
          "velocity": 0.8740157480314961,
          "duration": 0.36278726562500196
        },
        {
          "name": "F#2",
          "midi": 42,
          "time": 56.54452609374996,
          "velocity": 0.889763779527559,
          "duration": 0.05028734374999999
        },
        {
          "name": "F#2",
          "midi": 42,
          "time": 56.90012945312496,
          "velocity": 0.7322834645669292,
          "duration": 0.035919531250002024
        },
        {
          "name": "C2",
          "midi": 36,
          "time": 57.06176734374996,
          "velocity": 0.8582677165354331,
          "duration": 0.20114937499999996
        },
        {
          "name": "F#2",
          "midi": 42,
          "time": 57.24495695312496,
          "velocity": 0.889763779527559,
          "duration": 0.053879296875003035
        },
        {
          "name": "C2",
          "midi": 36,
          "time": 57.417370703124966,
          "velocity": 0.84251968503937,
          "duration": 0.10416664062500303
        },
        {
          "name": "E2",
          "midi": 40,
          "time": 57.58619249999997,
          "velocity": 0.968503937007874,
          "duration": 0.32686773437499994
        },
        {
          "name": "F#2",
          "midi": 42,
          "time": 57.59696835937497,
          "velocity": 0.7480314960629921,
          "duration": 0.05028734374999999
        },
        {
          "name": "C2",
          "midi": 36,
          "time": 57.934611953124964,
          "velocity": 0.889763779527559,
          "duration": 0.27658039062499995
        },
        {
          "name": "F#2",
          "midi": 42,
          "time": 57.934611953124964,
          "velocity": 0.8110236220472441,
          "duration": 0.068247109375001
        },
        {
          "name": "F#2",
          "midi": 42,
          "time": 58.27584749999996,
          "velocity": 0.6771653543307087,
          "duration": 0.03951148437499796
        },
        {
          "name": "C2",
          "midi": 36,
          "time": 58.44107734374996,
          "velocity": 0.7244094488188977,
          "duration": 0.13290226562499896
        },
        {
          "name": "E2",
          "midi": 40,
          "time": 58.61349109374996,
          "velocity": 0.952755905511811,
          "duration": 0.3232757812499969
        },
        {
          "name": "F#2",
          "midi": 42,
          "time": 58.62426695312496,
          "velocity": 0.9212598425196851,
          "duration": 0.03951148437499796
        },
        {
          "name": "F#2",
          "midi": 42,
          "time": 58.96550249999996,
          "velocity": 0.6771653543307087,
          "duration": 0.03951148437499796
        },
        {
          "name": "C2",
          "midi": 36,
          "time": 59.29596218749995,
          "velocity": 0.8740157480314961,
          "duration": 0.29454015625000096
        },
        {
          "name": "F#2",
          "midi": 42,
          "time": 59.313921953124954,
          "velocity": 0.889763779527559,
          "duration": 0.06465515624999796
        },
        {
          "name": "F#2",
          "midi": 42,
          "time": 59.658749453124955,
          "velocity": 0.5669291338582677,
          "duration": 0.035919531250002024
        },
        {
          "name": "C2",
          "midi": 36,
          "time": 59.82038734374996,
          "velocity": 0.8267716535433071,
          "duration": 0.211925234375002
        },
        {
          "name": "F#2",
          "midi": 42,
          "time": 60.003576953124956,
          "velocity": 0.84251968503937,
          "duration": 0.06465515625000506
        },
        {
          "name": "C2",
          "midi": 36,
          "time": 60.16521484374996,
          "velocity": 0.8110236220472441,
          "duration": 0.11494249999999795
        },
        {
          "name": "E2",
          "midi": 40,
          "time": 60.337628593749955,
          "velocity": 0.952755905511811,
          "duration": 0.33764359375000197
        },
        {
          "name": "F#2",
          "midi": 42,
          "time": 60.34840445312496,
          "velocity": 0.6141732283464567,
          "duration": 0.046695390624996946
        },
        {
          "name": "C2",
          "midi": 36,
          "time": 60.682456093749956,
          "velocity": 0.9212598425196851,
          "duration": 0.305316015625003
        },
        {
          "name": "F#2",
          "midi": 42,
          "time": 60.69323195312496,
          "velocity": 0.889763779527559,
          "duration": 0.06465515624999796
        },
        {
          "name": "F#2",
          "midi": 42,
          "time": 61.034467499999955,
          "velocity": 0.7086614173228346,
          "duration": 0.03951148437499796
        },
        {
          "name": "C2",
          "midi": 36,
          "time": 61.20688124999995,
          "velocity": 0.8267716535433071,
          "duration": 0.14727007812499693
        },
        {
          "name": "E2",
          "midi": 40,
          "time": 61.37211109374995,
          "velocity": 0.984251968503937,
          "duration": 0.380747031250003
        },
        {
          "name": "F#2",
          "midi": 42,
          "time": 61.37929499999995,
          "velocity": 0.8582677165354331,
          "duration": 0.05028734374999999
        },
        {
          "name": "F#2",
          "midi": 42,
          "time": 61.71693859374995,
          "velocity": 0.5511811023622047,
          "duration": 0.06465515625000506
        },
        {
          "name": "F#2",
          "midi": 42,
          "time": 62.06894999999996,
          "velocity": 0.8740157480314961,
          "duration": 0.05747125000000608
        },
        {
          "name": "C2",
          "midi": 36,
          "time": 62.07254195312496,
          "velocity": 0.905511811023622,
          "duration": 0.27658039062499995
        },
        {
          "name": "F#2",
          "midi": 42,
          "time": 62.41377749999996,
          "velocity": 0.6141732283464567,
          "duration": 0.057471249999998975
        },
        {
          "name": "C2",
          "midi": 36,
          "time": 62.57182343749996,
          "velocity": 0.7480314960629921,
          "duration": 0.19037351562499794
        },
        {
          "name": "F#2",
          "midi": 42,
          "time": 62.762196953124956,
          "velocity": 0.889763779527559,
          "duration": 0.057471249999998975
        },
        {
          "name": "C2",
          "midi": 36,
          "time": 62.92383484374996,
          "velocity": 0.8267716535433071,
          "duration": 0.10775859374999897
        },
        {
          "name": "E2",
          "midi": 40,
          "time": 63.096248593749955,
          "velocity": 0.968503937007874,
          "duration": 0.34482750000000095
        },
        {
          "name": "F#2",
          "midi": 42,
          "time": 63.103432499999954,
          "velocity": 0.7086614173228346,
          "duration": 0.05028734374999999
        },
        {
          "name": "C2",
          "midi": 36,
          "time": 63.441076093749956,
          "velocity": 0.937007874015748,
          "duration": 0.280172343750003
        },
        {
          "name": "F#2",
          "midi": 42,
          "time": 63.45185195312496,
          "velocity": 0.8740157480314961,
          "duration": 0.057471249999998975
        },
        {
          "name": "F#2",
          "midi": 42,
          "time": 63.78590359374996,
          "velocity": 0.6535433070866141,
          "duration": 0.046695390624996946
        },
        {
          "name": "C2",
          "midi": 36,
          "time": 63.969093203124956,
          "velocity": 0.84251968503937,
          "duration": 0.12212640625000404
        },
        {
          "name": "E2",
          "midi": 40,
          "time": 64.13073109374996,
          "velocity": 0.984251968503937,
          "duration": 0.40229875000001414
        },
        {
          "name": "F#2",
          "midi": 42,
          "time": 64.13791499999996,
          "velocity": 0.9212598425196851,
          "duration": 0.03951148437499796
        },
        {
          "name": "F#2",
          "midi": 42,
          "time": 64.48633445312497,
          "velocity": 0.6692913385826772,
          "duration": 0.04669539062500405
        },
        {
          "name": "F#2",
          "midi": 42,
          "time": 64.82756999999997,
          "velocity": 0.7952755905511811,
          "duration": 0.05747124999999187
        },
        {
          "name": "C2",
          "midi": 36,
          "time": 64.83116195312496,
          "velocity": 0.889763779527559,
          "duration": 0.2658045312499979
        },
        {
          "name": "F#2",
          "midi": 42,
          "time": 65.17239749999996,
          "velocity": 0.6850393700787402,
          "duration": 0.05028734374999999
        },
        {
          "name": "C2",
          "midi": 36,
          "time": 65.33762734374996,
          "velocity": 0.8740157480314961,
          "duration": 0.19396546875000809
        },
        {
          "name": "F#2",
          "midi": 42,
          "time": 65.51004109374996,
          "velocity": 0.889763779527559,
          "duration": 0.06465515624999796
        },
        {
          "name": "C2",
          "midi": 36,
          "time": 65.69323070312495,
          "velocity": 0.8582677165354331,
          "duration": 0.09698273437500404
        },
        {
          "name": "E2",
          "midi": 40,
          "time": 65.85486859374996,
          "velocity": 0.984251968503937,
          "duration": 0.35201140624999994
        },
        {
          "name": "F#2",
          "midi": 42,
          "time": 65.86564445312496,
          "velocity": 0.7637795275590551,
          "duration": 0.03951148437499796
        },
        {
          "name": "C2",
          "midi": 36,
          "time": 66.19969609374995,
          "velocity": 0.968503937007874,
          "duration": 0.287356250000002
        },
        {
          "name": "F#2",
          "midi": 42,
          "time": 66.21047195312495,
          "velocity": 0.8740157480314961,
          "duration": 0.0682471093749939
        },
        {
          "name": "F#2",
          "midi": 42,
          "time": 66.54452359374996,
          "velocity": 0.7795275590551181,
          "duration": 0.05028734374999999
        },
        {
          "name": "C2",
          "midi": 36,
          "time": 66.71693734374996,
          "velocity": 0.889763779527559,
          "duration": 0.12212640625000404
        },
        {
          "name": "E2",
          "midi": 40,
          "time": 66.88935109374997,
          "velocity": 0.9921259842519685,
          "duration": 0.38074703124999587
        },
        {
          "name": "F#2",
          "midi": 42,
          "time": 66.88935109374997,
          "velocity": 0.8110236220472441,
          "duration": 0.05028734374999999
        },
        {
          "name": "F#2",
          "midi": 42,
          "time": 67.22699468749997,
          "velocity": 0.7086614173228346,
          "duration": 0.07183906249998984
        },
        {
          "name": "F#2",
          "midi": 42,
          "time": 67.57900609374995,
          "velocity": 0.84251968503937,
          "duration": 0.05028734374999999
        },
        {
          "name": "C2",
          "midi": 36,
          "time": 67.58978195312496,
          "velocity": 0.937007874015748,
          "duration": 0.24784476562500402
        },
        {
          "name": "F#2",
          "midi": 42,
          "time": 67.91664968749996,
          "velocity": 0.7795275590551181,
          "duration": 0.05387929687499593
        },
        {
          "name": "C2",
          "midi": 36,
          "time": 68.08906343749995,
          "velocity": 0.8267716535433071,
          "duration": 0.1975574218749898
        },
        {
          "name": "F#2",
          "midi": 42,
          "time": 68.26866109374994,
          "velocity": 0.7322834645669292,
          "duration": 0.06465515624999796
        },
        {
          "name": "C2",
          "midi": 36,
          "time": 68.44107484374994,
          "velocity": 0.84251968503937,
          "duration": 0.12212640625000404
        },
        {
          "name": "E2",
          "midi": 40,
          "time": 68.60630468749994,
          "velocity": 0.968503937007874,
          "duration": 0.373563125000004
        },
        {
          "name": "F#2",
          "midi": 42,
          "time": 68.61348859374995,
          "velocity": 0.7795275590551181,
          "duration": 0.05028734374999999
        },
        {
          "name": "C2",
          "midi": 36,
          "time": 68.95831609374994,
          "velocity": 0.9212598425196851,
          "duration": 0.3089079687499918
        },
        {
          "name": "F#2",
          "midi": 42,
          "time": 68.96909195312494,
          "velocity": 0.8740157480314961,
          "duration": 0.05387929687499593
        },
        {
          "name": "F#2",
          "midi": 42,
          "time": 69.30314359374994,
          "velocity": 0.6771653543307087,
          "duration": 0.06465515624999796
        },
        {
          "name": "C2",
          "midi": 36,
          "time": 69.47555734374994,
          "velocity": 0.8740157480314961,
          "duration": 0.15086203124999997
        },
        {
          "name": "E2",
          "midi": 40,
          "time": 69.64078718749994,
          "velocity": 0.968503937007874,
          "duration": 0.4310343750000101
        },
        {
          "name": "F#2",
          "midi": 42,
          "time": 69.64797109374994,
          "velocity": 0.8740157480314961,
          "duration": 0.06465515624999796
        },
        {
          "name": "F#2",
          "midi": 42,
          "time": 69.98561468749995,
          "velocity": 0.6456692913385826,
          "duration": 0.05387929687499593
        },
        {
          "name": "C2",
          "midi": 36,
          "time": 70.33762609374995,
          "velocity": 0.905511811023622,
          "duration": 0.298132109375004
        },
        {
          "name": "F#2",
          "midi": 42,
          "time": 70.33762609374995,
          "velocity": 0.8582677165354331,
          "duration": 0.05028734374999999
        },
        {
          "name": "F#2",
          "midi": 42,
          "time": 70.67526968749995,
          "velocity": 0.6771653543307087,
          "duration": 0.05387929687499593
        },
        {
          "name": "C2",
          "midi": 36,
          "time": 70.84768343749994,
          "velocity": 0.8267716535433071,
          "duration": 0.20114937499999996
        },
        {
          "name": "F#2",
          "midi": 42,
          "time": 71.02728109374993,
          "velocity": 0.8267716535433071,
          "duration": 0.06824710937500811
        },
        {
          "name": "C2",
          "midi": 36,
          "time": 71.19251093749995,
          "velocity": 0.8267716535433071,
          "duration": 0.11135054687500201
        },
        {
          "name": "E2",
          "midi": 40,
          "time": 71.36492468749995,
          "velocity": 0.952755905511811,
          "duration": 0.359195312500006
        },
        {
          "name": "F#2",
          "midi": 42,
          "time": 71.37210859374996,
          "velocity": 0.7322834645669292,
          "duration": 0.05028734374999999
        },
        {
          "name": "C2",
          "midi": 36,
          "time": 71.71693609374995,
          "velocity": 0.937007874015748,
          "duration": 0.298132109375004
        },
        {
          "name": "F#2",
          "midi": 42,
          "time": 71.72411999999996,
          "velocity": 0.8267716535433071,
          "duration": 0.05028734374999999
        },
        {
          "name": "F#2",
          "midi": 42,
          "time": 72.06176359374996,
          "velocity": 0.7244094488188977,
          "duration": 0.05028734374999999
        },
        {
          "name": "C2",
          "midi": 36,
          "time": 72.22699343749996,
          "velocity": 0.8582677165354331,
          "duration": 0.13290226562500607
        },
        {
          "name": "E2",
          "midi": 40,
          "time": 72.39940718749996,
          "velocity": 0.952755905511811,
          "duration": 0.4669539062499979
        },
        {
          "name": "F#2",
          "midi": 42,
          "time": 72.41377499999996,
          "velocity": 0.889763779527559,
          "duration": 0.05747125000000608
        },
        {
          "name": "F#2",
          "midi": 42,
          "time": 72.75141859374996,
          "velocity": 0.7952755905511811,
          "duration": 0.05028734374999999
        },
        {
          "name": "C2",
          "midi": 36,
          "time": 73.08906218749996,
          "velocity": 0.9212598425196851,
          "duration": 0.3053160156250101
        },
        {
          "name": "F#2",
          "midi": 42,
          "time": 73.10342999999996,
          "velocity": 0.8110236220472441,
          "duration": 0.05747125000000608
        },
        {
          "name": "F#2",
          "midi": 42,
          "time": 73.44825749999997,
          "velocity": 0.7637795275590551,
          "duration": 0.05028734374999999
        },
        {
          "name": "C2",
          "midi": 36,
          "time": 73.60630343749997,
          "velocity": 0.8267716535433071,
          "duration": 0.19755742187500402
        },
        {
          "name": "F#2",
          "midi": 42,
          "time": 73.79308499999998,
          "velocity": 0.84251968503937,
          "duration": 0.05747125000000608
        },
        {
          "name": "C2",
          "midi": 36,
          "time": 73.95113093749998,
          "velocity": 0.84251968503937,
          "duration": 0.09339078124999389
        },
        {
          "name": "E2",
          "midi": 40,
          "time": 74.12354468749997,
          "velocity": 0.952755905511811,
          "duration": 0.36997117187499384
        },
        {
          "name": "F#2",
          "midi": 42,
          "time": 74.13072859374998,
          "velocity": 0.7637795275590551,
          "duration": 0.03951148437499796
        },
        {
          "name": "C2",
          "midi": 36,
          "time": 74.47555609374997,
          "velocity": 0.937007874015748,
          "duration": 0.2801723437499959
        },
        {
          "name": "C#3",
          "midi": 49,
          "time": 74.49351585937497,
          "velocity": 0.8740157480314961,
          "duration": 0.03951148437499796
        },
        {
          "name": "F#2",
          "midi": 42,
          "time": 74.82756749999997,
          "velocity": 0.7637795275590551,
          "duration": 0.05747125000000608
        },
        {
          "name": "C2",
          "midi": 36,
          "time": 74.98561343749998,
          "velocity": 0.8582677165354331,
          "duration": 0.12931031249999592
        },
        {
          "name": "E2",
          "midi": 40,
          "time": 75.15802718749997,
          "velocity": 0.952755905511811,
          "duration": 0.45617804687499586
        },
        {
          "name": "F#2",
          "midi": 42,
          "time": 75.17598695312496,
          "velocity": 0.8582677165354331,
          "duration": 0.0682471093749939
        },
        {
          "name": "F#2",
          "midi": 42,
          "time": 75.51003859374995,
          "velocity": 0.8267716535433071,
          "duration": 0.05747125000000608
        },
        {
          "name": "C2",
          "midi": 36,
          "time": 75.84768218749997,
          "velocity": 0.9212598425196851,
          "duration": 0.28376429687500604
        },
        {
          "name": "F#2",
          "midi": 42,
          "time": 75.85486609374998,
          "velocity": 0.8110236220472441,
          "duration": 0.06465515624999796
        },
        {
          "name": "F#2",
          "midi": 42,
          "time": 76.19250968749998,
          "velocity": 0.7322834645669292,
          "duration": 0.05387929687499593
        },
        {
          "name": "C2",
          "midi": 36,
          "time": 76.37210734374997,
          "velocity": 0.968503937007874,
          "duration": 0.14367812499999388
        },
        {
          "name": "F#2",
          "midi": 42,
          "time": 76.38288320312498,
          "velocity": 0.8267716535433071,
          "duration": 0.05387929687499593
        },
        {
          "name": "C2",
          "midi": 36,
          "time": 76.71693484374997,
          "velocity": 0.984251968503937,
          "duration": 0.15445398437501012
        },
        {
          "name": "F#2",
          "midi": 42,
          "time": 76.72411874999997,
          "velocity": 0.9212598425196851,
          "duration": 0.03951148437499796
        },
        {
          "name": "C2",
          "midi": 36,
          "time": 77.25213585937497,
          "velocity": 0.968503937007874,
          "duration": 0.287356250000002
        },
        {
          "name": "C#3",
          "midi": 49,
          "time": 77.25213585937497,
          "velocity": 0.984251968503937,
          "duration": 0.05747125000000608
        },
        {
          "name": "F#2",
          "midi": 42,
          "time": 77.59696335937498,
          "velocity": 0.6456692913385826,
          "duration": 0.0682471093749939
        },
        {
          "name": "C2",
          "midi": 36,
          "time": 77.75141734374998,
          "velocity": 0.84251968503937,
          "duration": 0.12212640625000404
        },
        {
          "name": "E2",
          "midi": 40,
          "time": 77.92383109374998,
          "velocity": 0.952755905511811,
          "duration": 0.25862062499999183
        },
        {
          "name": "F#2",
          "midi": 42,
          "time": 77.94179085937498,
          "velocity": 0.8110236220472441,
          "duration": 0.07543101562499999
        },
        {
          "name": "F#2",
          "midi": 42,
          "time": 78.26865859374998,
          "velocity": 0.7480314960629921,
          "duration": 0.08620687500000201
        },
        {
          "name": "C2",
          "midi": 36,
          "time": 78.61348609374998,
          "velocity": 0.8740157480314961,
          "duration": 0.2658045312499979
        },
        {
          "name": "F#2",
          "midi": 42,
          "time": 78.61348609374998,
          "velocity": 0.8267716535433071,
          "duration": 0.0682471093749939
        },
        {
          "name": "F#2",
          "midi": 42,
          "time": 78.95112968749999,
          "velocity": 0.8267716535433071,
          "duration": 0.06465515625001217
        },
        {
          "name": "E2",
          "midi": 40,
          "time": 78.95831359374999,
          "velocity": 0.937007874015748,
          "duration": 0.17959765625001012
        },
        {
          "name": "C#3",
          "midi": 49,
          "time": 79.1235434375,
          "velocity": 0.937007874015748,
          "duration": 0.05747124999999187
        },
        {
          "name": "C2",
          "midi": 36,
          "time": 79.13791125,
          "velocity": 0.905511811023622,
          "duration": 0.18678156249998779
        },
        {
          "name": "C2",
          "midi": 36,
          "time": 79.49351460937498,
          "velocity": 0.8740157480314961,
          "duration": 0.14367812499999388
        },
        {
          "name": "C2",
          "midi": 36,
          "time": 79.83115820312497,
          "velocity": 0.7795275590551181,
          "duration": 0.04669539062500405
        },
        {
          "name": "C2",
          "midi": 36,
          "time": 80.00357195312498,
          "velocity": 0.984251968503937,
          "duration": 0.287356250000002
        },
        {
          "name": "C#3",
          "midi": 49,
          "time": 80.01075585937498,
          "velocity": 0.968503937007874,
          "duration": 0.0682471093749939
        },
        {
          "name": "F#2",
          "midi": 42,
          "time": 80.34839945312498,
          "velocity": 0.905511811023622,
          "duration": 0.05387929687499593
        },
        {
          "name": "C2",
          "midi": 36,
          "time": 80.51003734374999,
          "velocity": 0.8582677165354331,
          "duration": 0.15086203124999997
        },
        {
          "name": "E2",
          "midi": 40,
          "time": 80.68245109374999,
          "velocity": 0.952755905511811,
          "duration": 0.29454015624999386
        },
        {
          "name": "F#2",
          "midi": 42,
          "time": 80.70041085937498,
          "velocity": 0.9212598425196851,
          "duration": 0.05747125000000608
        },
        {
          "name": "F#2",
          "midi": 42,
          "time": 81.03805445312499,
          "velocity": 0.905511811023622,
          "duration": 0.05387929687499593
        },
        {
          "name": "F#2",
          "midi": 42,
          "time": 81.37210609374998,
          "velocity": 0.9212598425196851,
          "duration": 0.05028734374999999
        },
        {
          "name": "E2",
          "midi": 40,
          "time": 81.37928999999998,
          "velocity": 0.9212598425196851,
          "duration": 0.16522984374999794
        },
        {
          "name": "G2",
          "midi": 43,
          "time": 81.71693359374999,
          "velocity": 0.84251968503937,
          "duration": 0.15445398437501012
        },
        {
          "name": "F#2",
          "midi": 42,
          "time": 81.71693359374999,
          "velocity": 0.952755905511811,
          "duration": 0.04669539062500405
        },
        {
          "name": "C#3",
          "midi": 49,
          "time": 81.8821634375,
          "velocity": 0.952755905511811,
          "duration": 0.07183906250000405
        },
        {
          "name": "C2",
          "midi": 36,
          "time": 81.88934734375,
          "velocity": 0.889763779527559,
          "duration": 0.19396546874999387
        },
        {
          "name": "C2",
          "midi": 36,
          "time": 82.23417484375,
          "velocity": 0.889763779527559,
          "duration": 0.1544539843749959
        },
        {
          "name": "C2",
          "midi": 36,
          "time": 82.57900234374999,
          "velocity": 0.7952755905511811,
          "duration": 0.03951148437499796
        },
        {
          "name": "C2",
          "midi": 36,
          "time": 82.75141609375,
          "velocity": 0.9921259842519685,
          "duration": 0.03951148437499796
        },
        {
          "name": "C#3",
          "midi": 49,
          "time": 82.762191953125,
          "velocity": 1,
          "duration": 0.03951148437499796
        },
        {
          "name": "C2",
          "midi": 36,
          "time": 82.790927578125,
          "velocity": 0.968503937007874,
          "duration": 0.22629304687501417
        },
        {
          "name": "A#2",
          "midi": 46,
          "time": 82.934605703125,
          "velocity": 0.7952755905511811,
          "duration": 0.05747125000000608
        },
        {
          "name": "G#2",
          "midi": 44,
          "time": 83.107019453125,
          "velocity": 0.7244094488188977,
          "duration": 0.07543101562499999
        },
        {
          "name": "A#2",
          "midi": 46,
          "time": 83.27943320312501,
          "velocity": 0.8267716535433071,
          "duration": 0.05747125000000608
        },
        {
          "name": "G#2",
          "midi": 44,
          "time": 83.45184695312501,
          "velocity": 0.7637795275590551,
          "duration": 0.05747125000000608
        },
        {
          "name": "A#2",
          "midi": 46,
          "time": 83.62426070312502,
          "velocity": 0.7637795275590551,
          "duration": 0.06465515624999796
        },
        {
          "name": "G#2",
          "midi": 44,
          "time": 83.79667445312502,
          "velocity": 0.7637795275590551,
          "duration": 0.05387929687499593
        },
        {
          "name": "A#2",
          "midi": 46,
          "time": 83.96908820312501,
          "velocity": 0.7795275590551181,
          "duration": 0.04669539062500405
        },
        {
          "name": "G#2",
          "midi": 44,
          "time": 84.13072609375001,
          "velocity": 0.7244094488188977,
          "duration": 0.06465515624999796
        },
        {
          "name": "A#2",
          "midi": 46,
          "time": 84.30313984375002,
          "velocity": 0.7322834645669292,
          "duration": 0.05028734374999999
        },
        {
          "name": "G#2",
          "midi": 44,
          "time": 84.47555359375002,
          "velocity": 0.7637795275590551,
          "duration": 0.05028734374999999
        },
        {
          "name": "A#2",
          "midi": 46,
          "time": 84.65515125000002,
          "velocity": 0.8582677165354331,
          "duration": 0.05028734374999999
        },
        {
          "name": "G#2",
          "midi": 44,
          "time": 84.83115695312502,
          "velocity": 0.7480314960629921,
          "duration": 0.05747125000000608
        },
        {
          "name": "A#2",
          "midi": 46,
          "time": 85.00357070312502,
          "velocity": 0.7795275590551181,
          "duration": 0.05387929687499593
        },
        {
          "name": "G#2",
          "midi": 44,
          "time": 85.17598445312501,
          "velocity": 0.7086614173228346,
          "duration": 0.05387929687499593
        },
        {
          "name": "A#2",
          "midi": 46,
          "time": 85.34480625,
          "velocity": 0.8110236220472441,
          "duration": 0.05028734374999999
        },
        {
          "name": "C#4",
          "midi": 61,
          "time": 85.51722000000001,
          "velocity": 0.5826771653543307,
          "duration": 0.08979882812501216
        },
        {
          "name": "G#2",
          "midi": 44,
          "time": 85.51722000000001,
          "velocity": 0.7637795275590551,
          "duration": 0.05747125000000608
        },
        {
          "name": "E4",
          "midi": 64,
          "time": 85.67526593750001,
          "velocity": 0.4881889763779528,
          "duration": 0.10057468749998577
        },
        {
          "name": "A#2",
          "midi": 46,
          "time": 85.69322570312501,
          "velocity": 0.7480314960629921,
          "duration": 0.0682471093749939
        },
        {
          "name": "D#4",
          "midi": 63,
          "time": 85.836903828125,
          "velocity": 0.5905511811023622,
          "duration": 0.09339078124999389
        },
        {
          "name": "G#2",
          "midi": 44,
          "time": 85.865639453125,
          "velocity": 0.6850393700787402,
          "duration": 0.06465515624999796
        },
        {
          "name": "D4",
          "midi": 62,
          "time": 85.987765859375,
          "velocity": 0.44881889763779526,
          "duration": 0.12571835937499998
        },
        {
          "name": "A#2",
          "midi": 46,
          "time": 86.038053203125,
          "velocity": 0.7480314960629921,
          "duration": 0.0682471093749939
        },
        {
          "name": "C#4",
          "midi": 61,
          "time": 86.160179609375,
          "velocity": 0.5590551181102362,
          "duration": 0.10416664062501013
        },
        {
          "name": "G#2",
          "midi": 44,
          "time": 86.210466953125,
          "velocity": 0.7086614173228346,
          "duration": 0.04669539062500405
        },
        {
          "name": "E4",
          "midi": 64,
          "time": 86.37210484375002,
          "velocity": 0.5669291338582677,
          "duration": 0.07543101562499999
        },
        {
          "name": "A#2",
          "midi": 46,
          "time": 86.38288070312502,
          "velocity": 0.8110236220472441,
          "duration": 0.05387929687499593
        },
        {
          "name": "G#2",
          "midi": 44,
          "time": 86.55529445312503,
          "velocity": 0.7322834645669292,
          "duration": 0.05387929687499593
        },
        {
          "name": "D4",
          "midi": 62,
          "time": 86.71693234375003,
          "velocity": 0.6692913385826772,
          "duration": 0.09339078124999389
        },
        {
          "name": "A#2",
          "midi": 46,
          "time": 86.72770820312503,
          "velocity": 0.8582677165354331,
          "duration": 0.05387929687499593
        },
        {
          "name": "C#4",
          "midi": 61,
          "time": 86.86061046875002,
          "velocity": 0.6062992125984252,
          "duration": 0.10775859374999186
        },
        {
          "name": "G#2",
          "midi": 44,
          "time": 86.90012195312502,
          "velocity": 0.7795275590551181,
          "duration": 0.05387929687499593
        },
        {
          "name": "E4",
          "midi": 64,
          "time": 87.03302421875001,
          "velocity": 0.5196850393700787,
          "duration": 0.0933907812500081
        },
        {
          "name": "A#2",
          "midi": 46,
          "time": 87.07253570312501,
          "velocity": 0.7952755905511811,
          "duration": 0.05747125000000608
        },
        {
          "name": "D#3",
          "midi": 51,
          "time": 87.07971960937502,
          "velocity": 0.6377952755905512,
          "duration": 0.07543101562499999
        },
        {
          "name": "D#4",
          "midi": 63,
          "time": 87.19466210937502,
          "velocity": 0.6299212598425197,
          "duration": 0.07902296874999593
        },
        {
          "name": "G#2",
          "midi": 44,
          "time": 87.24494945312502,
          "velocity": 0.7244094488188977,
          "duration": 0.04669539062498984
        },
        {
          "name": "D4",
          "midi": 62,
          "time": 87.367075859375,
          "velocity": 0.6062992125984252,
          "duration": 0.09698273437500404
        },
        {
          "name": "A#2",
          "midi": 46,
          "time": 87.41377125000001,
          "velocity": 0.8267716535433071,
          "duration": 0.06106320312500202
        },
        {
          "name": "C#4",
          "midi": 61,
          "time": 87.5430815625,
          "velocity": 0.6062992125984252,
          "duration": 0.10416664062501013
        },
        {
          "name": "G#2",
          "midi": 44,
          "time": 87.58977695312501,
          "velocity": 0.7795275590551181,
          "duration": 0.04669539062500405
        },
        {
          "name": "D#3",
          "midi": 51,
          "time": 87.67598382812501,
          "velocity": 0.84251968503937,
          "duration": 0.05747124999999187
        },
        {
          "name": "E4",
          "midi": 64,
          "time": 87.71549531250001,
          "velocity": 0.5354330708661418,
          "duration": 0.06465515624998375
        },
        {
          "name": "A#2",
          "midi": 46,
          "time": 87.762190703125,
          "velocity": 0.7952755905511811,
          "duration": 0.05387929687499593
        },
        {
          "name": "G#2",
          "midi": 44,
          "time": 87.93460445312499,
          "velocity": 0.7322834645669292,
          "duration": 0.03951148437499796
        },
        {
          "name": "D4",
          "midi": 62,
          "time": 88.07469062499999,
          "velocity": 0.5748031496062992,
          "duration": 0.08979882812501216
        },
        {
          "name": "A#2",
          "midi": 46,
          "time": 88.107018203125,
          "velocity": 0.84251968503937,
          "duration": 0.04669539062500405
        },
        {
          "name": "C#4",
          "midi": 61,
          "time": 88.221960703125,
          "velocity": 0.5748031496062992,
          "duration": 0.0933907812500081
        },
        {
          "name": "D#3",
          "midi": 51,
          "time": 88.247104375,
          "velocity": 0.7322834645669292,
          "duration": 0.04310343750000811
        },
        {
          "name": "G#2",
          "midi": 44,
          "time": 88.27943195312501,
          "velocity": 0.7637795275590551,
          "duration": 0.04669539062500405
        },
        {
          "name": "E4",
          "midi": 64,
          "time": 88.39437445312501,
          "velocity": 0.5118110236220472,
          "duration": 0.11494250000001216
        },
        {
          "name": "A#2",
          "midi": 46,
          "time": 88.45184570312502,
          "velocity": 0.8110236220472441,
          "duration": 0.05747125000000608
        },
        {
          "name": "D#4",
          "midi": 63,
          "time": 88.57756406250002,
          "velocity": 0.6141732283464567,
          "duration": 0.08261492187500608
        },
        {
          "name": "G#2",
          "midi": 44,
          "time": 88.62425945312502,
          "velocity": 0.7637795275590551,
          "duration": 0.05747125000000608
        },
        {
          "name": "D4",
          "midi": 62,
          "time": 88.74997781250002,
          "velocity": 0.5433070866141733,
          "duration": 0.09339078124999389
        },
        {
          "name": "A#2",
          "midi": 46,
          "time": 88.79308125000001,
          "velocity": 0.8267716535433071,
          "duration": 0.05028734374999999
        },
        {
          "name": "C#4",
          "midi": 61,
          "time": 88.91161570312501,
          "velocity": 0.5905511811023622,
          "duration": 0.10416664062501013
        },
        {
          "name": "G#2",
          "midi": 44,
          "time": 88.96908695312501,
          "velocity": 0.7480314960629921,
          "duration": 0.05387929687501014
        },
        {
          "name": "E4",
          "midi": 64,
          "time": 89.10198921875002,
          "velocity": 0.5118110236220472,
          "duration": 0.07543101562499999
        },
        {
          "name": "A#2",
          "midi": 46,
          "time": 89.14150070312502,
          "velocity": 0.7952755905511811,
          "duration": 0.05747124999999187
        },
        {
          "name": "D#3",
          "midi": 51,
          "time": 89.15227656250002,
          "velocity": 0.7322834645669292,
          "duration": 0.0431034374999939
        },
        {
          "name": "G#2",
          "midi": 44,
          "time": 89.31391445312501,
          "velocity": 0.7007874015748031,
          "duration": 0.05387929687499593
        },
        {
          "name": "D#3",
          "midi": 51,
          "time": 89.43963281250001,
          "velocity": 0.7637795275590551,
          "duration": 0.03591953124998781
        },
        {
          "name": "D4",
          "midi": 62,
          "time": 89.457592578125,
          "velocity": 0.5433070866141733,
          "duration": 0.10416664062499592
        },
        {
          "name": "A#2",
          "midi": 46,
          "time": 89.486328203125,
          "velocity": 0.8110236220472441,
          "duration": 0.05387929687499593
        },
        {
          "name": "C#4",
          "midi": 61,
          "time": 89.658741953125,
          "velocity": 0.5590551181102362,
          "duration": 0.0933907812500081
        },
        {
          "name": "G#2",
          "midi": 44,
          "time": 89.66592585937501,
          "velocity": 0.7637795275590551,
          "duration": 0.04669539062500405
        },
        {
          "name": "D#3",
          "midi": 51,
          "time": 89.67670171875001,
          "velocity": 0.7322834645669292,
          "duration": 0.04669539062500405
        },
        {
          "name": "E4",
          "midi": 64,
          "time": 89.82037984375,
          "velocity": 0.5039370078740157,
          "duration": 0.09339078124999389
        },
        {
          "name": "A#2",
          "midi": 46,
          "time": 89.838339609375,
          "velocity": 0.8110236220472441,
          "duration": 0.04669539062500405
        },
        {
          "name": "F3",
          "midi": 53,
          "time": 89.84911546875,
          "velocity": 0.7007874015748031,
          "duration": 0.08620687500000201
        },
        {
          "name": "D#4",
          "midi": 63,
          "time": 89.974833828125,
          "velocity": 0.5748031496062992,
          "duration": 0.08261492187500608
        },
        {
          "name": "G#2",
          "midi": 44,
          "time": 90.010753359375,
          "velocity": 0.7244094488188977,
          "duration": 0.04669539062500405
        },
        {
          "name": "D#3",
          "midi": 51,
          "time": 90.032305078125,
          "velocity": 0.7086614173228346,
          "duration": 0.03951148437499796
        },
        {
          "name": "D4",
          "midi": 62,
          "time": 90.16520734375,
          "velocity": 0.4645669291338583,
          "duration": 0.10416664062499592
        },
        {
          "name": "A#2",
          "midi": 46,
          "time": 90.18316710937499,
          "velocity": 0.8110236220472441,
          "duration": 0.04669539062500405
        },
        {
          "name": "C#4",
          "midi": 61,
          "time": 90.33762109374999,
          "velocity": 0.5669291338582677,
          "duration": 0.10416664062499592
        },
        {
          "name": "G#2",
          "midi": 44,
          "time": 90.35558085937498,
          "velocity": 0.7244094488188977,
          "duration": 0.04669539062500405
        },
        {
          "name": "D#3",
          "midi": 51,
          "time": 90.39509234374998,
          "velocity": 0.5590551181102362,
          "duration": 0.035919531250002024
        },
        {
          "name": "A#2",
          "midi": 46,
          "time": 90.52081070312498,
          "velocity": 0.7795275590551181,
          "duration": 0.06465515624999796
        },
        {
          "name": "D4",
          "midi": 62,
          "time": 90.53877046874997,
          "velocity": 0.5354330708661418,
          "duration": 0.06465515624999796
        },
        {
          "name": "G#2",
          "midi": 44,
          "time": 90.69322445312497,
          "velocity": 0.7244094488188977,
          "duration": 0.06465515625001217
        },
        {
          "name": "D#3",
          "midi": 51,
          "time": 90.70400031249997,
          "velocity": 0.6062992125984252,
          "duration": 0.04669539062500405
        },
        {
          "name": "D4",
          "midi": 62,
          "time": 90.85486234374999,
          "velocity": 0.47244094488188976,
          "duration": 0.07902296875001014
        },
        {
          "name": "A#2",
          "midi": 46,
          "time": 90.86563820312499,
          "velocity": 0.8267716535433071,
          "duration": 0.05747125000000608
        },
        {
          "name": "C#4",
          "midi": 61,
          "time": 91.005724375,
          "velocity": 0.5354330708661418,
          "duration": 0.10057468749999998
        },
        {
          "name": "D#3",
          "midi": 51,
          "time": 91.0200921875,
          "velocity": 0.6850393700787402,
          "duration": 0.04669539062500405
        },
        {
          "name": "G#2",
          "midi": 44,
          "time": 91.03446,
          "velocity": 0.7244094488188977,
          "duration": 0.06106320312500202
        },
        {
          "name": "E4",
          "midi": 64,
          "time": 91.14221859375,
          "velocity": 0.5433070866141733,
          "duration": 0.09339078124999389
        },
        {
          "name": "A#2",
          "midi": 46,
          "time": 91.20687375,
          "velocity": 0.7795275590551181,
          "duration": 0.06106320312500202
        },
        {
          "name": "B3",
          "midi": 59,
          "time": 91.20687375,
          "velocity": 0.6771653543307087,
          "duration": 0.10057468749999998
        },
        {
          "name": "D#4",
          "midi": 63,
          "time": 91.303856484375,
          "velocity": 0.5511811023622047,
          "duration": 0.0682471093749939
        },
        {
          "name": "G#2",
          "midi": 44,
          "time": 91.37210359375,
          "velocity": 0.7086614173228346,
          "duration": 0.05747124999999187
        },
        {
          "name": "D#3",
          "midi": 51,
          "time": 91.40083921875,
          "velocity": 0.6850393700787402,
          "duration": 0.05747124999999187
        },
        {
          "name": "D4",
          "midi": 62,
          "time": 91.47627023437498,
          "velocity": 0.5039370078740157,
          "duration": 0.08979882812499795
        },
        {
          "name": "A#2",
          "midi": 46,
          "time": 91.54451734374997,
          "velocity": 0.8110236220472441,
          "duration": 0.05028734374999999
        },
        {
          "name": "F3",
          "midi": 53,
          "time": 91.56606906249998,
          "velocity": 0.7086614173228346,
          "duration": 0.08261492187499186
        },
        {
          "name": "C#4",
          "midi": 61,
          "time": 91.65227593749997,
          "velocity": 0.5511811023622047,
          "duration": 0.07543101562499999
        },
        {
          "name": "G#2",
          "midi": 44,
          "time": 91.71693109374996,
          "velocity": 0.7244094488188977,
          "duration": 0.05747125000000608
        },
        {
          "name": "D#3",
          "midi": 51,
          "time": 91.73489085937497,
          "velocity": 0.6377952755905512,
          "duration": 0.05028734374999999
        },
        {
          "name": "D4",
          "midi": 62,
          "time": 91.82468968749997,
          "velocity": 0.4566929133858268,
          "duration": 0.06465515624999796
        },
        {
          "name": "B3",
          "midi": 59,
          "time": 91.87138507812497,
          "velocity": 0.5196850393700787,
          "duration": 0.0682471093749939
        },
        {
          "name": "A#2",
          "midi": 46,
          "time": 91.88934484374997,
          "velocity": 0.8267716535433071,
          "duration": 0.06465515624999796
        },
        {
          "name": "G#2",
          "midi": 44,
          "time": 92.06175859374997,
          "velocity": 0.7086614173228346,
          "duration": 0.05747125000000608
        },
        {
          "name": "D#3",
          "midi": 51,
          "time": 92.06894249999998,
          "velocity": 0.6377952755905512,
          "duration": 0.0431034374999939
        },
        {
          "name": "D4",
          "midi": 62,
          "time": 92.21262062499997,
          "velocity": 0.4566929133858268,
          "duration": 0.07183906249998984
        },
        {
          "name": "A#2",
          "midi": 46,
          "time": 92.24135624999997,
          "velocity": 0.8110236220472441,
          "duration": 0.05028734374999999
        },
        {
          "name": "B3",
          "midi": 59,
          "time": 92.24135624999997,
          "velocity": 0.5590551181102362,
          "duration": 0.06106320312500202
        },
        {
          "name": "C#4",
          "midi": 61,
          "time": 92.37066656249996,
          "velocity": 0.5984251968503937,
          "duration": 0.09339078124999389
        },
        {
          "name": "D#3",
          "midi": 51,
          "time": 92.39940218749996,
          "velocity": 0.5196850393700787,
          "duration": 0.05387929687499593
        },
        {
          "name": "G#2",
          "midi": 44,
          "time": 92.41736195312495,
          "velocity": 0.7795275590551181,
          "duration": 0.04669539062500405
        },
        {
          "name": "F3",
          "midi": 53,
          "time": 92.55744812499995,
          "velocity": 0.6377952755905512,
          "duration": 0.10057468749999998
        },
        {
          "name": "E4",
          "midi": 64,
          "time": 92.56822398437495,
          "velocity": 0.5590551181102362,
          "duration": 0.08979882812499795
        },
        {
          "name": "A#2",
          "midi": 46,
          "time": 92.58977570312496,
          "velocity": 0.7637795275590551,
          "duration": 0.05387929687499593
        },
        {
          "name": "D#4",
          "midi": 63,
          "time": 92.72986187499995,
          "velocity": 0.5984251968503937,
          "duration": 0.06824710937500811
        },
        {
          "name": "D#3",
          "midi": 51,
          "time": 92.74063773437496,
          "velocity": 0.6850393700787402,
          "duration": 0.06106320312500202
        },
        {
          "name": "G#2",
          "midi": 44,
          "time": 92.76218945312496,
          "velocity": 0.7637795275590551,
          "duration": 0.05387929687499593
        },
        {
          "name": "B3",
          "midi": 59,
          "time": 92.88431585937495,
          "velocity": 0.7637795275590551,
          "duration": 0.10775859375000607
        },
        {
          "name": "D4",
          "midi": 62,
          "time": 92.90227562499994,
          "velocity": 0.5118110236220472,
          "duration": 0.08979882812501216
        },
        {
          "name": "A#2",
          "midi": 46,
          "time": 92.93460320312495,
          "velocity": 0.84251968503937,
          "duration": 0.06465515625001217
        },
        {
          "name": "D#3",
          "midi": 51,
          "time": 93.07828132812496,
          "velocity": 0.6850393700787402,
          "duration": 0.05747125000000608
        },
        {
          "name": "C#4",
          "midi": 61,
          "time": 93.08546523437496,
          "velocity": 0.6062992125984252,
          "duration": 0.0682471093749939
        },
        {
          "name": "G#2",
          "midi": 44,
          "time": 93.11420085937496,
          "velocity": 0.7480314960629921,
          "duration": 0.03951148437499796
        },
        {
          "name": "D4",
          "midi": 62,
          "time": 93.24710312499995,
          "velocity": 0.4409448818897638,
          "duration": 0.05747124999999187
        },
        {
          "name": "F3",
          "midi": 53,
          "time": 93.26865484374996,
          "velocity": 0.6535433070866141,
          "duration": 0.06465515624998375
        },
        {
          "name": "A#2",
          "midi": 46,
          "time": 93.28661460937495,
          "velocity": 0.8110236220472441,
          "duration": 0.05028734374998578
        },
        {
          "name": "D#3",
          "midi": 51,
          "time": 93.43029273437493,
          "velocity": 0.5905511811023622,
          "duration": 0.05028734374999999
        },
        {
          "name": "G#2",
          "midi": 44,
          "time": 93.45902835937493,
          "velocity": 0.7795275590551181,
          "duration": 0.04669539062500405
        },
        {
          "name": "F3",
          "midi": 53,
          "time": 93.61348234374994,
          "velocity": 0.7795275590551181,
          "duration": 0.0682471093749939
        },
        {
          "name": "A#2",
          "midi": 46,
          "time": 93.63144210937493,
          "velocity": 0.8267716535433071,
          "duration": 0.05028734374999999
        },
        {
          "name": "D#3",
          "midi": 51,
          "time": 93.78589609374993,
          "velocity": 0.6456692913385826,
          "duration": 0.05747125000000608
        },
        {
          "name": "C#4",
          "midi": 61,
          "time": 93.79307999999993,
          "velocity": 0.5826771653543307,
          "duration": 0.08979882812499795
        },
        {
          "name": "G#2",
          "midi": 44,
          "time": 93.79307999999993,
          "velocity": 0.7244094488188977,
          "duration": 0.06106320312500202
        },
        {
          "name": "B3",
          "midi": 59,
          "time": 93.94035007812494,
          "velocity": 0.7480314960629921,
          "duration": 0.08620687500000201
        },
        {
          "name": "E4",
          "midi": 64,
          "time": 93.95112593749994,
          "velocity": 0.4881889763779528,
          "duration": 0.10057468749999998
        },
        {
          "name": "A#2",
          "midi": 46,
          "time": 93.96549374999994,
          "velocity": 0.7795275590551181,
          "duration": 0.06106320312500202
        },
        {
          "name": "D#4",
          "midi": 63,
          "time": 94.11276382812494,
          "velocity": 0.5905511811023622,
          "duration": 0.0933907812500081
        },
        {
          "name": "D#3",
          "midi": 51,
          "time": 94.11994773437495,
          "velocity": 0.5984251968503937,
          "duration": 0.06106320312500202
        },
        {
          "name": "G#2",
          "midi": 44,
          "time": 94.13072359374995,
          "velocity": 0.7086614173228346,
          "duration": 0.05747125000000608
        },
        {
          "name": "D4",
          "midi": 62,
          "time": 94.26362585937495,
          "velocity": 0.44881889763779526,
          "duration": 0.12571835937499998
        },
        {
          "name": "A#2",
          "midi": 46,
          "time": 94.30313734374995,
          "velocity": 0.8110236220472441,
          "duration": 0.05028734374999999
        },
        {
          "name": "F3",
          "midi": 53,
          "time": 94.30313734374995,
          "velocity": 0.7322834645669292,
          "duration": 0.07902296874999593
        },
        {
          "name": "C#4",
          "midi": 61,
          "time": 94.43603960937496,
          "velocity": 0.5590551181102362,
          "duration": 0.10416664062502434
        },
        {
          "name": "D#3",
          "midi": 51,
          "time": 94.46836718749996,
          "velocity": 0.5196850393700787,
          "duration": 0.05387929687501014
        },
        {
          "name": "G#2",
          "midi": 44,
          "time": 94.47555109374997,
          "velocity": 0.7244094488188977,
          "duration": 0.05747125000000608
        },
        {
          "name": "E4",
          "midi": 64,
          "time": 94.64796484374999,
          "velocity": 0.5669291338582677,
          "duration": 0.0754310156250142
        },
        {
          "name": "A#2",
          "midi": 46,
          "time": 94.64796484374999,
          "velocity": 0.8267716535433071,
          "duration": 0.06465515625001217
        },
        {
          "name": "F3",
          "midi": 53,
          "time": 94.65514875,
          "velocity": 0.7007874015748031,
          "duration": 0.06106320312500202
        },
        {
          "name": "G#2",
          "midi": 44,
          "time": 94.82037859375001,
          "velocity": 0.7086614173228346,
          "duration": 0.05747125000000608
        },
        {
          "name": "D#3",
          "midi": 51,
          "time": 94.82756250000001,
          "velocity": 0.47244094488188976,
          "duration": 0.0431034374999939
        },
        {
          "name": "F3",
          "midi": 53,
          "time": 94.98560843750002,
          "velocity": 0.5433070866141733,
          "duration": 0.0754310156250142
        },
        {
          "name": "D4",
          "midi": 62,
          "time": 94.99279234375003,
          "velocity": 0.6692913385826772,
          "duration": 0.0933907812500081
        },
        {
          "name": "A#2",
          "midi": 46,
          "time": 94.99997625000003,
          "velocity": 0.8110236220472441,
          "duration": 0.05028734374999999
        },
        {
          "name": "C#4",
          "midi": 61,
          "time": 95.13647046875003,
          "velocity": 0.6062992125984252,
          "duration": 0.10775859375000607
        },
        {
          "name": "G#2",
          "midi": 44,
          "time": 95.17598195312503,
          "velocity": 0.7795275590551181,
          "duration": 0.04669539062500405
        },
        {
          "name": "D#3",
          "midi": 51,
          "time": 95.18316585937504,
          "velocity": 0.5905511811023622,
          "duration": 0.03951148437499796
        },
        {
          "name": "E4",
          "midi": 64,
          "time": 95.30888421875004,
          "velocity": 0.5196850393700787,
          "duration": 0.09339078124999389
        },
        {
          "name": "B3",
          "midi": 59,
          "time": 95.34480375000004,
          "velocity": 0.7480314960629921,
          "duration": 0.0862068749999878
        },
        {
          "name": "A#2",
          "midi": 46,
          "time": 95.34839570312504,
          "velocity": 0.7637795275590551,
          "duration": 0.05387929687499593
        },
        {
          "name": "D#4",
          "midi": 63,
          "time": 95.47052210937503,
          "velocity": 0.6299212598425197,
          "duration": 0.07902296874999593
        },
        {
          "name": "G#2",
          "midi": 44,
          "time": 95.52080945312503,
          "velocity": 0.7637795275590551,
          "duration": 0.05387929687499593
        },
        {
          "name": "D#3",
          "midi": 51,
          "time": 95.52080945312503,
          "velocity": 0.5590551181102362,
          "duration": 0.04669539062498984
        },
        {
          "name": "D4",
          "midi": 62,
          "time": 95.64293585937502,
          "velocity": 0.6062992125984252,
          "duration": 0.09698273437500404
        },
        {
          "name": "A#2",
          "midi": 46,
          "time": 95.69322320312502,
          "velocity": 0.84251968503937,
          "duration": 0.06465515624999796
        },
        {
          "name": "F3",
          "midi": 53,
          "time": 95.69322320312502,
          "velocity": 0.5039370078740157,
          "duration": 0.07543101562499999
        },
        {
          "name": "C#4",
          "midi": 61,
          "time": 95.81894156250002,
          "velocity": 0.6062992125984252,
          "duration": 0.10416664062499592
        },
        {
          "name": "G#2",
          "midi": 44,
          "time": 95.87282085937501,
          "velocity": 0.7480314960629921,
          "duration": 0.03951148437499796
        },
        {
          "name": "D#3",
          "midi": 51,
          "time": 95.890780625,
          "velocity": 0.47244094488188976,
          "duration": 0.04310343750000811
        },
        {
          "name": "E4",
          "midi": 64,
          "time": 95.99135531250002,
          "velocity": 0.5354330708661418,
          "duration": 0.06465515624999796
        },
        {
          "name": "B3",
          "midi": 59,
          "time": 96.02727484375002,
          "velocity": 0.7795275590551181,
          "duration": 0.0862068749999878
        },
        {
          "name": "A#2",
          "midi": 46,
          "time": 96.04523460937502,
          "velocity": 0.8110236220472441,
          "duration": 0.05028734374999999
        },
        {
          "name": "G#2",
          "midi": 44,
          "time": 96.217648359375,
          "velocity": 0.7795275590551181,
          "duration": 0.04669539062500405
        },
        {
          "name": "D#3",
          "midi": 51,
          "time": 96.217648359375,
          "velocity": 0.6377952755905512,
          "duration": 0.05747125000000608
        },
        {
          "name": "D4",
          "midi": 62,
          "time": 96.35055062500001,
          "velocity": 0.5748031496062992,
          "duration": 0.08979882812499795
        },
        {
          "name": "A#2",
          "midi": 46,
          "time": 96.39006210937501,
          "velocity": 0.8267716535433071,
          "duration": 0.05028734374999999
        },
        {
          "name": "B3",
          "midi": 59,
          "time": 96.39006210937501,
          "velocity": 0.7795275590551181,
          "duration": 0.09698273437500404
        },
        {
          "name": "C#4",
          "midi": 61,
          "time": 96.49782070312502,
          "velocity": 0.5748031496062992,
          "duration": 0.09339078124999389
        },
        {
          "name": "G#2",
          "midi": 44,
          "time": 96.55170000000001,
          "velocity": 0.7637795275590551,
          "duration": 0.05747124999999187
        },
        {
          "name": "D#3",
          "midi": 51,
          "time": 96.580435625,
          "velocity": 0.5196850393700787,
          "duration": 0.03951148437499796
        },
        {
          "name": "E4",
          "midi": 64,
          "time": 96.670234453125,
          "velocity": 0.5118110236220472,
          "duration": 0.11494250000001216
        },
        {
          "name": "A#2",
          "midi": 46,
          "time": 96.72770570312501,
          "velocity": 0.7480314960629921,
          "duration": 0.06824710937500811
        },
        {
          "name": "F3",
          "midi": 53,
          "time": 96.73848156250001,
          "velocity": 0.8110236220472441,
          "duration": 0.9913790625000161
        },
        {
          "name": "D#4",
          "midi": 63,
          "time": 96.85342406250003,
          "velocity": 0.6141732283464567,
          "duration": 0.08261492187500608
        },
        {
          "name": "G#2",
          "midi": 44,
          "time": 96.90011945312503,
          "velocity": 0.6850393700787402,
          "duration": 0.06465515624999796
        },
        {
          "name": "D#3",
          "midi": 51,
          "time": 96.93603898437503,
          "velocity": 0.6141732283464567,
          "duration": 0.04669539062498984
        },
        {
          "name": "D4",
          "midi": 62,
          "time": 97.02583781250001,
          "velocity": 0.5433070866141733,
          "duration": 0.0933907812500081
        },
        {
          "name": "A#2",
          "midi": 46,
          "time": 97.07253320312502,
          "velocity": 0.7480314960629921,
          "duration": 0.06824710937500811
        },
        {
          "name": "B3",
          "midi": 59,
          "time": 97.08330906250002,
          "velocity": 0.7952755905511811,
          "duration": 0.07543101562499999
        },
        {
          "name": "C#4",
          "midi": 61,
          "time": 97.18747570312502,
          "velocity": 0.5905511811023622,
          "duration": 0.10416664062501013
        },
        {
          "name": "D#3",
          "midi": 51,
          "time": 97.23417109375002,
          "velocity": 0.5590551181102362,
          "duration": 0.05747125000000608
        },
        {
          "name": "G#2",
          "midi": 44,
          "time": 97.24494695312502,
          "velocity": 0.7086614173228346,
          "duration": 0.04669539062500405
        },
        {
          "name": "E4",
          "midi": 64,
          "time": 97.37784921875003,
          "velocity": 0.5118110236220472,
          "duration": 0.07543101562499999
        },
        {
          "name": "B3",
          "midi": 59,
          "time": 97.40658484375003,
          "velocity": 0.6456692913385826,
          "duration": 0.07543101562499999
        },
        {
          "name": "A#2",
          "midi": 46,
          "time": 97.41736070312503,
          "velocity": 0.8110236220472441,
          "duration": 0.05387929687499593
        },
        {
          "name": "D#3",
          "midi": 51,
          "time": 97.58618250000002,
          "velocity": 0.6456692913385826,
          "duration": 0.05028734374999999
        },
        {
          "name": "G#2",
          "midi": 44,
          "time": 97.58977445312502,
          "velocity": 0.7322834645669292,
          "duration": 0.05387929687501014
        },
        {
          "name": "F3",
          "midi": 53,
          "time": 97.72986062500003,
          "velocity": 0.7795275590551181,
          "duration": 0.07902296874999593
        },
        {
          "name": "D4",
          "midi": 62,
          "time": 97.73345257812502,
          "velocity": 0.5433070866141733,
          "duration": 0.10416664062501013
        },
        {
          "name": "A#2",
          "midi": 46,
          "time": 97.76218820312502,
          "velocity": 0.8582677165354331,
          "duration": 0.05387929687501014
        },
        {
          "name": "D#3",
          "midi": 51,
          "time": 97.89509046875004,
          "velocity": 0.5354330708661418,
          "duration": 0.05028734374999999
        },
        {
          "name": "C#4",
          "midi": 61,
          "time": 97.93460195312504,
          "velocity": 0.5590551181102362,
          "duration": 0.09339078124999389
        },
        {
          "name": "G#2",
          "midi": 44,
          "time": 97.93460195312504,
          "velocity": 0.7795275590551181,
          "duration": 0.05387929687499593
        },
        {
          "name": "F3",
          "midi": 53,
          "time": 98.07468812500004,
          "velocity": 0.84251968503937,
          "duration": 0.07183906250000405
        },
        {
          "name": "E4",
          "midi": 64,
          "time": 98.09623984375004,
          "velocity": 0.5039370078740157,
          "duration": 0.09339078124999389
        },
        {
          "name": "A#2",
          "midi": 46,
          "time": 98.10701570312504,
          "velocity": 0.7952755905511811,
          "duration": 0.05747124999999187
        },
        {
          "name": "D#4",
          "midi": 63,
          "time": 98.25069382812504,
          "velocity": 0.5748031496062992,
          "duration": 0.08261492187499186
        },
        {
          "name": "D#3",
          "midi": 51,
          "time": 98.25069382812504,
          "velocity": 0.6062992125984252,
          "duration": 0.05747124999999187
        },
        {
          "name": "G#2",
          "midi": 44,
          "time": 98.27942945312503,
          "velocity": 0.7244094488188977,
          "duration": 0.04669539062498984
        },
        {
          "name": "B3",
          "midi": 59,
          "time": 98.40514781250003,
          "velocity": 0.7086614173228346,
          "duration": 0.08261492187500608
        },
        {
          "name": "D4",
          "midi": 62,
          "time": 98.44106734375003,
          "velocity": 0.4645669291338583,
          "duration": 0.10416664062501013
        },
        {
          "name": "A#2",
          "midi": 46,
          "time": 98.44825125000004,
          "velocity": 0.8267716535433071,
          "duration": 0.06106320312500202
        },
        {
          "name": "C#4",
          "midi": 61,
          "time": 98.61348109375004,
          "velocity": 0.5669291338582677,
          "duration": 0.10416664062501013
        },
        {
          "name": "D#3",
          "midi": 51,
          "time": 98.62066500000005,
          "velocity": 0.6062992125984252,
          "duration": 0.0431034374999939
        },
        {
          "name": "G#2",
          "midi": 44,
          "time": 98.62425695312504,
          "velocity": 0.7795275590551181,
          "duration": 0.04669539062500405
        },
        {
          "name": "F3",
          "midi": 53,
          "time": 98.79307875000005,
          "velocity": 0.6299212598425197,
          "duration": 0.0682471093749939
        },
        {
          "name": "A#2",
          "midi": 46,
          "time": 98.79667070312505,
          "velocity": 0.7952755905511811,
          "duration": 0.05387929687499593
        },
        {
          "name": "D4",
          "midi": 62,
          "time": 98.81463046875004,
          "velocity": 0.5354330708661418,
          "duration": 0.06465515624999796
        },
        {
          "name": "D#3",
          "midi": 51,
          "time": 98.95112468750004,
          "velocity": 0.47244094488188976,
          "duration": 0.05747124999999187
        },
        {
          "name": "G#2",
          "midi": 44,
          "time": 98.96908445312503,
          "velocity": 0.7322834645669292,
          "duration": 0.03951148437499796
        },
        {
          "name": "D4",
          "midi": 62,
          "time": 99.13072234375004,
          "velocity": 0.47244094488188976,
          "duration": 0.07902296875001014
        },
        {
          "name": "F3",
          "midi": 53,
          "time": 99.13790625000004,
          "velocity": 0.6850393700787402,
          "duration": 0.07902296875001014
        },
        {
          "name": "A#2",
          "midi": 46,
          "time": 99.14149820312504,
          "velocity": 0.84251968503937,
          "duration": 0.04669539062500405
        },
        {
          "name": "C#4",
          "midi": 61,
          "time": 99.28158437500005,
          "velocity": 0.5354330708661418,
          "duration": 0.10057468750001419
        },
        {
          "name": "G#2",
          "midi": 44,
          "time": 99.31391195312506,
          "velocity": 0.7637795275590551,
          "duration": 0.04669539062500405
        },
        {
          "name": "D#3",
          "midi": 51,
          "time": 99.31391195312506,
          "velocity": 0.6535433070866141,
          "duration": 0.04669539062500405
        },
        {
          "name": "E4",
          "midi": 64,
          "time": 99.41807859375007,
          "velocity": 0.5433070866141733,
          "duration": 0.0933907812500081
        },
        {
          "name": "B3",
          "midi": 59,
          "time": 99.45399812500007,
          "velocity": 0.7322834645669292,
          "duration": 0.09698273437501825
        },
        {
          "name": "A#2",
          "midi": 46,
          "time": 99.48632570312508,
          "velocity": 0.8110236220472441,
          "duration": 0.05747125000000608
        },
        {
          "name": "D#4",
          "midi": 63,
          "time": 99.57971648437508,
          "velocity": 0.5511811023622047,
          "duration": 0.0682471093749939
        },
        {
          "name": "G#2",
          "midi": 44,
          "time": 99.65873945312508,
          "velocity": 0.7637795275590551,
          "duration": 0.05747124999999187
        },
        {
          "name": "D#3",
          "midi": 51,
          "time": 99.65873945312508,
          "velocity": 0.6141732283464567,
          "duration": 0.03951148437499796
        },
        {
          "name": "D4",
          "midi": 62,
          "time": 99.75213023437507,
          "velocity": 0.5039370078740157,
          "duration": 0.08979882812499795
        },
        {
          "name": "A#2",
          "midi": 46,
          "time": 99.82756125000007,
          "velocity": 0.8267716535433071,
          "duration": 0.05028734374999999
        },
        {
          "name": "F3",
          "midi": 53,
          "time": 99.82756125000007,
          "velocity": 0.6535433070866141,
          "duration": 0.0682471093749939
        },
        {
          "name": "C#4",
          "midi": 61,
          "time": 99.92813593750007,
          "velocity": 0.5511811023622047,
          "duration": 0.07543101562499999
        },
        {
          "name": "D#3",
          "midi": 51,
          "time": 99.99997500000008,
          "velocity": 0.5039370078740157,
          "duration": 0.06106320312498781
        },
        {
          "name": "G#2",
          "midi": 44,
          "time": 100.00356695312507,
          "velocity": 0.7480314960629921,
          "duration": 0.05387929687499593
        },
        {
          "name": "D4",
          "midi": 62,
          "time": 100.10054968750006,
          "velocity": 0.4566929133858268,
          "duration": 0.06465515624999796
        },
        {
          "name": "A#2",
          "midi": 46,
          "time": 100.17598070312506,
          "velocity": 0.7952755905511811,
          "duration": 0.05747125000000608
        },
        {
          "name": "F3",
          "midi": 53,
          "time": 100.17598070312506,
          "velocity": 0.7244094488188977,
          "duration": 0.06465515625001217
        },
        {
          "name": "D#3",
          "midi": 51,
          "time": 100.33043468750007,
          "velocity": 0.7244094488188977,
          "duration": 0.06465515624999796
        },
        {
          "name": "G#2",
          "midi": 44,
          "time": 100.34839445312507,
          "velocity": 0.7007874015748031,
          "duration": 0.05387929687501014
        },
        {
          "name": "D4",
          "midi": 62,
          "time": 100.48848062500008,
          "velocity": 0.4566929133858268,
          "duration": 0.07183906250000405
        },
        {
          "name": "F3",
          "midi": 53,
          "time": 100.51003234375008,
          "velocity": 0.8110236220472441,
          "duration": 0.06465515624999796
        },
        {
          "name": "A#2",
          "midi": 46,
          "time": 100.52080820312509,
          "velocity": 0.8110236220472441,
          "duration": 0.05387929687499593
        },
        {
          "name": "C#4",
          "midi": 61,
          "time": 100.64652656250009,
          "velocity": 0.5984251968503937,
          "duration": 0.0933907812500081
        },
        {
          "name": "D#3",
          "midi": 51,
          "time": 100.69322195312509,
          "velocity": 0.7086614173228346,
          "duration": 0.05387929687501014
        },
        {
          "name": "G#2",
          "midi": 44,
          "time": 100.7004058593751,
          "velocity": 0.7637795275590551,
          "duration": 0.04669539062500405
        },
        {
          "name": "E4",
          "midi": 64,
          "time": 100.8440839843751,
          "velocity": 0.5590551181102362,
          "duration": 0.08979882812499795
        },
        {
          "name": "B3",
          "midi": 59,
          "time": 100.8440839843751,
          "velocity": 0.6771653543307087,
          "duration": 0.0682471093749939
        },
        {
          "name": "A#2",
          "midi": 46,
          "time": 100.8728196093751,
          "velocity": 0.8110236220472441,
          "duration": 0.04669539062500405
        },
        {
          "name": "D#4",
          "midi": 63,
          "time": 101.0057218750001,
          "velocity": 0.5984251968503937,
          "duration": 0.0682471093749939
        },
        {
          "name": "D#3",
          "midi": 51,
          "time": 101.02727359375011,
          "velocity": 0.5984251968503937,
          "duration": 0.05028734374998578
        },
        {
          "name": "G#2",
          "midi": 44,
          "time": 101.0452333593751,
          "velocity": 0.7244094488188977,
          "duration": 0.04669539062498984
        },
        {
          "name": "D4",
          "midi": 62,
          "time": 101.1781356250001,
          "velocity": 0.5118110236220472,
          "duration": 0.08979882812499795
        },
        {
          "name": "F3",
          "midi": 53,
          "time": 101.1889114843751,
          "velocity": 0.5669291338582677,
          "duration": 0.07902296874999593
        },
        {
          "name": "A#2",
          "midi": 46,
          "time": 101.2176471093751,
          "velocity": 0.8110236220472441,
          "duration": 0.04669539062500405
        },
        {
          "name": "C#4",
          "midi": 61,
          "time": 101.36132523437509,
          "velocity": 0.6062992125984252,
          "duration": 0.0682471093749939
        },
        {
          "name": "D#3",
          "midi": 51,
          "time": 101.36491718750008,
          "velocity": 0.6062992125984252,
          "duration": 0.05387929687499593
        },
        {
          "name": "G#2",
          "midi": 44,
          "time": 101.39006085937508,
          "velocity": 0.7244094488188977,
          "duration": 0.04669539062500405
        },
        {
          "name": "F3",
          "midi": 53,
          "time": 101.50859531250009,
          "velocity": 0.6062992125984252,
          "duration": 0.04669539062500405
        },
        {
          "name": "D4",
          "midi": 62,
          "time": 101.52296312500009,
          "velocity": 0.4409448818897638,
          "duration": 0.05747125000000608
        },
        {
          "name": "A#2",
          "midi": 46,
          "time": 101.5552907031251,
          "velocity": 0.7795275590551181,
          "duration": 0.06465515624999796
        },
        {
          "name": "G#2",
          "midi": 44,
          "time": 101.7277044531251,
          "velocity": 0.7244094488188977,
          "duration": 0.06465515624999796
        },
        {
          "name": "D#3",
          "midi": 51,
          "time": 101.7277044531251,
          "velocity": 0.5984251968503937,
          "duration": 0.04669539062500405
        },
        {
          "name": "B3",
          "midi": 59,
          "time": 101.8821584375001,
          "velocity": 0.7480314960629921,
          "duration": 0.07543101562499999
        },
        {
          "name": "A#2",
          "midi": 46,
          "time": 101.90011820312509,
          "velocity": 0.8267716535433071,
          "duration": 0.05747125000000608
        },
        {
          "name": "C#4",
          "midi": 61,
          "time": 102.0689400000001,
          "velocity": 0.5826771653543307,
          "duration": 0.08979882812498374
        },
        {
          "name": "G#2",
          "midi": 44,
          "time": 102.0689400000001,
          "velocity": 0.7244094488188977,
          "duration": 0.06106320312498781
        },
        {
          "name": "D#3",
          "midi": 51,
          "time": 102.0833078125001,
          "velocity": 0.6377952755905512,
          "duration": 0.0431034374999939
        },
        {
          "name": "E4",
          "midi": 64,
          "time": 102.22698593750007,
          "velocity": 0.4881889763779528,
          "duration": 0.10057468749999998
        },
        {
          "name": "A#2",
          "midi": 46,
          "time": 102.24135375000007,
          "velocity": 0.7795275590551181,
          "duration": 0.06106320312500202
        },
        {
          "name": "F3",
          "midi": 53,
          "time": 102.25212960937507,
          "velocity": 0.7244094488188977,
          "duration": 0.05747125000000608
        },
        {
          "name": "D#4",
          "midi": 63,
          "time": 102.38862382812508,
          "velocity": 0.5905511811023622,
          "duration": 0.0933907812500081
        },
        {
          "name": "G#2",
          "midi": 44,
          "time": 102.40658359375007,
          "velocity": 0.7086614173228346,
          "duration": 0.05747125000000608
        },
        {
          "name": "D#3",
          "midi": 51,
          "time": 102.41735945312507,
          "velocity": 0.6062992125984252,
          "duration": 0.05387929687501014
        },
        {
          "name": "D4",
          "midi": 62,
          "time": 102.53948585937509,
          "velocity": 0.44881889763779526,
          "duration": 0.12571835937499998
        },
        {
          "name": "A#2",
          "midi": 46,
          "time": 102.57899734375009,
          "velocity": 0.8110236220472441,
          "duration": 0.05028734374999999
        },
        {
          "name": "F3",
          "midi": 53,
          "time": 102.60773296875008,
          "velocity": 0.5984251968503937,
          "duration": 0.05747125000000608
        },
        {
          "name": "C#4",
          "midi": 61,
          "time": 102.7118996093751,
          "velocity": 0.5590551181102362,
          "duration": 0.10416664062501013
        },
        {
          "name": "G#2",
          "midi": 44,
          "time": 102.7514110937501,
          "velocity": 0.7244094488188977,
          "duration": 0.05747125000000608
        },
        {
          "name": "D#3",
          "midi": 51,
          "time": 102.7729628125001,
          "velocity": 0.5984251968503937,
          "duration": 0.04310343750000811
        },
        {
          "name": "E4",
          "midi": 64,
          "time": 102.92382484375011,
          "velocity": 0.5669291338582677,
          "duration": 0.07543101562499999
        },
        {
          "name": "A#2",
          "midi": 46,
          "time": 102.92382484375011,
          "velocity": 0.8267716535433071,
          "duration": 0.06465515624999796
        },
        {
          "name": "F3",
          "midi": 53,
          "time": 102.9417846093751,
          "velocity": 0.5984251968503937,
          "duration": 0.06824710937500811
        },
        {
          "name": "G#2",
          "midi": 44,
          "time": 103.09623859375012,
          "velocity": 0.7086614173228346,
          "duration": 0.05747124999999187
        },
        {
          "name": "D#3",
          "midi": 51,
          "time": 103.13575007812511,
          "velocity": 0.5826771653543307,
          "duration": 0.03951148437499796
        },
        {
          "name": "D4",
          "midi": 62,
          "time": 103.2686523437501,
          "velocity": 0.6692913385826772,
          "duration": 0.0933907812500081
        },
        {
          "name": "A#2",
          "midi": 46,
          "time": 103.27583625000011,
          "velocity": 0.8110236220472441,
          "duration": 0.05028734374999999
        },
        {
          "name": "B3",
          "midi": 59,
          "time": 103.28661210937511,
          "velocity": 0.7480314960629921,
          "duration": 0.0682471093749939
        },
        {
          "name": "C#4",
          "midi": 61,
          "time": 103.41233046875011,
          "velocity": 0.6062992125984252,
          "duration": 0.10775859374999186
        },
        {
          "name": "G#2",
          "midi": 44,
          "time": 103.45184195312511,
          "velocity": 0.7795275590551181,
          "duration": 0.04669539062500405
        },
        {
          "name": "D#3",
          "midi": 51,
          "time": 103.47698562500011,
          "velocity": 0.5748031496062992,
          "duration": 0.03951148437499796
        },
        {
          "name": "E4",
          "midi": 64,
          "time": 103.5847442187501,
          "velocity": 0.5196850393700787,
          "duration": 0.09339078124999389
        },
        {
          "name": "F3",
          "midi": 53,
          "time": 103.6134798437501,
          "velocity": 0.5748031496062992,
          "duration": 0.0682471093749939
        },
        {
          "name": "A#2",
          "midi": 46,
          "time": 103.6242557031251,
          "velocity": 0.7637795275590551,
          "duration": 0.05387929687499593
        },
        {
          "name": "D#4",
          "midi": 63,
          "time": 103.74638210937509,
          "velocity": 0.6299212598425197,
          "duration": 0.07902296874999593
        },
        {
          "name": "D#3",
          "midi": 51,
          "time": 103.7930775000001,
          "velocity": 0.5511811023622047,
          "duration": 0.03951148437499796
        },
        {
          "name": "G#2",
          "midi": 44,
          "time": 103.79666945312509,
          "velocity": 0.7637795275590551,
          "duration": 0.05387929687499593
        },
        {
          "name": "D4",
          "midi": 62,
          "time": 103.91879585937508,
          "velocity": 0.6062992125984252,
          "duration": 0.09698273437498983
        },
        {
          "name": "A#2",
          "midi": 46,
          "time": 103.96908320312508,
          "velocity": 0.84251968503937,
          "duration": 0.06465515624998375
        },
        {
          "name": "F3",
          "midi": 53,
          "time": 103.98704296875007,
          "velocity": 0.6299212598425197,
          "duration": 0.05028734374998578
        },
        {
          "name": "C#4",
          "midi": 61,
          "time": 104.09480156250007,
          "velocity": 0.6062992125984252,
          "duration": 0.10416664062499592
        },
        {
          "name": "G#2",
          "midi": 44,
          "time": 104.14868085937506,
          "velocity": 0.7480314960629921,
          "duration": 0.03951148437499796
        },
        {
          "name": "D#3",
          "midi": 51,
          "time": 104.14868085937506,
          "velocity": 0.5354330708661418,
          "duration": 0.03951148437499796
        },
        {
          "name": "E4",
          "midi": 64,
          "time": 104.26721531250006,
          "velocity": 0.5354330708661418,
          "duration": 0.06465515624999796
        },
        {
          "name": "A#2",
          "midi": 46,
          "time": 104.32109460937505,
          "velocity": 0.8110236220472441,
          "duration": 0.05028734374999999
        },
        {
          "name": "F3",
          "midi": 53,
          "time": 104.32109460937505,
          "velocity": 0.6299212598425197,
          "duration": 0.05028734374999999
        },
        {
          "name": "G#2",
          "midi": 44,
          "time": 104.49350835937506,
          "velocity": 0.7795275590551181,
          "duration": 0.04669539062500405
        },
        {
          "name": "D#3",
          "midi": 51,
          "time": 104.49350835937506,
          "velocity": 0.5590551181102362,
          "duration": 0.04669539062500405
        },
        {
          "name": "D4",
          "midi": 62,
          "time": 104.62641062500006,
          "velocity": 0.5748031496062992,
          "duration": 0.08979882812499795
        },
        {
          "name": "B3",
          "midi": 59,
          "time": 104.65514625000006,
          "velocity": 0.7322834645669292,
          "duration": 0.07902296874999593
        },
        {
          "name": "A#2",
          "midi": 46,
          "time": 104.66592210937506,
          "velocity": 0.8267716535433071,
          "duration": 0.05028734374999999
        },
        {
          "name": "C#4",
          "midi": 61,
          "time": 104.77368070312505,
          "velocity": 0.5748031496062992,
          "duration": 0.09339078124999389
        },
        {
          "name": "G#2",
          "midi": 44,
          "time": 104.82756000000005,
          "velocity": 0.7637795275590551,
          "duration": 0.05747124999999187
        },
        {
          "name": "D#3",
          "midi": 51,
          "time": 104.84192781250005,
          "velocity": 0.6299212598425197,
          "duration": 0.0431034374999939
        },
        {
          "name": "E4",
          "midi": 64,
          "time": 104.94609445312504,
          "velocity": 0.5118110236220472,
          "duration": 0.11494249999999795
        },
        {
          "name": "F3",
          "midi": 53,
          "time": 104.99997375000004,
          "velocity": 0.6299212598425197,
          "duration": 0.06824710937500811
        },
        {
          "name": "A#2",
          "midi": 46,
          "time": 105.00356570312503,
          "velocity": 0.7480314960629921,
          "duration": 0.06824710937500811
        },
        {
          "name": "D#4",
          "midi": 63,
          "time": 105.12928406250005,
          "velocity": 0.6141732283464567,
          "duration": 0.08261492187500608
        },
        {
          "name": "G#2",
          "midi": 44,
          "time": 105.17597945312505,
          "velocity": 0.6850393700787402,
          "duration": 0.06465515624999796
        },
        {
          "name": "D#3",
          "midi": 51,
          "time": 105.17597945312505,
          "velocity": 0.5748031496062992,
          "duration": 0.04669539062500405
        },
        {
          "name": "D4",
          "midi": 62,
          "time": 105.30169781250005,
          "velocity": 0.5433070866141733,
          "duration": 0.0933907812500081
        },
        {
          "name": "A#2",
          "midi": 46,
          "time": 105.34839320312506,
          "velocity": 0.7480314960629921,
          "duration": 0.06824710937500811
        },
        {
          "name": "F3",
          "midi": 53,
          "time": 105.35557710937506,
          "velocity": 0.6299212598425197,
          "duration": 0.07543101562499999
        },
        {
          "name": "C#4",
          "midi": 61,
          "time": 105.46333570312507,
          "velocity": 0.5905511811023622,
          "duration": 0.10416664062501013
        },
        {
          "name": "G#2",
          "midi": 44,
          "time": 105.52080695312507,
          "velocity": 0.7086614173228346,
          "duration": 0.04669539062500405
        },
        {
          "name": "D#3",
          "midi": 51,
          "time": 105.52799085937508,
          "velocity": 0.5748031496062992,
          "duration": 0.04669539062500405
        },
        {
          "name": "E4",
          "midi": 64,
          "time": 105.65370921875008,
          "velocity": 0.5118110236220472,
          "duration": 0.07543101562499999
        },
        {
          "name": "A#2",
          "midi": 46,
          "time": 105.69322070312508,
          "velocity": 0.8110236220472441,
          "duration": 0.05387929687499593
        },
        {
          "name": "F3",
          "midi": 53,
          "time": 105.70040460937508,
          "velocity": 0.6141732283464567,
          "duration": 0.06106320312498781
        },
        {
          "name": "G#2",
          "midi": 44,
          "time": 105.86563445312507,
          "velocity": 0.7322834645669292,
          "duration": 0.05387929687499593
        },
        {
          "name": "D#3",
          "midi": 51,
          "time": 105.88359421875006,
          "velocity": 0.5590551181102362,
          "duration": 0.04669539062500405
        },
        {
          "name": "D4",
          "midi": 62,
          "time": 106.00931257812506,
          "velocity": 0.5433070866141733,
          "duration": 0.10416664062502434
        },
        {
          "name": "B3",
          "midi": 59,
          "time": 106.01649648437507,
          "velocity": 0.7637795275590551,
          "duration": 0.06824710937500811
        },
        {
          "name": "A#2",
          "midi": 46,
          "time": 106.03804820312507,
          "velocity": 0.8582677165354331,
          "duration": 0.05387929687501014
        },
        {
          "name": "D#3",
          "midi": 51,
          "time": 106.20687000000008,
          "velocity": 0.6535433070866141,
          "duration": 0.0431034374999939
        },
        {
          "name": "C#4",
          "midi": 61,
          "time": 106.21046195312508,
          "velocity": 0.5590551181102362,
          "duration": 0.09339078124999389
        },
        {
          "name": "G#2",
          "midi": 44,
          "time": 106.21046195312508,
          "velocity": 0.7795275590551181,
          "duration": 0.05387929687499593
        },
        {
          "name": "E4",
          "midi": 64,
          "time": 106.37209984375006,
          "velocity": 0.5039370078740157,
          "duration": 0.09339078124999389
        },
        {
          "name": "F3",
          "midi": 53,
          "time": 106.37209984375006,
          "velocity": 0.6299212598425197,
          "duration": 0.06465515624999796
        },
        {
          "name": "A#2",
          "midi": 46,
          "time": 106.38287570312507,
          "velocity": 0.7952755905511811,
          "duration": 0.05747124999999187
        },
        {
          "name": "D#4",
          "midi": 63,
          "time": 106.52655382812506,
          "velocity": 0.5748031496062992,
          "duration": 0.08261492187500608
        },
        {
          "name": "G#2",
          "midi": 44,
          "time": 106.55528945312506,
          "velocity": 0.7244094488188977,
          "duration": 0.04669539062500405
        },
        {
          "name": "D#3",
          "midi": 51,
          "time": 106.56247335937506,
          "velocity": 0.5748031496062992,
          "duration": 0.03951148437499796
        },
        {
          "name": "D4",
          "midi": 62,
          "time": 106.71692734375007,
          "velocity": 0.4645669291338583,
          "duration": 0.10416664062501013
        },
        {
          "name": "F3",
          "midi": 53,
          "time": 106.71692734375007,
          "velocity": 0.6062992125984252,
          "duration": 0.06824710937500811
        },
        {
          "name": "A#2",
          "midi": 46,
          "time": 106.72411125000008,
          "velocity": 0.8267716535433071,
          "duration": 0.06106320312500202
        },
        {
          "name": "D#3",
          "midi": 51,
          "time": 106.87138132812508,
          "velocity": 0.6456692913385826,
          "duration": 0.04669539062498984
        },
        {
          "name": "C#4",
          "midi": 61,
          "time": 106.88934109375008,
          "velocity": 0.5669291338582677,
          "duration": 0.10416664062499592
        },
        {
          "name": "G#2",
          "midi": 44,
          "time": 106.90011695312508,
          "velocity": 0.7795275590551181,
          "duration": 0.04669539062498984
        },
        {
          "name": "B3",
          "midi": 59,
          "time": 107.03301921875007,
          "velocity": 0.7480314960629921,
          "duration": 0.07543101562498578
        },
        {
          "name": "A#2",
          "midi": 46,
          "time": 107.07253070312507,
          "velocity": 0.7952755905511811,
          "duration": 0.05387929687498172
        },
        {
          "name": "D4",
          "midi": 62,
          "time": 107.09049046875006,
          "velocity": 0.5354330708661418,
          "duration": 0.06465515624998375
        },
        {
          "name": "D#3",
          "midi": 51,
          "time": 107.22698468750005,
          "velocity": 0.7244094488188977,
          "duration": 0.04669539062498984
        },
        {
          "name": "G#2",
          "midi": 44,
          "time": 107.24494445312504,
          "velocity": 0.7322834645669292,
          "duration": 0.03951148437499796
        },
        {
          "name": "F3",
          "midi": 53,
          "time": 107.38503062500004,
          "velocity": 0.6850393700787402,
          "duration": 0.05747125000000608
        },
        {
          "name": "D4",
          "midi": 62,
          "time": 107.40658234375005,
          "velocity": 0.47244094488188976,
          "duration": 0.07902296875001014
        },
        {
          "name": "A#2",
          "midi": 46,
          "time": 107.41735820312505,
          "velocity": 0.84251968503937,
          "duration": 0.04669539062500405
        },
        {
          "name": "C#4",
          "midi": 61,
          "time": 107.55744437500006,
          "velocity": 0.5354330708661418,
          "duration": 0.10057468749999998
        },
        {
          "name": "D#3",
          "midi": 51,
          "time": 107.56822023437506,
          "velocity": 0.7007874015748031,
          "duration": 0.03951148437499796
        },
        {
          "name": "G#2",
          "midi": 44,
          "time": 107.58977195312507,
          "velocity": 0.7637795275590551,
          "duration": 0.04669539062498984
        },
        {
          "name": "E4",
          "midi": 64,
          "time": 107.69393859375006,
          "velocity": 0.5433070866141733,
          "duration": 0.09339078124999389
        },
        {
          "name": "B3",
          "midi": 59,
          "time": 107.72267421875006,
          "velocity": 0.7952755905511811,
          "duration": 0.05028734374999999
        },
        {
          "name": "A#2",
          "midi": 46,
          "time": 107.76218570312506,
          "velocity": 0.8110236220472441,
          "duration": 0.05747125000000608
        },
        {
          "name": "D#4",
          "midi": 63,
          "time": 107.85557648437506,
          "velocity": 0.5511811023622047,
          "duration": 0.06824710937500811
        },
        {
          "name": "D#3",
          "midi": 51,
          "time": 107.91304773437507,
          "velocity": 0.7007874015748031,
          "duration": 0.04669539062500405
        },
        {
          "name": "G#2",
          "midi": 44,
          "time": 107.93459945312507,
          "velocity": 0.7637795275590551,
          "duration": 0.05747125000000608
        },
        {
          "name": "D4",
          "midi": 62,
          "time": 108.02799023437508,
          "velocity": 0.5039370078740157,
          "duration": 0.08979882812499795
        },
        {
          "name": "F3",
          "midi": 53,
          "time": 108.07827757812508,
          "velocity": 0.6850393700787402,
          "duration": 0.0682471093749939
        },
        {
          "name": "A#2",
          "midi": 46,
          "time": 108.10342125000008,
          "velocity": 0.8267716535433071,
          "duration": 0.05028734374999999
        },
        {
          "name": "C#4",
          "midi": 61,
          "time": 108.20399593750008,
          "velocity": 0.5511811023622047,
          "duration": 0.07543101562499999
        },
        {
          "name": "D#3",
          "midi": 51,
          "time": 108.26146718750009,
          "velocity": 0.7007874015748031,
          "duration": 0.028735624999995935
        },
        {
          "name": "G#2",
          "midi": 44,
          "time": 108.27942695312508,
          "velocity": 0.7480314960629921,
          "duration": 0.05387929687499593
        },
        {
          "name": "D4",
          "midi": 62,
          "time": 108.37640968750007,
          "velocity": 0.4566929133858268,
          "duration": 0.06465515624999796
        },
        {
          "name": "B3",
          "midi": 59,
          "time": 108.41951312500007,
          "velocity": 0.7637795275590551,
          "duration": 0.06824710937500811
        },
        {
          "name": "A#2",
          "midi": 46,
          "time": 108.45184070312507,
          "velocity": 0.7952755905511811,
          "duration": 0.05747125000000608
        },
        {
          "name": "D#3",
          "midi": 51,
          "time": 108.61347859375007,
          "velocity": 0.7322834645669292,
          "duration": 0.03951148437499796
        },
        {
          "name": "G#2",
          "midi": 44,
          "time": 108.62425445312508,
          "velocity": 0.7007874015748031,
          "duration": 0.05387929687499593
        },
        {
          "name": "D4",
          "midi": 62,
          "time": 108.76434062500007,
          "velocity": 0.4566929133858268,
          "duration": 0.07183906249998984
        },
        {
          "name": "F3",
          "midi": 53,
          "time": 108.76793257812507,
          "velocity": 0.7480314960629921,
          "duration": 0.05387929687499593
        },
        {
          "name": "A#2",
          "midi": 46,
          "time": 108.79666820312507,
          "velocity": 0.8110236220472441,
          "duration": 0.05387929687499593
        },
        {
          "name": "C#4",
          "midi": 61,
          "time": 108.92238656250007,
          "velocity": 0.5984251968503937,
          "duration": 0.09339078124999389
        },
        {
          "name": "D#3",
          "midi": 51,
          "time": 108.94034632812506,
          "velocity": 0.84251968503937,
          "duration": 0.03951148437499796
        },
        {
          "name": "G#2",
          "midi": 44,
          "time": 108.97626585937506,
          "velocity": 0.7637795275590551,
          "duration": 0.04669539062500405
        },
        {
          "name": "E4",
          "midi": 64,
          "time": 109.11994398437507,
          "velocity": 0.5590551181102362,
          "duration": 0.08979882812499795
        },
        {
          "name": "A#2",
          "midi": 46,
          "time": 109.14867960937507,
          "velocity": 0.8110236220472441,
          "duration": 0.04669539062500405
        },
        {
          "name": "D#4",
          "midi": 63,
          "time": 109.28158187500007,
          "velocity": 0.5984251968503937,
          "duration": 0.0682471093749939
        },
        {
          "name": "G#2",
          "midi": 44,
          "time": 109.32109335937507,
          "velocity": 0.7244094488188977,
          "duration": 0.04669539062498984
        },
        {
          "name": "D4",
          "midi": 62,
          "time": 109.45399562500006,
          "velocity": 0.5118110236220472,
          "duration": 0.08979882812499795
        },
        {
          "name": "A#2",
          "midi": 46,
          "time": 109.49350710937506,
          "velocity": 0.8110236220472441,
          "duration": 0.04669539062500405
        },
        {
          "name": "C#4",
          "midi": 61,
          "time": 109.63718523437505,
          "velocity": 0.6062992125984252,
          "duration": 0.0682471093749939
        },
        {
          "name": "G#2",
          "midi": 44,
          "time": 109.66592085937505,
          "velocity": 0.7244094488188977,
          "duration": 0.04669539062500405
        },
        {
          "name": "D4",
          "midi": 62,
          "time": 109.79882312500006,
          "velocity": 0.4409448818897638,
          "duration": 0.05747125000000608
        },
        {
          "name": "A#2",
          "midi": 46,
          "time": 109.83115070312506,
          "velocity": 0.7795275590551181,
          "duration": 0.06465515624999796
        },
        {
          "name": "G#2",
          "midi": 44,
          "time": 110.00356445312507,
          "velocity": 0.7244094488188977,
          "duration": 0.06465515624999796
        },
        {
          "name": "A#2",
          "midi": 46,
          "time": 110.17597820312507,
          "velocity": 0.8267716535433071,
          "duration": 0.05747125000000608
        },
        {
          "name": "C#4",
          "midi": 61,
          "time": 110.34480000000008,
          "velocity": 0.5826771653543307,
          "duration": 0.08979882812499795
        },
        {
          "name": "G#2",
          "midi": 44,
          "time": 110.34480000000008,
          "velocity": 0.7244094488188977,
          "duration": 0.06106320312500202
        },
        {
          "name": "E4",
          "midi": 64,
          "time": 110.50284593750007,
          "velocity": 0.4881889763779528,
          "duration": 0.10057468749999998
        },
        {
          "name": "A#2",
          "midi": 46,
          "time": 110.51721375000007,
          "velocity": 0.7795275590551181,
          "duration": 0.06106320312500202
        },
        {
          "name": "D#4",
          "midi": 63,
          "time": 110.66448382812507,
          "velocity": 0.5905511811023622,
          "duration": 0.09339078124999389
        },
        {
          "name": "G#2",
          "midi": 44,
          "time": 110.68244359375007,
          "velocity": 0.7086614173228346,
          "duration": 0.05747125000000608
        },
        {
          "name": "D4",
          "midi": 62,
          "time": 110.81534585937507,
          "velocity": 0.44881889763779526,
          "duration": 0.12571835937499998
        },
        {
          "name": "A#2",
          "midi": 46,
          "time": 110.85485734375007,
          "velocity": 0.8110236220472441,
          "duration": 0.05028734374999999
        },
        {
          "name": "C#4",
          "midi": 61,
          "time": 110.98775960937508,
          "velocity": 0.5590551181102362,
          "duration": 0.10416664062501013
        },
        {
          "name": "G#2",
          "midi": 44,
          "time": 111.02727109375007,
          "velocity": 0.7244094488188977,
          "duration": 0.05747125000000608
        },
        {
          "name": "E4",
          "midi": 64,
          "time": 111.19968484375009,
          "velocity": 0.5669291338582677,
          "duration": 0.07543101562499999
        },
        {
          "name": "A#2",
          "midi": 46,
          "time": 111.19968484375009,
          "velocity": 0.8267716535433071,
          "duration": 0.06465515624999796
        },
        {
          "name": "G#2",
          "midi": 44,
          "time": 111.3720985937501,
          "velocity": 0.7086614173228346,
          "duration": 0.05747125000000608
        },
        {
          "name": "D4",
          "midi": 62,
          "time": 111.5445123437501,
          "velocity": 0.6692913385826772,
          "duration": 0.0933907812500081
        },
        {
          "name": "A#2",
          "midi": 46,
          "time": 111.5516962500001,
          "velocity": 0.8110236220472441,
          "duration": 0.05028734374999999
        },
        {
          "name": "C#4",
          "midi": 61,
          "time": 111.68819046875011,
          "velocity": 0.6062992125984252,
          "duration": 0.10775859375000607
        },
        {
          "name": "G#2",
          "midi": 44,
          "time": 111.7277019531251,
          "velocity": 0.7795275590551181,
          "duration": 0.04669539062500405
        },
        {
          "name": "E4",
          "midi": 64,
          "time": 111.86060421875011,
          "velocity": 0.5196850393700787,
          "duration": 0.0933907812500081
        },
        {
          "name": "A#2",
          "midi": 46,
          "time": 111.90011570312511,
          "velocity": 0.7637795275590551,
          "duration": 0.05387929687501014
        },
        {
          "name": "D#3",
          "midi": 51,
          "time": 111.90729960937512,
          "velocity": 0.6377952755905512,
          "duration": 0.07543101562499999
        },
        {
          "name": "D#4",
          "midi": 63,
          "time": 112.02224210937511,
          "velocity": 0.6299212598425197,
          "duration": 0.07902296874999593
        },
        {
          "name": "G#2",
          "midi": 44,
          "time": 112.07252945312511,
          "velocity": 0.7637795275590551,
          "duration": 0.05387929687499593
        },
        {
          "name": "D4",
          "midi": 62,
          "time": 112.1946558593751,
          "velocity": 0.6062992125984252,
          "duration": 0.09698273437500404
        },
        {
          "name": "A#2",
          "midi": 46,
          "time": 112.2449432031251,
          "velocity": 0.84251968503937,
          "duration": 0.06465515624999796
        },
        {
          "name": "C#4",
          "midi": 61,
          "time": 112.3706615625001,
          "velocity": 0.6062992125984252,
          "duration": 0.10416664062499592
        },
        {
          "name": "G#2",
          "midi": 44,
          "time": 112.4245408593751,
          "velocity": 0.7480314960629921,
          "duration": 0.03951148437499796
        },
        {
          "name": "D#3",
          "midi": 51,
          "time": 112.5035638281251,
          "velocity": 0.84251968503937,
          "duration": 0.05747124999999187
        },
        {
          "name": "E4",
          "midi": 64,
          "time": 112.5430753125001,
          "velocity": 0.5354330708661418,
          "duration": 0.06465515624999796
        },
        {
          "name": "A#2",
          "midi": 46,
          "time": 112.59695460937509,
          "velocity": 0.8110236220472441,
          "duration": 0.05028734374999999
        },
        {
          "name": "G#2",
          "midi": 44,
          "time": 112.7693683593751,
          "velocity": 0.7795275590551181,
          "duration": 0.04669539062500405
        },
        {
          "name": "D4",
          "midi": 62,
          "time": 112.9022706250001,
          "velocity": 0.5748031496062992,
          "duration": 0.08979882812499795
        },
        {
          "name": "A#2",
          "midi": 46,
          "time": 112.9417821093751,
          "velocity": 0.8267716535433071,
          "duration": 0.05028734374999999
        },
        {
          "name": "C#4",
          "midi": 61,
          "time": 113.0495407031251,
          "velocity": 0.5748031496062992,
          "duration": 0.05747125000000608
        },
        {
          "name": "D#3",
          "midi": 51,
          "time": 113.0746843750001,
          "velocity": 0.7322834645669292,
          "duration": 0.04310343750000811
        },
        {
          "name": "E4",
          "midi": 64,
          "time": 113.2614659375001,
          "velocity": 0.4881889763779528,
          "duration": 0.10057468749998577
        },
        {
          "name": "A#2",
          "midi": 46,
          "time": 113.2794257031251,
          "velocity": 0.7480314960629921,
          "duration": 0.0682471093749939
        },
        {
          "name": "D#4",
          "midi": 63,
          "time": 113.4231038281251,
          "velocity": 0.5905511811023622,
          "duration": 0.09339078124999389
        },
        {
          "name": "G#2",
          "midi": 44,
          "time": 113.45183945312509,
          "velocity": 0.6850393700787402,
          "duration": 0.06465515624999796
        },
        {
          "name": "D4",
          "midi": 62,
          "time": 113.5739658593751,
          "velocity": 0.44881889763779526,
          "duration": 0.12571835937499998
        },
        {
          "name": "A#2",
          "midi": 46,
          "time": 113.6242532031251,
          "velocity": 0.7480314960629921,
          "duration": 0.0682471093749939
        },
        {
          "name": "C#4",
          "midi": 61,
          "time": 113.7463796093751,
          "velocity": 0.5590551181102362,
          "duration": 0.10416664062501013
        },
        {
          "name": "G#2",
          "midi": 44,
          "time": 113.7966669531251,
          "velocity": 0.7086614173228346,
          "duration": 0.04669539062500405
        },
        {
          "name": "E4",
          "midi": 64,
          "time": 113.95830484375011,
          "velocity": 0.5669291338582677,
          "duration": 0.07543101562499999
        },
        {
          "name": "A#2",
          "midi": 46,
          "time": 113.96908070312512,
          "velocity": 0.8110236220472441,
          "duration": 0.05387929687499593
        },
        {
          "name": "D#3",
          "midi": 51,
          "time": 113.97985656250012,
          "velocity": 0.7322834645669292,
          "duration": 0.0431034374999939
        },
        {
          "name": "G#2",
          "midi": 44,
          "time": 114.14149445312512,
          "velocity": 0.7322834645669292,
          "duration": 0.05387929687499593
        },
        {
          "name": "D#3",
          "midi": 51,
          "time": 114.26721281250012,
          "velocity": 0.7637795275590551,
          "duration": 0.035919531250002024
        },
        {
          "name": "D4",
          "midi": 62,
          "time": 114.30313234375012,
          "velocity": 0.6692913385826772,
          "duration": 0.09339078124999389
        },
        {
          "name": "A#2",
          "midi": 46,
          "time": 114.31390820312512,
          "velocity": 0.8582677165354331,
          "duration": 0.05387929687499593
        },
        {
          "name": "C#4",
          "midi": 61,
          "time": 114.44681046875012,
          "velocity": 0.6062992125984252,
          "duration": 0.10775859374999186
        },
        {
          "name": "G#2",
          "midi": 44,
          "time": 114.48632195312511,
          "velocity": 0.7795275590551181,
          "duration": 0.05387929687499593
        },
        {
          "name": "D#3",
          "midi": 51,
          "time": 114.50428171875011,
          "velocity": 0.7322834645669292,
          "duration": 0.04669539062500405
        },
        {
          "name": "E4",
          "midi": 64,
          "time": 114.6192242187501,
          "velocity": 0.5196850393700787,
          "duration": 0.09339078124999389
        },
        {
          "name": "A#2",
          "midi": 46,
          "time": 114.6587357031251,
          "velocity": 0.7952755905511811,
          "duration": 0.05747124999999187
        },
        {
          "name": "F3",
          "midi": 53,
          "time": 114.6766954687501,
          "velocity": 0.7007874015748031,
          "duration": 0.08620687500000201
        },
        {
          "name": "D#4",
          "midi": 63,
          "time": 114.7808621093751,
          "velocity": 0.6299212598425197,
          "duration": 0.07902296874999593
        },
        {
          "name": "G#2",
          "midi": 44,
          "time": 114.8311494531251,
          "velocity": 0.7244094488188977,
          "duration": 0.04669539062498984
        },
        {
          "name": "D#3",
          "midi": 51,
          "time": 114.85988507812509,
          "velocity": 0.7086614173228346,
          "duration": 0.03951148437499796
        },
        {
          "name": "D4",
          "midi": 62,
          "time": 114.95327585937508,
          "velocity": 0.6062992125984252,
          "duration": 0.09698273437500404
        },
        {
          "name": "A#2",
          "midi": 46,
          "time": 114.99997125000009,
          "velocity": 0.8267716535433071,
          "duration": 0.06106320312500202
        },
        {
          "name": "C#4",
          "midi": 61,
          "time": 115.12928156250008,
          "velocity": 0.6062992125984252,
          "duration": 0.10416664062501013
        },
        {
          "name": "G#2",
          "midi": 44,
          "time": 115.17597695312509,
          "velocity": 0.7795275590551181,
          "duration": 0.04669539062500405
        },
        {
          "name": "D#3",
          "midi": 51,
          "time": 115.22267234375009,
          "velocity": 0.5590551181102362,
          "duration": 0.035919531250002024
        },
        {
          "name": "E4",
          "midi": 64,
          "time": 115.30169531250009,
          "velocity": 0.5354330708661418,
          "duration": 0.06465515624999796
        },
        {
          "name": "A#2",
          "midi": 46,
          "time": 115.34839070312509,
          "velocity": 0.7952755905511811,
          "duration": 0.05387929687499593
        },
        {
          "name": "G#2",
          "midi": 44,
          "time": 115.52080445312508,
          "velocity": 0.7322834645669292,
          "duration": 0.03951148437499796
        },
        {
          "name": "D#3",
          "midi": 51,
          "time": 115.53158031250008,
          "velocity": 0.6062992125984252,
          "duration": 0.04669539062498984
        },
        {
          "name": "D4",
          "midi": 62,
          "time": 115.66089062500008,
          "velocity": 0.5748031496062992,
          "duration": 0.08979882812501216
        },
        {
          "name": "E2",
          "midi": 40,
          "time": 115.67166648437508,
          "velocity": 0.937007874015748,
          "duration": 0.028735625000010145
        },
        {
          "name": "A#2",
          "midi": 46,
          "time": 115.69321820312508,
          "velocity": 0.84251968503937,
          "duration": 0.04669539062500405
        },
        {
          "name": "E2",
          "midi": 40,
          "time": 115.70040210937509,
          "velocity": 0.984251968503937,
          "duration": 0.07902296874999593
        },
        {
          "name": "D#3",
          "midi": 51,
          "time": 115.84767218750008,
          "velocity": 0.6850393700787402,
          "duration": 0.04669539062498984
        },
        {
          "name": "G#2",
          "midi": 44,
          "time": 115.86563195312507,
          "velocity": 0.7637795275590551,
          "duration": 0.04669539062500405
        },
        {
          "name": "E2",
          "midi": 40,
          "time": 115.90155148437508,
          "velocity": 0.984251968503937,
          "duration": 0.032327578125006085
        },
        {
          "name": "E2",
          "midi": 40,
          "time": 116.00571812500009,
          "velocity": 0.8582677165354331,
          "duration": 0.03951148437499796
        },
        {
          "name": "B3",
          "midi": 59,
          "time": 116.03445375000008,
          "velocity": 0.6771653543307087,
          "duration": 0.10057468749999998
        },
        {
          "name": "A#2",
          "midi": 46,
          "time": 116.03804570312508,
          "velocity": 0.8110236220472441,
          "duration": 0.05747125000000608
        },
        {
          "name": "E2",
          "midi": 40,
          "time": 116.10629281250009,
          "velocity": 0.889763779527559,
          "duration": 0.028735624999995935
        },
        {
          "name": "G#2",
          "midi": 44,
          "time": 116.21045945312508,
          "velocity": 0.7637795275590551,
          "duration": 0.05747125000000608
        },
        {
          "name": "E2",
          "midi": 40,
          "time": 116.21764335937509,
          "velocity": 0.889763779527559,
          "duration": 0.032327578125006085
        },
        {
          "name": "D#3",
          "midi": 51,
          "time": 116.22841921875009,
          "velocity": 0.6850393700787402,
          "duration": 0.05747124999999187
        },
        {
          "name": "E2",
          "midi": 40,
          "time": 116.32181000000008,
          "velocity": 0.9212598425196851,
          "duration": 0.028735624999995935
        },
        {
          "name": "A#2",
          "midi": 46,
          "time": 116.37928125000008,
          "velocity": 0.8267716535433071,
          "duration": 0.05028734374999999
        },
        {
          "name": "F3",
          "midi": 53,
          "time": 116.39364906250007,
          "velocity": 0.7086614173228346,
          "duration": 0.08261492187499186
        },
        {
          "name": "E2",
          "midi": 40,
          "time": 116.41879273437507,
          "velocity": 0.889763779527559,
          "duration": 0.03951148437499796
        },
        {
          "name": "E2",
          "midi": 40,
          "time": 116.52295937500007,
          "velocity": 0.984251968503937,
          "duration": 0.039511484375012174
        },
        {
          "name": "G#2",
          "midi": 44,
          "time": 116.55528695312508,
          "velocity": 0.7480314960629921,
          "duration": 0.05387929687501014
        },
        {
          "name": "D#3",
          "midi": 51,
          "time": 116.56247085937508,
          "velocity": 0.6377952755905512,
          "duration": 0.05028734374999999
        },
        {
          "name": "E2",
          "midi": 40,
          "time": 116.60916625000009,
          "velocity": 0.905511811023622,
          "duration": 0.0431034374999939
        },
        {
          "name": "B3",
          "midi": 59,
          "time": 116.69896507812508,
          "velocity": 0.5196850393700787,
          "duration": 0.0682471093749939
        },
        {
          "name": "E2",
          "midi": 40,
          "time": 116.72410875000008,
          "velocity": 0.984251968503937,
          "duration": 0.032327578124991874
        },
        {
          "name": "A#2",
          "midi": 46,
          "time": 116.72770070312508,
          "velocity": 0.7952755905511811,
          "duration": 0.05747124999999187
        },
        {
          "name": "E2",
          "midi": 40,
          "time": 116.82468343750007,
          "velocity": 0.937007874015748,
          "duration": 0.0431034374999939
        },
        {
          "name": "D#3",
          "midi": 51,
          "time": 116.89652250000006,
          "velocity": 0.6377952755905512,
          "duration": 0.0431034374999939
        },
        {
          "name": "G#2",
          "midi": 44,
          "time": 116.90011445312506,
          "velocity": 0.7007874015748031,
          "duration": 0.05387929687499593
        },
        {
          "name": "E2",
          "midi": 40,
          "time": 116.91807421875005,
          "velocity": 1,
          "duration": 0.035919531250002024
        },
        {
          "name": "E2",
          "midi": 40,
          "time": 117.01505695312505,
          "velocity": 0.952755905511811,
          "duration": 0.03951148437499796
        },
        {
          "name": "B3",
          "midi": 59,
          "time": 117.06893625000005,
          "velocity": 0.5590551181102362,
          "duration": 0.06106320312498781
        },
        {
          "name": "A#2",
          "midi": 46,
          "time": 117.07252820312505,
          "velocity": 0.8110236220472441,
          "duration": 0.05387929687499593
        },
        {
          "name": "C2",
          "midi": 36,
          "time": 117.15514312500004,
          "velocity": 0.889763779527559,
          "duration": 0.05747125000000608
        },
        {
          "name": "D#3",
          "midi": 51,
          "time": 117.22698218750004,
          "velocity": 0.5196850393700787,
          "duration": 0.05387929687499593
        },
        {
          "name": "G#2",
          "midi": 44,
          "time": 117.25212585937504,
          "velocity": 0.7637795275590551,
          "duration": 0.04669539062498984
        },
        {
          "name": "B2",
          "midi": 47,
          "time": 117.38502812500003,
          "velocity": 0.937007874015748,
          "duration": 0.05028734374999999
        },
        {
          "name": "F3",
          "midi": 53,
          "time": 117.38502812500003,
          "velocity": 0.6377952755905512,
          "duration": 0.10057468749999998
        },
        {
          "name": "A#2",
          "midi": 46,
          "time": 117.42453960937503,
          "velocity": 0.8110236220472441,
          "duration": 0.04669539062500405
        },
        {
          "name": "D#3",
          "midi": 51,
          "time": 117.56821773437504,
          "velocity": 0.6850393700787402,
          "duration": 0.06106320312500202
        },
        {
          "name": "G#2",
          "midi": 44,
          "time": 117.59695335937504,
          "velocity": 0.7244094488188977,
          "duration": 0.04669539062500405
        },
        {
          "name": "C2",
          "midi": 36,
          "time": 117.60772921875004,
          "velocity": 0.937007874015748,
          "duration": 0.05747125000000608
        },
        {
          "name": "B3",
          "midi": 59,
          "time": 117.71189585937505,
          "velocity": 0.7637795275590551,
          "duration": 0.10775859375000607
        },
        {
          "name": "A#2",
          "midi": 46,
          "time": 117.76936710937505,
          "velocity": 0.8110236220472441,
          "duration": 0.04669539062500405
        },
        {
          "name": "B2",
          "midi": 47,
          "time": 117.83043031250006,
          "velocity": 0.984251968503937,
          "duration": 0.04669539062500405
        },
        {
          "name": "D#3",
          "midi": 51,
          "time": 117.90586132812506,
          "velocity": 0.6850393700787402,
          "duration": 0.05747125000000608
        },
        {
          "name": "G#2",
          "midi": 44,
          "time": 117.94178085937506,
          "velocity": 0.7244094488188977,
          "duration": 0.04669539062500405
        },
        {
          "name": "A2",
          "midi": 45,
          "time": 118.03876359375006,
          "velocity": 0.952755905511811,
          "duration": 0.04669539062500405
        },
        {
          "name": "F3",
          "midi": 53,
          "time": 118.09623484375007,
          "velocity": 0.6535433070866141,
          "duration": 0.06465515624999796
        },
        {
          "name": "A#2",
          "midi": 46,
          "time": 118.10701070312507,
          "velocity": 0.7795275590551181,
          "duration": 0.06465515624999796
        },
        {
          "name": "D#3",
          "midi": 51,
          "time": 118.25787273437507,
          "velocity": 0.5905511811023622,
          "duration": 0.05028734374998578
        },
        {
          "name": "G2",
          "midi": 43,
          "time": 118.26146468750007,
          "velocity": 1,
          "duration": 0.03591953124998781
        },
        {
          "name": "G#2",
          "midi": 44,
          "time": 118.27942445312506,
          "velocity": 0.7244094488188977,
          "duration": 0.06465515624999796
        },
        {
          "name": "F3",
          "midi": 53,
          "time": 118.44106234375006,
          "velocity": 0.7795275590551181,
          "duration": 0.06824710937500811
        },
        {
          "name": "A#2",
          "midi": 46,
          "time": 118.45183820312506,
          "velocity": 0.8267716535433071,
          "duration": 0.05747125000000608
        },
        {
          "name": "D#3",
          "midi": 51,
          "time": 118.61347609375007,
          "velocity": 0.6456692913385826,
          "duration": 0.05747125000000608
        },
        {
          "name": "G#2",
          "midi": 44,
          "time": 118.62066000000007,
          "velocity": 0.7244094488188977,
          "duration": 0.06106320312500202
        },
        {
          "name": "E2",
          "midi": 40,
          "time": 118.63143585937507,
          "velocity": 0.8740157480314961,
          "duration": 0.18318960937500606
        },
        {
          "name": "C2",
          "midi": 36,
          "time": 118.63143585937507,
          "velocity": 0.8267716535433071,
          "duration": 0.18318960937500606
        },
        {
          "name": "C#3",
          "midi": 49,
          "time": 118.63143585937507,
          "velocity": 1,
          "duration": 0.10775859375000607
        },
        {
          "name": "B3",
          "midi": 59,
          "time": 118.76793007812508,
          "velocity": 0.7480314960629921,
          "duration": 0.08620687500000201
        },
        {
          "name": "A#2",
          "midi": 46,
          "time": 118.79307375000008,
          "velocity": 0.7795275590551181,
          "duration": 0.06106320312500202
        },
        {
          "name": "D#3",
          "midi": 51,
          "time": 118.94752773437507,
          "velocity": 0.5984251968503937,
          "duration": 0.06106320312500202
        },
        {
          "name": "G#2",
          "midi": 44,
          "time": 118.95830359375007,
          "velocity": 0.7086614173228346,
          "duration": 0.05747125000000608
        },
        {
          "name": "E2",
          "midi": 40,
          "time": 119.12353343750009,
          "velocity": 0.937007874015748,
          "duration": 0.11135054687500201
        },
        {
          "name": "C2",
          "midi": 36,
          "time": 119.12353343750009,
          "velocity": 0.905511811023622,
          "duration": 0.10416664062499592
        },
        {
          "name": "C#3",
          "midi": 49,
          "time": 119.12353343750009,
          "velocity": 1,
          "duration": 0.04669539062500405
        },
        {
          "name": "A#2",
          "midi": 46,
          "time": 119.13071734375009,
          "velocity": 0.8110236220472441,
          "duration": 0.05028734374999999
        },
        {
          "name": "F3",
          "midi": 53,
          "time": 119.13071734375009,
          "velocity": 0.7322834645669292,
          "duration": 0.07902296874999593
        },
        {
          "name": "D#3",
          "midi": 51,
          "time": 119.29594718750009,
          "velocity": 0.5196850393700787,
          "duration": 0.05387929687501014
        },
        {
          "name": "G#2",
          "midi": 44,
          "time": 119.3031310937501,
          "velocity": 0.7244094488188977,
          "duration": 0.05747125000000608
        },
        {
          "name": "A#2",
          "midi": 46,
          "time": 119.4755448437501,
          "velocity": 0.8267716535433071,
          "duration": 0.06465515625001217
        },
        {
          "name": "F3",
          "midi": 53,
          "time": 119.4827287500001,
          "velocity": 0.7007874015748031,
          "duration": 0.06106320312500202
        },
        {
          "name": "G#2",
          "midi": 44,
          "time": 119.6479585937501,
          "velocity": 0.7086614173228346,
          "duration": 0.05747125000000608
        },
        {
          "name": "D#3",
          "midi": 51,
          "time": 119.65514250000011,
          "velocity": 0.47244094488188976,
          "duration": 0.0431034374999939
        },
        {
          "name": "F3",
          "midi": 53,
          "time": 119.81318843750012,
          "velocity": 0.5433070866141733,
          "duration": 0.07543101562499999
        },
        {
          "name": "A#2",
          "midi": 46,
          "time": 119.82755625000011,
          "velocity": 0.8110236220472441,
          "duration": 0.05028734374999999
        },
        {
          "name": "G#2",
          "midi": 44,
          "time": 120.00356195312511,
          "velocity": 0.7795275590551181,
          "duration": 0.04669539062500405
        },
        {
          "name": "D#3",
          "midi": 51,
          "time": 120.01074585937512,
          "velocity": 0.5905511811023622,
          "duration": 0.03951148437499796
        },
        {
          "name": "B3",
          "midi": 59,
          "time": 120.17238375000012,
          "velocity": 0.7480314960629921,
          "duration": 0.0862068749999878
        },
        {
          "name": "A#2",
          "midi": 46,
          "time": 120.17597570312512,
          "velocity": 0.7637795275590551,
          "duration": 0.05387929687499593
        },
        {
          "name": "G#2",
          "midi": 44,
          "time": 120.34838945312511,
          "velocity": 0.7637795275590551,
          "duration": 0.05387929687501014
        },
        {
          "name": "D#3",
          "midi": 51,
          "time": 120.34838945312511,
          "velocity": 0.5590551181102362,
          "duration": 0.04669539062500405
        },
        {
          "name": "A#2",
          "midi": 46,
          "time": 120.52080320312511,
          "velocity": 0.84251968503937,
          "duration": 0.06465515624999796
        },
        {
          "name": "F3",
          "midi": 53,
          "time": 120.52080320312511,
          "velocity": 0.5039370078740157,
          "duration": 0.07543101562499999
        },
        {
          "name": "G#2",
          "midi": 44,
          "time": 120.70040085937511,
          "velocity": 0.7480314960629921,
          "duration": 0.03951148437499796
        },
        {
          "name": "D#3",
          "midi": 51,
          "time": 120.7183606250001,
          "velocity": 0.47244094488188976,
          "duration": 0.04310343750000811
        },
        {
          "name": "B3",
          "midi": 59,
          "time": 120.8548548437501,
          "velocity": 0.7795275590551181,
          "duration": 0.0862068749999878
        },
        {
          "name": "A#2",
          "midi": 46,
          "time": 120.8728146093751,
          "velocity": 0.8110236220472441,
          "duration": 0.05028734374999999
        },
        {
          "name": "G#2",
          "midi": 44,
          "time": 121.04522835937509,
          "velocity": 0.7795275590551181,
          "duration": 0.04669539062500405
        },
        {
          "name": "D#3",
          "midi": 51,
          "time": 121.04522835937509,
          "velocity": 0.6377952755905512,
          "duration": 0.05747125000000608
        },
        {
          "name": "A#2",
          "midi": 46,
          "time": 121.21764210937509,
          "velocity": 0.8267716535433071,
          "duration": 0.05028734374999999
        },
        {
          "name": "B3",
          "midi": 59,
          "time": 121.21764210937509,
          "velocity": 0.7795275590551181,
          "duration": 0.09698273437500404
        },
        {
          "name": "G#2",
          "midi": 44,
          "time": 121.3792800000001,
          "velocity": 0.7637795275590551,
          "duration": 0.05747124999999187
        },
        {
          "name": "E2",
          "midi": 40,
          "time": 121.3900558593751,
          "velocity": 0.8740157480314961,
          "duration": 0.18318960937500606
        },
        {
          "name": "C2",
          "midi": 36,
          "time": 121.3900558593751,
          "velocity": 0.8267716535433071,
          "duration": 0.18318960937500606
        },
        {
          "name": "C#3",
          "midi": 49,
          "time": 121.3900558593751,
          "velocity": 1,
          "duration": 0.10775859374999186
        },
        {
          "name": "D#3",
          "midi": 51,
          "time": 121.40801562500009,
          "velocity": 0.5196850393700787,
          "duration": 0.03951148437499796
        },
        {
          "name": "A#2",
          "midi": 46,
          "time": 121.5552857031251,
          "velocity": 0.7480314960629921,
          "duration": 0.06824710937500811
        },
        {
          "name": "F3",
          "midi": 53,
          "time": 121.5660615625001,
          "velocity": 0.8110236220472441,
          "duration": 0.9913790624999876
        },
        {
          "name": "G#2",
          "midi": 44,
          "time": 121.7276994531251,
          "velocity": 0.6850393700787402,
          "duration": 0.06465515624999796
        },
        {
          "name": "D#3",
          "midi": 51,
          "time": 121.7636189843751,
          "velocity": 0.6141732283464567,
          "duration": 0.04669539062498984
        },
        {
          "name": "E2",
          "midi": 40,
          "time": 121.8821534375001,
          "velocity": 0.937007874015748,
          "duration": 0.1113505468749878
        },
        {
          "name": "C2",
          "midi": 36,
          "time": 121.8821534375001,
          "velocity": 0.905511811023622,
          "duration": 0.10416664062498171
        },
        {
          "name": "C#3",
          "midi": 49,
          "time": 121.8821534375001,
          "velocity": 1,
          "duration": 0.04669539062498984
        },
        {
          "name": "A#2",
          "midi": 46,
          "time": 121.90011320312509,
          "velocity": 0.7480314960629921,
          "duration": 0.0682471093749939
        },
        {
          "name": "B3",
          "midi": 59,
          "time": 121.91088906250009,
          "velocity": 0.7952755905511811,
          "duration": 0.07543101562498578
        },
        {
          "name": "D#3",
          "midi": 51,
          "time": 122.06175109375008,
          "velocity": 0.5590551181102362,
          "duration": 0.05747125000000608
        },
        {
          "name": "G#2",
          "midi": 44,
          "time": 122.07252695312508,
          "velocity": 0.7086614173228346,
          "duration": 0.04669539062500405
        },
        {
          "name": "B3",
          "midi": 59,
          "time": 122.23416484375008,
          "velocity": 0.6456692913385826,
          "duration": 0.07543101562499999
        },
        {
          "name": "A#2",
          "midi": 46,
          "time": 122.24494070312508,
          "velocity": 0.8110236220472441,
          "duration": 0.05387929687499593
        },
        {
          "name": "D#3",
          "midi": 51,
          "time": 122.41376250000008,
          "velocity": 0.6456692913385826,
          "duration": 0.05028734374999999
        },
        {
          "name": "G#2",
          "midi": 44,
          "time": 122.41735445312507,
          "velocity": 0.7322834645669292,
          "duration": 0.05387929687501014
        },
        {
          "name": "F3",
          "midi": 53,
          "time": 122.55744062500008,
          "velocity": 0.7795275590551181,
          "duration": 0.07902296875001014
        },
        {
          "name": "A#2",
          "midi": 46,
          "time": 122.58976820312509,
          "velocity": 0.8582677165354331,
          "duration": 0.05387929687501014
        },
        {
          "name": "D#3",
          "midi": 51,
          "time": 122.7226704687501,
          "velocity": 0.5354330708661418,
          "duration": 0.05028734374999999
        },
        {
          "name": "G#2",
          "midi": 44,
          "time": 122.7621819531251,
          "velocity": 0.7795275590551181,
          "duration": 0.05387929687499593
        },
        {
          "name": "F3",
          "midi": 53,
          "time": 122.90226812500009,
          "velocity": 0.84251968503937,
          "duration": 0.07183906250000405
        },
        {
          "name": "A#2",
          "midi": 46,
          "time": 122.9345957031251,
          "velocity": 0.7952755905511811,
          "duration": 0.05747124999999187
        },
        {
          "name": "D#3",
          "midi": 51,
          "time": 123.07827382812509,
          "velocity": 0.6062992125984252,
          "duration": 0.05747124999999187
        },
        {
          "name": "G#2",
          "midi": 44,
          "time": 123.10700945312509,
          "velocity": 0.7244094488188977,
          "duration": 0.04669539062498984
        },
        {
          "name": "B3",
          "midi": 59,
          "time": 123.23272781250007,
          "velocity": 0.7086614173228346,
          "duration": 0.08261492187499186
        },
        {
          "name": "A#2",
          "midi": 46,
          "time": 123.27583125000007,
          "velocity": 0.8267716535433071,
          "duration": 0.06106320312500202
        },
        {
          "name": "D#3",
          "midi": 51,
          "time": 123.44824500000007,
          "velocity": 0.6062992125984252,
          "duration": 0.0431034374999939
        },
        {
          "name": "G#2",
          "midi": 44,
          "time": 123.45183695312507,
          "velocity": 0.7795275590551181,
          "duration": 0.04669539062500405
        },
        {
          "name": "F3",
          "midi": 53,
          "time": 123.62065875000008,
          "velocity": 0.6299212598425197,
          "duration": 0.0682471093749939
        },
        {
          "name": "A#2",
          "midi": 46,
          "time": 123.62425070312507,
          "velocity": 0.7952755905511811,
          "duration": 0.05387929687499593
        },
        {
          "name": "D#3",
          "midi": 51,
          "time": 123.77870468750007,
          "velocity": 0.47244094488188976,
          "duration": 0.05747124999999187
        },
        {
          "name": "G#2",
          "midi": 44,
          "time": 123.79666445312506,
          "velocity": 0.7322834645669292,
          "duration": 0.03951148437499796
        },
        {
          "name": "F3",
          "midi": 53,
          "time": 123.96548625000005,
          "velocity": 0.6850393700787402,
          "duration": 0.07902296874999593
        },
        {
          "name": "A#2",
          "midi": 46,
          "time": 123.96907820312505,
          "velocity": 0.84251968503937,
          "duration": 0.04669539062500405
        },
        {
          "name": "G#2",
          "midi": 44,
          "time": 124.14149195312505,
          "velocity": 0.7637795275590551,
          "duration": 0.04669539062500405
        },
        {
          "name": "D#3",
          "midi": 51,
          "time": 124.14149195312505,
          "velocity": 0.6535433070866141,
          "duration": 0.04669539062500405
        },
        {
          "name": "E2",
          "midi": 40,
          "time": 124.14867585937506,
          "velocity": 0.8740157480314961,
          "duration": 0.18318960937499185
        },
        {
          "name": "C2",
          "midi": 36,
          "time": 124.14867585937506,
          "velocity": 0.8267716535433071,
          "duration": 0.18318960937499185
        },
        {
          "name": "C#3",
          "midi": 49,
          "time": 124.14867585937506,
          "velocity": 1,
          "duration": 0.10775859374999186
        },
        {
          "name": "B3",
          "midi": 59,
          "time": 124.28157812500005,
          "velocity": 0.7322834645669292,
          "duration": 0.09698273437500404
        },
        {
          "name": "A#2",
          "midi": 46,
          "time": 124.31390570312506,
          "velocity": 0.8110236220472441,
          "duration": 0.05747124999999187
        },
        {
          "name": "G#2",
          "midi": 44,
          "time": 124.48631945312506,
          "velocity": 0.7637795275590551,
          "duration": 0.05747124999999187
        },
        {
          "name": "D#3",
          "midi": 51,
          "time": 124.48631945312506,
          "velocity": 0.6141732283464567,
          "duration": 0.03951148437499796
        },
        {
          "name": "E2",
          "midi": 40,
          "time": 124.64077343750006,
          "velocity": 0.937007874015748,
          "duration": 0.11135054687500201
        },
        {
          "name": "C2",
          "midi": 36,
          "time": 124.64077343750006,
          "velocity": 0.905511811023622,
          "duration": 0.10416664062499592
        },
        {
          "name": "C#3",
          "midi": 49,
          "time": 124.64077343750006,
          "velocity": 1,
          "duration": 0.04669539062500405
        },
        {
          "name": "A#2",
          "midi": 46,
          "time": 124.65514125000006,
          "velocity": 0.8267716535433071,
          "duration": 0.05028734374999999
        },
        {
          "name": "F3",
          "midi": 53,
          "time": 124.65514125000006,
          "velocity": 0.6535433070866141,
          "duration": 0.0682471093749939
        },
        {
          "name": "D#3",
          "midi": 51,
          "time": 124.82755500000006,
          "velocity": 0.5039370078740157,
          "duration": 0.06106320312498781
        },
        {
          "name": "G#2",
          "midi": 44,
          "time": 124.83114695312506,
          "velocity": 0.7480314960629921,
          "duration": 0.05387929687499593
        },
        {
          "name": "A#2",
          "midi": 46,
          "time": 125.00356070312505,
          "velocity": 0.7952755905511811,
          "duration": 0.05747125000000608
        },
        {
          "name": "F3",
          "midi": 53,
          "time": 125.00356070312505,
          "velocity": 0.7244094488188977,
          "duration": 0.06465515625001217
        },
        {
          "name": "D#3",
          "midi": 51,
          "time": 125.15801468750006,
          "velocity": 0.7244094488188977,
          "duration": 0.06465515624999796
        },
        {
          "name": "G#2",
          "midi": 44,
          "time": 125.17597445312505,
          "velocity": 0.7007874015748031,
          "duration": 0.05387929687501014
        },
        {
          "name": "F3",
          "midi": 53,
          "time": 125.33761234375007,
          "velocity": 0.8110236220472441,
          "duration": 0.06465515624999796
        },
        {
          "name": "A#2",
          "midi": 46,
          "time": 125.34838820312507,
          "velocity": 0.8110236220472441,
          "duration": 0.05387929687499593
        },
        {
          "name": "D#3",
          "midi": 51,
          "time": 125.52080195312506,
          "velocity": 0.7086614173228346,
          "duration": 0.05387929687501014
        },
        {
          "name": "G#2",
          "midi": 44,
          "time": 125.52798585937506,
          "velocity": 0.7637795275590551,
          "duration": 0.04669539062500405
        },
        {
          "name": "B3",
          "midi": 59,
          "time": 125.67166398437507,
          "velocity": 0.6771653543307087,
          "duration": 0.0682471093749939
        },
        {
          "name": "A#2",
          "midi": 46,
          "time": 125.70039960937507,
          "velocity": 0.8110236220472441,
          "duration": 0.04669539062500405
        },
        {
          "name": "D#3",
          "midi": 51,
          "time": 125.85485359375008,
          "velocity": 0.5984251968503937,
          "duration": 0.05028734374999999
        },
        {
          "name": "G#2",
          "midi": 44,
          "time": 125.87281335937507,
          "velocity": 0.7244094488188977,
          "duration": 0.04669539062500405
        },
        {
          "name": "F3",
          "midi": 53,
          "time": 126.01649148437508,
          "velocity": 0.5669291338582677,
          "duration": 0.07902296874999593
        },
        {
          "name": "A#2",
          "midi": 46,
          "time": 126.04522710937508,
          "velocity": 0.8110236220472441,
          "duration": 0.04669539062500405
        },
        {
          "name": "D#3",
          "midi": 51,
          "time": 126.19249718750008,
          "velocity": 0.6062992125984252,
          "duration": 0.05387929687499593
        },
        {
          "name": "G#2",
          "midi": 44,
          "time": 126.21764085937508,
          "velocity": 0.7244094488188977,
          "duration": 0.04669539062498984
        },
        {
          "name": "F3",
          "midi": 53,
          "time": 126.33617531250007,
          "velocity": 0.6062992125984252,
          "duration": 0.04669539062500405
        },
        {
          "name": "A#2",
          "midi": 46,
          "time": 126.38287070312508,
          "velocity": 0.7795275590551181,
          "duration": 0.06465515624999796
        },
        {
          "name": "G#2",
          "midi": 44,
          "time": 126.55528445312508,
          "velocity": 0.7244094488188977,
          "duration": 0.06465515624999796
        },
        {
          "name": "D#3",
          "midi": 51,
          "time": 126.55528445312508,
          "velocity": 0.5984251968503937,
          "duration": 0.04669539062500405
        },
        {
          "name": "B3",
          "midi": 59,
          "time": 126.70973843750008,
          "velocity": 0.7480314960629921,
          "duration": 0.07543101562499999
        },
        {
          "name": "A#2",
          "midi": 46,
          "time": 126.72769820312507,
          "velocity": 0.8267716535433071,
          "duration": 0.05747125000000608
        },
        {
          "name": "G#2",
          "midi": 44,
          "time": 126.89652000000008,
          "velocity": 0.7244094488188977,
          "duration": 0.06106320312498781
        },
        {
          "name": "E2",
          "midi": 40,
          "time": 126.90729585937508,
          "velocity": 0.8740157480314961,
          "duration": 0.18318960937499185
        },
        {
          "name": "C2",
          "midi": 36,
          "time": 126.90729585937508,
          "velocity": 0.8267716535433071,
          "duration": 0.18318960937499185
        },
        {
          "name": "C#3",
          "midi": 49,
          "time": 126.90729585937508,
          "velocity": 1,
          "duration": 0.10775859374999186
        },
        {
          "name": "D#3",
          "midi": 51,
          "time": 126.91088781250008,
          "velocity": 0.6377952755905512,
          "duration": 0.0431034374999939
        },
        {
          "name": "A#2",
          "midi": 46,
          "time": 127.06893375000007,
          "velocity": 0.7795275590551181,
          "duration": 0.06106320312500202
        },
        {
          "name": "F3",
          "midi": 53,
          "time": 127.07970960937507,
          "velocity": 0.7244094488188977,
          "duration": 0.05747125000000608
        },
        {
          "name": "G#2",
          "midi": 44,
          "time": 127.23416359375008,
          "velocity": 0.7086614173228346,
          "duration": 0.05747125000000608
        },
        {
          "name": "D#3",
          "midi": 51,
          "time": 127.24493945312508,
          "velocity": 0.6062992125984252,
          "duration": 0.05387929687501014
        },
        {
          "name": "E2",
          "midi": 40,
          "time": 127.3993934375001,
          "velocity": 0.937007874015748,
          "duration": 0.11135054687501622
        },
        {
          "name": "C2",
          "midi": 36,
          "time": 127.3993934375001,
          "velocity": 0.905511811023622,
          "duration": 0.10416664062501013
        },
        {
          "name": "C#3",
          "midi": 49,
          "time": 127.3993934375001,
          "velocity": 1,
          "duration": 0.04669539062500405
        },
        {
          "name": "A#2",
          "midi": 46,
          "time": 127.4065773437501,
          "velocity": 0.8110236220472441,
          "duration": 0.05028734374999999
        },
        {
          "name": "F3",
          "midi": 53,
          "time": 127.4353129687501,
          "velocity": 0.5984251968503937,
          "duration": 0.05747125000000608
        },
        {
          "name": "G#2",
          "midi": 44,
          "time": 127.5789910937501,
          "velocity": 0.7244094488188977,
          "duration": 0.05747125000000608
        },
        {
          "name": "D#3",
          "midi": 51,
          "time": 127.60054281250011,
          "velocity": 0.5984251968503937,
          "duration": 0.04310343750000811
        },
        {
          "name": "A#2",
          "midi": 46,
          "time": 127.75140484375012,
          "velocity": 0.8267716535433071,
          "duration": 0.06465515624999796
        },
        {
          "name": "F3",
          "midi": 53,
          "time": 127.76936460937512,
          "velocity": 0.5984251968503937,
          "duration": 0.06824710937500811
        },
        {
          "name": "G#2",
          "midi": 44,
          "time": 127.92381859375013,
          "velocity": 0.7086614173228346,
          "duration": 0.05747124999999187
        },
        {
          "name": "D#3",
          "midi": 51,
          "time": 127.96333007812513,
          "velocity": 0.5826771653543307,
          "duration": 0.03951148437499796
        },
        {
          "name": "A#2",
          "midi": 46,
          "time": 128.10341625000012,
          "velocity": 0.8110236220472441,
          "duration": 0.05028734374999999
        },
        {
          "name": "B3",
          "midi": 59,
          "time": 128.11419210937513,
          "velocity": 0.7480314960629921,
          "duration": 0.0682471093749939
        },
        {
          "name": "G#2",
          "midi": 44,
          "time": 128.2794219531251,
          "velocity": 0.7795275590551181,
          "duration": 0.04669539062501826
        },
        {
          "name": "D#3",
          "midi": 51,
          "time": 128.30456562500012,
          "velocity": 0.5748031496062992,
          "duration": 0.03951148437499796
        },
        {
          "name": "F3",
          "midi": 53,
          "time": 128.4410598437501,
          "velocity": 0.5748031496062992,
          "duration": 0.06824710937502232
        },
        {
          "name": "A#2",
          "midi": 46,
          "time": 128.4518357031251,
          "velocity": 0.7637795275590551,
          "duration": 0.05387929687501014
        },
        {
          "name": "D#3",
          "midi": 51,
          "time": 128.62065750000014,
          "velocity": 0.5511811023622047,
          "duration": 0.03951148437499796
        },
        {
          "name": "G#2",
          "midi": 44,
          "time": 128.62424945312515,
          "velocity": 0.7637795275590551,
          "duration": 0.05387929687498172
        },
        {
          "name": "A#2",
          "midi": 46,
          "time": 128.79666320312512,
          "velocity": 0.84251968503937,
          "duration": 0.06465515624998375
        },
        {
          "name": "F3",
          "midi": 53,
          "time": 128.81462296875011,
          "velocity": 0.6299212598425197,
          "duration": 0.05028734374999999
        },
        {
          "name": "G#2",
          "midi": 44,
          "time": 128.97626085937512,
          "velocity": 0.7480314960629921,
          "duration": 0.03951148437499796
        },
        {
          "name": "D#3",
          "midi": 51,
          "time": 128.97626085937512,
          "velocity": 0.5354330708661418,
          "duration": 0.03951148437499796
        },
        {
          "name": "A#2",
          "midi": 46,
          "time": 129.14867460937512,
          "velocity": 0.8110236220472441,
          "duration": 0.05028734374999999
        },
        {
          "name": "F3",
          "midi": 53,
          "time": 129.14867460937512,
          "velocity": 0.6299212598425197,
          "duration": 0.05028734374999999
        },
        {
          "name": "G#2",
          "midi": 44,
          "time": 129.32108835937512,
          "velocity": 0.7795275590551181,
          "duration": 0.04669539062498984
        },
        {
          "name": "D#3",
          "midi": 51,
          "time": 129.32108835937512,
          "velocity": 0.5590551181102362,
          "duration": 0.04669539062498984
        },
        {
          "name": "B3",
          "midi": 59,
          "time": 129.48272625000013,
          "velocity": 0.7322834645669292,
          "duration": 0.07902296874999593
        },
        {
          "name": "A#2",
          "midi": 46,
          "time": 129.49350210937513,
          "velocity": 0.8267716535433071,
          "duration": 0.05028734374999999
        },
        {
          "name": "G#2",
          "midi": 44,
          "time": 129.65514000000013,
          "velocity": 0.7637795275590551,
          "duration": 0.05747125000002029
        },
        {
          "name": "E2",
          "midi": 40,
          "time": 129.66591585937513,
          "velocity": 0.8740157480314961,
          "duration": 0.18318960937503448
        },
        {
          "name": "C2",
          "midi": 36,
          "time": 129.66591585937513,
          "velocity": 0.8267716535433071,
          "duration": 0.18318960937503448
        },
        {
          "name": "C#3",
          "midi": 49,
          "time": 129.66591585937513,
          "velocity": 1,
          "duration": 0.10775859375002028
        },
        {
          "name": "D#3",
          "midi": 51,
          "time": 129.66950781250014,
          "velocity": 0.6299212598425197,
          "duration": 0.04310343750000811
        },
        {
          "name": "F3",
          "midi": 53,
          "time": 129.82755375000016,
          "velocity": 0.6299212598425197,
          "duration": 0.0682471093749939
        },
        {
          "name": "A#2",
          "midi": 46,
          "time": 129.83114570312517,
          "velocity": 0.7480314960629921,
          "duration": 0.0682471093749939
        },
        {
          "name": "G#2",
          "midi": 44,
          "time": 130.00355945312518,
          "velocity": 0.6850393700787402,
          "duration": 0.06465515624998375
        },
        {
          "name": "D#3",
          "midi": 51,
          "time": 130.00355945312518,
          "velocity": 0.5748031496062992,
          "duration": 0.04669539062498984
        },
        {
          "name": "E2",
          "midi": 40,
          "time": 130.15801343750016,
          "velocity": 0.937007874015748,
          "duration": 0.11135054687500201
        },
        {
          "name": "C2",
          "midi": 36,
          "time": 130.15801343750016,
          "velocity": 0.905511811023622,
          "duration": 0.10416664062501013
        },
        {
          "name": "C#3",
          "midi": 49,
          "time": 130.15801343750016,
          "velocity": 1,
          "duration": 0.04669539062498984
        },
        {
          "name": "A#2",
          "midi": 46,
          "time": 130.17597320312515,
          "velocity": 0.7480314960629921,
          "duration": 0.0682471093749939
        },
        {
          "name": "F3",
          "midi": 53,
          "time": 130.18315710937514,
          "velocity": 0.6299212598425197,
          "duration": 0.0754310156250142
        },
        {
          "name": "G#2",
          "midi": 44,
          "time": 130.34838695312516,
          "velocity": 0.7086614173228346,
          "duration": 0.04669539062498984
        },
        {
          "name": "D#3",
          "midi": 51,
          "time": 130.35557085937515,
          "velocity": 0.5748031496062992,
          "duration": 0.04669539062498984
        },
        {
          "name": "A#2",
          "midi": 46,
          "time": 130.52080070312513,
          "velocity": 0.8110236220472441,
          "duration": 0.05387929687498172
        },
        {
          "name": "F3",
          "midi": 53,
          "time": 130.52798460937512,
          "velocity": 0.6141732283464567,
          "duration": 0.06106320312500202
        },
        {
          "name": "G#2",
          "midi": 44,
          "time": 130.69321445312514,
          "velocity": 0.7322834645669292,
          "duration": 0.05387929687498172
        },
        {
          "name": "D#3",
          "midi": 51,
          "time": 130.71117421875013,
          "velocity": 0.5590551181102362,
          "duration": 0.04669539062498984
        },
        {
          "name": "B3",
          "midi": 59,
          "time": 130.8440764843751,
          "velocity": 0.7637795275590551,
          "duration": 0.0682471093749939
        },
        {
          "name": "A#2",
          "midi": 46,
          "time": 130.8656282031251,
          "velocity": 0.8582677165354331,
          "duration": 0.05387929687498172
        },
        {
          "name": "D#3",
          "midi": 51,
          "time": 131.0344500000001,
          "velocity": 0.6535433070866141,
          "duration": 0.04310343750000811
        },
        {
          "name": "G#2",
          "midi": 44,
          "time": 131.03804195312512,
          "velocity": 0.7795275590551181,
          "duration": 0.05387929687501014
        },
        {
          "name": "F3",
          "midi": 53,
          "time": 131.19967984375012,
          "velocity": 0.6299212598425197,
          "duration": 0.06465515625001217
        },
        {
          "name": "A#2",
          "midi": 46,
          "time": 131.21045570312512,
          "velocity": 0.7952755905511811,
          "duration": 0.05747125000002029
        },
        {
          "name": "G#2",
          "midi": 44,
          "time": 131.38286945312515,
          "velocity": 0.7244094488188977,
          "duration": 0.04669539062498984
        },
        {
          "name": "D#3",
          "midi": 51,
          "time": 131.39005335937514,
          "velocity": 0.5748031496062992,
          "duration": 0.03951148437499796
        },
        {
          "name": "F3",
          "midi": 53,
          "time": 131.54450734375015,
          "velocity": 0.6062992125984252,
          "duration": 0.0682471093749939
        },
        {
          "name": "A#2",
          "midi": 46,
          "time": 131.55169125000015,
          "velocity": 0.8267716535433071,
          "duration": 0.06106320312500202
        },
        {
          "name": "D#3",
          "midi": 51,
          "time": 131.69896132812514,
          "velocity": 0.6456692913385826,
          "duration": 0.04669539062498984
        },
        {
          "name": "G#2",
          "midi": 44,
          "time": 131.72769695312513,
          "velocity": 0.7795275590551181,
          "duration": 0.04669539062498984
        },
        {
          "name": "B3",
          "midi": 59,
          "time": 131.8605992187501,
          "velocity": 0.7480314960629921,
          "duration": 0.07543101562498578
        },
        {
          "name": "A#2",
          "midi": 46,
          "time": 131.9001107031251,
          "velocity": 0.7952755905511811,
          "duration": 0.05387929687498172
        },
        {
          "name": "D#3",
          "midi": 51,
          "time": 132.0545646875001,
          "velocity": 0.7244094488188977,
          "duration": 0.04669539062498984
        },
        {
          "name": "G#2",
          "midi": 44,
          "time": 132.07252445312508,
          "velocity": 0.7322834645669292,
          "duration": 0.03951148437499796
        },
        {
          "name": "F3",
          "midi": 53,
          "time": 132.21261062500008,
          "velocity": 0.6850393700787402,
          "duration": 0.05747125000002029
        },
        {
          "name": "A#2",
          "midi": 46,
          "time": 132.2449382031251,
          "velocity": 0.84251968503937,
          "duration": 0.04669539062501826
        },
        {
          "name": "D#3",
          "midi": 51,
          "time": 132.39580023437512,
          "velocity": 0.7007874015748031,
          "duration": 0.03951148437499796
        },
        {
          "name": "E2",
          "midi": 40,
          "time": 132.41735195312512,
          "velocity": 0.8740157480314961,
          "duration": 0.18318960937500606
        },
        {
          "name": "C2",
          "midi": 36,
          "time": 132.41735195312512,
          "velocity": 0.8267716535433071,
          "duration": 0.18318960937500606
        },
        {
          "name": "C#3",
          "midi": 49,
          "time": 132.41735195312512,
          "velocity": 1,
          "duration": 0.11135054687500201
        },
        {
          "name": "G#2",
          "midi": 44,
          "time": 132.41735195312512,
          "velocity": 0.7637795275590551,
          "duration": 0.04669539062498984
        },
        {
          "name": "B3",
          "midi": 59,
          "time": 132.55025421875013,
          "velocity": 0.7952755905511811,
          "duration": 0.05028734374999999
        },
        {
          "name": "A#2",
          "midi": 46,
          "time": 132.58976570312512,
          "velocity": 0.8110236220472441,
          "duration": 0.05747124999999187
        },
        {
          "name": "D#3",
          "midi": 51,
          "time": 132.74062773437512,
          "velocity": 0.7007874015748031,
          "duration": 0.04669539062501826
        },
        {
          "name": "G#2",
          "midi": 44,
          "time": 132.76217945312513,
          "velocity": 0.7637795275590551,
          "duration": 0.05747125000002029
        },
        {
          "name": "F3",
          "midi": 53,
          "time": 132.90585757812514,
          "velocity": 0.6850393700787402,
          "duration": 0.0682471093749939
        },
        {
          "name": "E2",
          "midi": 40,
          "time": 132.92381734375013,
          "velocity": 0.937007874015748,
          "duration": 0.10775859374999186
        },
        {
          "name": "C2",
          "midi": 36,
          "time": 132.92381734375013,
          "velocity": 0.905511811023622,
          "duration": 0.10416664062498171
        },
        {
          "name": "C#3",
          "midi": 49,
          "time": 132.92381734375013,
          "velocity": 1,
          "duration": 0.04669539062498984
        },
        {
          "name": "A#2",
          "midi": 46,
          "time": 132.93100125000012,
          "velocity": 0.8267716535433071,
          "duration": 0.05028734374999999
        },
        {
          "name": "D#3",
          "midi": 51,
          "time": 133.0890471875001,
          "velocity": 0.7007874015748031,
          "duration": 0.028735624999995935
        },
        {
          "name": "G#2",
          "midi": 44,
          "time": 133.1070069531251,
          "velocity": 0.7480314960629921,
          "duration": 0.05387929687501014
        },
        {
          "name": "B3",
          "midi": 59,
          "time": 133.2470931250001,
          "velocity": 0.7637795275590551,
          "duration": 0.0682471093749939
        },
        {
          "name": "E2",
          "midi": 40,
          "time": 133.2686448437501,
          "velocity": 0.6377952755905512,
          "duration": 0.03951148437499796
        },
        {
          "name": "A#2",
          "midi": 46,
          "time": 133.2794207031251,
          "velocity": 0.7952755905511811,
          "duration": 0.05747124999999187
        },
        {
          "name": "E2",
          "midi": 40,
          "time": 133.4410585937501,
          "velocity": 0.7322834645669292,
          "duration": 0.05747124999999187
        },
        {
          "name": "D#3",
          "midi": 51,
          "time": 133.4410585937501,
          "velocity": 0.7322834645669292,
          "duration": 0.03951148437499796
        },
        {
          "name": "G#2",
          "midi": 44,
          "time": 133.45183445312512,
          "velocity": 0.7007874015748031,
          "duration": 0.05387929687498172
        },
        {
          "name": "F3",
          "midi": 53,
          "time": 133.5955125781251,
          "velocity": 0.7480314960629921,
          "duration": 0.05387929687501014
        },
        {
          "name": "E2",
          "midi": 40,
          "time": 133.6134723437501,
          "velocity": 0.937007874015748,
          "duration": 0.06465515625001217
        },
        {
          "name": "A#2",
          "midi": 46,
          "time": 133.6242482031251,
          "velocity": 0.8110236220472441,
          "duration": 0.05387929687501014
        },
        {
          "name": "D#3",
          "midi": 51,
          "time": 133.7679263281251,
          "velocity": 0.84251968503937,
          "duration": 0.03951148437499796
        },
        {
          "name": "E2",
          "midi": 40,
          "time": 133.7858860937501,
          "velocity": 0.937007874015748,
          "duration": 0.07902296875002435
        },
        {
          "name": "G#2",
          "midi": 44,
          "time": 133.8038458593751,
          "velocity": 0.7637795275590551,
          "duration": 0.04669539062501826
        },
        {
          "name": "E2",
          "midi": 40,
          "time": 133.9511159375001,
          "velocity": 1,
          "duration": 0.07183906250000405
        },
        {
          "name": "A#2",
          "midi": 46,
          "time": 133.97625960937512,
          "velocity": 0.8110236220472441,
          "duration": 0.04669539062498984
        },
        {
          "name": "E2",
          "midi": 40,
          "time": 134.1235296875001,
          "velocity": 0.984251968503937,
          "duration": 0.08620687500001623
        },
        {
          "name": "G#2",
          "midi": 44,
          "time": 134.14867335937512,
          "velocity": 0.7244094488188977,
          "duration": 0.04669539062498984
        },
        {
          "name": "E2",
          "midi": 40,
          "time": 134.2959434375001,
          "velocity": 1,
          "duration": 0.07183906250000405
        },
        {
          "name": "A#2",
          "midi": 46,
          "time": 134.32108710937513,
          "velocity": 0.8110236220472441,
          "duration": 0.04669539062498984
        },
        {
          "name": "G#2",
          "midi": 44,
          "time": 134.49350085937513,
          "velocity": 0.7244094488188977,
          "duration": 0.04669539062498984
        },
        {
          "name": "E2",
          "midi": 40,
          "time": 134.64077093750012,
          "velocity": 1,
          "duration": 0.07543101562498578
        },
        {
          "name": "A#2",
          "midi": 46,
          "time": 134.65873070312512,
          "velocity": 0.7795275590551181,
          "duration": 0.06465515624998375
        },
        {
          "name": "E2",
          "midi": 40,
          "time": 134.8203685937501,
          "velocity": 0.984251968503937,
          "duration": 0.08620687500001623
        },
        {
          "name": "G#2",
          "midi": 44,
          "time": 134.8311444531251,
          "velocity": 0.7244094488188977,
          "duration": 0.06465515625001217
        },
        {
          "name": "A#2",
          "midi": 46,
          "time": 135.0035582031251,
          "velocity": 0.8267716535433071,
          "duration": 0.05747124999999187
        },
        {
          "name": "C#3",
          "midi": 49,
          "time": 135.1759719531251,
          "velocity": 0.9212598425196851,
          "duration": 0.0862068749999878
        },
        {
          "name": "C2",
          "midi": 36,
          "time": 135.1831558593751,
          "velocity": 0.952755905511811,
          "duration": 0.3160918749999837
        },
        {
          "name": "F#2",
          "midi": 42,
          "time": 135.51002359375008,
          "velocity": 0.7795275590551181,
          "duration": 0.07902296874999593
        },
        {
          "name": "C2",
          "midi": 36,
          "time": 135.69321320312508,
          "velocity": 0.8740157480314961,
          "duration": 0.13290226562500607
        },
        {
          "name": "F#2",
          "midi": 42,
          "time": 135.8476671875001,
          "velocity": 0.937007874015748,
          "duration": 0.10416664062498171
        },
        {
          "name": "E2",
          "midi": 40,
          "time": 135.8656269531251,
          "velocity": 0.968503937007874,
          "duration": 0.29454015624997965
        },
        {
          "name": "F#2",
          "midi": 42,
          "time": 136.19249468750007,
          "velocity": 0.6771653543307087,
          "duration": 0.0933907812500081
        },
        {
          "name": "F#2",
          "midi": 42,
          "time": 136.53732218750008,
          "velocity": 0.905511811023622,
          "duration": 0.10057468749999998
        },
        {
          "name": "C2",
          "midi": 36,
          "time": 136.55528195312507,
          "velocity": 0.9212598425196851,
          "duration": 0.32686773437501415
        },
        {
          "name": "F#2",
          "midi": 42,
          "time": 136.88933359375008,
          "velocity": 0.7795275590551181,
          "duration": 0.0754310156250142
        },
        {
          "name": "C2",
          "midi": 36,
          "time": 137.0725232031251,
          "velocity": 0.937007874015748,
          "duration": 0.20114937499999996
        },
        {
          "name": "F#2",
          "midi": 42,
          "time": 137.2341610937501,
          "velocity": 0.889763779527559,
          "duration": 0.0933907812500081
        },
        {
          "name": "C2",
          "midi": 36,
          "time": 137.4173507031251,
          "velocity": 0.84251968503937,
          "duration": 0.15086203124999997
        },
        {
          "name": "F#2",
          "midi": 42,
          "time": 137.5718046875001,
          "velocity": 0.7637795275590551,
          "duration": 0.10416664062498171
        },
        {
          "name": "E2",
          "midi": 40,
          "time": 137.5897644531251,
          "velocity": 0.968503937007874,
          "duration": 0.22629304687498575
        },
        {
          "name": "C2",
          "midi": 36,
          "time": 137.93459195312508,
          "velocity": 0.905511811023622,
          "duration": 0.28735624999998777
        },
        {
          "name": "C#3",
          "midi": 49,
          "time": 137.93459195312508,
          "velocity": 0.984251968503937,
          "duration": 0.0862068749999878
        },
        {
          "name": "F#2",
          "midi": 42,
          "time": 138.27582750000008,
          "velocity": 0.7795275590551181,
          "duration": 0.05028734374999999
        },
        {
          "name": "C2",
          "midi": 36,
          "time": 138.4518332031251,
          "velocity": 0.889763779527559,
          "duration": 0.1436781250000081
        },
        {
          "name": "E2",
          "midi": 40,
          "time": 138.6242469531251,
          "velocity": 0.968503937007874,
          "duration": 0.20833328125002026
        },
        {
          "name": "F#2",
          "midi": 42,
          "time": 138.6242469531251,
          "velocity": 0.9212598425196851,
          "duration": 0.06465515625001217
        },
        {
          "name": "F#2",
          "midi": 42,
          "time": 138.95829859375013,
          "velocity": 0.6062992125984252,
          "duration": 0.0754310156250142
        },
        {
          "name": "C2",
          "midi": 36,
          "time": 139.30312609375014,
          "velocity": 0.905511811023622,
          "duration": 0.3053160156250101
        },
        {
          "name": "F#2",
          "midi": 42,
          "time": 139.31390195312514,
          "velocity": 0.905511811023622,
          "duration": 0.05387929687501014
        },
        {
          "name": "F#2",
          "midi": 42,
          "time": 139.64795359375015,
          "velocity": 0.7795275590551181,
          "duration": 0.05028734374999999
        },
        {
          "name": "C2",
          "midi": 36,
          "time": 139.81318343750016,
          "velocity": 0.8582677165354331,
          "duration": 0.20833328124999184
        },
        {
          "name": "F#2",
          "midi": 42,
          "time": 140.00355695312516,
          "velocity": 0.905511811023622,
          "duration": 0.0682471093749939
        },
        {
          "name": "C2",
          "midi": 36,
          "time": 140.15801093750014,
          "velocity": 0.7952755905511811,
          "duration": 0.11135054687500201
        },
        {
          "name": "E2",
          "midi": 40,
          "time": 140.33760859375013,
          "velocity": 0.968503937007874,
          "duration": 0.2298849999999959
        },
        {
          "name": "F#2",
          "midi": 42,
          "time": 140.33760859375013,
          "velocity": 0.7480314960629921,
          "duration": 0.07902296874999593
        },
        {
          "name": "C2",
          "midi": 36,
          "time": 140.68243609375014,
          "velocity": 0.9212598425196851,
          "duration": 0.33764359374998776
        },
        {
          "name": "C#3",
          "midi": 49,
          "time": 140.68243609375014,
          "velocity": 0.9921259842519685,
          "duration": 0.07902296874999593
        },
        {
          "name": "F#2",
          "midi": 42,
          "time": 141.02726359375012,
          "velocity": 0.7480314960629921,
          "duration": 0.06465515625001217
        },
        {
          "name": "C2",
          "midi": 36,
          "time": 141.21045320312513,
          "velocity": 0.84251968503937,
          "duration": 0.13290226562500607
        },
        {
          "name": "E2",
          "midi": 40,
          "time": 141.38286695312513,
          "velocity": 0.968503937007874,
          "duration": 0.24066085937499793
        },
        {
          "name": "F#2",
          "midi": 42,
          "time": 141.38286695312513,
          "velocity": 0.937007874015748,
          "duration": 0.05747124999999187
        },
        {
          "name": "F#2",
          "midi": 42,
          "time": 141.72410250000013,
          "velocity": 0.7637795275590551,
          "duration": 0.04310343750000811
        },
        {
          "name": "F#2",
          "midi": 42,
          "time": 142.07252195312515,
          "velocity": 0.937007874015748,
          "duration": 0.06465515624998375
        },
        {
          "name": "C2",
          "midi": 36,
          "time": 142.07970585937514,
          "velocity": 0.889763779527559,
          "duration": 0.2801723437499959
        },
        {
          "name": "F#2",
          "midi": 42,
          "time": 142.41375750000014,
          "velocity": 0.7952755905511811,
          "duration": 0.05747124999999187
        },
        {
          "name": "C2",
          "midi": 36,
          "time": 142.58617125000015,
          "velocity": 0.7322834645669292,
          "duration": 0.20114937500002839
        },
        {
          "name": "F#2",
          "midi": 42,
          "time": 142.76217695312516,
          "velocity": 0.937007874015748,
          "duration": 0.05387929687501014
        },
        {
          "name": "C2",
          "midi": 36,
          "time": 142.93099875000019,
          "velocity": 0.8110236220472441,
          "duration": 0.1364942187499878
        },
        {
          "name": "E2",
          "midi": 40,
          "time": 143.09622859375017,
          "velocity": 0.968503937007874,
          "duration": 0.21910914062499387
        },
        {
          "name": "F#2",
          "midi": 42,
          "time": 143.09622859375017,
          "velocity": 0.8740157480314961,
          "duration": 0.05747124999999187
        },
        {
          "name": "C2",
          "midi": 36,
          "time": 143.44105609375018,
          "velocity": 0.9212598425196851,
          "duration": 0.323275781250004
        },
        {
          "name": "C#3",
          "midi": 49,
          "time": 143.44105609375018,
          "velocity": 0.968503937007874,
          "duration": 0.06465515625001217
        },
        {
          "name": "F#2",
          "midi": 42,
          "time": 143.78588359375019,
          "velocity": 0.84251968503937,
          "duration": 0.05028734374999999
        },
        {
          "name": "C2",
          "midi": 36,
          "time": 143.9582973437502,
          "velocity": 0.968503937007874,
          "duration": 0.18318960937500606
        },
        {
          "name": "F#2",
          "midi": 42,
          "time": 144.1307110937502,
          "velocity": 0.9212598425196851,
          "duration": 0.05028734374999999
        },
        {
          "name": "E2",
          "midi": 40,
          "time": 144.1414869531252,
          "velocity": 0.9921259842519685,
          "duration": 0.07543101562498578
        },
        {
          "name": "E2",
          "midi": 40,
          "time": 144.3210846093752,
          "velocity": 0.7480314960629921,
          "duration": 0.06106320312500202
        },
        {
          "name": "F#2",
          "midi": 42,
          "time": 144.4755385937502,
          "velocity": 0.7244094488188977,
          "duration": 0.04669539062498984
        },
        {
          "name": "E2",
          "midi": 40,
          "time": 144.4863144531252,
          "velocity": 0.6692913385826772,
          "duration": 0.05387929687498172
        },
        {
          "name": "E2",
          "midi": 40,
          "time": 144.65872820312518,
          "velocity": 0.7795275590551181,
          "duration": 0.0754310156250142
        },
        {
          "name": "F#2",
          "midi": 42,
          "time": 144.82036609375018,
          "velocity": 0.984251968503937,
          "duration": 0.05028734374999999
        },
        {
          "name": "A2",
          "midi": 45,
          "time": 144.83114195312518,
          "velocity": 0.984251968503937,
          "duration": 0.0682471093749939
        },
        {
          "name": "A2",
          "midi": 45,
          "time": 145.0035557031252,
          "velocity": 0.7007874015748031,
          "duration": 0.05387929687501014
        },
        {
          "name": "F#2",
          "midi": 42,
          "time": 145.1580096875002,
          "velocity": 0.7322834645669292,
          "duration": 0.05387929687498172
        },
        {
          "name": "A2",
          "midi": 45,
          "time": 145.1651935937502,
          "velocity": 0.5826771653543307,
          "duration": 0.03951148437499796
        },
        {
          "name": "A2",
          "midi": 45,
          "time": 145.33042343750017,
          "velocity": 0.7322834645669292,
          "duration": 0.07183906250000405
        },
        {
          "name": "G2",
          "midi": 43,
          "time": 145.50283718750018,
          "velocity": 0.9921259842519685,
          "duration": 0.08261492187500608
        },
        {
          "name": "F#2",
          "midi": 42,
          "time": 145.51002109375017,
          "velocity": 0.937007874015748,
          "duration": 0.05028734374999999
        },
        {
          "name": "G2",
          "midi": 43,
          "time": 145.67525093750018,
          "velocity": 0.889763779527559,
          "duration": 0.0754310156250142
        },
        {
          "name": "G2",
          "midi": 43,
          "time": 145.8440727343752,
          "velocity": 0.984251968503937,
          "duration": 0.06106320312500202
        },
        {
          "name": "F#2",
          "midi": 42,
          "time": 145.8548485937502,
          "velocity": 0.889763779527559,
          "duration": 0.05028734374999999
        },
        {
          "name": "G2",
          "midi": 43,
          "time": 146.02007843750022,
          "velocity": 0.889763779527559,
          "duration": 0.07183906250000405
        },
        {
          "name": "C#3",
          "midi": 49,
          "time": 146.19249218750022,
          "velocity": 0.937007874015748,
          "duration": 0.05747124999999187
        },
        {
          "name": "C2",
          "midi": 36,
          "time": 146.1996760937502,
          "velocity": 0.952755905511811,
          "duration": 0.29454015625000807
        },
        {
          "name": "F#2",
          "midi": 42,
          "time": 146.5516875000002,
          "velocity": 0.889763779527559,
          "duration": 0.03951148437499796
        },
        {
          "name": "C2",
          "midi": 36,
          "time": 146.7097334375002,
          "velocity": 0.8110236220472441,
          "duration": 0.13290226562500607
        },
        {
          "name": "E2",
          "midi": 40,
          "time": 146.8821471875002,
          "velocity": 0.968503937007874,
          "duration": 0.3160918750000121
        },
        {
          "name": "F#2",
          "midi": 42,
          "time": 146.89651500000022,
          "velocity": 0.952755905511811,
          "duration": 0.04310343750000811
        },
        {
          "name": "F#2",
          "midi": 42,
          "time": 147.22697468750022,
          "velocity": 0.7637795275590551,
          "duration": 0.04310343750000811
        },
        {
          "name": "C2",
          "midi": 36,
          "time": 147.39579648437524,
          "velocity": 0.8110236220472441,
          "duration": 0.06106320312500202
        },
        {
          "name": "C2",
          "midi": 36,
          "time": 147.57180218750025,
          "velocity": 0.9212598425196851,
          "duration": 0.3304596874999959
        },
        {
          "name": "F#2",
          "midi": 42,
          "time": 147.57898609375025,
          "velocity": 0.952755905511811,
          "duration": 0.05028734374999999
        },
        {
          "name": "F#2",
          "midi": 42,
          "time": 147.92381359375025,
          "velocity": 0.7480314960629921,
          "duration": 0.05028734374999999
        },
        {
          "name": "C2",
          "midi": 36,
          "time": 148.08904343750027,
          "velocity": 0.937007874015748,
          "duration": 0.20833328124999184
        },
        {
          "name": "F#2",
          "midi": 42,
          "time": 148.26864109375026,
          "velocity": 0.905511811023622,
          "duration": 0.06465515624998375
        },
        {
          "name": "C2",
          "midi": 36,
          "time": 148.45183070312524,
          "velocity": 0.8740157480314961,
          "duration": 0.12212640625000404
        },
        {
          "name": "F#2",
          "midi": 42,
          "time": 148.60628468750025,
          "velocity": 0.7637795275590551,
          "duration": 0.05387929687498172
        },
        {
          "name": "E2",
          "midi": 40,
          "time": 148.62424445312524,
          "velocity": 0.968503937007874,
          "duration": 0.2478447656249898
        },
        {
          "name": "F#2",
          "midi": 42,
          "time": 148.95829609375022,
          "velocity": 0.952755905511811,
          "duration": 0.05747124999999187
        },
        {
          "name": "C2",
          "midi": 36,
          "time": 148.96907195312522,
          "velocity": 0.9212598425196851,
          "duration": 0.3053160156249817
        },
        {
          "name": "F#2",
          "midi": 42,
          "time": 149.2959396875002,
          "velocity": 0.7637795275590551,
          "duration": 0.05747124999999187
        },
        {
          "name": "C2",
          "midi": 36,
          "time": 149.4863132031252,
          "velocity": 0.84251968503937,
          "duration": 0.15445398437501012
        },
        {
          "name": "E2",
          "midi": 40,
          "time": 149.6587269531252,
          "velocity": 0.968503937007874,
          "duration": 0.28376429687500604
        },
        {
          "name": "F#2",
          "midi": 42,
          "time": 149.6587269531252,
          "velocity": 0.952755905511811,
          "duration": 0.05747124999999187
        },
        {
          "name": "F#2",
          "midi": 42,
          "time": 149.99277859375022,
          "velocity": 0.84251968503937,
          "duration": 0.04669539062498984
        },
        {
          "name": "E2",
          "midi": 40,
          "time": 150.16519234375022,
          "velocity": 0.952755905511811,
          "duration": 0.161637890625002
        },
        {
          "name": "E2",
          "midi": 40,
          "time": 150.33760609375022,
          "velocity": 0.952755905511811,
          "duration": 0.05747124999999187
        },
        {
          "name": "F#2",
          "midi": 42,
          "time": 150.34838195312523,
          "velocity": 0.937007874015748,
          "duration": 0.04669539062498984
        },
        {
          "name": "E2",
          "midi": 40,
          "time": 150.44536468750022,
          "velocity": 0.7795275590551181,
          "duration": 0.04669539062498984
        },
        {
          "name": "E2",
          "midi": 40,
          "time": 150.5603071875002,
          "velocity": 0.7244094488188977,
          "duration": 0.05387929687501014
        },
        {
          "name": "E2",
          "midi": 40,
          "time": 150.6752496875002,
          "velocity": 0.7952755905511811,
          "duration": 0.04669539062498984
        },
        {
          "name": "F#2",
          "midi": 42,
          "time": 150.6932094531252,
          "velocity": 0.8582677165354331,
          "duration": 0.05747124999999187
        },
        {
          "name": "E2",
          "midi": 40,
          "time": 150.7901921875002,
          "velocity": 0.8267716535433071,
          "duration": 0.05387929687501014
        },
        {
          "name": "E2",
          "midi": 40,
          "time": 150.9051346875002,
          "velocity": 0.8110236220472441,
          "duration": 0.05747124999999187
        },
        {
          "name": "A2",
          "midi": 45,
          "time": 151.0272610937502,
          "velocity": 0.8740157480314961,
          "duration": 0.06824710937502232
        },
        {
          "name": "F#2",
          "midi": 42,
          "time": 151.03803695312521,
          "velocity": 0.9212598425196851,
          "duration": 0.05387929687501014
        },
        {
          "name": "A2",
          "midi": 45,
          "time": 151.14220359375022,
          "velocity": 0.7086614173228346,
          "duration": 0.04669539062498984
        },
        {
          "name": "A2",
          "midi": 45,
          "time": 151.2571460937502,
          "velocity": 0.84251968503937,
          "duration": 0.04669539062498984
        },
        {
          "name": "G2",
          "midi": 43,
          "time": 151.3720885937502,
          "velocity": 0.7637795275590551,
          "duration": 0.04669539062498984
        },
        {
          "name": "F#2",
          "midi": 42,
          "time": 151.3828644531252,
          "velocity": 0.84251968503937,
          "duration": 0.06465515624998375
        },
        {
          "name": "G2",
          "midi": 43,
          "time": 151.47984718750018,
          "velocity": 0.9212598425196851,
          "duration": 0.05747124999999187
        },
        {
          "name": "G2",
          "midi": 43,
          "time": 151.59478968750017,
          "velocity": 0.84251968503937,
          "duration": 0.04310343750000811
        },
        {
          "name": "C2",
          "midi": 36,
          "time": 151.71691609375017,
          "velocity": 0.952755905511811,
          "duration": 0.323275781250004
        },
        {
          "name": "C#3",
          "midi": 49,
          "time": 151.72769195312517,
          "velocity": 0.905511811023622,
          "duration": 0.0754310156250142
        },
        {
          "name": "F#2",
          "midi": 42,
          "time": 152.07251945312518,
          "velocity": 0.9212598425196851,
          "duration": 0.05747124999999187
        },
        {
          "name": "C2",
          "midi": 36,
          "time": 152.23415734375018,
          "velocity": 0.84251968503937,
          "duration": 0.11494250000001216
        },
        {
          "name": "E2",
          "midi": 40,
          "time": 152.4065710937502,
          "velocity": 0.952755905511811,
          "duration": 0.2801723437499959
        },
        {
          "name": "F#2",
          "midi": 42,
          "time": 152.4173469531252,
          "velocity": 0.968503937007874,
          "duration": 0.03951148437499796
        },
        {
          "name": "F#2",
          "midi": 42,
          "time": 152.7513985937502,
          "velocity": 0.8740157480314961,
          "duration": 0.03591953124998781
        },
        {
          "name": "C2",
          "midi": 36,
          "time": 152.91662843750018,
          "velocity": 0.7952755905511811,
          "duration": 0.05747124999999187
        },
        {
          "name": "C2",
          "midi": 36,
          "time": 153.08904218750018,
          "velocity": 0.9212598425196851,
          "duration": 0.20114937499997154
        },
        {
          "name": "F#2",
          "midi": 42,
          "time": 153.09622609375018,
          "velocity": 0.9212598425196851,
          "duration": 0.04669539062498984
        },
        {
          "name": "C2",
          "midi": 36,
          "time": 153.43386968750016,
          "velocity": 0.905511811023622,
          "duration": 0.15804593749999185
        },
        {
          "name": "F#2",
          "midi": 42,
          "time": 153.44105359375015,
          "velocity": 0.84251968503937,
          "duration": 0.028735624999995935
        },
        {
          "name": "E2",
          "midi": 40,
          "time": 153.77869718750014,
          "velocity": 0.968503937007874,
          "duration": 0.13290226562497764
        },
        {
          "name": "F#2",
          "midi": 42,
          "time": 153.78588109375013,
          "velocity": 0.937007874015748,
          "duration": 0.04669539062498984
        },
        {
          "name": "E2",
          "midi": 40,
          "time": 154.12352468750012,
          "velocity": 0.968503937007874,
          "duration": 0.05747124999999187
        },
        {
          "name": "F#2",
          "midi": 42,
          "time": 154.13070859375011,
          "velocity": 0.889763779527559,
          "duration": 0.03591953124998781
        },
        {
          "name": "E2",
          "midi": 40,
          "time": 154.30312234375012,
          "velocity": 1,
          "duration": 0.16522984375001215
        },
        {
          "name": "C#3",
          "midi": 49,
          "time": 154.47553609375012,
          "velocity": 0.968503937007874,
          "duration": 0.06465515624998375
        },
        {
          "name": "C2",
          "midi": 36,
          "time": 154.49349585937512,
          "velocity": 0.968503937007874,
          "duration": 0.2047413281249817
        },
        {
          "name": "E2",
          "midi": 40,
          "time": 154.6479498437501,
          "velocity": 0.8740157480314961,
          "duration": 0.07902296874999593
        },
        {
          "name": "F#2",
          "midi": 42,
          "time": 154.8203635937501,
          "velocity": 0.905511811023622,
          "duration": 0.04669539062498984
        },
        {
          "name": "E2",
          "midi": 40,
          "time": 154.8275475000001,
          "velocity": 0.8267716535433071,
          "duration": 0.0682471093749939
        },
        {
          "name": "E2",
          "midi": 40,
          "time": 155.00355320312508,
          "velocity": 0.889763779527559,
          "duration": 0.0754310156250142
        },
        {
          "name": "E2",
          "midi": 40,
          "time": 155.1723750000001,
          "velocity": 0.889763779527559,
          "duration": 0.0862068749999878
        },
        {
          "name": "F#2",
          "midi": 42,
          "time": 155.1759669531251,
          "velocity": 0.968503937007874,
          "duration": 0.04669539062498984
        },
        {
          "name": "E2",
          "midi": 40,
          "time": 155.33760484375009,
          "velocity": 0.9212598425196851,
          "duration": 0.0682471093749939
        },
        {
          "name": "F#2",
          "midi": 42,
          "time": 155.5100185937501,
          "velocity": 0.84251968503937,
          "duration": 0.03591953124998781
        },
        {
          "name": "A2",
          "midi": 45,
          "time": 155.5100185937501,
          "velocity": 0.8267716535433071,
          "duration": 0.0682471093749939
        },
        {
          "name": "A2",
          "midi": 45,
          "time": 155.6824323437501,
          "velocity": 0.9212598425196851,
          "duration": 0.06465515625001217
        },
        {
          "name": "F#2",
          "midi": 42,
          "time": 155.8548460937501,
          "velocity": 0.937007874015748,
          "duration": 0.04669539062498984
        },
        {
          "name": "G2",
          "midi": 43,
          "time": 155.8548460937501,
          "velocity": 0.905511811023622,
          "duration": 0.06465515624998375
        },
        {
          "name": "G2",
          "midi": 43,
          "time": 156.02725984375007,
          "velocity": 0.889763779527559,
          "duration": 0.05747124999999187
        },
        {
          "name": "G2",
          "midi": 43,
          "time": 156.19967359375008,
          "velocity": 0.889763779527559,
          "duration": 0.06465515624998375
        },
        {
          "name": "F#2",
          "midi": 42,
          "time": 156.20685750000007,
          "velocity": 0.889763779527559,
          "duration": 0.05747124999999187
        },
        {
          "name": "G2",
          "midi": 43,
          "time": 156.36490343750006,
          "velocity": 0.952755905511811,
          "duration": 0.06465515625001217
        },
        {
          "name": "E2",
          "midi": 40,
          "time": 156.54450109375009,
          "velocity": 0.984251968503937,
          "duration": 0.15086203124999997
        },
        {
          "name": "F#2",
          "midi": 42,
          "time": 156.5552769531251,
          "velocity": 0.937007874015748,
          "duration": 0.04669539062498984
        },
        {
          "name": "F#2",
          "midi": 42,
          "time": 156.8893285937501,
          "velocity": 0.889763779527559,
          "duration": 0.04669539062498984
        },
        {
          "name": "E2",
          "midi": 40,
          "time": 156.9001044531251,
          "velocity": 0.9212598425196851,
          "duration": 0.14008617187499794
        },
        {
          "name": "C#3",
          "midi": 49,
          "time": 157.2341560937501,
          "velocity": 0.905511811023622,
          "duration": 0.0682471093749939
        },
        {
          "name": "C2",
          "midi": 36,
          "time": 157.2521158593751,
          "velocity": 0.968503937007874,
          "duration": 0.27658039062501416
        },
        {
          "name": "F#2",
          "midi": 42,
          "time": 157.5789835937501,
          "velocity": 0.8740157480314961,
          "duration": 0.05028734374999999
        },
        {
          "name": "C2",
          "midi": 36,
          "time": 157.7585812500001,
          "velocity": 0.84251968503937,
          "duration": 0.12931031249999592
        },
        {
          "name": "E2",
          "midi": 40,
          "time": 157.9345869531251,
          "velocity": 0.968503937007874,
          "duration": 0.22629304687498575
        },
        {
          "name": "F#2",
          "midi": 42,
          "time": 157.9345869531251,
          "velocity": 0.952755905511811,
          "duration": 0.04669539062498984
        },
        {
          "name": "F#2",
          "midi": 42,
          "time": 158.26863859375007,
          "velocity": 0.8582677165354331,
          "duration": 0.04669539062498984
        },
        {
          "name": "C2",
          "midi": 36,
          "time": 158.43386843750005,
          "velocity": 0.7795275590551181,
          "duration": 0.05387929687501014
        },
        {
          "name": "C2",
          "midi": 36,
          "time": 158.60628218750006,
          "velocity": 0.905511811023622,
          "duration": 0.3160918749999837
        },
        {
          "name": "F#2",
          "midi": 42,
          "time": 158.62424195312505,
          "velocity": 0.9212598425196851,
          "duration": 0.03951148437499796
        },
        {
          "name": "F#2",
          "midi": 42,
          "time": 158.95829359375003,
          "velocity": 0.8267716535433071,
          "duration": 0.03951148437499796
        },
        {
          "name": "C2",
          "midi": 36,
          "time": 159.13070734375003,
          "velocity": 0.968503937007874,
          "duration": 0.11494250000001216
        },
        {
          "name": "F#2",
          "midi": 42,
          "time": 159.30312109375004,
          "velocity": 0.8740157480314961,
          "duration": 0.03951148437499796
        },
        {
          "name": "F#2",
          "midi": 42,
          "time": 159.64794859375004,
          "velocity": 0.889763779527559,
          "duration": 0.03951148437499796
        },
        {
          "name": "E2",
          "midi": 40,
          "time": 159.82036234375005,
          "velocity": 0.952755905511811,
          "duration": 0.15445398437501012
        },
        {
          "name": "C2",
          "midi": 36,
          "time": 159.99277609375005,
          "velocity": 0.9212598425196851,
          "duration": 0.3160918749999837
        },
        {
          "name": "F#2",
          "midi": 42,
          "time": 159.99996000000004,
          "velocity": 0.9212598425196851,
          "duration": 0.028735624999995935
        },
        {
          "name": "F#2",
          "midi": 42,
          "time": 160.33760359375003,
          "velocity": 0.8267716535433071,
          "duration": 0.03951148437499796
        },
        {
          "name": "C2",
          "midi": 36,
          "time": 160.51720125000003,
          "velocity": 0.84251968503937,
          "duration": 0.1257183593750142
        },
        {
          "name": "E2",
          "midi": 40,
          "time": 160.68243109375004,
          "velocity": 0.9921259842519685,
          "duration": 0.26939648437499386
        },
        {
          "name": "F#2",
          "midi": 42,
          "time": 160.68243109375004,
          "velocity": 0.9212598425196851,
          "duration": 0.03951148437499796
        },
        {
          "name": "F#2",
          "midi": 42,
          "time": 161.03803445312502,
          "velocity": 0.8740157480314961,
          "duration": 0.03591953124998781
        },
        {
          "name": "E2",
          "midi": 40,
          "time": 161.1924884375,
          "velocity": 0.952755905511811,
          "duration": 0.1795976562499959
        },
        {
          "name": "E2",
          "midi": 40,
          "time": 161.37208609375,
          "velocity": 0.952755905511811,
          "duration": 0.05747124999999187
        },
        {
          "name": "F#2",
          "midi": 42,
          "time": 161.382861953125,
          "velocity": 0.889763779527559,
          "duration": 0.028735624999995935
        },
        {
          "name": "E2",
          "midi": 40,
          "time": 161.4798446875,
          "velocity": 0.7795275590551181,
          "duration": 0.04669539062498984
        },
        {
          "name": "E2",
          "midi": 40,
          "time": 161.59478718749997,
          "velocity": 0.7244094488188977,
          "duration": 0.05387929687501014
        },
        {
          "name": "E2",
          "midi": 40,
          "time": 161.7097296875,
          "velocity": 0.7952755905511811,
          "duration": 0.04669539062498984
        },
        {
          "name": "F#2",
          "midi": 42,
          "time": 161.72768945312498,
          "velocity": 0.8582677165354331,
          "duration": 0.028735624999995935
        },
        {
          "name": "E2",
          "midi": 40,
          "time": 161.82467218749997,
          "velocity": 0.8267716535433071,
          "duration": 0.05387929687501014
        },
        {
          "name": "E2",
          "midi": 40,
          "time": 161.93961468749998,
          "velocity": 0.8110236220472441,
          "duration": 0.05747124999999187
        },
        {
          "name": "A2",
          "midi": 45,
          "time": 162.06174109375,
          "velocity": 0.8740157480314961,
          "duration": 0.0682471093749939
        },
        {
          "name": "F#2",
          "midi": 42,
          "time": 162.072516953125,
          "velocity": 0.905511811023622,
          "duration": 0.03591953124998781
        },
        {
          "name": "A2",
          "midi": 45,
          "time": 162.17668359374997,
          "velocity": 0.7086614173228346,
          "duration": 0.04669539062498984
        },
        {
          "name": "A2",
          "midi": 45,
          "time": 162.29162609374995,
          "velocity": 0.84251968503937,
          "duration": 0.04669539062498984
        },
        {
          "name": "G2",
          "midi": 43,
          "time": 162.40656859374994,
          "velocity": 0.7637795275590551,
          "duration": 0.04669539062498984
        },
        {
          "name": "F#2",
          "midi": 42,
          "time": 162.41734445312494,
          "velocity": 0.84251968503937,
          "duration": 0.03951148437499796
        },
        {
          "name": "G2",
          "midi": 43,
          "time": 162.51432718749993,
          "velocity": 0.9212598425196851,
          "duration": 0.05747124999999187
        },
        {
          "name": "G2",
          "midi": 43,
          "time": 162.6292696874999,
          "velocity": 0.84251968503937,
          "duration": 0.04310343750000811
        },
        {
          "name": "C2",
          "midi": 36,
          "time": 162.75139609374992,
          "velocity": 0.9212598425196851,
          "duration": 0.2981321093749898
        },
        {
          "name": "F#2",
          "midi": 42,
          "time": 162.76217195312492,
          "velocity": 0.905511811023622,
          "duration": 0.03591953124998781
        },
        {
          "name": "F#2",
          "midi": 42,
          "time": 163.10340749999992,
          "velocity": 0.8110236220472441,
          "duration": 0.04310343750000811
        },
        {
          "name": "C2",
          "midi": 36,
          "time": 163.26863734374993,
          "velocity": 0.7795275590551181,
          "duration": 0.10416664062501013
        },
        {
          "name": "E2",
          "midi": 40,
          "time": 163.44105109374993,
          "velocity": 0.968503937007874,
          "duration": 0.3160918749999837
        },
        {
          "name": "F#2",
          "midi": 42,
          "time": 163.44823499999993,
          "velocity": 0.8740157480314961,
          "duration": 0.03951148437499796
        },
        {
          "name": "F#2",
          "midi": 42,
          "time": 163.7858785937499,
          "velocity": 0.7795275590551181,
          "duration": 0.04669539062498984
        },
        {
          "name": "C2",
          "midi": 36,
          "time": 163.94751648437492,
          "velocity": 0.7480314960629921,
          "duration": 0.0682471093749939
        },
        {
          "name": "C2",
          "midi": 36,
          "time": 164.1235221874999,
          "velocity": 0.9212598425196851,
          "duration": 0.3591953124999918
        },
        {
          "name": "F#2",
          "midi": 42,
          "time": 164.1307060937499,
          "velocity": 0.905511811023622,
          "duration": 0.03951148437499796
        },
        {
          "name": "F#2",
          "midi": 42,
          "time": 164.4755335937499,
          "velocity": 0.8267716535433071,
          "duration": 0.03951148437499796
        },
        {
          "name": "C2",
          "midi": 36,
          "time": 164.6587232031249,
          "velocity": 0.905511811023622,
          "duration": 0.20833328124999184
        },
        {
          "name": "F#2",
          "midi": 42,
          "time": 164.8203610937499,
          "velocity": 0.9212598425196851,
          "duration": 0.03951148437499796
        },
        {
          "name": "C2",
          "midi": 36,
          "time": 165.0107346093749,
          "velocity": 0.84251968503937,
          "duration": 0.0862068749999878
        },
        {
          "name": "F#2",
          "midi": 42,
          "time": 165.1651885937499,
          "velocity": 0.8740157480314961,
          "duration": 0.04669539062498984
        },
        {
          "name": "E2",
          "midi": 40,
          "time": 165.18314835937488,
          "velocity": 0.984251968503937,
          "duration": 0.21910914062499387
        },
        {
          "name": "C#3",
          "midi": 49,
          "time": 165.5171999999999,
          "velocity": 0.9212598425196851,
          "duration": 0.06106320312500202
        },
        {
          "name": "C2",
          "midi": 36,
          "time": 165.5279758593749,
          "velocity": 0.8582677165354331,
          "duration": 0.26939648437499386
        },
        {
          "name": "F#2",
          "midi": 42,
          "time": 165.86561945312488,
          "velocity": 0.8267716535433071,
          "duration": 0.03591953124998781
        },
        {
          "name": "C2",
          "midi": 36,
          "time": 166.03803320312485,
          "velocity": 0.8267716535433071,
          "duration": 0.10416664062501013
        },
        {
          "name": "E2",
          "midi": 40,
          "time": 166.19967109374986,
          "velocity": 0.937007874015748,
          "duration": 0.27658039062498574
        },
        {
          "name": "F#2",
          "midi": 42,
          "time": 166.21044695312486,
          "velocity": 0.84251968503937,
          "duration": 0.04669539062498984
        },
        {
          "name": "F#2",
          "midi": 42,
          "time": 166.54449859374984,
          "velocity": 0.8740157480314961,
          "duration": 0.04669539062498984
        },
        {
          "name": "E2",
          "midi": 40,
          "time": 166.70972843749982,
          "velocity": 0.968503937007874,
          "duration": 0.13290226562500607
        },
        {
          "name": "C2",
          "midi": 36,
          "time": 166.88214218749982,
          "velocity": 0.952755905511811,
          "duration": 0.05747124999999187
        },
        {
          "name": "F#2",
          "midi": 42,
          "time": 166.88932609374982,
          "velocity": 0.8740157480314961,
          "duration": 0.03951148437499796
        },
        {
          "name": "C2",
          "midi": 36,
          "time": 167.05455593749983,
          "velocity": 0.9212598425196851,
          "duration": 0.14008617187502637
        },
        {
          "name": "C#3",
          "midi": 49,
          "time": 167.06892374999984,
          "velocity": 0.952755905511811,
          "duration": 0.05028734374999999
        },
        {
          "name": "C#3",
          "midi": 49,
          "time": 168.08903843749985,
          "velocity": 0.8740157480314961,
          "duration": 0.06465515625001217
        },
        {
          "name": "C2",
          "midi": 36,
          "time": 168.26863609374988,
          "velocity": 0.937007874015748,
          "duration": 0.2981321093749898
        },
        {
          "name": "F#2",
          "midi": 42,
          "time": 168.26863609374988,
          "velocity": 0.8740157480314961,
          "duration": 0.03951148437499796
        },
        {
          "name": "F#2",
          "midi": 42,
          "time": 168.61346359374986,
          "velocity": 0.905511811023622,
          "duration": 0.03591953124998781
        },
        {
          "name": "C2",
          "midi": 36,
          "time": 168.78587734374983,
          "velocity": 0.8582677165354331,
          "duration": 0.11494250000001216
        },
        {
          "name": "E2",
          "midi": 40,
          "time": 168.95829109374984,
          "velocity": 0.984251968503937,
          "duration": 0.3089079687499918
        },
        {
          "name": "F#2",
          "midi": 42,
          "time": 168.95829109374984,
          "velocity": 0.905511811023622,
          "duration": 0.04669539062498984
        },
        {
          "name": "F#2",
          "midi": 42,
          "time": 169.29593468749982,
          "velocity": 0.9212598425196851,
          "duration": 0.04669539062498984
        },
        {
          "name": "C2",
          "midi": 36,
          "time": 169.46834843749983,
          "velocity": 0.952755905511811,
          "duration": 0.13290226562500607
        },
        {
          "name": "A2",
          "midi": 45,
          "time": 169.64794609374982,
          "velocity": 0.968503937007874,
          "duration": 0.04669539062498984
        },
        {
          "name": "A2",
          "midi": 45,
          "time": 169.82035984374983,
          "velocity": 0.8582677165354331,
          "duration": 0.05028734374999999
        },
        {
          "name": "A2",
          "midi": 45,
          "time": 169.98558968749984,
          "velocity": 0.952755905511811,
          "duration": 0.03591953124998781
        },
        {
          "name": "A2",
          "midi": 45,
          "time": 170.15441148437483,
          "velocity": 0.905511811023622,
          "duration": 0.021551718750004056
        },
        {
          "name": "C#3",
          "midi": 49,
          "time": 170.17237124999983,
          "velocity": 0.8740157480314961,
          "duration": 0.07183906250000405
        },
        {
          "name": "C2",
          "midi": 36,
          "time": 170.52079070312485,
          "velocity": 0.9212598425196851,
          "duration": 0.04669539062498984
        },
        {
          "name": "C2",
          "midi": 36,
          "time": 170.69320445312485,
          "velocity": 0.937007874015748,
          "duration": 0.14008617187499794
        },
        {
          "name": "C2",
          "midi": 36,
          "time": 171.03803195312486,
          "velocity": 0.968503937007874,
          "duration": 0.3053160156249817
        },
        {
          "name": "C#3",
          "midi": 49,
          "time": 171.03803195312486,
          "velocity": 0.9212598425196851,
          "duration": 0.05747124999999187
        },
        {
          "name": "F#2",
          "midi": 42,
          "time": 171.37926749999983,
          "velocity": 0.905511811023622,
          "duration": 0.04310343750000811
        },
        {
          "name": "C2",
          "midi": 36,
          "time": 171.54449734374984,
          "velocity": 0.8267716535433071,
          "duration": 0.1364942187499878
        },
        {
          "name": "F#2",
          "midi": 42,
          "time": 171.71691109374981,
          "velocity": 0.937007874015748,
          "duration": 0.05747124999999187
        },
        {
          "name": "E2",
          "midi": 40,
          "time": 171.7240949999998,
          "velocity": 0.968503937007874,
          "duration": 0.32686773437501415
        },
        {
          "name": "F#2",
          "midi": 42,
          "time": 172.06173859374982,
          "velocity": 0.968503937007874,
          "duration": 0.04669539062498984
        },
        {
          "name": "C2",
          "midi": 36,
          "time": 172.2269684374998,
          "velocity": 0.952755905511811,
          "duration": 0.17241375000000403
        },
        {
          "name": "A2",
          "midi": 45,
          "time": 172.4065660937498,
          "velocity": 0.8110236220472441,
          "duration": 0.0682471093749939
        },
        {
          "name": "A2",
          "midi": 45,
          "time": 172.5789798437498,
          "velocity": 0.84251968503937,
          "duration": 0.05747124999999187
        },
        {
          "name": "A2",
          "midi": 45,
          "time": 172.7513935937498,
          "velocity": 0.905511811023622,
          "duration": 0.06465515625001217
        },
        {
          "name": "C#3",
          "midi": 49,
          "time": 172.92380734374981,
          "velocity": 0.952755905511811,
          "duration": 0.05028734374999999
        },
        {
          "name": "A2",
          "midi": 45,
          "time": 172.92380734374981,
          "velocity": 0.952755905511811,
          "duration": 0.03951148437499796
        },
        {
          "name": "C2",
          "midi": 36,
          "time": 173.27941070312482,
          "velocity": 0.9212598425196851,
          "duration": 0.05747124999999187
        },
        {
          "name": "C2",
          "midi": 36,
          "time": 173.44104859374983,
          "velocity": 0.8740157480314961,
          "duration": 0.09698273437498983
        },
        {
          "name": "C2",
          "midi": 36,
          "time": 173.79305999999983,
          "velocity": 0.9921259842519685,
          "duration": 0.19396546875000809
        },
        {
          "name": "E2",
          "midi": 40,
          "time": 173.79665195312484,
          "velocity": 0.952755905511811,
          "duration": 0.23706890624998778
        },
        {
          "name": "C#3",
          "midi": 49,
          "time": 173.79665195312484,
          "velocity": 1,
          "duration": 0.05387929687501014
        },
        {
          "name": "C#3",
          "midi": 49,
          "time": 194.4970778124998,
          "velocity": 1,
          "duration": 0.323275781250004
        },
        {
          "name": "C2",
          "midi": 36,
          "time": 194.4970778124998,
          "velocity": 0.968503937007874,
          "duration": 0.3304596874999959
        },
        {
          "name": "C2",
          "midi": 36,
          "time": 195.58543960937482,
          "velocity": 0.952755905511811,
          "duration": 2.0150857031249814
        },
        {
          "name": "C#3",
          "midi": 49,
          "time": 195.6033993749998,
          "velocity": 1,
          "duration": 1.9181029687499915
        },
        {
          "name": "E2",
          "midi": 40,
          "time": 204.1486558593748,
          "velocity": 0.968503937007874,
          "duration": 0.0682471093749939
        },
        {
          "name": "E2",
          "midi": 40,
          "time": 204.3210696093748,
          "velocity": 0.7480314960629921,
          "duration": 0.07902296874999593
        },
        {
          "name": "E2",
          "midi": 40,
          "time": 204.4862994531248,
          "velocity": 0.5511811023622047,
          "duration": 0.06465515625001217
        },
        {
          "name": "E2",
          "midi": 40,
          "time": 204.6658971093748,
          "velocity": 0.8582677165354331,
          "duration": 0.0862068749999878
        },
        {
          "name": "E2",
          "midi": 40,
          "time": 204.8383108593748,
          "velocity": 0.984251968503937,
          "duration": 0.06106320312500202
        },
        {
          "name": "E2",
          "midi": 40,
          "time": 205.0107246093748,
          "velocity": 0.8582677165354331,
          "duration": 0.05747124999999187
        },
        {
          "name": "E2",
          "midi": 40,
          "time": 205.1831383593748,
          "velocity": 0.7322834645669292,
          "duration": 0.04669539062498984
        },
        {
          "name": "E2",
          "midi": 40,
          "time": 205.34836820312478,
          "velocity": 0.8740157480314961,
          "duration": 0.0754310156250142
        },
        {
          "name": "E2",
          "midi": 40,
          "time": 205.52078195312478,
          "velocity": 0.984251968503937,
          "duration": 0.0682471093749939
        },
        {
          "name": "E2",
          "midi": 40,
          "time": 205.6931957031248,
          "velocity": 0.889763779527559,
          "duration": 0.0754310156250142
        },
        {
          "name": "E2",
          "midi": 40,
          "time": 205.8656094531248,
          "velocity": 0.8582677165354331,
          "duration": 0.03951148437499796
        },
        {
          "name": "E2",
          "midi": 40,
          "time": 206.0380232031248,
          "velocity": 0.8582677165354331,
          "duration": 0.0862068749999878
        },
        {
          "name": "E2",
          "midi": 40,
          "time": 206.21043695312477,
          "velocity": 0.984251968503937,
          "duration": 0.05747124999999187
        },
        {
          "name": "E2",
          "midi": 40,
          "time": 206.38285070312477,
          "velocity": 0.9212598425196851,
          "duration": 0.06465515625001217
        },
        {
          "name": "E2",
          "midi": 40,
          "time": 206.54448859374978,
          "velocity": 1,
          "duration": 0.06465515625001217
        },
        {
          "name": "E2",
          "midi": 40,
          "time": 206.7240862499998,
          "velocity": 0.937007874015748,
          "duration": 0.05747124999999187
        },
        {
          "name": "C2",
          "midi": 36,
          "time": 206.9000919531248,
          "velocity": 0.984251968503937,
          "duration": 0.1724137499999756
        },
        {
          "name": "C#3",
          "midi": 49,
          "time": 206.9000919531248,
          "velocity": 0.9212598425196851,
          "duration": 0.0862068749999878
        },
        {
          "name": "F#2",
          "midi": 42,
          "time": 207.23414359374976,
          "velocity": 0.7795275590551181,
          "duration": 0.07902296874999593
        },
        {
          "name": "C2",
          "midi": 36,
          "time": 207.24491945312477,
          "velocity": 0.952755905511811,
          "duration": 0.22629304687498575
        },
        {
          "name": "F#2",
          "midi": 42,
          "time": 207.57178718749975,
          "velocity": 0.937007874015748,
          "duration": 0.10416664062501013
        },
        {
          "name": "E2",
          "midi": 40,
          "time": 207.58615499999976,
          "velocity": 0.968503937007874,
          "duration": 0.2909482031249979
        },
        {
          "name": "F#2",
          "midi": 42,
          "time": 207.91661468749976,
          "velocity": 0.6771653543307087,
          "duration": 0.0933907812500081
        },
        {
          "name": "F#2",
          "midi": 42,
          "time": 208.26144218749977,
          "velocity": 0.905511811023622,
          "duration": 0.10057468749999998
        },
        {
          "name": "C2",
          "midi": 36,
          "time": 208.26862609374976,
          "velocity": 0.937007874015748,
          "duration": 0.323275781250004
        },
        {
          "name": "F#2",
          "midi": 42,
          "time": 208.61345359374977,
          "velocity": 0.7795275590551181,
          "duration": 0.0754310156250142
        },
        {
          "name": "C2",
          "midi": 36,
          "time": 208.79664320312477,
          "velocity": 0.9212598425196851,
          "duration": 0.18318960937500606
        },
        {
          "name": "F#2",
          "midi": 42,
          "time": 208.95828109374978,
          "velocity": 0.889763779527559,
          "duration": 0.0933907812500081
        },
        {
          "name": "C2",
          "midi": 36,
          "time": 209.14147070312478,
          "velocity": 0.8110236220472441,
          "duration": 0.11494250000001216
        },
        {
          "name": "F#2",
          "midi": 42,
          "time": 209.2959246874998,
          "velocity": 0.7637795275590551,
          "duration": 0.10416664062498171
        },
        {
          "name": "E2",
          "midi": 40,
          "time": 209.31388445312479,
          "velocity": 0.952755905511811,
          "duration": 0.28735624999998777
        },
        {
          "name": "C2",
          "midi": 36,
          "time": 209.65871195312477,
          "velocity": 0.8740157480314961,
          "duration": 0.19037351562499794
        },
        {
          "name": "C#3",
          "midi": 49,
          "time": 209.65871195312477,
          "velocity": 0.984251968503937,
          "duration": 0.0862068749999878
        },
        {
          "name": "F#2",
          "midi": 42,
          "time": 209.99994749999976,
          "velocity": 0.7795275590551181,
          "duration": 0.05028734374999999
        },
        {
          "name": "C2",
          "midi": 36,
          "time": 210.00353945312477,
          "velocity": 0.8582677165354331,
          "duration": 0.211925234375002
        },
        {
          "name": "E2",
          "midi": 40,
          "time": 210.34836695312478,
          "velocity": 0.952755905511811,
          "duration": 0.211925234375002
        },
        {
          "name": "F#2",
          "midi": 42,
          "time": 210.34836695312478,
          "velocity": 0.9212598425196851,
          "duration": 0.06465515625001217
        },
        {
          "name": "F#2",
          "midi": 42,
          "time": 210.6824185937498,
          "velocity": 0.6062992125984252,
          "duration": 0.0754310156250142
        },
        {
          "name": "C2",
          "midi": 36,
          "time": 211.0380219531248,
          "velocity": 0.905511811023622,
          "duration": 0.33405164062500603
        },
        {
          "name": "F#2",
          "midi": 42,
          "time": 211.0380219531248,
          "velocity": 0.905511811023622,
          "duration": 0.05387929687501014
        },
        {
          "name": "F#2",
          "midi": 42,
          "time": 211.3720735937498,
          "velocity": 0.7795275590551181,
          "duration": 0.05028734374999999
        },
        {
          "name": "C2",
          "midi": 36,
          "time": 211.5552632031248,
          "velocity": 0.8740157480314961,
          "duration": 0.20833328124999184
        },
        {
          "name": "F#2",
          "midi": 42,
          "time": 211.7276769531248,
          "velocity": 0.905511811023622,
          "duration": 0.0682471093749939
        },
        {
          "name": "C2",
          "midi": 36,
          "time": 211.90009070312482,
          "velocity": 0.8582677165354331,
          "duration": 0.1257183593750142
        },
        {
          "name": "F#2",
          "midi": 42,
          "time": 212.06172859374982,
          "velocity": 0.7480314960629921,
          "duration": 0.07902296874999593
        },
        {
          "name": "E2",
          "midi": 40,
          "time": 212.0689124999998,
          "velocity": 0.968503937007874,
          "duration": 0.2981321093750182
        },
        {
          "name": "C#3",
          "midi": 49,
          "time": 212.40655609374983,
          "velocity": 0.9921259842519685,
          "duration": 0.07902296874999593
        },
        {
          "name": "C2",
          "midi": 36,
          "time": 212.41733195312483,
          "velocity": 0.8740157480314961,
          "duration": 0.19037351562499794
        },
        {
          "name": "F#2",
          "midi": 42,
          "time": 212.75138359374984,
          "velocity": 0.7480314960629921,
          "duration": 0.06465515625001217
        },
        {
          "name": "C2",
          "midi": 36,
          "time": 212.76215945312484,
          "velocity": 0.905511811023622,
          "duration": 0.15445398437501012
        },
        {
          "name": "E2",
          "midi": 40,
          "time": 213.10698695312485,
          "velocity": 0.905511811023622,
          "duration": 0.24066085937499793
        },
        {
          "name": "F#2",
          "midi": 42,
          "time": 213.10698695312485,
          "velocity": 0.937007874015748,
          "duration": 0.05747124999999187
        },
        {
          "name": "F#2",
          "midi": 42,
          "time": 213.44822249999984,
          "velocity": 0.7637795275590551,
          "duration": 0.04310343750000811
        },
        {
          "name": "E2",
          "midi": 40,
          "time": 213.45181445312485,
          "velocity": 0.5826771653543307,
          "duration": 0.0682471093749939
        },
        {
          "name": "E2",
          "midi": 40,
          "time": 213.62422820312486,
          "velocity": 0.7952755905511811,
          "duration": 0.0682471093749939
        },
        {
          "name": "F#2",
          "midi": 42,
          "time": 213.79664195312486,
          "velocity": 0.937007874015748,
          "duration": 0.06465515624998375
        },
        {
          "name": "E2",
          "midi": 40,
          "time": 213.80382585937485,
          "velocity": 0.8740157480314961,
          "duration": 0.10416664062498171
        },
        {
          "name": "E2",
          "midi": 40,
          "time": 213.97623960937483,
          "velocity": 0.8582677165354331,
          "duration": 0.0754310156250142
        },
        {
          "name": "F#2",
          "midi": 42,
          "time": 214.13787749999983,
          "velocity": 0.7952755905511811,
          "duration": 0.05747125000002029
        },
        {
          "name": "E2",
          "midi": 40,
          "time": 214.14146945312484,
          "velocity": 0.905511811023622,
          "duration": 0.08620687500001623
        },
        {
          "name": "E2",
          "midi": 40,
          "time": 214.32106710937487,
          "velocity": 0.8740157480314961,
          "duration": 0.09698273437498983
        },
        {
          "name": "F#2",
          "midi": 42,
          "time": 214.48629695312485,
          "velocity": 0.937007874015748,
          "duration": 0.05387929687498172
        },
        {
          "name": "E2",
          "midi": 40,
          "time": 214.49348085937484,
          "velocity": 0.9212598425196851,
          "duration": 0.07902296874999593
        },
        {
          "name": "E2",
          "midi": 40,
          "time": 214.66589460937485,
          "velocity": 0.8740157480314961,
          "duration": 0.0754310156250142
        },
        {
          "name": "F#2",
          "midi": 42,
          "time": 214.82034859374986,
          "velocity": 0.8740157480314961,
          "duration": 0.05747124999999187
        },
        {
          "name": "E2",
          "midi": 40,
          "time": 214.83830835937485,
          "velocity": 0.905511811023622,
          "duration": 0.06106320312500202
        },
        {
          "name": "E2",
          "midi": 40,
          "time": 215.00353820312486,
          "velocity": 0.9212598425196851,
          "duration": 0.0754310156250142
        },
        {
          "name": "C#3",
          "midi": 49,
          "time": 215.16517609374986,
          "velocity": 0.968503937007874,
          "duration": 0.06465515624998375
        },
        {
          "name": "A2",
          "midi": 45,
          "time": 215.17235999999986,
          "velocity": 0.905511811023622,
          "duration": 0.0862068749999878
        },
        {
          "name": "A2",
          "midi": 45,
          "time": 215.33758984374984,
          "velocity": 0.7795275590551181,
          "duration": 0.0933907812500081
        },
        {
          "name": "F#2",
          "midi": 42,
          "time": 215.51000359374984,
          "velocity": 0.84251968503937,
          "duration": 0.05028734374999999
        },
        {
          "name": "A2",
          "midi": 45,
          "time": 215.53155531249985,
          "velocity": 0.5984251968503937,
          "duration": 0.08261492187500608
        },
        {
          "name": "A2",
          "midi": 45,
          "time": 215.70396906249985,
          "velocity": 0.7952755905511811,
          "duration": 0.0862068749999878
        },
        {
          "name": "F#2",
          "midi": 42,
          "time": 215.85483109374985,
          "velocity": 0.9212598425196851,
          "duration": 0.05028734374999999
        },
        {
          "name": "A2",
          "midi": 45,
          "time": 215.88356671874985,
          "velocity": 0.9212598425196851,
          "duration": 0.0933907812500081
        },
        {
          "name": "A2",
          "midi": 45,
          "time": 216.05598046874985,
          "velocity": 0.8110236220472441,
          "duration": 0.07902296874999593
        },
        {
          "name": "F#2",
          "midi": 42,
          "time": 216.19965859374986,
          "velocity": 0.7244094488188977,
          "duration": 0.04669539062498984
        },
        {
          "name": "A2",
          "midi": 45,
          "time": 216.22839421874986,
          "velocity": 0.8740157480314961,
          "duration": 0.0862068749999878
        },
        {
          "name": "A2",
          "midi": 45,
          "time": 216.40080796874983,
          "velocity": 0.905511811023622,
          "duration": 0.07902296874999593
        },
        {
          "name": "F#2",
          "midi": 42,
          "time": 216.54448609374984,
          "velocity": 0.984251968503937,
          "duration": 0.05028734374999999
        },
        {
          "name": "E2",
          "midi": 40,
          "time": 216.55526195312484,
          "velocity": 0.8740157480314961,
          "duration": 0.05387929687501014
        },
        {
          "name": "E2",
          "midi": 40,
          "time": 216.67020445312485,
          "velocity": 0.84251968503937,
          "duration": 0.04669539062498984
        },
        {
          "name": "E2",
          "midi": 40,
          "time": 216.77437109374983,
          "velocity": 0.7244094488188977,
          "duration": 0.03591953124998781
        },
        {
          "name": "F#2",
          "midi": 42,
          "time": 216.88212968749983,
          "velocity": 0.7322834645669292,
          "duration": 0.05387929687498172
        },
        {
          "name": "E2",
          "midi": 40,
          "time": 216.88931359374982,
          "velocity": 0.8110236220472441,
          "duration": 0.03951148437499796
        },
        {
          "name": "E2",
          "midi": 40,
          "time": 217.0042560937498,
          "velocity": 0.7952755905511811,
          "duration": 0.03951148437499796
        },
        {
          "name": "E2",
          "midi": 40,
          "time": 217.11919859374981,
          "velocity": 0.889763779527559,
          "duration": 0.04669539062498984
        },
        {
          "name": "G2",
          "midi": 43,
          "time": 217.2269571874998,
          "velocity": 0.9212598425196851,
          "duration": 0.05387929687498172
        },
        {
          "name": "F#2",
          "midi": 42,
          "time": 217.2341410937498,
          "velocity": 0.937007874015748,
          "duration": 0.05028734374999999
        },
        {
          "name": "G2",
          "midi": 43,
          "time": 217.3418996874998,
          "velocity": 0.8267716535433071,
          "duration": 0.04669539062498984
        },
        {
          "name": "G2",
          "midi": 43,
          "time": 217.4640260937498,
          "velocity": 0.6062992125984252,
          "duration": 0.028735624999995935
        },
        {
          "name": "G2",
          "midi": 43,
          "time": 217.5717846874998,
          "velocity": 0.7952755905511811,
          "duration": 0.04310343749997969
        },
        {
          "name": "F#2",
          "midi": 42,
          "time": 217.57896859374978,
          "velocity": 0.889763779527559,
          "duration": 0.05028734374999999
        },
        {
          "name": "G2",
          "midi": 43,
          "time": 217.68672718749977,
          "velocity": 0.9212598425196851,
          "duration": 0.05387929687501014
        },
        {
          "name": "G2",
          "midi": 43,
          "time": 217.80166968749978,
          "velocity": 0.937007874015748,
          "duration": 0.03591953124998781
        },
        {
          "name": "C#3",
          "midi": 49,
          "time": 217.91661218749977,
          "velocity": 0.937007874015748,
          "duration": 0.05747124999999187
        },
        {
          "name": "C2",
          "midi": 36,
          "time": 217.92379609374976,
          "velocity": 0.9212598425196851,
          "duration": 0.3663792187500121
        },
        {
          "name": "F#2",
          "midi": 42,
          "time": 218.27580749999976,
          "velocity": 0.889763779527559,
          "duration": 0.039511484375026384
        },
        {
          "name": "C2",
          "midi": 36,
          "time": 218.4410373437498,
          "velocity": 0.7480314960629921,
          "duration": 0.13290226562500607
        },
        {
          "name": "E2",
          "midi": 40,
          "time": 218.6134510937498,
          "velocity": 0.952755905511811,
          "duration": 0.38074703124999587
        },
        {
          "name": "F#2",
          "midi": 42,
          "time": 218.6206349999998,
          "velocity": 0.952755905511811,
          "duration": 0.04310343750000811
        },
        {
          "name": "F#2",
          "midi": 42,
          "time": 218.9510946874998,
          "velocity": 0.7637795275590551,
          "duration": 0.04310343750000811
        },
        {
          "name": "C2",
          "midi": 36,
          "time": 219.1414682031248,
          "velocity": 0.7086614173228346,
          "duration": 0.05387929687501014
        },
        {
          "name": "F#2",
          "midi": 42,
          "time": 219.3031060937498,
          "velocity": 0.952755905511811,
          "duration": 0.05028734374999999
        },
        {
          "name": "C2",
          "midi": 36,
          "time": 219.31028999999978,
          "velocity": 0.889763779527559,
          "duration": 0.37715507812501414
        },
        {
          "name": "F#2",
          "midi": 42,
          "time": 219.6479335937498,
          "velocity": 0.7480314960629921,
          "duration": 0.05028734374999999
        },
        {
          "name": "C2",
          "midi": 36,
          "time": 219.8383071093748,
          "velocity": 0.905511811023622,
          "duration": 0.23347695312503447
        },
        {
          "name": "F#2",
          "midi": 42,
          "time": 219.9927610937498,
          "velocity": 0.905511811023622,
          "duration": 0.06465515625001217
        },
        {
          "name": "C2",
          "midi": 36,
          "time": 220.18313460937483,
          "velocity": 0.8110236220472441,
          "duration": 0.1257183593750142
        },
        {
          "name": "F#2",
          "midi": 42,
          "time": 220.33040468749985,
          "velocity": 0.7637795275590551,
          "duration": 0.05387929687498172
        },
        {
          "name": "E2",
          "midi": 40,
          "time": 220.34836445312484,
          "velocity": 0.952755905511811,
          "duration": 0.3232757812499756
        },
        {
          "name": "F#2",
          "midi": 42,
          "time": 220.68241609374982,
          "velocity": 0.952755905511811,
          "duration": 0.05747124999999187
        },
        {
          "name": "C2",
          "midi": 36,
          "time": 220.6895999999998,
          "velocity": 0.84251968503937,
          "duration": 0.34482750000000806
        },
        {
          "name": "F#2",
          "midi": 42,
          "time": 221.0200596874998,
          "velocity": 0.7637795275590551,
          "duration": 0.05747125000002029
        },
        {
          "name": "C2",
          "midi": 36,
          "time": 221.21043320312484,
          "velocity": 0.8582677165354331,
          "duration": 0.1257183593750142
        },
        {
          "name": "E2",
          "midi": 40,
          "time": 221.37207109374984,
          "velocity": 0.937007874015748,
          "duration": 0.35201140624999994
        },
        {
          "name": "F#2",
          "midi": 42,
          "time": 221.38284695312484,
          "velocity": 0.952755905511811,
          "duration": 0.05747124999999187
        },
        {
          "name": "F#2",
          "midi": 42,
          "time": 221.71689859374985,
          "velocity": 0.84251968503937,
          "duration": 0.04669539062498984
        },
        {
          "name": "C2",
          "midi": 36,
          "time": 221.89649624999984,
          "velocity": 0.7480314960629921,
          "duration": 0.06106320312500202
        },
        {
          "name": "C2",
          "midi": 36,
          "time": 222.07250195312486,
          "velocity": 0.8740157480314961,
          "duration": 0.36997117187499384
        },
        {
          "name": "F#2",
          "midi": 42,
          "time": 222.07250195312486,
          "velocity": 0.937007874015748,
          "duration": 0.04669539062498984
        },
        {
          "name": "F#2",
          "midi": 42,
          "time": 222.41732945312484,
          "velocity": 0.8582677165354331,
          "duration": 0.05747125000002029
        },
        {
          "name": "C2",
          "midi": 36,
          "time": 222.59692710937486,
          "velocity": 0.8582677165354331,
          "duration": 0.23347695312503447
        },
        {
          "name": "F#2",
          "midi": 42,
          "time": 222.76215695312487,
          "velocity": 0.9212598425196851,
          "duration": 0.05387929687501014
        },
        {
          "name": "C2",
          "midi": 36,
          "time": 222.9417546093749,
          "velocity": 0.7795275590551181,
          "duration": 0.11853445312499389
        },
        {
          "name": "F#2",
          "midi": 42,
          "time": 223.10698445312488,
          "velocity": 0.84251968503937,
          "duration": 0.06465515624998375
        },
        {
          "name": "E2",
          "midi": 40,
          "time": 223.11416835937487,
          "velocity": 0.952755905511811,
          "duration": 0.2909482031249979
        },
        {
          "name": "C#3",
          "midi": 49,
          "time": 223.45181195312486,
          "velocity": 0.905511811023622,
          "duration": 0.07543101562498578
        },
        {
          "name": "C2",
          "midi": 36,
          "time": 223.45899585937485,
          "velocity": 0.8582677165354331,
          "duration": 0.2981321093749898
        },
        {
          "name": "F#2",
          "midi": 42,
          "time": 223.79663945312484,
          "velocity": 0.9212598425196851,
          "duration": 0.05747124999999187
        },
        {
          "name": "C2",
          "midi": 36,
          "time": 223.96905320312484,
          "velocity": 0.7952755905511811,
          "duration": 0.12212640625000404
        },
        {
          "name": "E2",
          "midi": 40,
          "time": 224.13787499999984,
          "velocity": 0.9212598425196851,
          "duration": 0.32686773437501415
        },
        {
          "name": "F#2",
          "midi": 42,
          "time": 224.14146695312485,
          "velocity": 0.968503937007874,
          "duration": 0.03951148437499796
        },
        {
          "name": "F#2",
          "midi": 42,
          "time": 224.47551859374985,
          "velocity": 0.8740157480314961,
          "duration": 0.03591953124998781
        },
        {
          "name": "C2",
          "midi": 36,
          "time": 224.64793234374983,
          "velocity": 0.7244094488188977,
          "duration": 0.05028734374999999
        },
        {
          "name": "F#2",
          "midi": 42,
          "time": 224.82034609374983,
          "velocity": 0.9212598425196851,
          "duration": 0.04669539062498984
        },
        {
          "name": "C2",
          "midi": 36,
          "time": 224.82752999999983,
          "velocity": 0.8582677165354331,
          "duration": 0.35560335937498166
        },
        {
          "name": "F#2",
          "midi": 42,
          "time": 225.1651735937498,
          "velocity": 0.84251968503937,
          "duration": 0.028735624999995935
        },
        {
          "name": "C2",
          "midi": 36,
          "time": 225.3555471093748,
          "velocity": 0.889763779527559,
          "duration": 0.19396546875000809
        },
        {
          "name": "F#2",
          "midi": 42,
          "time": 225.51000109374982,
          "velocity": 0.937007874015748,
          "duration": 0.04669539062498984
        },
        {
          "name": "C2",
          "midi": 36,
          "time": 225.6931907031248,
          "velocity": 0.84251968503937,
          "duration": 0.0862068749999878
        },
        {
          "name": "F#2",
          "midi": 42,
          "time": 225.8548285937498,
          "velocity": 0.889763779527559,
          "duration": 0.035919531250016234
        },
        {
          "name": "E2",
          "midi": 40,
          "time": 225.8656044531248,
          "velocity": 0.952755905511811,
          "duration": 0.26580453125001213
        },
        {
          "name": "C#3",
          "midi": 49,
          "time": 226.1996560937498,
          "velocity": 0.968503937007874,
          "duration": 0.06465515625001217
        },
        {
          "name": "C2",
          "midi": 36,
          "time": 226.2104319531248,
          "velocity": 0.889763779527559,
          "duration": 0.28376429687500604
        },
        {
          "name": "F#2",
          "midi": 42,
          "time": 226.54448359374982,
          "velocity": 0.905511811023622,
          "duration": 0.04669539062498984
        },
        {
          "name": "C2",
          "midi": 36,
          "time": 226.71689734374982,
          "velocity": 0.84251968503937,
          "duration": 0.11494250000001216
        },
        {
          "name": "E2",
          "midi": 40,
          "time": 226.88931109374982,
          "velocity": 0.937007874015748,
          "duration": 0.2801723437499959
        },
        {
          "name": "F#2",
          "midi": 42,
          "time": 226.90008695312483,
          "velocity": 0.968503937007874,
          "duration": 0.04669539062498984
        },
        {
          "name": "F#2",
          "midi": 42,
          "time": 227.23413859374983,
          "velocity": 0.84251968503937,
          "duration": 0.03591953124998781
        },
        {
          "name": "C2",
          "midi": 36,
          "time": 227.4065523437498,
          "velocity": 0.8110236220472441,
          "duration": 0.06465515625001217
        },
        {
          "name": "C2",
          "midi": 36,
          "time": 227.5789660937498,
          "velocity": 0.8582677165354331,
          "duration": 0.3663792187500121
        },
        {
          "name": "F#2",
          "midi": 42,
          "time": 227.5789660937498,
          "velocity": 0.937007874015748,
          "duration": 0.04669539062498984
        },
        {
          "name": "F#2",
          "midi": 42,
          "time": 227.9309774999998,
          "velocity": 0.889763779527559,
          "duration": 0.05747125000002029
        },
        {
          "name": "C2",
          "midi": 36,
          "time": 228.11416710937485,
          "velocity": 0.8582677165354331,
          "duration": 0.19396546875000809
        },
        {
          "name": "F#2",
          "midi": 42,
          "time": 228.27939695312486,
          "velocity": 0.937007874015748,
          "duration": 0.04669539062498984
        },
        {
          "name": "C2",
          "midi": 36,
          "time": 228.45899460937486,
          "velocity": 0.8267716535433071,
          "duration": 0.11494250000001216
        },
        {
          "name": "F#2",
          "midi": 42,
          "time": 228.61344859374987,
          "velocity": 0.889763779527559,
          "duration": 0.04669539062498984
        },
        {
          "name": "E2",
          "midi": 40,
          "time": 228.62422445312487,
          "velocity": 0.968503937007874,
          "duration": 0.28735624999998777
        },
        {
          "name": "C#3",
          "midi": 49,
          "time": 228.95827609374984,
          "velocity": 0.905511811023622,
          "duration": 0.0682471093749939
        },
        {
          "name": "C2",
          "midi": 36,
          "time": 228.96905195312485,
          "velocity": 0.8740157480314961,
          "duration": 0.32686773437498573
        },
        {
          "name": "F#2",
          "midi": 42,
          "time": 229.30310359374982,
          "velocity": 0.8740157480314961,
          "duration": 0.05028734374999999
        },
        {
          "name": "C2",
          "midi": 36,
          "time": 229.48629320312483,
          "velocity": 0.84251968503937,
          "duration": 0.11135054687500201
        },
        {
          "name": "E2",
          "midi": 40,
          "time": 229.65511499999982,
          "velocity": 0.937007874015748,
          "duration": 0.3160918750000121
        },
        {
          "name": "F#2",
          "midi": 42,
          "time": 229.65870695312483,
          "velocity": 0.952755905511811,
          "duration": 0.04669539062498984
        },
        {
          "name": "F#2",
          "midi": 42,
          "time": 229.99275859374984,
          "velocity": 0.8582677165354331,
          "duration": 0.04669539062498984
        },
        {
          "name": "C2",
          "midi": 36,
          "time": 230.16517234374984,
          "velocity": 0.7480314960629921,
          "duration": 0.06465515625001217
        },
        {
          "name": "C2",
          "midi": 36,
          "time": 230.34836195312485,
          "velocity": 0.8267716535433071,
          "duration": 0.373563125000004
        },
        {
          "name": "F#2",
          "midi": 42,
          "time": 230.34836195312485,
          "velocity": 0.9212598425196851,
          "duration": 0.03951148437499796
        },
        {
          "name": "F#2",
          "midi": 42,
          "time": 230.68241359374986,
          "velocity": 0.8267716535433071,
          "duration": 0.03951148437499796
        },
        {
          "name": "C2",
          "midi": 36,
          "time": 230.86560320312486,
          "velocity": 0.8110236220472441,
          "duration": 0.20833328124999184
        },
        {
          "name": "F#2",
          "midi": 42,
          "time": 231.02724109374986,
          "velocity": 0.8740157480314961,
          "duration": 0.03951148437499796
        },
        {
          "name": "C2",
          "midi": 36,
          "time": 231.21043070312484,
          "velocity": 0.7795275590551181,
          "duration": 0.09698273437498983
        },
        {
          "name": "F#2",
          "midi": 42,
          "time": 231.37206859374984,
          "velocity": 0.889763779527559,
          "duration": 0.03951148437499796
        },
        {
          "name": "E2",
          "midi": 40,
          "time": 231.38284445312485,
          "velocity": 0.952755905511811,
          "duration": 0.27658039062498574
        },
        {
          "name": "F#2",
          "midi": 42,
          "time": 231.72407999999984,
          "velocity": 0.9212598425196851,
          "duration": 0.028735625000024356
        },
        {
          "name": "C2",
          "midi": 36,
          "time": 231.72767195312485,
          "velocity": 0.8582677165354331,
          "duration": 0.323275781250004
        },
        {
          "name": "F#2",
          "midi": 42,
          "time": 232.06172359374986,
          "velocity": 0.8267716535433071,
          "duration": 0.03951148437499796
        },
        {
          "name": "C2",
          "midi": 36,
          "time": 232.24132124999986,
          "velocity": 0.8110236220472441,
          "duration": 0.11853445312499389
        },
        {
          "name": "E2",
          "midi": 40,
          "time": 232.40655109374984,
          "velocity": 0.952755905511811,
          "duration": 0.2981321093749898
        },
        {
          "name": "F#2",
          "midi": 42,
          "time": 232.40655109374984,
          "velocity": 0.9212598425196851,
          "duration": 0.03951148437499796
        },
        {
          "name": "F#2",
          "midi": 42,
          "time": 232.76215445312482,
          "velocity": 0.8740157480314961,
          "duration": 0.03591953124998781
        },
        {
          "name": "C2",
          "midi": 36,
          "time": 232.9345682031248,
          "velocity": 0.7086614173228346,
          "duration": 0.05747124999999187
        },
        {
          "name": "C2",
          "midi": 36,
          "time": 233.1069819531248,
          "velocity": 0.84251968503937,
          "duration": 0.36278726562500196
        },
        {
          "name": "F#2",
          "midi": 42,
          "time": 233.1069819531248,
          "velocity": 0.889763779527559,
          "duration": 0.028735624999995935
        },
        {
          "name": "F#2",
          "midi": 42,
          "time": 233.4518094531248,
          "velocity": 0.8582677165354331,
          "duration": 0.028735624999995935
        },
        {
          "name": "C2",
          "midi": 36,
          "time": 233.6314071093748,
          "velocity": 0.84251968503937,
          "duration": 0.21910914062499387
        },
        {
          "name": "F#2",
          "midi": 42,
          "time": 233.79663695312482,
          "velocity": 0.905511811023622,
          "duration": 0.03591953124998781
        },
        {
          "name": "C2",
          "midi": 36,
          "time": 233.9690507031248,
          "velocity": 0.7952755905511811,
          "duration": 0.10416664062501013
        },
        {
          "name": "E2",
          "midi": 40,
          "time": 234.1414644531248,
          "velocity": 0.968503937007874,
          "duration": 0.28376429687500604
        },
        {
          "name": "F#2",
          "midi": 42,
          "time": 234.1414644531248,
          "velocity": 0.84251968503937,
          "duration": 0.03951148437499796
        },
        {
          "name": "C2",
          "midi": 36,
          "time": 234.4862919531248,
          "velocity": 0.84251968503937,
          "duration": 0.29454015625000807
        },
        {
          "name": "C#3",
          "midi": 49,
          "time": 234.5150275781248,
          "velocity": 1,
          "duration": 0.10416664062501013
        }
      ],
      "controlChanges": {
        "1": [
          {
            "number": 1,
            "time": 237.75856124999981,
            "value": 0
          }
        ],
        "7": [
          {
            "number": 7,
            "time": 0,
            "value": 0.9448818897637795
          },
          {
            "number": 7,
            "time": 237.4137337499998,
            "value": 0.7874015748031497
          }
        ],
        "10": [
          {
            "number": 10,
            "time": 0,
            "value": 0.5196850393700787
          },
          {
            "number": 10,
            "time": 238.10338874999982,
            "value": 0.5039370078740157
          }
        ],
        "11": [
          {
            "number": 11,
            "time": 238.44821624999983,
            "value": 1
          }
        ],
        "64": [
          {
            "number": 64,
            "time": 238.79304374999984,
            "value": 0
          }
        ],
        "91": [
          {
            "number": 91,
            "time": 31.544532343750003,
            "value": 0.5039370078740157
          },
          {
            "number": 91,
            "time": 82.790927578125,
            "value": 0.984251968503937
          },
          {
            "number": 91,
            "time": 239.31028499999985,
            "value": 0.31496062992125984
          }
        ],
        "93": [
          {
            "number": 93,
            "time": 31.724130000000002,
            "value": 0
          },
          {
            "number": 93,
            "time": 239.82752624999986,
            "value": 0
          }
        ],
        "121": [
          {
            "number": 121,
            "time": 237.2413199999998,
            "value": 0
          }
        ],
        "123": [
          {
            "number": 123,
            "time": 241.20683624999987,
            "value": 0
          }
        ]
      },
      "instrument": ""
    },
    {
      "name": "Bass                ",
      "notes": [
        {
          "name": "B1",
          "midi": 35,
          "time": 7.262929218750001,
          "velocity": 0.7244094488188977,
          "duration": 0.2406608593750006
        },
        {
          "name": "D2",
          "midi": 38,
          "time": 7.474854453125001,
          "velocity": 0.5905511811023622,
          "duration": 0.3160918749999997
        },
        {
          "name": "B1",
          "midi": 35,
          "time": 7.769394609375001,
          "velocity": 0.6535433070866141,
          "duration": 0.21192523437499933
        },
        {
          "name": "D2",
          "midi": 38,
          "time": 7.941808359375001,
          "velocity": 0.8582677165354331,
          "duration": 0.28017234374999944
        },
        {
          "name": "E1",
          "midi": 28,
          "time": 8.286635859375,
          "velocity": 0.7952755905511811,
          "duration": 0.2909482031249997
        },
        {
          "name": "E1",
          "midi": 28,
          "time": 8.803877109375,
          "velocity": 0.5669291338582677,
          "duration": 0.06824710937499923
        },
        {
          "name": "E1",
          "midi": 28,
          "time": 8.9798828125,
          "velocity": 0.7322834645669292,
          "duration": 0.3879309375000002
        },
        {
          "name": "E1",
          "midi": 28,
          "time": 9.511491874999999,
          "velocity": 0.5748031496062992,
          "duration": 0.09698273437500049
        },
        {
          "name": "E1",
          "midi": 28,
          "time": 9.6982734375,
          "velocity": 0.6850393700787402,
          "duration": 0.36997117187500095
        },
        {
          "name": "E1",
          "midi": 28,
          "time": 10.1867790625,
          "velocity": 0.5275590551181102,
          "duration": 0.08620687500000024
        },
        {
          "name": "E1",
          "midi": 28,
          "time": 10.3879284375,
          "velocity": 0.6850393700787402,
          "duration": 0.3879309375000002
        },
        {
          "name": "E1",
          "midi": 28,
          "time": 10.894393828124999,
          "velocity": 0.6377952755905512,
          "duration": 0.09339078124999922
        },
        {
          "name": "E1",
          "midi": 28,
          "time": 11.095543203124999,
          "velocity": 0.7244094488188977,
          "duration": 0.3843389843750007
        },
        {
          "name": "E1",
          "midi": 28,
          "time": 11.60200859375,
          "velocity": 0.5669291338582677,
          "duration": 0.07902296874999948
        },
        {
          "name": "E1",
          "midi": 28,
          "time": 11.785198203124999,
          "velocity": 0.7795275590551181,
          "duration": 0.3915228906249997
        },
        {
          "name": "E1",
          "midi": 28,
          "time": 12.309623359375,
          "velocity": 0.7244094488188977,
          "duration": 0.07543101562499999
        },
        {
          "name": "E1",
          "midi": 28,
          "time": 12.47126125,
          "velocity": 0.7637795275590551,
          "duration": 0.18318960937500073
        },
        {
          "name": "B1",
          "midi": 35,
          "time": 12.81608875,
          "velocity": 0.5905511811023622,
          "duration": 0.20114937499999996
        },
        {
          "name": "D2",
          "midi": 38,
          "time": 12.999278359375001,
          "velocity": 0.8110236220472441,
          "duration": 0.3196838281249992
        },
        {
          "name": "B1",
          "midi": 35,
          "time": 13.308186328125,
          "velocity": 0.6850393700787402,
          "duration": 0.21192523437500022
        },
        {
          "name": "D2",
          "midi": 38,
          "time": 13.480600078125,
          "velocity": 0.889763779527559,
          "duration": 0.3160918749999997
        },
        {
          "name": "E1",
          "midi": 28,
          "time": 13.8362034375,
          "velocity": 0.905511811023622,
          "duration": 0.2945401562499992
        },
        {
          "name": "E1",
          "midi": 28,
          "time": 14.321117109374999,
          "velocity": 0.6771653543307087,
          "duration": 0.07543101562499999
        },
        {
          "name": "E1",
          "midi": 28,
          "time": 14.53304234375,
          "velocity": 0.8110236220472441,
          "duration": 0.2658045312499997
        },
        {
          "name": "E1",
          "midi": 28,
          "time": 15.02154796875,
          "velocity": 0.7795275590551181,
          "duration": 0.06824710937499923
        },
        {
          "name": "E1",
          "midi": 28,
          "time": 15.165226093749999,
          "velocity": 0.7007874015748031,
          "duration": 0.16522984374999972
        },
        {
          "name": "B1",
          "midi": 35,
          "time": 15.556748984374998,
          "velocity": 0.5984251968503937,
          "duration": 0.17241375000000048
        },
        {
          "name": "D2",
          "midi": 38,
          "time": 15.718386874999998,
          "velocity": 0.7952755905511811,
          "duration": 0.3663792187499997
        },
        {
          "name": "B1",
          "midi": 35,
          "time": 16.073990234375,
          "velocity": 0.6141732283464567,
          "duration": 0.19037351562499794
        },
        {
          "name": "D2",
          "midi": 38,
          "time": 16.246403984374997,
          "velocity": 0.8582677165354331,
          "duration": 0.31968382812500096
        },
        {
          "name": "E1",
          "midi": 28,
          "time": 16.594823437499997,
          "velocity": 0.889763779527559,
          "duration": 0.2873562499999984
        },
        {
          "name": "E1",
          "midi": 28,
          "time": 17.083329062499995,
          "velocity": 0.7007874015748031,
          "duration": 0.08261492187499897
        },
        {
          "name": "E1",
          "midi": 28,
          "time": 17.273702578124993,
          "velocity": 0.7637795275590551,
          "duration": 0.3340516406249989
        },
        {
          "name": "E1",
          "midi": 28,
          "time": 17.780167968749993,
          "velocity": 0.6456692913385826,
          "duration": 0.07543101562499999
        },
        {
          "name": "E1",
          "midi": 28,
          "time": 17.96335757812499,
          "velocity": 0.7244094488188977,
          "duration": 0.15086203124999997
        },
        {
          "name": "B1",
          "midi": 35,
          "time": 18.29740921874999,
          "velocity": 0.5905511811023622,
          "duration": 0.211925234375002
        },
        {
          "name": "D2",
          "midi": 38,
          "time": 18.49137468749999,
          "velocity": 0.7952755905511811,
          "duration": 0.36278726562500196
        },
        {
          "name": "B1",
          "midi": 35,
          "time": 18.854161953124994,
          "velocity": 0.6456692913385826,
          "duration": 0.19037351562499794
        },
        {
          "name": "D2",
          "midi": 38,
          "time": 19.015799843749992,
          "velocity": 0.8582677165354331,
          "duration": 0.29454015625000096
        },
        {
          "name": "E1",
          "midi": 28,
          "time": 19.360627343749993,
          "velocity": 0.84251968503937,
          "duration": 0.28017234374999944
        },
        {
          "name": "E1",
          "midi": 28,
          "time": 19.867092734374992,
          "velocity": 0.7795275590551181,
          "duration": 0.0897988281250015
        },
        {
          "name": "E1",
          "midi": 28,
          "time": 20.068242109374992,
          "velocity": 0.7086614173228346,
          "duration": 0.30531601562499944
        },
        {
          "name": "E1",
          "midi": 28,
          "time": 20.545971874999992,
          "velocity": 0.6850393700787402,
          "duration": 0.057471249999998975
        },
        {
          "name": "E1",
          "midi": 28,
          "time": 20.73275343749999,
          "velocity": 0.8267716535433071,
          "duration": 0.16163789062499845
        },
        {
          "name": "B1",
          "midi": 35,
          "time": 21.09194874999999,
          "velocity": 0.6456692913385826,
          "duration": 0.186781562500002
        },
        {
          "name": "D2",
          "midi": 38,
          "time": 21.26436249999999,
          "velocity": 0.7322834645669292,
          "duration": 0.34841945312500044
        },
        {
          "name": "B1",
          "midi": 35,
          "time": 21.61278195312499,
          "velocity": 0.7007874015748031,
          "duration": 0.18318960937499895
        },
        {
          "name": "D2",
          "midi": 38,
          "time": 21.76723593749999,
          "velocity": 0.8267716535433071,
          "duration": 0.3124999218749984
        },
        {
          "name": "E1",
          "midi": 28,
          "time": 22.112063437499987,
          "velocity": 0.8110236220472441,
          "duration": 0.29454015625000096
        },
        {
          "name": "E1",
          "midi": 28,
          "time": 22.618528828124987,
          "velocity": 0.7086614173228346,
          "duration": 0.093390781250001
        },
        {
          "name": "E1",
          "midi": 28,
          "time": 22.83045406249999,
          "velocity": 0.8267716535433071,
          "duration": 0.25862062499999894
        },
        {
          "name": "E1",
          "midi": 28,
          "time": 23.275856249999986,
          "velocity": 0.7322834645669292,
          "duration": 0.068247109375001
        },
        {
          "name": "E1",
          "midi": 28,
          "time": 23.469821718749987,
          "velocity": 0.7952755905511811,
          "duration": 0.16163789062499845
        },
        {
          "name": "B1",
          "midi": 35,
          "time": 23.86134460937499,
          "velocity": 0.6692913385826772,
          "duration": 0.17241375000000048
        },
        {
          "name": "D2",
          "midi": 38,
          "time": 24.015798593749988,
          "velocity": 0.7952755905511811,
          "duration": 0.3340516406249989
        },
        {
          "name": "B1",
          "midi": 35,
          "time": 24.33907437499999,
          "velocity": 0.5905511811023622,
          "duration": 0.22988499999999945
        },
        {
          "name": "D2",
          "midi": 38,
          "time": 24.525855937499987,
          "velocity": 0.84251968503937,
          "duration": 0.29454015625000096
        },
        {
          "name": "E1",
          "midi": 28,
          "time": 24.85990757812499,
          "velocity": 0.8267716535433071,
          "duration": 0.2873562499999984
        },
        {
          "name": "E1",
          "midi": 28,
          "time": 25.38792468749999,
          "velocity": 0.7244094488188977,
          "duration": 0.08261492187499897
        },
        {
          "name": "E1",
          "midi": 28,
          "time": 25.58907406249999,
          "velocity": 0.8110236220472441,
          "duration": 0.28376429687499893
        },
        {
          "name": "E1",
          "midi": 28,
          "time": 26.077579687499988,
          "velocity": 0.7637795275590551,
          "duration": 0.0718390625000005
        },
        {
          "name": "E1",
          "midi": 28,
          "time": 26.249993437499988,
          "velocity": 0.7637795275590551,
          "duration": 0.1400861718750015
        },
        {
          "name": "B1",
          "midi": 35,
          "time": 26.61278070312499,
          "velocity": 0.6062992125984252,
          "duration": 0.18318960937499895
        },
        {
          "name": "D2",
          "midi": 38,
          "time": 26.77441859374999,
          "velocity": 0.7244094488188977,
          "duration": 0.37356312500000044
        },
        {
          "name": "B1",
          "midi": 35,
          "time": 27.14798171874999,
          "velocity": 0.6062992125984252,
          "duration": 0.18318960937499895
        },
        {
          "name": "D2",
          "midi": 38,
          "time": 27.30243570312499,
          "velocity": 0.8582677165354331,
          "duration": 0.29454015625000096
        },
        {
          "name": "E1",
          "midi": 28,
          "time": 27.62571148437499,
          "velocity": 0.8582677165354331,
          "duration": 0.25143671874999995
        },
        {
          "name": "E1",
          "midi": 28,
          "time": 28.11780906249999,
          "velocity": 0.7244094488188977,
          "duration": 0.08261492187499897
        },
        {
          "name": "E1",
          "midi": 28,
          "time": 28.31895843749999,
          "velocity": 0.7952755905511811,
          "duration": 0.2658045312500015
        },
        {
          "name": "E1",
          "midi": 28,
          "time": 28.807464062499992,
          "velocity": 0.7480314960629921,
          "duration": 0.0718390625000005
        },
        {
          "name": "E1",
          "midi": 28,
          "time": 28.997837578124994,
          "velocity": 0.7637795275590551,
          "duration": 0.13290226562499896
        },
        {
          "name": "B1",
          "midi": 35,
          "time": 29.34266507812499,
          "velocity": 0.6141732283464567,
          "duration": 0.20114937499999996
        },
        {
          "name": "D2",
          "midi": 38,
          "time": 29.51507882812499,
          "velocity": 0.7637795275590551,
          "duration": 0.3627872656249984
        },
        {
          "name": "B1",
          "midi": 35,
          "time": 29.87786609374999,
          "velocity": 0.5590551181102362,
          "duration": 0.2083332812500025
        },
        {
          "name": "D2",
          "midi": 38,
          "time": 30.04309593749999,
          "velocity": 0.8267716535433071,
          "duration": 0.2837642968750025
        },
        {
          "name": "E1",
          "midi": 28,
          "time": 30.384331484374993,
          "velocity": 0.8267716535433071,
          "duration": 0.24784476562500046
        },
        {
          "name": "E1",
          "midi": 28,
          "time": 30.862061249999993,
          "velocity": 0.7637795275590551,
          "duration": 0.07902296874999948
        },
        {
          "name": "E1",
          "midi": 28,
          "time": 31.07398648437499,
          "velocity": 0.8110236220472441,
          "duration": 0.26221257812499843
        },
        {
          "name": "E1",
          "midi": 28,
          "time": 31.58045187499999,
          "velocity": 0.7952755905511811,
          "duration": 0.07902296874999948
        },
        {
          "name": "E1",
          "midi": 28,
          "time": 31.76723343749999,
          "velocity": 0.8110236220472441,
          "duration": 0.12931031249999947
        },
        {
          "name": "B1",
          "midi": 35,
          "time": 32.13720460937499,
          "velocity": 0.5826771653543307,
          "duration": 0.211925234375002
        },
        {
          "name": "D2",
          "midi": 38,
          "time": 32.309618359374994,
          "velocity": 0.7795275590551181,
          "duration": 0.34482750000000095
        },
        {
          "name": "B1",
          "midi": 35,
          "time": 32.654445859374995,
          "velocity": 0.6377952755905512,
          "duration": 0.17600570312499997
        },
        {
          "name": "D2",
          "midi": 38,
          "time": 32.80171593749999,
          "velocity": 0.84251968503937,
          "duration": 0.27658039062499995
        },
        {
          "name": "E1",
          "midi": 28,
          "time": 33.13576757812499,
          "velocity": 0.8740157480314961,
          "duration": 0.24066085937499793
        },
        {
          "name": "E1",
          "midi": 28,
          "time": 33.61349734374999,
          "velocity": 0.7795275590551181,
          "duration": 0.07902296875000303
        },
        {
          "name": "E1",
          "midi": 28,
          "time": 33.82542257812499,
          "velocity": 0.84251968503937,
          "duration": 0.24066085937499793
        },
        {
          "name": "E1",
          "midi": 28,
          "time": 34.321112109374994,
          "velocity": 0.8582677165354331,
          "duration": 0.068247109375001
        },
        {
          "name": "E1",
          "midi": 28,
          "time": 34.4683821875,
          "velocity": 0.6535433070866141,
          "duration": 0.16882179687500098
        },
        {
          "name": "B1",
          "midi": 35,
          "time": 34.867088984374995,
          "velocity": 0.5984251968503937,
          "duration": 0.14727007812499693
        },
        {
          "name": "D2",
          "midi": 38,
          "time": 35.01076710937499,
          "velocity": 0.7007874015748031,
          "duration": 0.36278726562500196
        },
        {
          "name": "B1",
          "midi": 35,
          "time": 35.37355437499999,
          "velocity": 0.6692913385826772,
          "duration": 0.23347695312499894
        },
        {
          "name": "D2",
          "midi": 38,
          "time": 35.55674398437499,
          "velocity": 0.8740157480314961,
          "duration": 0.26939648437500097
        },
        {
          "name": "E1",
          "midi": 28,
          "time": 35.89438757812499,
          "velocity": 0.8740157480314961,
          "duration": 0.24066085937499793
        },
        {
          "name": "E1",
          "midi": 28,
          "time": 36.37211734374999,
          "velocity": 0.7795275590551181,
          "duration": 0.07902296875000303
        },
        {
          "name": "E1",
          "midi": 28,
          "time": 36.58404257812499,
          "velocity": 0.84251968503937,
          "duration": 0.24066085937499793
        },
        {
          "name": "E1",
          "midi": 28,
          "time": 37.079732109374994,
          "velocity": 0.8582677165354331,
          "duration": 0.068247109375001
        },
        {
          "name": "E1",
          "midi": 28,
          "time": 37.2270021875,
          "velocity": 0.6535433070866141,
          "duration": 0.16882179687500098
        },
        {
          "name": "B1",
          "midi": 35,
          "time": 37.625708984374995,
          "velocity": 0.5984251968503937,
          "duration": 0.14727007812499693
        },
        {
          "name": "D2",
          "midi": 38,
          "time": 37.76938710937499,
          "velocity": 0.7007874015748031,
          "duration": 0.36278726562500196
        },
        {
          "name": "B1",
          "midi": 35,
          "time": 38.13217437499999,
          "velocity": 0.6692913385826772,
          "duration": 0.23347695312499894
        },
        {
          "name": "D2",
          "midi": 38,
          "time": 38.31536398437499,
          "velocity": 0.8740157480314961,
          "duration": 0.26939648437500097
        },
        {
          "name": "E1",
          "midi": 28,
          "time": 38.65300757812499,
          "velocity": 0.8740157480314961,
          "duration": 0.24066085937499793
        },
        {
          "name": "E1",
          "midi": 28,
          "time": 39.13073734374999,
          "velocity": 0.7795275590551181,
          "duration": 0.07902296875000303
        },
        {
          "name": "E1",
          "midi": 28,
          "time": 39.342662578124994,
          "velocity": 0.84251968503937,
          "duration": 0.24066085937499793
        },
        {
          "name": "E1",
          "midi": 28,
          "time": 39.838352109374995,
          "velocity": 0.8582677165354331,
          "duration": 0.068247109375001
        },
        {
          "name": "E1",
          "midi": 28,
          "time": 39.9856221875,
          "velocity": 0.6535433070866141,
          "duration": 0.16882179687500098
        },
        {
          "name": "B1",
          "midi": 35,
          "time": 40.384328984374996,
          "velocity": 0.5984251968503937,
          "duration": 0.14727007812499693
        },
        {
          "name": "D2",
          "midi": 38,
          "time": 40.52800710937499,
          "velocity": 0.7007874015748031,
          "duration": 0.36278726562500196
        },
        {
          "name": "B1",
          "midi": 35,
          "time": 40.89079437499999,
          "velocity": 0.6692913385826772,
          "duration": 0.23347695312499894
        },
        {
          "name": "D2",
          "midi": 38,
          "time": 41.07398398437499,
          "velocity": 0.8740157480314961,
          "duration": 0.26939648437500097
        },
        {
          "name": "E1",
          "midi": 28,
          "time": 41.41162757812499,
          "velocity": 0.8740157480314961,
          "duration": 0.24066085937499793
        },
        {
          "name": "E1",
          "midi": 28,
          "time": 41.88935734374999,
          "velocity": 0.7795275590551181,
          "duration": 0.07902296875000303
        },
        {
          "name": "E1",
          "midi": 28,
          "time": 42.101282578124994,
          "velocity": 0.84251968503937,
          "duration": 0.24066085937499793
        },
        {
          "name": "E1",
          "midi": 28,
          "time": 42.596972109374995,
          "velocity": 0.8582677165354331,
          "duration": 0.068247109375001
        },
        {
          "name": "E1",
          "midi": 28,
          "time": 42.7442421875,
          "velocity": 0.6535433070866141,
          "duration": 0.16882179687500098
        },
        {
          "name": "B1",
          "midi": 35,
          "time": 43.142948984374996,
          "velocity": 0.5984251968503937,
          "duration": 0.14727007812499693
        },
        {
          "name": "D2",
          "midi": 38,
          "time": 43.28662710937499,
          "velocity": 0.7007874015748031,
          "duration": 0.36278726562500196
        },
        {
          "name": "B1",
          "midi": 35,
          "time": 43.64941437499999,
          "velocity": 0.6692913385826772,
          "duration": 0.23347695312499894
        },
        {
          "name": "D2",
          "midi": 38,
          "time": 43.83260398437499,
          "velocity": 0.8740157480314961,
          "duration": 0.26939648437500097
        },
        {
          "name": "E1",
          "midi": 28,
          "time": 44.17024757812499,
          "velocity": 0.8740157480314961,
          "duration": 0.24066085937499793
        },
        {
          "name": "E1",
          "midi": 28,
          "time": 44.64797734374999,
          "velocity": 0.7795275590551181,
          "duration": 0.07902296875000303
        },
        {
          "name": "E1",
          "midi": 28,
          "time": 44.859902578124995,
          "velocity": 0.84251968503937,
          "duration": 0.24066085937499793
        },
        {
          "name": "E1",
          "midi": 28,
          "time": 45.355592109374996,
          "velocity": 0.8582677165354331,
          "duration": 0.068247109375001
        },
        {
          "name": "E1",
          "midi": 28,
          "time": 45.5028621875,
          "velocity": 0.6535433070866141,
          "duration": 0.16882179687500098
        },
        {
          "name": "B1",
          "midi": 35,
          "time": 45.901568984375,
          "velocity": 0.5984251968503937,
          "duration": 0.14727007812499693
        },
        {
          "name": "D2",
          "midi": 38,
          "time": 46.04524710937499,
          "velocity": 0.7007874015748031,
          "duration": 0.36278726562500196
        },
        {
          "name": "B1",
          "midi": 35,
          "time": 46.40803437499999,
          "velocity": 0.6692913385826772,
          "duration": 0.23347695312499894
        },
        {
          "name": "D2",
          "midi": 38,
          "time": 46.59122398437499,
          "velocity": 0.8740157480314961,
          "duration": 0.26939648437500097
        },
        {
          "name": "E1",
          "midi": 28,
          "time": 46.92886757812499,
          "velocity": 0.8740157480314961,
          "duration": 0.24066085937499793
        },
        {
          "name": "E1",
          "midi": 28,
          "time": 47.40659734374999,
          "velocity": 0.7795275590551181,
          "duration": 0.07902296875000303
        },
        {
          "name": "E1",
          "midi": 28,
          "time": 47.618522578124995,
          "velocity": 0.84251968503937,
          "duration": 0.24066085937499793
        },
        {
          "name": "E1",
          "midi": 28,
          "time": 48.114212109374996,
          "velocity": 0.8582677165354331,
          "duration": 0.068247109375001
        },
        {
          "name": "E1",
          "midi": 28,
          "time": 48.2614821875,
          "velocity": 0.6535433070866141,
          "duration": 0.16882179687500098
        },
        {
          "name": "B1",
          "midi": 35,
          "time": 48.660188984375,
          "velocity": 0.5984251968503937,
          "duration": 0.14727007812499693
        },
        {
          "name": "D2",
          "midi": 38,
          "time": 48.80386710937499,
          "velocity": 0.7007874015748031,
          "duration": 0.36278726562500196
        },
        {
          "name": "B1",
          "midi": 35,
          "time": 49.16665437499999,
          "velocity": 0.6692913385826772,
          "duration": 0.23347695312499894
        },
        {
          "name": "D2",
          "midi": 38,
          "time": 49.34984398437499,
          "velocity": 0.8740157480314961,
          "duration": 0.26939648437500097
        },
        {
          "name": "E1",
          "midi": 28,
          "time": 49.687487578124994,
          "velocity": 0.8740157480314961,
          "duration": 0.24066085937499793
        },
        {
          "name": "E1",
          "midi": 28,
          "time": 50.165217343749994,
          "velocity": 0.7795275590551181,
          "duration": 0.07902296875000303
        },
        {
          "name": "E1",
          "midi": 28,
          "time": 50.377142578124996,
          "velocity": 0.84251968503937,
          "duration": 0.24066085937499793
        },
        {
          "name": "E1",
          "midi": 28,
          "time": 50.872832109375,
          "velocity": 0.8582677165354331,
          "duration": 0.068247109375001
        },
        {
          "name": "E1",
          "midi": 28,
          "time": 51.0201021875,
          "velocity": 0.6535433070866141,
          "duration": 0.16882179687500098
        },
        {
          "name": "B1",
          "midi": 35,
          "time": 51.418808984375,
          "velocity": 0.5984251968503937,
          "duration": 0.14727007812499693
        },
        {
          "name": "D2",
          "midi": 38,
          "time": 51.56248710937499,
          "velocity": 0.7007874015748031,
          "duration": 0.36278726562500196
        },
        {
          "name": "B1",
          "midi": 35,
          "time": 51.925274374999994,
          "velocity": 0.6692913385826772,
          "duration": 0.23347695312499894
        },
        {
          "name": "D2",
          "midi": 38,
          "time": 52.10846398437499,
          "velocity": 0.8740157480314961,
          "duration": 0.26939648437500097
        },
        {
          "name": "E1",
          "midi": 28,
          "time": 52.446107578124995,
          "velocity": 0.8740157480314961,
          "duration": 0.24066085937499793
        },
        {
          "name": "E1",
          "midi": 28,
          "time": 52.923837343749994,
          "velocity": 0.7795275590551181,
          "duration": 0.07902296875000303
        },
        {
          "name": "E1",
          "midi": 28,
          "time": 53.135762578125,
          "velocity": 0.84251968503937,
          "duration": 0.24066085937499793
        },
        {
          "name": "E1",
          "midi": 28,
          "time": 53.631452109375,
          "velocity": 0.8582677165354331,
          "duration": 0.068247109375001
        },
        {
          "name": "E1",
          "midi": 28,
          "time": 53.7787221875,
          "velocity": 0.6535433070866141,
          "duration": 0.16882179687500098
        },
        {
          "name": "B1",
          "midi": 35,
          "time": 54.177428984375,
          "velocity": 0.5984251968503937,
          "duration": 0.14727007812499693
        },
        {
          "name": "D2",
          "midi": 38,
          "time": 54.32110710937499,
          "velocity": 0.7007874015748031,
          "duration": 0.36278726562500196
        },
        {
          "name": "B1",
          "midi": 35,
          "time": 54.683894374999994,
          "velocity": 0.6692913385826772,
          "duration": 0.23347695312499894
        },
        {
          "name": "D2",
          "midi": 38,
          "time": 54.86708398437499,
          "velocity": 0.8740157480314961,
          "duration": 0.26939648437500097
        },
        {
          "name": "E1",
          "midi": 28,
          "time": 55.204727578124995,
          "velocity": 0.8740157480314961,
          "duration": 0.24066085937499793
        },
        {
          "name": "E1",
          "midi": 28,
          "time": 55.682457343749995,
          "velocity": 0.7795275590551181,
          "duration": 0.07902296875000303
        },
        {
          "name": "E1",
          "midi": 28,
          "time": 55.894382578125,
          "velocity": 0.84251968503937,
          "duration": 0.24066085937499793
        },
        {
          "name": "E1",
          "midi": 28,
          "time": 56.390072109375,
          "velocity": 0.8582677165354331,
          "duration": 0.068247109375001
        },
        {
          "name": "E1",
          "midi": 28,
          "time": 56.5373421875,
          "velocity": 0.6535433070866141,
          "duration": 0.16882179687500098
        },
        {
          "name": "B1",
          "midi": 35,
          "time": 56.936048984375,
          "velocity": 0.5984251968503937,
          "duration": 0.14727007812499693
        },
        {
          "name": "D2",
          "midi": 38,
          "time": 57.07972710937499,
          "velocity": 0.7007874015748031,
          "duration": 0.36278726562500196
        },
        {
          "name": "B1",
          "midi": 35,
          "time": 57.442514374999995,
          "velocity": 0.6692913385826772,
          "duration": 0.23347695312499894
        },
        {
          "name": "D2",
          "midi": 38,
          "time": 57.625703984374994,
          "velocity": 0.8740157480314961,
          "duration": 0.26939648437500097
        },
        {
          "name": "E1",
          "midi": 28,
          "time": 57.963347578124996,
          "velocity": 0.8740157480314961,
          "duration": 0.24066085937499793
        },
        {
          "name": "E1",
          "midi": 28,
          "time": 58.441077343749996,
          "velocity": 0.7795275590551181,
          "duration": 0.07902296875000303
        },
        {
          "name": "E1",
          "midi": 28,
          "time": 58.653002578125,
          "velocity": 0.84251968503937,
          "duration": 0.24066085937499793
        },
        {
          "name": "E1",
          "midi": 28,
          "time": 59.148692109375,
          "velocity": 0.8582677165354331,
          "duration": 0.068247109375001
        },
        {
          "name": "E1",
          "midi": 28,
          "time": 59.2959621875,
          "velocity": 0.6535433070866141,
          "duration": 0.16882179687500098
        },
        {
          "name": "B1",
          "midi": 35,
          "time": 59.694668984375,
          "velocity": 0.5984251968503937,
          "duration": 0.14727007812499693
        },
        {
          "name": "D2",
          "midi": 38,
          "time": 59.83834710937499,
          "velocity": 0.7007874015748031,
          "duration": 0.36278726562500196
        },
        {
          "name": "B1",
          "midi": 35,
          "time": 60.201134374999995,
          "velocity": 0.6692913385826772,
          "duration": 0.23347695312499894
        },
        {
          "name": "D2",
          "midi": 38,
          "time": 60.384323984374994,
          "velocity": 0.8740157480314961,
          "duration": 0.26939648437500097
        },
        {
          "name": "E1",
          "midi": 28,
          "time": 60.721967578124996,
          "velocity": 0.8740157480314961,
          "duration": 0.24066085937499793
        },
        {
          "name": "E1",
          "midi": 28,
          "time": 61.199697343749996,
          "velocity": 0.7795275590551181,
          "duration": 0.07902296875000303
        },
        {
          "name": "E1",
          "midi": 28,
          "time": 61.411622578125,
          "velocity": 0.84251968503937,
          "duration": 0.24066085937499793
        },
        {
          "name": "E1",
          "midi": 28,
          "time": 61.907312109375,
          "velocity": 0.8582677165354331,
          "duration": 0.068247109375001
        },
        {
          "name": "E1",
          "midi": 28,
          "time": 62.0545821875,
          "velocity": 0.6535433070866141,
          "duration": 0.16882179687500098
        },
        {
          "name": "B1",
          "midi": 35,
          "time": 62.453288984375,
          "velocity": 0.5984251968503937,
          "duration": 0.14727007812499693
        },
        {
          "name": "D2",
          "midi": 38,
          "time": 62.596967109374994,
          "velocity": 0.7007874015748031,
          "duration": 0.36278726562500196
        },
        {
          "name": "B1",
          "midi": 35,
          "time": 62.959754374999996,
          "velocity": 0.6692913385826772,
          "duration": 0.23347695312499894
        },
        {
          "name": "D2",
          "midi": 38,
          "time": 63.142943984374995,
          "velocity": 0.8740157480314961,
          "duration": 0.26939648437500097
        },
        {
          "name": "E1",
          "midi": 28,
          "time": 63.480587578125,
          "velocity": 0.8740157480314961,
          "duration": 0.24066085937499793
        },
        {
          "name": "E1",
          "midi": 28,
          "time": 63.95831734375,
          "velocity": 0.7795275590551181,
          "duration": 0.07902296874999593
        },
        {
          "name": "E1",
          "midi": 28,
          "time": 64.170242578125,
          "velocity": 0.84251968503937,
          "duration": 0.24066085937499793
        },
        {
          "name": "E1",
          "midi": 28,
          "time": 64.66593210937499,
          "velocity": 0.8582677165354331,
          "duration": 0.0682471093749939
        },
        {
          "name": "E1",
          "midi": 28,
          "time": 64.81320218749998,
          "velocity": 0.6535433070866141,
          "duration": 0.16882179687499388
        },
        {
          "name": "B1",
          "midi": 35,
          "time": 65.21190898437497,
          "velocity": 0.5984251968503937,
          "duration": 0.14727007812500403
        },
        {
          "name": "D2",
          "midi": 38,
          "time": 65.35558710937498,
          "velocity": 0.7007874015748031,
          "duration": 0.36278726562500196
        },
        {
          "name": "B1",
          "midi": 35,
          "time": 65.71837437499998,
          "velocity": 0.6692913385826772,
          "duration": 0.23347695312500605
        },
        {
          "name": "D2",
          "midi": 38,
          "time": 65.90156398437499,
          "velocity": 0.8740157480314961,
          "duration": 0.26939648437499386
        },
        {
          "name": "E1",
          "midi": 28,
          "time": 66.23920757812498,
          "velocity": 0.8740157480314961,
          "duration": 0.24066085937499793
        },
        {
          "name": "E1",
          "midi": 28,
          "time": 66.71693734374998,
          "velocity": 0.7795275590551181,
          "duration": 0.07902296874999593
        },
        {
          "name": "E1",
          "midi": 28,
          "time": 66.92886257812498,
          "velocity": 0.84251968503937,
          "duration": 0.24066085937499793
        },
        {
          "name": "E1",
          "midi": 28,
          "time": 67.42455210937497,
          "velocity": 0.8582677165354331,
          "duration": 0.0682471093749939
        },
        {
          "name": "E1",
          "midi": 28,
          "time": 67.57182218749996,
          "velocity": 0.6535433070866141,
          "duration": 0.16882179687499388
        },
        {
          "name": "B1",
          "midi": 35,
          "time": 67.97052898437495,
          "velocity": 0.5984251968503937,
          "duration": 0.14727007812500403
        },
        {
          "name": "D2",
          "midi": 38,
          "time": 68.11420710937496,
          "velocity": 0.7007874015748031,
          "duration": 0.36278726562500196
        },
        {
          "name": "B1",
          "midi": 35,
          "time": 68.47699437499996,
          "velocity": 0.6692913385826772,
          "duration": 0.23347695312500605
        },
        {
          "name": "D2",
          "midi": 38,
          "time": 68.66018398437497,
          "velocity": 0.8740157480314961,
          "duration": 0.26939648437499386
        },
        {
          "name": "E1",
          "midi": 28,
          "time": 68.99782757812496,
          "velocity": 0.8740157480314961,
          "duration": 0.24066085937499793
        },
        {
          "name": "E1",
          "midi": 28,
          "time": 69.47555734374995,
          "velocity": 0.7795275590551181,
          "duration": 0.07902296874999593
        },
        {
          "name": "E1",
          "midi": 28,
          "time": 69.68748257812496,
          "velocity": 0.84251968503937,
          "duration": 0.24066085937499793
        },
        {
          "name": "E1",
          "midi": 28,
          "time": 70.18317210937495,
          "velocity": 0.8582677165354331,
          "duration": 0.0682471093749939
        },
        {
          "name": "E1",
          "midi": 28,
          "time": 70.33044218749994,
          "velocity": 0.6535433070866141,
          "duration": 0.16882179687499388
        },
        {
          "name": "B1",
          "midi": 35,
          "time": 70.72914898437493,
          "velocity": 0.5984251968503937,
          "duration": 0.14727007812500403
        },
        {
          "name": "D2",
          "midi": 38,
          "time": 70.87282710937494,
          "velocity": 0.7007874015748031,
          "duration": 0.36278726562500196
        },
        {
          "name": "B1",
          "midi": 35,
          "time": 71.23561437499994,
          "velocity": 0.6692913385826772,
          "duration": 0.23347695312500605
        },
        {
          "name": "D2",
          "midi": 38,
          "time": 71.41880398437495,
          "velocity": 0.8740157480314961,
          "duration": 0.26939648437499386
        },
        {
          "name": "E1",
          "midi": 28,
          "time": 71.75644757812493,
          "velocity": 0.8740157480314961,
          "duration": 0.24066085937499793
        },
        {
          "name": "E1",
          "midi": 28,
          "time": 72.23417734374993,
          "velocity": 0.7795275590551181,
          "duration": 0.07902296874999593
        },
        {
          "name": "E1",
          "midi": 28,
          "time": 72.44610257812494,
          "velocity": 0.84251968503937,
          "duration": 0.24066085937499793
        },
        {
          "name": "E1",
          "midi": 28,
          "time": 72.94179210937493,
          "velocity": 0.8582677165354331,
          "duration": 0.0682471093749939
        },
        {
          "name": "E1",
          "midi": 28,
          "time": 73.08906218749992,
          "velocity": 0.6535433070866141,
          "duration": 0.16882179687499388
        },
        {
          "name": "B1",
          "midi": 35,
          "time": 73.48776898437491,
          "velocity": 0.5984251968503937,
          "duration": 0.14727007812500403
        },
        {
          "name": "D2",
          "midi": 38,
          "time": 73.63144710937492,
          "velocity": 0.7007874015748031,
          "duration": 0.36278726562500196
        },
        {
          "name": "B1",
          "midi": 35,
          "time": 73.99423437499992,
          "velocity": 0.6692913385826772,
          "duration": 0.23347695312500605
        },
        {
          "name": "D2",
          "midi": 38,
          "time": 74.17742398437493,
          "velocity": 0.8740157480314961,
          "duration": 0.26939648437499386
        },
        {
          "name": "E1",
          "midi": 28,
          "time": 74.51506757812491,
          "velocity": 0.8740157480314961,
          "duration": 0.24066085937499793
        },
        {
          "name": "E1",
          "midi": 28,
          "time": 74.99279734374991,
          "velocity": 0.7795275590551181,
          "duration": 0.07902296874999593
        },
        {
          "name": "E1",
          "midi": 28,
          "time": 75.20472257812492,
          "velocity": 0.84251968503937,
          "duration": 0.24066085937499793
        },
        {
          "name": "E1",
          "midi": 28,
          "time": 75.70041210937491,
          "velocity": 0.8582677165354331,
          "duration": 0.0682471093749939
        },
        {
          "name": "E1",
          "midi": 28,
          "time": 75.8476821874999,
          "velocity": 0.6535433070866141,
          "duration": 0.16882179687499388
        },
        {
          "name": "B1",
          "midi": 35,
          "time": 76.24638898437489,
          "velocity": 0.5984251968503937,
          "duration": 0.14727007812500403
        },
        {
          "name": "D2",
          "midi": 38,
          "time": 76.3900671093749,
          "velocity": 0.7007874015748031,
          "duration": 0.36278726562500196
        },
        {
          "name": "B1",
          "midi": 35,
          "time": 76.7528543749999,
          "velocity": 0.6692913385826772,
          "duration": 0.23347695312500605
        },
        {
          "name": "D2",
          "midi": 38,
          "time": 76.9360439843749,
          "velocity": 0.8740157480314961,
          "duration": 0.26939648437499386
        },
        {
          "name": "E1",
          "midi": 28,
          "time": 77.27368757812489,
          "velocity": 0.8740157480314961,
          "duration": 0.24066085937499793
        },
        {
          "name": "E1",
          "midi": 28,
          "time": 77.75141734374989,
          "velocity": 0.7795275590551181,
          "duration": 0.07902296874999593
        },
        {
          "name": "E1",
          "midi": 28,
          "time": 77.9633425781249,
          "velocity": 0.84251968503937,
          "duration": 0.24066085937499793
        },
        {
          "name": "E1",
          "midi": 28,
          "time": 78.45903210937489,
          "velocity": 0.8582677165354331,
          "duration": 0.0682471093749939
        },
        {
          "name": "E1",
          "midi": 28,
          "time": 78.60630218749988,
          "velocity": 0.6535433070866141,
          "duration": 0.16882179687499388
        },
        {
          "name": "B1",
          "midi": 35,
          "time": 79.00500898437487,
          "velocity": 0.5984251968503937,
          "duration": 0.14727007812500403
        },
        {
          "name": "D2",
          "midi": 38,
          "time": 79.14868710937488,
          "velocity": 0.7007874015748031,
          "duration": 0.36278726562500196
        },
        {
          "name": "B1",
          "midi": 35,
          "time": 79.51147437499988,
          "velocity": 0.6692913385826772,
          "duration": 0.23347695312500605
        },
        {
          "name": "D2",
          "midi": 38,
          "time": 79.69466398437488,
          "velocity": 0.8740157480314961,
          "duration": 0.26939648437499386
        },
        {
          "name": "E1",
          "midi": 28,
          "time": 80.03230757812487,
          "velocity": 0.8740157480314961,
          "duration": 0.24066085937499793
        },
        {
          "name": "E1",
          "midi": 28,
          "time": 80.51003734374987,
          "velocity": 0.7795275590551181,
          "duration": 0.07902296874999593
        },
        {
          "name": "E1",
          "midi": 28,
          "time": 80.72196257812487,
          "velocity": 0.84251968503937,
          "duration": 0.24066085937499793
        },
        {
          "name": "E1",
          "midi": 28,
          "time": 81.21765210937487,
          "velocity": 0.8582677165354331,
          "duration": 0.0682471093749939
        },
        {
          "name": "E1",
          "midi": 28,
          "time": 81.36492218749986,
          "velocity": 0.6535433070866141,
          "duration": 0.16882179687499388
        },
        {
          "name": "B1",
          "midi": 35,
          "time": 81.76362898437485,
          "velocity": 0.5984251968503937,
          "duration": 0.14727007812500403
        },
        {
          "name": "D2",
          "midi": 38,
          "time": 81.90730710937486,
          "velocity": 0.7007874015748031,
          "duration": 0.36278726562500196
        },
        {
          "name": "B1",
          "midi": 35,
          "time": 82.27009437499986,
          "velocity": 0.6692913385826772,
          "duration": 0.23347695312500605
        },
        {
          "name": "D2",
          "midi": 38,
          "time": 82.45328398437486,
          "velocity": 0.8740157480314961,
          "duration": 0.26939648437499386
        },
        {
          "name": "E1",
          "midi": 28,
          "time": 82.75859999999986,
          "velocity": 0.905511811023622,
          "duration": 0.5316090624999958
        },
        {
          "name": "E1",
          "midi": 28,
          "time": 118.63143585937485,
          "velocity": 0.952755905511811,
          "duration": 0.2298849999999959
        },
        {
          "name": "E1",
          "midi": 28,
          "time": 119.13071734374984,
          "velocity": 0.9921259842519685,
          "duration": 0.1795976562499959
        },
        {
          "name": "E1",
          "midi": 28,
          "time": 121.37927999999984,
          "velocity": 0.984251968503937,
          "duration": 0.2909482031249979
        },
        {
          "name": "E1",
          "midi": 28,
          "time": 121.90011320312483,
          "velocity": 1,
          "duration": 0.24066085937499793
        },
        {
          "name": "E1",
          "midi": 28,
          "time": 124.14149195312483,
          "velocity": 0.984251968503937,
          "duration": 0.3053160156249959
        },
        {
          "name": "E1",
          "midi": 28,
          "time": 124.66591710937482,
          "velocity": 0.984251968503937,
          "duration": 0.23347695312500605
        },
        {
          "name": "E1",
          "midi": 28,
          "time": 126.88933609374982,
          "velocity": 0.984251968503937,
          "duration": 0.30890796875000603
        },
        {
          "name": "E1",
          "midi": 28,
          "time": 127.42453710937482,
          "velocity": 0.984251968503937,
          "duration": 0.262212578125002
        },
        {
          "name": "E1",
          "midi": 28,
          "time": 129.64795609374983,
          "velocity": 0.984251968503937,
          "duration": 0.29454015625000807
        },
        {
          "name": "E1",
          "midi": 28,
          "time": 130.17597320312484,
          "velocity": 0.984251968503937,
          "duration": 0.26580453125001213
        },
        {
          "name": "E1",
          "midi": 28,
          "time": 132.39939218749984,
          "velocity": 0.984251968503937,
          "duration": 0.28376429687500604
        },
        {
          "name": "E1",
          "midi": 28,
          "time": 132.92381734374985,
          "velocity": 0.984251968503937,
          "duration": 0.25143671874999995
        },
        {
          "name": "B1",
          "midi": 35,
          "time": 134.15944921874984,
          "velocity": 0.7244094488188977,
          "duration": 0.24066085937502635
        },
        {
          "name": "D2",
          "midi": 38,
          "time": 134.37137445312487,
          "velocity": 0.5905511811023622,
          "duration": 0.3160918750000121
        },
        {
          "name": "B1",
          "midi": 35,
          "time": 134.66591460937488,
          "velocity": 0.6535433070866141,
          "duration": 0.211925234375002
        },
        {
          "name": "D2",
          "midi": 38,
          "time": 134.83832835937488,
          "velocity": 0.8582677165354331,
          "duration": 0.2801723437499959
        },
        {
          "name": "E1",
          "midi": 28,
          "time": 135.21548343749987,
          "velocity": 0.905511811023622,
          "duration": 0.29454015625000807
        },
        {
          "name": "E1",
          "midi": 28,
          "time": 135.70039710937488,
          "velocity": 0.6771653543307087,
          "duration": 0.0754310156250142
        },
        {
          "name": "E1",
          "midi": 28,
          "time": 135.91232234374988,
          "velocity": 0.8110236220472441,
          "duration": 0.26580453125001213
        },
        {
          "name": "E1",
          "midi": 28,
          "time": 136.4008279687499,
          "velocity": 0.7795275590551181,
          "duration": 0.0682471093749939
        },
        {
          "name": "E1",
          "midi": 28,
          "time": 136.5445060937499,
          "velocity": 0.7007874015748031,
          "duration": 0.16522984375001215
        },
        {
          "name": "B1",
          "midi": 35,
          "time": 136.9360289843749,
          "velocity": 0.5984251968503937,
          "duration": 0.17241375000000403
        },
        {
          "name": "D2",
          "midi": 38,
          "time": 137.0976668749999,
          "velocity": 0.7952755905511811,
          "duration": 0.3663792187500121
        },
        {
          "name": "B1",
          "midi": 35,
          "time": 137.4532702343749,
          "velocity": 0.6141732283464567,
          "duration": 0.19037351562499794
        },
        {
          "name": "D2",
          "midi": 38,
          "time": 137.62568398437492,
          "velocity": 0.8582677165354331,
          "duration": 0.31968382812499385
        },
        {
          "name": "E1",
          "midi": 28,
          "time": 137.9741034374999,
          "velocity": 0.905511811023622,
          "duration": 0.29454015625000807
        },
        {
          "name": "E1",
          "midi": 28,
          "time": 138.4590171093749,
          "velocity": 0.6771653543307087,
          "duration": 0.0754310156250142
        },
        {
          "name": "E1",
          "midi": 28,
          "time": 138.6709423437499,
          "velocity": 0.8110236220472441,
          "duration": 0.26580453125001213
        },
        {
          "name": "E1",
          "midi": 28,
          "time": 139.15944796874993,
          "velocity": 0.7795275590551181,
          "duration": 0.0682471093749939
        },
        {
          "name": "E1",
          "midi": 28,
          "time": 139.30312609374994,
          "velocity": 0.7007874015748031,
          "duration": 0.16522984375001215
        },
        {
          "name": "B1",
          "midi": 35,
          "time": 139.69464898437494,
          "velocity": 0.5984251968503937,
          "duration": 0.17241375000000403
        },
        {
          "name": "D2",
          "midi": 38,
          "time": 139.85628687499994,
          "velocity": 0.7952755905511811,
          "duration": 0.3663792187500121
        },
        {
          "name": "B1",
          "midi": 35,
          "time": 140.21189023437495,
          "velocity": 0.6141732283464567,
          "duration": 0.19037351562499794
        },
        {
          "name": "D2",
          "midi": 38,
          "time": 140.38430398437495,
          "velocity": 0.8582677165354331,
          "duration": 0.31968382812499385
        },
        {
          "name": "E1",
          "midi": 28,
          "time": 140.73272343749994,
          "velocity": 0.905511811023622,
          "duration": 0.29454015625000807
        },
        {
          "name": "E1",
          "midi": 28,
          "time": 141.21763710937495,
          "velocity": 0.6771653543307087,
          "duration": 0.0754310156250142
        },
        {
          "name": "E1",
          "midi": 28,
          "time": 141.42956234374995,
          "velocity": 0.8110236220472441,
          "duration": 0.26580453125001213
        },
        {
          "name": "E1",
          "midi": 28,
          "time": 141.91806796874997,
          "velocity": 0.7795275590551181,
          "duration": 0.0682471093749939
        },
        {
          "name": "E1",
          "midi": 28,
          "time": 142.06174609374997,
          "velocity": 0.7007874015748031,
          "duration": 0.16522984375001215
        },
        {
          "name": "B1",
          "midi": 35,
          "time": 142.45326898437497,
          "velocity": 0.5984251968503937,
          "duration": 0.17241375000000403
        },
        {
          "name": "D2",
          "midi": 38,
          "time": 142.61490687499997,
          "velocity": 0.7952755905511811,
          "duration": 0.3663792187500121
        },
        {
          "name": "B1",
          "midi": 35,
          "time": 142.97051023437498,
          "velocity": 0.6141732283464567,
          "duration": 0.19037351562499794
        },
        {
          "name": "D2",
          "midi": 38,
          "time": 143.142923984375,
          "velocity": 0.8582677165354331,
          "duration": 0.31968382812499385
        },
        {
          "name": "E1",
          "midi": 28,
          "time": 143.49134343749998,
          "velocity": 0.905511811023622,
          "duration": 0.29454015625000807
        },
        {
          "name": "E1",
          "midi": 28,
          "time": 143.97625710937498,
          "velocity": 0.6771653543307087,
          "duration": 0.0754310156250142
        },
        {
          "name": "E1",
          "midi": 28,
          "time": 144.18818234375,
          "velocity": 0.8110236220472441,
          "duration": 0.26580453125001213
        },
        {
          "name": "E1",
          "midi": 28,
          "time": 144.67668796875,
          "velocity": 0.7795275590551181,
          "duration": 0.0682471093749939
        },
        {
          "name": "E1",
          "midi": 28,
          "time": 144.82036609375,
          "velocity": 0.7007874015748031,
          "duration": 0.16522984375001215
        },
        {
          "name": "B1",
          "midi": 35,
          "time": 145.211888984375,
          "velocity": 0.5984251968503937,
          "duration": 0.17241375000000403
        },
        {
          "name": "D2",
          "midi": 38,
          "time": 145.373526875,
          "velocity": 0.7952755905511811,
          "duration": 0.3663792187500121
        },
        {
          "name": "B1",
          "midi": 35,
          "time": 145.72913023437502,
          "velocity": 0.6141732283464567,
          "duration": 0.19037351562499794
        },
        {
          "name": "D2",
          "midi": 38,
          "time": 145.90154398437502,
          "velocity": 0.8582677165354331,
          "duration": 0.31968382812499385
        },
        {
          "name": "E1",
          "midi": 28,
          "time": 146.2499634375,
          "velocity": 0.905511811023622,
          "duration": 0.29454015625000807
        },
        {
          "name": "E1",
          "midi": 28,
          "time": 146.73487710937502,
          "velocity": 0.6771653543307087,
          "duration": 0.0754310156250142
        },
        {
          "name": "E1",
          "midi": 28,
          "time": 146.94680234375002,
          "velocity": 0.8110236220472441,
          "duration": 0.26580453125001213
        },
        {
          "name": "E1",
          "midi": 28,
          "time": 147.43530796875004,
          "velocity": 0.7795275590551181,
          "duration": 0.0682471093749939
        },
        {
          "name": "E1",
          "midi": 28,
          "time": 147.57898609375005,
          "velocity": 0.7007874015748031,
          "duration": 0.16522984375001215
        },
        {
          "name": "B1",
          "midi": 35,
          "time": 147.97050898437504,
          "velocity": 0.5984251968503937,
          "duration": 0.17241375000000403
        },
        {
          "name": "D2",
          "midi": 38,
          "time": 148.13214687500005,
          "velocity": 0.7952755905511811,
          "duration": 0.3663792187500121
        },
        {
          "name": "B1",
          "midi": 35,
          "time": 148.48775023437506,
          "velocity": 0.6141732283464567,
          "duration": 0.19037351562499794
        },
        {
          "name": "D2",
          "midi": 38,
          "time": 148.66016398437506,
          "velocity": 0.8582677165354331,
          "duration": 0.31968382812499385
        },
        {
          "name": "E1",
          "midi": 28,
          "time": 149.00858343750005,
          "velocity": 0.905511811023622,
          "duration": 0.29454015625000807
        },
        {
          "name": "E1",
          "midi": 28,
          "time": 149.49349710937506,
          "velocity": 0.6771653543307087,
          "duration": 0.0754310156250142
        },
        {
          "name": "E1",
          "midi": 28,
          "time": 149.70542234375006,
          "velocity": 0.8110236220472441,
          "duration": 0.26580453125001213
        },
        {
          "name": "E1",
          "midi": 28,
          "time": 150.19392796875007,
          "velocity": 0.7795275590551181,
          "duration": 0.0682471093749939
        },
        {
          "name": "E1",
          "midi": 28,
          "time": 150.33760609375008,
          "velocity": 0.7007874015748031,
          "duration": 0.16522984375001215
        },
        {
          "name": "B1",
          "midi": 35,
          "time": 150.72912898437508,
          "velocity": 0.5984251968503937,
          "duration": 0.17241375000000403
        },
        {
          "name": "D2",
          "midi": 38,
          "time": 150.89076687500008,
          "velocity": 0.7952755905511811,
          "duration": 0.3663792187500121
        },
        {
          "name": "B1",
          "midi": 35,
          "time": 151.2463702343751,
          "velocity": 0.6141732283464567,
          "duration": 0.19037351562499794
        },
        {
          "name": "D2",
          "midi": 38,
          "time": 151.4187839843751,
          "velocity": 0.8582677165354331,
          "duration": 0.31968382812499385
        },
        {
          "name": "E1",
          "midi": 28,
          "time": 151.7672034375001,
          "velocity": 0.905511811023622,
          "duration": 0.29454015625000807
        },
        {
          "name": "E1",
          "midi": 28,
          "time": 152.2521171093751,
          "velocity": 0.6771653543307087,
          "duration": 0.0754310156250142
        },
        {
          "name": "E1",
          "midi": 28,
          "time": 152.4640423437501,
          "velocity": 0.8110236220472441,
          "duration": 0.26580453125001213
        },
        {
          "name": "E1",
          "midi": 28,
          "time": 152.9525479687501,
          "velocity": 0.7795275590551181,
          "duration": 0.0682471093749939
        },
        {
          "name": "E1",
          "midi": 28,
          "time": 153.09622609375012,
          "velocity": 0.7007874015748031,
          "duration": 0.16522984375001215
        },
        {
          "name": "B1",
          "midi": 35,
          "time": 153.48774898437512,
          "velocity": 0.5984251968503937,
          "duration": 0.17241375000000403
        },
        {
          "name": "D2",
          "midi": 38,
          "time": 153.64938687500012,
          "velocity": 0.7952755905511811,
          "duration": 0.3663792187500121
        },
        {
          "name": "B1",
          "midi": 35,
          "time": 154.00499023437513,
          "velocity": 0.6141732283464567,
          "duration": 0.19037351562499794
        },
        {
          "name": "D2",
          "midi": 38,
          "time": 154.17740398437513,
          "velocity": 0.8582677165354331,
          "duration": 0.31968382812499385
        },
        {
          "name": "E1",
          "midi": 28,
          "time": 154.52582343750012,
          "velocity": 0.905511811023622,
          "duration": 0.29454015625000807
        },
        {
          "name": "E1",
          "midi": 28,
          "time": 155.01073710937513,
          "velocity": 0.6771653543307087,
          "duration": 0.0754310156250142
        },
        {
          "name": "E1",
          "midi": 28,
          "time": 155.22266234375013,
          "velocity": 0.8110236220472441,
          "duration": 0.26580453125001213
        },
        {
          "name": "E1",
          "midi": 28,
          "time": 155.71116796875015,
          "velocity": 0.7795275590551181,
          "duration": 0.0682471093749939
        },
        {
          "name": "E1",
          "midi": 28,
          "time": 155.85484609375015,
          "velocity": 0.7007874015748031,
          "duration": 0.16522984375001215
        },
        {
          "name": "B1",
          "midi": 35,
          "time": 156.24636898437515,
          "velocity": 0.5984251968503937,
          "duration": 0.17241375000000403
        },
        {
          "name": "D2",
          "midi": 38,
          "time": 156.40800687500015,
          "velocity": 0.7952755905511811,
          "duration": 0.3663792187500121
        },
        {
          "name": "B1",
          "midi": 35,
          "time": 156.76361023437516,
          "velocity": 0.6141732283464567,
          "duration": 0.19037351562499794
        },
        {
          "name": "D2",
          "midi": 38,
          "time": 156.93602398437517,
          "velocity": 0.8582677165354331,
          "duration": 0.31968382812499385
        },
        {
          "name": "E1",
          "midi": 28,
          "time": 157.28444343750016,
          "velocity": 0.905511811023622,
          "duration": 0.29454015625000807
        },
        {
          "name": "E1",
          "midi": 28,
          "time": 157.76935710937516,
          "velocity": 0.6771653543307087,
          "duration": 0.0754310156250142
        },
        {
          "name": "E1",
          "midi": 28,
          "time": 157.98128234375017,
          "velocity": 0.8110236220472441,
          "duration": 0.26580453125001213
        },
        {
          "name": "E1",
          "midi": 28,
          "time": 158.46978796875018,
          "velocity": 0.7795275590551181,
          "duration": 0.0682471093749939
        },
        {
          "name": "E1",
          "midi": 28,
          "time": 158.6134660937502,
          "velocity": 0.7007874015748031,
          "duration": 0.16522984375001215
        },
        {
          "name": "B1",
          "midi": 35,
          "time": 159.0049889843752,
          "velocity": 0.5984251968503937,
          "duration": 0.17241375000000403
        },
        {
          "name": "D2",
          "midi": 38,
          "time": 159.1666268750002,
          "velocity": 0.7952755905511811,
          "duration": 0.3663792187500121
        },
        {
          "name": "B1",
          "midi": 35,
          "time": 159.5222302343752,
          "velocity": 0.6141732283464567,
          "duration": 0.19037351562499794
        },
        {
          "name": "D2",
          "midi": 38,
          "time": 159.6946439843752,
          "velocity": 0.8582677165354331,
          "duration": 0.31968382812499385
        },
        {
          "name": "E1",
          "midi": 28,
          "time": 160.0430634375002,
          "velocity": 0.905511811023622,
          "duration": 0.29454015625000807
        },
        {
          "name": "E1",
          "midi": 28,
          "time": 160.5279771093752,
          "velocity": 0.6771653543307087,
          "duration": 0.0754310156250142
        },
        {
          "name": "E1",
          "midi": 28,
          "time": 160.7399023437502,
          "velocity": 0.8110236220472441,
          "duration": 0.26580453125001213
        },
        {
          "name": "E1",
          "midi": 28,
          "time": 161.22840796875022,
          "velocity": 0.7795275590551181,
          "duration": 0.0682471093749939
        },
        {
          "name": "E1",
          "midi": 28,
          "time": 161.37208609375023,
          "velocity": 0.7007874015748031,
          "duration": 0.16522984375001215
        },
        {
          "name": "B1",
          "midi": 35,
          "time": 161.76360898437522,
          "velocity": 0.5984251968503937,
          "duration": 0.17241375000000403
        },
        {
          "name": "D2",
          "midi": 38,
          "time": 161.92524687500023,
          "velocity": 0.7952755905511811,
          "duration": 0.3663792187500121
        },
        {
          "name": "B1",
          "midi": 35,
          "time": 162.28085023437524,
          "velocity": 0.6141732283464567,
          "duration": 0.19037351562499794
        },
        {
          "name": "D2",
          "midi": 38,
          "time": 162.45326398437524,
          "velocity": 0.8582677165354331,
          "duration": 0.31968382812499385
        },
        {
          "name": "E1",
          "midi": 28,
          "time": 162.79090757812523,
          "velocity": 0.8740157480314961,
          "duration": 0.24066085937499793
        },
        {
          "name": "E1",
          "midi": 28,
          "time": 163.2686373437502,
          "velocity": 0.7795275590551181,
          "duration": 0.07902296874999593
        },
        {
          "name": "E1",
          "midi": 28,
          "time": 163.48056257812522,
          "velocity": 0.84251968503937,
          "duration": 0.24066085937499793
        },
        {
          "name": "E1",
          "midi": 28,
          "time": 163.97625210937522,
          "velocity": 0.8582677165354331,
          "duration": 0.0682471093749939
        },
        {
          "name": "E1",
          "midi": 28,
          "time": 164.1235221875002,
          "velocity": 0.6535433070866141,
          "duration": 0.16882179687499388
        },
        {
          "name": "B1",
          "midi": 35,
          "time": 164.5222289843752,
          "velocity": 0.5984251968503937,
          "duration": 0.14727007812498982
        },
        {
          "name": "D2",
          "midi": 38,
          "time": 164.66590710937518,
          "velocity": 0.7007874015748031,
          "duration": 0.36278726562500196
        },
        {
          "name": "B1",
          "midi": 35,
          "time": 165.02869437500019,
          "velocity": 0.6692913385826772,
          "duration": 0.23347695312500605
        },
        {
          "name": "D2",
          "midi": 38,
          "time": 165.2118839843752,
          "velocity": 0.8740157480314961,
          "duration": 0.26939648437499386
        },
        {
          "name": "E1",
          "midi": 28,
          "time": 165.54952757812518,
          "velocity": 0.8740157480314961,
          "duration": 0.24066085937499793
        },
        {
          "name": "E1",
          "midi": 28,
          "time": 166.02725734375016,
          "velocity": 0.7795275590551181,
          "duration": 0.07902296874999593
        },
        {
          "name": "E1",
          "midi": 28,
          "time": 166.23918257812517,
          "velocity": 0.84251968503937,
          "duration": 0.24066085937499793
        },
        {
          "name": "E1",
          "midi": 28,
          "time": 166.73487210937517,
          "velocity": 0.8582677165354331,
          "duration": 0.0682471093749939
        },
        {
          "name": "E1",
          "midi": 28,
          "time": 166.88214218750016,
          "velocity": 0.6535433070866141,
          "duration": 0.16882179687499388
        },
        {
          "name": "B1",
          "midi": 35,
          "time": 167.28084898437515,
          "velocity": 0.5984251968503937,
          "duration": 0.14727007812498982
        },
        {
          "name": "D2",
          "midi": 38,
          "time": 167.42452710937513,
          "velocity": 0.7007874015748031,
          "duration": 0.36278726562500196
        },
        {
          "name": "B1",
          "midi": 35,
          "time": 167.78731437500014,
          "velocity": 0.6692913385826772,
          "duration": 0.23347695312500605
        },
        {
          "name": "D2",
          "midi": 38,
          "time": 167.97050398437514,
          "velocity": 0.8740157480314961,
          "duration": 0.26939648437499386
        },
        {
          "name": "E1",
          "midi": 28,
          "time": 168.30814757812513,
          "velocity": 0.8740157480314961,
          "duration": 0.24066085937499793
        },
        {
          "name": "E1",
          "midi": 28,
          "time": 168.78587734375012,
          "velocity": 0.7795275590551181,
          "duration": 0.07902296874999593
        },
        {
          "name": "E1",
          "midi": 28,
          "time": 168.99780257812512,
          "velocity": 0.84251968503937,
          "duration": 0.24066085937499793
        },
        {
          "name": "E1",
          "midi": 28,
          "time": 169.49349210937513,
          "velocity": 0.8582677165354331,
          "duration": 0.0682471093749939
        },
        {
          "name": "E1",
          "midi": 28,
          "time": 169.64076218750012,
          "velocity": 0.6535433070866141,
          "duration": 0.16882179687499388
        },
        {
          "name": "B1",
          "midi": 35,
          "time": 170.0394689843751,
          "velocity": 0.5984251968503937,
          "duration": 0.14727007812498982
        },
        {
          "name": "D2",
          "midi": 38,
          "time": 170.18314710937508,
          "velocity": 0.7007874015748031,
          "duration": 0.36278726562500196
        },
        {
          "name": "B1",
          "midi": 35,
          "time": 170.5459343750001,
          "velocity": 0.6692913385826772,
          "duration": 0.23347695312500605
        },
        {
          "name": "D2",
          "midi": 38,
          "time": 170.7291239843751,
          "velocity": 0.8740157480314961,
          "duration": 0.26939648437499386
        },
        {
          "name": "E1",
          "midi": 28,
          "time": 171.06676757812508,
          "velocity": 0.8740157480314961,
          "duration": 0.24066085937499793
        },
        {
          "name": "E1",
          "midi": 28,
          "time": 171.54449734375007,
          "velocity": 0.7795275590551181,
          "duration": 0.07902296874999593
        },
        {
          "name": "E1",
          "midi": 28,
          "time": 171.75642257812507,
          "velocity": 0.84251968503937,
          "duration": 0.24066085937499793
        },
        {
          "name": "E1",
          "midi": 28,
          "time": 172.25211210937508,
          "velocity": 0.8582677165354331,
          "duration": 0.0682471093749939
        },
        {
          "name": "E1",
          "midi": 28,
          "time": 172.39938218750007,
          "velocity": 0.6535433070866141,
          "duration": 0.16882179687499388
        },
        {
          "name": "B1",
          "midi": 35,
          "time": 172.79808898437506,
          "velocity": 0.5984251968503937,
          "duration": 0.14727007812498982
        },
        {
          "name": "D2",
          "midi": 38,
          "time": 172.94176710937504,
          "velocity": 0.7007874015748031,
          "duration": 0.36278726562500196
        },
        {
          "name": "B1",
          "midi": 35,
          "time": 173.30455437500004,
          "velocity": 0.6692913385826772,
          "duration": 0.23347695312500605
        },
        {
          "name": "D2",
          "midi": 38,
          "time": 173.48774398437504,
          "velocity": 0.8740157480314961,
          "duration": 0.26939648437499386
        },
        {
          "name": "E1",
          "midi": 28,
          "time": 173.79306000000003,
          "velocity": 0.905511811023622,
          "duration": 0.5316090624999958
        },
        {
          "name": "E1",
          "midi": 28,
          "time": 194.51144562500002,
          "velocity": 1,
          "duration": 0.624999843750004
        },
        {
          "name": "A1",
          "midi": 33,
          "time": 195.61776718750002,
          "velocity": 0.984251968503937,
          "duration": 5.179596406249999
        },
        {
          "name": "B1",
          "midi": 35,
          "time": 205.88356921875,
          "velocity": 0.7244094488188977,
          "duration": 0.24066085937502635
        },
        {
          "name": "D2",
          "midi": 38,
          "time": 206.09549445312504,
          "velocity": 0.5905511811023622,
          "duration": 0.3160918750000121
        },
        {
          "name": "B1",
          "midi": 35,
          "time": 206.39003460937505,
          "velocity": 0.6535433070866141,
          "duration": 0.211925234375002
        },
        {
          "name": "D2",
          "midi": 38,
          "time": 206.56244835937505,
          "velocity": 0.8582677165354331,
          "duration": 0.2801723437499959
        },
        {
          "name": "E1",
          "midi": 28,
          "time": 206.93960343750004,
          "velocity": 0.905511811023622,
          "duration": 0.29454015625000807
        },
        {
          "name": "E1",
          "midi": 28,
          "time": 207.42451710937505,
          "velocity": 0.6771653543307087,
          "duration": 0.0754310156250142
        },
        {
          "name": "E1",
          "midi": 28,
          "time": 207.63644234375005,
          "velocity": 0.8110236220472441,
          "duration": 0.26580453125001213
        },
        {
          "name": "E1",
          "midi": 28,
          "time": 208.12494796875006,
          "velocity": 0.7795275590551181,
          "duration": 0.0682471093749939
        },
        {
          "name": "E1",
          "midi": 28,
          "time": 208.26862609375007,
          "velocity": 0.7007874015748031,
          "duration": 0.16522984375001215
        },
        {
          "name": "B1",
          "midi": 35,
          "time": 208.66014898437507,
          "velocity": 0.5984251968503937,
          "duration": 0.17241375000000403
        },
        {
          "name": "D2",
          "midi": 38,
          "time": 208.82178687500007,
          "velocity": 0.7952755905511811,
          "duration": 0.3663792187500121
        },
        {
          "name": "B1",
          "midi": 35,
          "time": 209.17739023437508,
          "velocity": 0.6141732283464567,
          "duration": 0.19037351562499794
        },
        {
          "name": "D2",
          "midi": 38,
          "time": 209.3498039843751,
          "velocity": 0.8582677165354331,
          "duration": 0.31968382812499385
        },
        {
          "name": "E1",
          "midi": 28,
          "time": 209.69822343750008,
          "velocity": 0.905511811023622,
          "duration": 0.29454015625000807
        },
        {
          "name": "E1",
          "midi": 28,
          "time": 210.18313710937508,
          "velocity": 0.6771653543307087,
          "duration": 0.0754310156250142
        },
        {
          "name": "E1",
          "midi": 28,
          "time": 210.39506234375008,
          "velocity": 0.8110236220472441,
          "duration": 0.26580453125001213
        },
        {
          "name": "E1",
          "midi": 28,
          "time": 210.8835679687501,
          "velocity": 0.7795275590551181,
          "duration": 0.0682471093749939
        },
        {
          "name": "E1",
          "midi": 28,
          "time": 211.0272460937501,
          "velocity": 0.7007874015748031,
          "duration": 0.16522984375001215
        },
        {
          "name": "B1",
          "midi": 35,
          "time": 211.4187689843751,
          "velocity": 0.5984251968503937,
          "duration": 0.17241375000000403
        },
        {
          "name": "D2",
          "midi": 38,
          "time": 211.5804068750001,
          "velocity": 0.7952755905511811,
          "duration": 0.3663792187500121
        },
        {
          "name": "B1",
          "midi": 35,
          "time": 211.93601023437512,
          "velocity": 0.6141732283464567,
          "duration": 0.19037351562499794
        },
        {
          "name": "D2",
          "midi": 38,
          "time": 212.10842398437512,
          "velocity": 0.8582677165354331,
          "duration": 0.31968382812499385
        },
        {
          "name": "E1",
          "midi": 28,
          "time": 212.4568434375001,
          "velocity": 0.905511811023622,
          "duration": 0.29454015625000807
        },
        {
          "name": "E1",
          "midi": 28,
          "time": 212.94175710937512,
          "velocity": 0.6771653543307087,
          "duration": 0.0754310156250142
        },
        {
          "name": "E1",
          "midi": 28,
          "time": 213.15368234375012,
          "velocity": 0.8110236220472441,
          "duration": 0.26580453125001213
        },
        {
          "name": "E1",
          "midi": 28,
          "time": 213.64218796875014,
          "velocity": 0.7795275590551181,
          "duration": 0.0682471093749939
        },
        {
          "name": "E1",
          "midi": 28,
          "time": 213.78586609375014,
          "velocity": 0.7007874015748031,
          "duration": 0.16522984375001215
        },
        {
          "name": "B1",
          "midi": 35,
          "time": 214.17738898437514,
          "velocity": 0.5984251968503937,
          "duration": 0.17241375000000403
        },
        {
          "name": "D2",
          "midi": 38,
          "time": 214.33902687500014,
          "velocity": 0.7952755905511811,
          "duration": 0.3663792187500121
        },
        {
          "name": "B1",
          "midi": 35,
          "time": 214.69463023437515,
          "velocity": 0.6141732283464567,
          "duration": 0.19037351562499794
        },
        {
          "name": "D2",
          "midi": 38,
          "time": 214.86704398437516,
          "velocity": 0.8582677165354331,
          "duration": 0.31968382812499385
        },
        {
          "name": "E1",
          "midi": 28,
          "time": 215.21546343750015,
          "velocity": 0.905511811023622,
          "duration": 0.29454015625000807
        },
        {
          "name": "E1",
          "midi": 28,
          "time": 215.70037710937515,
          "velocity": 0.6771653543307087,
          "duration": 0.0754310156250142
        },
        {
          "name": "E1",
          "midi": 28,
          "time": 215.91230234375016,
          "velocity": 0.8110236220472441,
          "duration": 0.26580453125001213
        },
        {
          "name": "E1",
          "midi": 28,
          "time": 216.40080796875017,
          "velocity": 0.7795275590551181,
          "duration": 0.0682471093749939
        },
        {
          "name": "E1",
          "midi": 28,
          "time": 216.54448609375018,
          "velocity": 0.7007874015748031,
          "duration": 0.16522984375001215
        },
        {
          "name": "B1",
          "midi": 35,
          "time": 216.93600898437518,
          "velocity": 0.5984251968503937,
          "duration": 0.17241375000000403
        },
        {
          "name": "D2",
          "midi": 38,
          "time": 217.09764687500018,
          "velocity": 0.7952755905511811,
          "duration": 0.3663792187500121
        },
        {
          "name": "B1",
          "midi": 35,
          "time": 217.4532502343752,
          "velocity": 0.6141732283464567,
          "duration": 0.19037351562499794
        },
        {
          "name": "D2",
          "midi": 38,
          "time": 217.6256639843752,
          "velocity": 0.8582677165354331,
          "duration": 0.31968382812499385
        },
        {
          "name": "E1",
          "midi": 28,
          "time": 217.97408343750018,
          "velocity": 0.905511811023622,
          "duration": 0.29454015625000807
        },
        {
          "name": "E1",
          "midi": 28,
          "time": 218.4589971093752,
          "velocity": 0.6771653543307087,
          "duration": 0.0754310156250142
        },
        {
          "name": "E1",
          "midi": 28,
          "time": 218.6709223437502,
          "velocity": 0.8110236220472441,
          "duration": 0.26580453125001213
        },
        {
          "name": "E1",
          "midi": 28,
          "time": 219.1594279687502,
          "velocity": 0.7795275590551181,
          "duration": 0.0682471093749939
        },
        {
          "name": "E1",
          "midi": 28,
          "time": 219.30310609375022,
          "velocity": 0.7007874015748031,
          "duration": 0.16522984375001215
        },
        {
          "name": "B1",
          "midi": 35,
          "time": 219.6946289843752,
          "velocity": 0.5984251968503937,
          "duration": 0.17241375000000403
        },
        {
          "name": "D2",
          "midi": 38,
          "time": 219.85626687500022,
          "velocity": 0.7952755905511811,
          "duration": 0.3663792187500121
        },
        {
          "name": "B1",
          "midi": 35,
          "time": 220.21187023437523,
          "velocity": 0.6141732283464567,
          "duration": 0.19037351562499794
        },
        {
          "name": "D2",
          "midi": 38,
          "time": 220.38428398437523,
          "velocity": 0.8582677165354331,
          "duration": 0.31968382812499385
        },
        {
          "name": "E1",
          "midi": 28,
          "time": 220.73270343750022,
          "velocity": 0.905511811023622,
          "duration": 0.29454015625000807
        },
        {
          "name": "E1",
          "midi": 28,
          "time": 221.21761710937523,
          "velocity": 0.6771653543307087,
          "duration": 0.0754310156250142
        },
        {
          "name": "E1",
          "midi": 28,
          "time": 221.42954234375023,
          "velocity": 0.8110236220472441,
          "duration": 0.26580453125001213
        },
        {
          "name": "E1",
          "midi": 28,
          "time": 221.91804796875024,
          "velocity": 0.7795275590551181,
          "duration": 0.0682471093749939
        },
        {
          "name": "E1",
          "midi": 28,
          "time": 222.06172609375025,
          "velocity": 0.7007874015748031,
          "duration": 0.16522984375001215
        },
        {
          "name": "B1",
          "midi": 35,
          "time": 222.45324898437525,
          "velocity": 0.5984251968503937,
          "duration": 0.17241375000000403
        },
        {
          "name": "D2",
          "midi": 38,
          "time": 222.61488687500025,
          "velocity": 0.7952755905511811,
          "duration": 0.3663792187500121
        },
        {
          "name": "B1",
          "midi": 35,
          "time": 222.97049023437526,
          "velocity": 0.6141732283464567,
          "duration": 0.19037351562499794
        },
        {
          "name": "D2",
          "midi": 38,
          "time": 223.14290398437527,
          "velocity": 0.8582677165354331,
          "duration": 0.31968382812499385
        },
        {
          "name": "E1",
          "midi": 28,
          "time": 223.49132343750026,
          "velocity": 0.905511811023622,
          "duration": 0.29454015625000807
        },
        {
          "name": "E1",
          "midi": 28,
          "time": 223.97623710937526,
          "velocity": 0.6771653543307087,
          "duration": 0.0754310156250142
        },
        {
          "name": "E1",
          "midi": 28,
          "time": 224.18816234375026,
          "velocity": 0.8110236220472441,
          "duration": 0.26580453125001213
        },
        {
          "name": "E1",
          "midi": 28,
          "time": 224.67666796875028,
          "velocity": 0.7795275590551181,
          "duration": 0.0682471093749939
        },
        {
          "name": "E1",
          "midi": 28,
          "time": 224.8203460937503,
          "velocity": 0.7007874015748031,
          "duration": 0.16522984375001215
        },
        {
          "name": "B1",
          "midi": 35,
          "time": 225.2118689843753,
          "velocity": 0.5984251968503937,
          "duration": 0.17241375000000403
        },
        {
          "name": "D2",
          "midi": 38,
          "time": 225.3735068750003,
          "velocity": 0.7952755905511811,
          "duration": 0.3663792187500121
        },
        {
          "name": "B1",
          "midi": 35,
          "time": 225.7291102343753,
          "velocity": 0.6141732283464567,
          "duration": 0.19037351562499794
        },
        {
          "name": "D2",
          "midi": 38,
          "time": 225.9015239843753,
          "velocity": 0.8582677165354331,
          "duration": 0.31968382812499385
        },
        {
          "name": "E1",
          "midi": 28,
          "time": 226.2499434375003,
          "velocity": 0.905511811023622,
          "duration": 0.29454015625000807
        },
        {
          "name": "E1",
          "midi": 28,
          "time": 226.7348571093753,
          "velocity": 0.6771653543307087,
          "duration": 0.0754310156250142
        },
        {
          "name": "E1",
          "midi": 28,
          "time": 226.9467823437503,
          "velocity": 0.8110236220472441,
          "duration": 0.26580453125001213
        },
        {
          "name": "E1",
          "midi": 28,
          "time": 227.43528796875032,
          "velocity": 0.7795275590551181,
          "duration": 0.0682471093749939
        },
        {
          "name": "E1",
          "midi": 28,
          "time": 227.57896609375032,
          "velocity": 0.7007874015748031,
          "duration": 0.16522984375001215
        },
        {
          "name": "B1",
          "midi": 35,
          "time": 227.97048898437532,
          "velocity": 0.5984251968503937,
          "duration": 0.17241375000000403
        },
        {
          "name": "D2",
          "midi": 38,
          "time": 228.13212687500032,
          "velocity": 0.7952755905511811,
          "duration": 0.3663792187500121
        },
        {
          "name": "B1",
          "midi": 35,
          "time": 228.48773023437533,
          "velocity": 0.6141732283464567,
          "duration": 0.19037351562499794
        },
        {
          "name": "D2",
          "midi": 38,
          "time": 228.66014398437534,
          "velocity": 0.8582677165354331,
          "duration": 0.31968382812499385
        },
        {
          "name": "E1",
          "midi": 28,
          "time": 229.00856343750033,
          "velocity": 0.905511811023622,
          "duration": 0.29454015625000807
        },
        {
          "name": "E1",
          "midi": 28,
          "time": 229.49347710937533,
          "velocity": 0.6771653543307087,
          "duration": 0.0754310156250142
        },
        {
          "name": "E1",
          "midi": 28,
          "time": 229.70540234375034,
          "velocity": 0.8110236220472441,
          "duration": 0.26580453125001213
        },
        {
          "name": "E1",
          "midi": 28,
          "time": 230.19390796875035,
          "velocity": 0.7795275590551181,
          "duration": 0.0682471093749939
        },
        {
          "name": "E1",
          "midi": 28,
          "time": 230.33758609375036,
          "velocity": 0.7007874015748031,
          "duration": 0.16522984375001215
        },
        {
          "name": "B1",
          "midi": 35,
          "time": 230.72910898437536,
          "velocity": 0.5984251968503937,
          "duration": 0.17241375000000403
        },
        {
          "name": "D2",
          "midi": 38,
          "time": 230.89074687500036,
          "velocity": 0.7952755905511811,
          "duration": 0.3663792187500121
        },
        {
          "name": "B1",
          "midi": 35,
          "time": 231.24635023437537,
          "velocity": 0.6141732283464567,
          "duration": 0.19037351562499794
        },
        {
          "name": "D2",
          "midi": 38,
          "time": 231.41876398437537,
          "velocity": 0.8582677165354331,
          "duration": 0.31968382812499385
        },
        {
          "name": "E1",
          "midi": 28,
          "time": 231.76718343750036,
          "velocity": 0.905511811023622,
          "duration": 0.29454015625000807
        },
        {
          "name": "E1",
          "midi": 28,
          "time": 232.25209710937537,
          "velocity": 0.6771653543307087,
          "duration": 0.0754310156250142
        },
        {
          "name": "E1",
          "midi": 28,
          "time": 232.46402234375037,
          "velocity": 0.8110236220472441,
          "duration": 0.26580453125001213
        },
        {
          "name": "E1",
          "midi": 28,
          "time": 232.9525279687504,
          "velocity": 0.7795275590551181,
          "duration": 0.0682471093749939
        },
        {
          "name": "E1",
          "midi": 28,
          "time": 233.0962060937504,
          "velocity": 0.7007874015748031,
          "duration": 0.16522984375001215
        },
        {
          "name": "B1",
          "midi": 35,
          "time": 233.4877289843754,
          "velocity": 0.5984251968503937,
          "duration": 0.17241375000000403
        },
        {
          "name": "D2",
          "midi": 38,
          "time": 233.6493668750004,
          "velocity": 0.7952755905511811,
          "duration": 0.3663792187500121
        },
        {
          "name": "B1",
          "midi": 35,
          "time": 234.0049702343754,
          "velocity": 0.6141732283464567,
          "duration": 0.19037351562499794
        },
        {
          "name": "D2",
          "midi": 38,
          "time": 234.1773839843754,
          "velocity": 0.8582677165354331,
          "duration": 0.31968382812499385
        },
        {
          "name": "E1",
          "midi": 28,
          "time": 234.5150275781254,
          "velocity": 0.9212598425196851,
          "duration": 4.931751640625009
        }
      ],
      "controlChanges": {
        "1": [
          {
            "number": 1,
            "time": 240.51718125000042,
            "value": 0
          }
        ],
        "7": [
          {
            "number": 7,
            "time": 0,
            "value": 0.9448818897637795
          },
          {
            "number": 7,
            "time": 240.1723537500004,
            "value": 0.7874015748031497
          }
        ],
        "10": [
          {
            "number": 10,
            "time": 0,
            "value": 0.4881889763779528
          },
          {
            "number": 10,
            "time": 240.86200875000043,
            "value": 0.5039370078740157
          }
        ],
        "11": [
          {
            "number": 11,
            "time": 241.20683625000044,
            "value": 1
          }
        ],
        "64": [
          {
            "number": 64,
            "time": 241.55166375000044,
            "value": 0
          }
        ],
        "91": [
          {
            "number": 91,
            "time": 0.3448275,
            "value": 0
          },
          {
            "number": 91,
            "time": 242.06890500000046,
            "value": 0.31496062992125984
          }
        ],
        "93": [
          {
            "number": 93,
            "time": 1.0344825,
            "value": 0.5039370078740157
          },
          {
            "number": 93,
            "time": 242.58614625000047,
            "value": 0
          }
        ],
        "121": [
          {
            "number": 121,
            "time": 239.9999400000004,
            "value": 0
          }
        ],
        "123": [
          {
            "number": 123,
            "time": 243.96545625000047,
            "value": 0
          }
        ]
      },
      "instrument": ""
    },
    {
      "name": "Guitar 1            ",
      "notes": [
        {
          "name": "B2",
          "midi": 47,
          "time": 1.734913359375,
          "velocity": 0.937007874015748,
          "duration": 0.24784476562500002
        },
        {
          "name": "D3",
          "midi": 50,
          "time": 1.9360627343749999,
          "velocity": 0.8582677165354331,
          "duration": 0.31968382812499985
        },
        {
          "name": "B2",
          "midi": 47,
          "time": 2.2557465624999997,
          "velocity": 0.8267716535433071,
          "duration": 0.20114937499999996
        },
        {
          "name": "D3",
          "midi": 50,
          "time": 2.446120078125,
          "velocity": 0.905511811023622,
          "duration": 0.27658039062499995
        },
        {
          "name": "B2",
          "midi": 47,
          "time": 2.769395859375,
          "velocity": 0.7795275590551181,
          "duration": 0.27658039062499995
        },
        {
          "name": "E3",
          "midi": 52,
          "time": 2.769395859375,
          "velocity": 0.7795275590551181,
          "duration": 0.29094820312500014
        },
        {
          "name": "E2",
          "midi": 40,
          "time": 2.769395859375,
          "velocity": 0.7952755905511811,
          "duration": 0.17241375000000003
        },
        {
          "name": "E2",
          "midi": 40,
          "time": 2.941809609375,
          "velocity": 0.4645669291338583,
          "duration": 0.13649421875000023
        },
        {
          "name": "E2",
          "midi": 40,
          "time": 3.107039453125,
          "velocity": 0.4566929133858268,
          "duration": 0.11494250000000017
        },
        {
          "name": "E2",
          "midi": 40,
          "time": 3.279453203125,
          "velocity": 0.5433070866141733,
          "duration": 0.1544539843749999
        },
        {
          "name": "B2",
          "midi": 47,
          "time": 3.451866953125,
          "velocity": 0.7795275590551181,
          "duration": 0.2586206249999998
        },
        {
          "name": "E3",
          "midi": 52,
          "time": 3.451866953125,
          "velocity": 0.8110236220472441,
          "duration": 0.2658045312499997
        },
        {
          "name": "E2",
          "midi": 40,
          "time": 3.459050859375,
          "velocity": 0.7480314960629921,
          "duration": 0.16522984375000016
        },
        {
          "name": "E2",
          "midi": 40,
          "time": 3.624280703125,
          "velocity": 0.41732283464566927,
          "duration": 0.12571835937499953
        },
        {
          "name": "E2",
          "midi": 40,
          "time": 3.7966944531249998,
          "velocity": 0.4409448818897638,
          "duration": 0.12571835937499998
        },
        {
          "name": "E2",
          "midi": 40,
          "time": 3.969108203125,
          "velocity": 0.49606299212598426,
          "duration": 0.1221264062499996
        },
        {
          "name": "B2",
          "midi": 47,
          "time": 4.148705859374999,
          "velocity": 0.7322834645669292,
          "duration": 0.25143671874999995
        },
        {
          "name": "E3",
          "midi": 52,
          "time": 4.148705859374999,
          "velocity": 0.7795275590551181,
          "duration": 0.27658039062499995
        },
        {
          "name": "E2",
          "midi": 40,
          "time": 4.148705859374999,
          "velocity": 0.7795275590551181,
          "duration": 0.16522984374999972
        },
        {
          "name": "E2",
          "midi": 40,
          "time": 4.313935703124999,
          "velocity": 0.3779527559055118,
          "duration": 0.11494250000000061
        },
        {
          "name": "E2",
          "midi": 40,
          "time": 4.493533359374999,
          "velocity": 0.4566929133858268,
          "duration": 0.1185344531250001
        },
        {
          "name": "E2",
          "midi": 40,
          "time": 4.665947109375,
          "velocity": 0.5118110236220472,
          "duration": 0.1185344531250001
        },
        {
          "name": "E3",
          "midi": 52,
          "time": 4.8311769531249995,
          "velocity": 0.8267716535433071,
          "duration": 0.2586206249999998
        },
        {
          "name": "B2",
          "midi": 47,
          "time": 4.838360859374999,
          "velocity": 0.7322834645669292,
          "duration": 0.25143671874999995
        },
        {
          "name": "E2",
          "midi": 40,
          "time": 4.838360859374999,
          "velocity": 0.7637795275590551,
          "duration": 0.16163789062500022
        },
        {
          "name": "E2",
          "midi": 40,
          "time": 4.99999875,
          "velocity": 0.3937007874015748,
          "duration": 0.1185344531250001
        },
        {
          "name": "E2",
          "midi": 40,
          "time": 5.183188359374999,
          "velocity": 0.47244094488188976,
          "duration": 0.10416664062500036
        },
        {
          "name": "E2",
          "midi": 40,
          "time": 5.355602109375,
          "velocity": 0.5354330708661418,
          "duration": 0.1185344531250001
        },
        {
          "name": "E3",
          "midi": 52,
          "time": 5.520831953125,
          "velocity": 0.7322834645669292,
          "duration": 0.21192523437499933
        },
        {
          "name": "B2",
          "midi": 47,
          "time": 5.5280158593749995,
          "velocity": 0.7322834645669292,
          "duration": 0.20474132812499946
        },
        {
          "name": "E2",
          "midi": 40,
          "time": 5.5280158593749995,
          "velocity": 0.7244094488188977,
          "duration": 0.16522984374999972
        },
        {
          "name": "E2",
          "midi": 40,
          "time": 5.693245703124999,
          "velocity": 0.3700787401574803,
          "duration": 0.11494249999999973
        },
        {
          "name": "E2",
          "midi": 40,
          "time": 5.872843359374999,
          "velocity": 0.4330708661417323,
          "duration": 0.12571835937499998
        },
        {
          "name": "E2",
          "midi": 40,
          "time": 6.045257109374998,
          "velocity": 0.5039370078740157,
          "duration": 0.1436781250000001
        },
        {
          "name": "E3",
          "midi": 52,
          "time": 6.199711093749999,
          "velocity": 0.8110236220472441,
          "duration": 0.22988499999999945
        },
        {
          "name": "B2",
          "midi": 47,
          "time": 6.2068949999999985,
          "velocity": 0.7086614173228346,
          "duration": 0.20114937499999996
        },
        {
          "name": "E2",
          "midi": 40,
          "time": 6.210486953124999,
          "velocity": 0.7322834645669292,
          "duration": 0.1724137499999996
        },
        {
          "name": "E2",
          "midi": 40,
          "time": 6.3829007031249985,
          "velocity": 0.4251968503937008,
          "duration": 0.10416664062499947
        },
        {
          "name": "E2",
          "midi": 40,
          "time": 6.555314453124998,
          "velocity": 0.5511811023622047,
          "duration": 0.12571835937499998
        },
        {
          "name": "B2",
          "midi": 47,
          "time": 6.727728203124998,
          "velocity": 0.7244094488188977,
          "duration": 0.1436781250000001
        },
        {
          "name": "E3",
          "midi": 52,
          "time": 6.727728203124998,
          "velocity": 0.7401574803149606,
          "duration": 0.15086203124999997
        },
        {
          "name": "E2",
          "midi": 40,
          "time": 6.727728203124998,
          "velocity": 0.7086614173228346,
          "duration": 0.15086203124999997
        },
        {
          "name": "E3",
          "midi": 52,
          "time": 6.900141953124997,
          "velocity": 0.8976377952755905,
          "duration": 0.2586206249999998
        },
        {
          "name": "B2",
          "midi": 47,
          "time": 6.907325859374997,
          "velocity": 0.8582677165354331,
          "duration": 0.25143671874999995
        },
        {
          "name": "E2",
          "midi": 40,
          "time": 6.9109178124999975,
          "velocity": 0.8582677165354331,
          "duration": 0.20114937499999996
        },
        {
          "name": "B2",
          "midi": 47,
          "time": 7.252153359374997,
          "velocity": 0.8740157480314961,
          "duration": 0.1939654687500001
        },
        {
          "name": "D3",
          "midi": 50,
          "time": 7.413791249999997,
          "velocity": 0.7952755905511811,
          "duration": 0.3376435937500002
        },
        {
          "name": "B2",
          "midi": 47,
          "time": 7.7334750781249975,
          "velocity": 0.6377952755905512,
          "duration": 0.19755742187500047
        },
        {
          "name": "D3",
          "midi": 50,
          "time": 7.913072734374998,
          "velocity": 0.9212598425196851,
          "duration": 0.3376435937500002
        },
        {
          "name": "B2",
          "midi": 47,
          "time": 8.286635859374998,
          "velocity": 0.7795275590551181,
          "duration": 0.27658039062499995
        },
        {
          "name": "E3",
          "midi": 52,
          "time": 8.286635859374998,
          "velocity": 0.7795275590551181,
          "duration": 0.2909482031249997
        },
        {
          "name": "E2",
          "midi": 40,
          "time": 8.286635859374998,
          "velocity": 0.7952755905511811,
          "duration": 0.17241375000000048
        },
        {
          "name": "E2",
          "midi": 40,
          "time": 8.459049609374999,
          "velocity": 0.4645669291338583,
          "duration": 0.13649421874999845
        },
        {
          "name": "E2",
          "midi": 40,
          "time": 8.624279453124997,
          "velocity": 0.4566929133858268,
          "duration": 0.11494249999999973
        },
        {
          "name": "E2",
          "midi": 40,
          "time": 8.796693203124997,
          "velocity": 0.5433070866141733,
          "duration": 0.15445398437499946
        },
        {
          "name": "B2",
          "midi": 47,
          "time": 8.969106953124996,
          "velocity": 0.7795275590551181,
          "duration": 0.2586206250000007
        },
        {
          "name": "E3",
          "midi": 52,
          "time": 8.969106953124996,
          "velocity": 0.8110236220472441,
          "duration": 0.2658045312500015
        },
        {
          "name": "E2",
          "midi": 40,
          "time": 8.976290859374997,
          "velocity": 0.7480314960629921,
          "duration": 0.16522984374999972
        },
        {
          "name": "E2",
          "midi": 40,
          "time": 9.141520703124996,
          "velocity": 0.41732283464566927,
          "duration": 0.12571835937500175
        },
        {
          "name": "E2",
          "midi": 40,
          "time": 9.313934453124999,
          "velocity": 0.4409448818897638,
          "duration": 0.12571835937499998
        },
        {
          "name": "E2",
          "midi": 40,
          "time": 9.486348203124999,
          "velocity": 0.49606299212598426,
          "duration": 0.12212640625000049
        },
        {
          "name": "B2",
          "midi": 47,
          "time": 9.665945859375,
          "velocity": 0.7322834645669292,
          "duration": 0.25143671874999995
        },
        {
          "name": "E3",
          "midi": 52,
          "time": 9.665945859375,
          "velocity": 0.7795275590551181,
          "duration": 0.27658039062499995
        },
        {
          "name": "E2",
          "midi": 40,
          "time": 9.665945859375,
          "velocity": 0.7795275590551181,
          "duration": 0.16522984374999972
        },
        {
          "name": "E2",
          "midi": 40,
          "time": 9.831175703125,
          "velocity": 0.3779527559055118,
          "duration": 0.11494249999999973
        },
        {
          "name": "E2",
          "midi": 40,
          "time": 10.010773359375,
          "velocity": 0.4566929133858268,
          "duration": 0.11853445312499922
        },
        {
          "name": "E2",
          "midi": 40,
          "time": 10.183187109374998,
          "velocity": 0.5118110236220472,
          "duration": 0.11853445312499922
        },
        {
          "name": "E3",
          "midi": 52,
          "time": 10.348416953124998,
          "velocity": 0.8267716535433071,
          "duration": 0.2586206250000007
        },
        {
          "name": "B2",
          "midi": 47,
          "time": 10.355600859374999,
          "velocity": 0.7322834645669292,
          "duration": 0.25143671874999995
        },
        {
          "name": "E2",
          "midi": 40,
          "time": 10.355600859374999,
          "velocity": 0.7637795275590551,
          "duration": 0.16163789062500022
        },
        {
          "name": "E2",
          "midi": 40,
          "time": 10.517238749999999,
          "velocity": 0.3937007874015748,
          "duration": 0.11853445312499922
        },
        {
          "name": "E2",
          "midi": 40,
          "time": 10.700428359374998,
          "velocity": 0.47244094488188976,
          "duration": 0.10416664062499947
        },
        {
          "name": "E2",
          "midi": 40,
          "time": 10.872842109374997,
          "velocity": 0.5354330708661418,
          "duration": 0.11853445312499922
        },
        {
          "name": "E3",
          "midi": 52,
          "time": 11.038071953124996,
          "velocity": 0.7322834645669292,
          "duration": 0.21192523437500022
        },
        {
          "name": "B2",
          "midi": 47,
          "time": 11.045255859374997,
          "velocity": 0.7322834645669292,
          "duration": 0.20474132812499946
        },
        {
          "name": "E2",
          "midi": 40,
          "time": 11.045255859374997,
          "velocity": 0.7244094488188977,
          "duration": 0.16522984374999972
        },
        {
          "name": "E2",
          "midi": 40,
          "time": 11.210485703124997,
          "velocity": 0.3700787401574803,
          "duration": 0.11494249999999973
        },
        {
          "name": "E2",
          "midi": 40,
          "time": 11.390083359374996,
          "velocity": 0.4330708661417323,
          "duration": 0.12571835937499998
        },
        {
          "name": "E2",
          "midi": 40,
          "time": 11.562497109374997,
          "velocity": 0.5039370078740157,
          "duration": 0.1436781249999992
        },
        {
          "name": "E3",
          "midi": 52,
          "time": 11.716951093749996,
          "velocity": 0.8110236220472441,
          "duration": 0.22988500000000123
        },
        {
          "name": "B2",
          "midi": 47,
          "time": 11.724134999999997,
          "velocity": 0.7086614173228346,
          "duration": 0.20114937499999996
        },
        {
          "name": "E2",
          "midi": 40,
          "time": 11.727726953124996,
          "velocity": 0.7322834645669292,
          "duration": 0.17241375000000048
        },
        {
          "name": "E2",
          "midi": 40,
          "time": 11.900140703124997,
          "velocity": 0.4251968503937008,
          "duration": 0.10416664062500125
        },
        {
          "name": "E2",
          "midi": 40,
          "time": 12.072554453124997,
          "velocity": 0.5511811023622047,
          "duration": 0.12571835937499998
        },
        {
          "name": "B2",
          "midi": 47,
          "time": 12.244968203124998,
          "velocity": 0.7244094488188977,
          "duration": 0.1436781249999992
        },
        {
          "name": "E3",
          "midi": 52,
          "time": 12.244968203124998,
          "velocity": 0.7401574803149606,
          "duration": 0.15086203124999997
        },
        {
          "name": "E2",
          "midi": 40,
          "time": 12.244968203124998,
          "velocity": 0.7086614173228346,
          "duration": 0.15086203124999997
        },
        {
          "name": "E3",
          "midi": 52,
          "time": 12.417381953124998,
          "velocity": 0.8976377952755905,
          "duration": 0.2586206250000007
        },
        {
          "name": "B2",
          "midi": 47,
          "time": 12.424565859374999,
          "velocity": 0.8582677165354331,
          "duration": 0.25143671874999995
        },
        {
          "name": "E2",
          "midi": 40,
          "time": 12.428157812499999,
          "velocity": 0.8582677165354331,
          "duration": 0.20114937499999996
        },
        {
          "name": "B2",
          "midi": 47,
          "time": 12.769393359374998,
          "velocity": 0.8740157480314961,
          "duration": 0.19396546875000098
        },
        {
          "name": "D3",
          "midi": 50,
          "time": 12.931031249999998,
          "velocity": 0.7952755905511811,
          "duration": 0.3376435937500002
        },
        {
          "name": "B2",
          "midi": 47,
          "time": 13.250715078125,
          "velocity": 0.6377952755905512,
          "duration": 0.1975574218749987
        },
        {
          "name": "D3",
          "midi": 50,
          "time": 13.430312734374999,
          "velocity": 0.9212598425196851,
          "duration": 0.3376435937499984
        },
        {
          "name": "E3",
          "midi": 52,
          "time": 13.796691953124997,
          "velocity": 0.7322834645669292,
          "duration": 0.21192523437500022
        },
        {
          "name": "B2",
          "midi": 47,
          "time": 13.803875859374998,
          "velocity": 0.7322834645669292,
          "duration": 0.20474132812499946
        },
        {
          "name": "E2",
          "midi": 40,
          "time": 13.803875859374998,
          "velocity": 0.7244094488188977,
          "duration": 0.16522984374999972
        },
        {
          "name": "E2",
          "midi": 40,
          "time": 13.969105703124997,
          "velocity": 0.3700787401574803,
          "duration": 0.11494249999999973
        },
        {
          "name": "E2",
          "midi": 40,
          "time": 14.148703359374997,
          "velocity": 0.4330708661417323,
          "duration": 0.12571835937499998
        },
        {
          "name": "E2",
          "midi": 40,
          "time": 14.321117109374997,
          "velocity": 0.5039370078740157,
          "duration": 0.1436781249999992
        },
        {
          "name": "E3",
          "midi": 52,
          "time": 14.475571093749997,
          "velocity": 0.8110236220472441,
          "duration": 0.22988500000000123
        },
        {
          "name": "B2",
          "midi": 47,
          "time": 14.482754999999997,
          "velocity": 0.7086614173228346,
          "duration": 0.20114937499999996
        },
        {
          "name": "E2",
          "midi": 40,
          "time": 14.486346953124997,
          "velocity": 0.7322834645669292,
          "duration": 0.17241375000000048
        },
        {
          "name": "E2",
          "midi": 40,
          "time": 14.658760703124997,
          "velocity": 0.4251968503937008,
          "duration": 0.10416664062500125
        },
        {
          "name": "E2",
          "midi": 40,
          "time": 14.831174453124998,
          "velocity": 0.5511811023622047,
          "duration": 0.12571835937499998
        },
        {
          "name": "E2",
          "midi": 40,
          "time": 15.003588203124998,
          "velocity": 0.7086614173228346,
          "duration": 0.15086203124999997
        },
        {
          "name": "E3",
          "midi": 52,
          "time": 15.176001953124999,
          "velocity": 0.8976377952755905,
          "duration": 0.2586206250000007
        },
        {
          "name": "B2",
          "midi": 47,
          "time": 15.183185859375,
          "velocity": 0.8582677165354331,
          "duration": 0.25143671874999995
        },
        {
          "name": "E2",
          "midi": 40,
          "time": 15.186777812499999,
          "velocity": 0.8582677165354331,
          "duration": 0.20114937499999996
        },
        {
          "name": "B2",
          "midi": 47,
          "time": 15.528013359374999,
          "velocity": 0.8740157480314961,
          "duration": 0.19396546875000098
        },
        {
          "name": "D3",
          "midi": 50,
          "time": 15.689651249999999,
          "velocity": 0.7952755905511811,
          "duration": 0.3376435937500002
        },
        {
          "name": "B2",
          "midi": 47,
          "time": 16.009335078124998,
          "velocity": 0.6377952755905512,
          "duration": 0.19755742187500047
        },
        {
          "name": "D3",
          "midi": 50,
          "time": 16.188932734374998,
          "velocity": 0.9212598425196851,
          "duration": 0.33764359375000197
        },
        {
          "name": "E3",
          "midi": 52,
          "time": 16.555311953125,
          "velocity": 0.7322834645669292,
          "duration": 0.211925234375002
        },
        {
          "name": "B2",
          "midi": 47,
          "time": 16.562495859374998,
          "velocity": 0.7322834645669292,
          "duration": 0.204741328125003
        },
        {
          "name": "E2",
          "midi": 40,
          "time": 16.562495859374998,
          "velocity": 0.7244094488188977,
          "duration": 0.1652298437500015
        },
        {
          "name": "E2",
          "midi": 40,
          "time": 16.727725703125,
          "velocity": 0.3700787401574803,
          "duration": 0.1149425000000015
        },
        {
          "name": "E2",
          "midi": 40,
          "time": 16.907323359375003,
          "velocity": 0.4330708661417323,
          "duration": 0.12571835937499998
        },
        {
          "name": "E2",
          "midi": 40,
          "time": 17.079737109375003,
          "velocity": 0.5039370078740157,
          "duration": 0.143678125000001
        },
        {
          "name": "E3",
          "midi": 52,
          "time": 17.234191093750002,
          "velocity": 0.8110236220472441,
          "duration": 0.22988499999999945
        },
        {
          "name": "B2",
          "midi": 47,
          "time": 17.241375,
          "velocity": 0.7086614173228346,
          "duration": 0.20114937499999996
        },
        {
          "name": "E2",
          "midi": 40,
          "time": 17.244966953125,
          "velocity": 0.7322834645669292,
          "duration": 0.17241375000000048
        },
        {
          "name": "E2",
          "midi": 40,
          "time": 17.417380703125,
          "velocity": 0.4251968503937008,
          "duration": 0.10416664062499947
        },
        {
          "name": "E2",
          "midi": 40,
          "time": 17.589794453125002,
          "velocity": 0.5511811023622047,
          "duration": 0.12571835937499998
        },
        {
          "name": "E2",
          "midi": 40,
          "time": 17.762208203125002,
          "velocity": 0.7086614173228346,
          "duration": 0.15086203124999997
        },
        {
          "name": "E3",
          "midi": 52,
          "time": 17.934621953125003,
          "velocity": 0.8976377952755905,
          "duration": 0.25862062499999894
        },
        {
          "name": "B2",
          "midi": 47,
          "time": 17.941805859375002,
          "velocity": 0.8582677165354331,
          "duration": 0.25143671874999995
        },
        {
          "name": "E2",
          "midi": 40,
          "time": 17.9453978125,
          "velocity": 0.8582677165354331,
          "duration": 0.20114937499999996
        },
        {
          "name": "B2",
          "midi": 47,
          "time": 18.286633359375003,
          "velocity": 0.8740157480314961,
          "duration": 0.19396546874999743
        },
        {
          "name": "D3",
          "midi": 50,
          "time": 18.44827125,
          "velocity": 0.7952755905511811,
          "duration": 0.3376435937499984
        },
        {
          "name": "B2",
          "midi": 47,
          "time": 18.767955078125,
          "velocity": 0.6377952755905512,
          "duration": 0.19755742187500047
        },
        {
          "name": "D3",
          "midi": 50,
          "time": 18.947552734374998,
          "velocity": 0.9212598425196851,
          "duration": 0.33764359375000197
        },
        {
          "name": "E3",
          "midi": 52,
          "time": 19.313931953125,
          "velocity": 0.7322834645669292,
          "duration": 0.211925234375002
        },
        {
          "name": "B2",
          "midi": 47,
          "time": 19.321115859375,
          "velocity": 0.7322834645669292,
          "duration": 0.204741328125003
        },
        {
          "name": "E2",
          "midi": 40,
          "time": 19.321115859375,
          "velocity": 0.7244094488188977,
          "duration": 0.1652298437500015
        },
        {
          "name": "E2",
          "midi": 40,
          "time": 19.486345703125,
          "velocity": 0.3700787401574803,
          "duration": 0.1149425000000015
        },
        {
          "name": "E2",
          "midi": 40,
          "time": 19.665943359375003,
          "velocity": 0.4330708661417323,
          "duration": 0.12571835937499998
        },
        {
          "name": "E2",
          "midi": 40,
          "time": 19.838357109375004,
          "velocity": 0.5039370078740157,
          "duration": 0.143678125000001
        },
        {
          "name": "E3",
          "midi": 52,
          "time": 19.992811093750003,
          "velocity": 0.8110236220472441,
          "duration": 0.22988499999999945
        },
        {
          "name": "B2",
          "midi": 47,
          "time": 19.999995000000002,
          "velocity": 0.7086614173228346,
          "duration": 0.20114937499999996
        },
        {
          "name": "E2",
          "midi": 40,
          "time": 20.003586953125,
          "velocity": 0.7322834645669292,
          "duration": 0.17241375000000048
        },
        {
          "name": "E2",
          "midi": 40,
          "time": 20.176000703125002,
          "velocity": 0.4251968503937008,
          "duration": 0.10416664062499947
        },
        {
          "name": "E2",
          "midi": 40,
          "time": 20.348414453125002,
          "velocity": 0.5511811023622047,
          "duration": 0.12571835937499998
        },
        {
          "name": "E2",
          "midi": 40,
          "time": 20.520828203125003,
          "velocity": 0.7086614173228346,
          "duration": 0.15086203124999997
        },
        {
          "name": "E3",
          "midi": 52,
          "time": 20.693241953125003,
          "velocity": 0.8976377952755905,
          "duration": 0.25862062499999894
        },
        {
          "name": "B2",
          "midi": 47,
          "time": 20.700425859375002,
          "velocity": 0.8582677165354331,
          "duration": 0.25143671874999995
        },
        {
          "name": "E2",
          "midi": 40,
          "time": 20.704017812500002,
          "velocity": 0.8582677165354331,
          "duration": 0.20114937499999996
        },
        {
          "name": "B2",
          "midi": 47,
          "time": 21.045253359375003,
          "velocity": 0.8740157480314961,
          "duration": 0.19396546874999743
        },
        {
          "name": "D3",
          "midi": 50,
          "time": 21.20689125,
          "velocity": 0.7952755905511811,
          "duration": 0.3376435937499984
        },
        {
          "name": "B2",
          "midi": 47,
          "time": 21.526575078125,
          "velocity": 0.6377952755905512,
          "duration": 0.19755742187500047
        },
        {
          "name": "D3",
          "midi": 50,
          "time": 21.706172734375,
          "velocity": 0.9212598425196851,
          "duration": 0.33764359375000197
        },
        {
          "name": "E3",
          "midi": 52,
          "time": 22.072551953125,
          "velocity": 0.7322834645669292,
          "duration": 0.211925234375002
        },
        {
          "name": "B2",
          "midi": 47,
          "time": 22.079735859375,
          "velocity": 0.7322834645669292,
          "duration": 0.204741328125003
        },
        {
          "name": "E2",
          "midi": 40,
          "time": 22.079735859375,
          "velocity": 0.7244094488188977,
          "duration": 0.1652298437500015
        },
        {
          "name": "E2",
          "midi": 40,
          "time": 22.244965703125,
          "velocity": 0.3700787401574803,
          "duration": 0.1149425000000015
        },
        {
          "name": "E2",
          "midi": 40,
          "time": 22.424563359375004,
          "velocity": 0.4330708661417323,
          "duration": 0.12571835937499998
        },
        {
          "name": "E2",
          "midi": 40,
          "time": 22.596977109375004,
          "velocity": 0.5039370078740157,
          "duration": 0.143678125000001
        },
        {
          "name": "E3",
          "midi": 52,
          "time": 22.751431093750003,
          "velocity": 0.8110236220472441,
          "duration": 0.22988499999999945
        },
        {
          "name": "B2",
          "midi": 47,
          "time": 22.758615000000002,
          "velocity": 0.7086614173228346,
          "duration": 0.20114937499999996
        },
        {
          "name": "E2",
          "midi": 40,
          "time": 22.762206953125002,
          "velocity": 0.7322834645669292,
          "duration": 0.17241375000000048
        },
        {
          "name": "E2",
          "midi": 40,
          "time": 22.934620703125002,
          "velocity": 0.4251968503937008,
          "duration": 0.10416664062499947
        },
        {
          "name": "E2",
          "midi": 40,
          "time": 23.107034453125003,
          "velocity": 0.5511811023622047,
          "duration": 0.12571835937499998
        },
        {
          "name": "E2",
          "midi": 40,
          "time": 23.279448203125003,
          "velocity": 0.7086614173228346,
          "duration": 0.15086203124999997
        },
        {
          "name": "E3",
          "midi": 52,
          "time": 23.451861953125004,
          "velocity": 0.8976377952755905,
          "duration": 0.25862062499999894
        },
        {
          "name": "B2",
          "midi": 47,
          "time": 23.459045859375003,
          "velocity": 0.8582677165354331,
          "duration": 0.25143671874999995
        },
        {
          "name": "E2",
          "midi": 40,
          "time": 23.462637812500002,
          "velocity": 0.8582677165354331,
          "duration": 0.20114937499999996
        },
        {
          "name": "B2",
          "midi": 47,
          "time": 23.803873359375004,
          "velocity": 0.8740157480314961,
          "duration": 0.19396546874999743
        },
        {
          "name": "D3",
          "midi": 50,
          "time": 23.965511250000002,
          "velocity": 0.7952755905511811,
          "duration": 0.3376435937499984
        },
        {
          "name": "B2",
          "midi": 47,
          "time": 24.285195078125,
          "velocity": 0.6377952755905512,
          "duration": 0.19755742187500047
        },
        {
          "name": "D3",
          "midi": 50,
          "time": 24.464792734375,
          "velocity": 0.9212598425196851,
          "duration": 0.33764359375000197
        },
        {
          "name": "E3",
          "midi": 52,
          "time": 24.831171953125,
          "velocity": 0.7322834645669292,
          "duration": 0.211925234375002
        },
        {
          "name": "B2",
          "midi": 47,
          "time": 24.838355859375,
          "velocity": 0.7322834645669292,
          "duration": 0.204741328125003
        },
        {
          "name": "E2",
          "midi": 40,
          "time": 24.838355859375,
          "velocity": 0.7244094488188977,
          "duration": 0.1652298437500015
        },
        {
          "name": "E2",
          "midi": 40,
          "time": 25.003585703125,
          "velocity": 0.3700787401574803,
          "duration": 0.1149425000000015
        },
        {
          "name": "E2",
          "midi": 40,
          "time": 25.183183359375004,
          "velocity": 0.4330708661417323,
          "duration": 0.12571835937499998
        },
        {
          "name": "E2",
          "midi": 40,
          "time": 25.355597109375005,
          "velocity": 0.5039370078740157,
          "duration": 0.143678125000001
        },
        {
          "name": "E3",
          "midi": 52,
          "time": 25.510051093750004,
          "velocity": 0.8110236220472441,
          "duration": 0.22988499999999945
        },
        {
          "name": "B2",
          "midi": 47,
          "time": 25.517235000000003,
          "velocity": 0.7086614173228346,
          "duration": 0.20114937499999996
        },
        {
          "name": "E2",
          "midi": 40,
          "time": 25.520826953125002,
          "velocity": 0.7322834645669292,
          "duration": 0.17241375000000048
        },
        {
          "name": "E2",
          "midi": 40,
          "time": 25.693240703125003,
          "velocity": 0.4251968503937008,
          "duration": 0.10416664062499947
        },
        {
          "name": "E2",
          "midi": 40,
          "time": 25.865654453125003,
          "velocity": 0.5511811023622047,
          "duration": 0.12571835937499998
        },
        {
          "name": "E2",
          "midi": 40,
          "time": 26.038068203125004,
          "velocity": 0.7086614173228346,
          "duration": 0.15086203124999997
        },
        {
          "name": "E3",
          "midi": 52,
          "time": 26.210481953125004,
          "velocity": 0.8976377952755905,
          "duration": 0.25862062499999894
        },
        {
          "name": "B2",
          "midi": 47,
          "time": 26.217665859375003,
          "velocity": 0.8582677165354331,
          "duration": 0.25143671874999995
        },
        {
          "name": "E2",
          "midi": 40,
          "time": 26.221257812500003,
          "velocity": 0.8582677165354331,
          "duration": 0.20114937499999996
        },
        {
          "name": "B2",
          "midi": 47,
          "time": 26.562493359375004,
          "velocity": 0.8740157480314961,
          "duration": 0.19396546874999743
        },
        {
          "name": "D3",
          "midi": 50,
          "time": 26.724131250000003,
          "velocity": 0.7952755905511811,
          "duration": 0.3376435937499984
        },
        {
          "name": "B2",
          "midi": 47,
          "time": 27.043815078125,
          "velocity": 0.6377952755905512,
          "duration": 0.19755742187500047
        },
        {
          "name": "D3",
          "midi": 50,
          "time": 27.223412734375,
          "velocity": 0.9212598425196851,
          "duration": 0.33764359375000197
        },
        {
          "name": "E3",
          "midi": 52,
          "time": 27.589791953125,
          "velocity": 0.7322834645669292,
          "duration": 0.211925234375002
        },
        {
          "name": "B2",
          "midi": 47,
          "time": 27.596975859375,
          "velocity": 0.7322834645669292,
          "duration": 0.204741328125003
        },
        {
          "name": "E2",
          "midi": 40,
          "time": 27.596975859375,
          "velocity": 0.7244094488188977,
          "duration": 0.1652298437500015
        },
        {
          "name": "E2",
          "midi": 40,
          "time": 27.762205703125,
          "velocity": 0.3700787401574803,
          "duration": 0.1149425000000015
        },
        {
          "name": "E2",
          "midi": 40,
          "time": 27.941803359375005,
          "velocity": 0.4330708661417323,
          "duration": 0.12571835937499998
        },
        {
          "name": "E2",
          "midi": 40,
          "time": 28.114217109375005,
          "velocity": 0.5039370078740157,
          "duration": 0.143678125000001
        },
        {
          "name": "E3",
          "midi": 52,
          "time": 28.268671093750005,
          "velocity": 0.8110236220472441,
          "duration": 0.22988499999999945
        },
        {
          "name": "B2",
          "midi": 47,
          "time": 28.275855000000004,
          "velocity": 0.7086614173228346,
          "duration": 0.20114937499999996
        },
        {
          "name": "E2",
          "midi": 40,
          "time": 28.279446953125003,
          "velocity": 0.7322834645669292,
          "duration": 0.17241375000000048
        },
        {
          "name": "E2",
          "midi": 40,
          "time": 28.451860703125003,
          "velocity": 0.4251968503937008,
          "duration": 0.10416664062499947
        },
        {
          "name": "E2",
          "midi": 40,
          "time": 28.624274453125004,
          "velocity": 0.5511811023622047,
          "duration": 0.12571835937499998
        },
        {
          "name": "E2",
          "midi": 40,
          "time": 28.796688203125004,
          "velocity": 0.7086614173228346,
          "duration": 0.15086203124999997
        },
        {
          "name": "E3",
          "midi": 52,
          "time": 28.969101953125005,
          "velocity": 0.8976377952755905,
          "duration": 0.25862062499999894
        },
        {
          "name": "B2",
          "midi": 47,
          "time": 28.976285859375004,
          "velocity": 0.8582677165354331,
          "duration": 0.25143671874999995
        },
        {
          "name": "E2",
          "midi": 40,
          "time": 28.979877812500003,
          "velocity": 0.8582677165354331,
          "duration": 0.20114937499999996
        },
        {
          "name": "B2",
          "midi": 47,
          "time": 29.321113359375005,
          "velocity": 0.8740157480314961,
          "duration": 0.19396546874999743
        },
        {
          "name": "D3",
          "midi": 50,
          "time": 29.482751250000003,
          "velocity": 0.7952755905511811,
          "duration": 0.3376435937499984
        },
        {
          "name": "B2",
          "midi": 47,
          "time": 29.802435078125,
          "velocity": 0.6377952755905512,
          "duration": 0.19755742187500047
        },
        {
          "name": "D3",
          "midi": 50,
          "time": 29.982032734375,
          "velocity": 0.9212598425196851,
          "duration": 0.33764359375000197
        },
        {
          "name": "E3",
          "midi": 52,
          "time": 30.348411953125,
          "velocity": 0.7322834645669292,
          "duration": 0.211925234375002
        },
        {
          "name": "B2",
          "midi": 47,
          "time": 30.355595859375,
          "velocity": 0.7322834645669292,
          "duration": 0.204741328125003
        },
        {
          "name": "E2",
          "midi": 40,
          "time": 30.355595859375,
          "velocity": 0.7244094488188977,
          "duration": 0.1652298437500015
        },
        {
          "name": "E2",
          "midi": 40,
          "time": 30.520825703125002,
          "velocity": 0.3700787401574803,
          "duration": 0.1149425000000015
        },
        {
          "name": "E2",
          "midi": 40,
          "time": 30.700423359375005,
          "velocity": 0.4330708661417323,
          "duration": 0.12571835937499998
        },
        {
          "name": "E2",
          "midi": 40,
          "time": 30.872837109375006,
          "velocity": 0.5039370078740157,
          "duration": 0.143678125000001
        },
        {
          "name": "E3",
          "midi": 52,
          "time": 31.027291093750005,
          "velocity": 0.8110236220472441,
          "duration": 0.22988499999999945
        },
        {
          "name": "B2",
          "midi": 47,
          "time": 31.034475000000004,
          "velocity": 0.7086614173228346,
          "duration": 0.20114937499999996
        },
        {
          "name": "E2",
          "midi": 40,
          "time": 31.038066953125004,
          "velocity": 0.7322834645669292,
          "duration": 0.17241375000000048
        },
        {
          "name": "E2",
          "midi": 40,
          "time": 31.210480703125004,
          "velocity": 0.4251968503937008,
          "duration": 0.10416664062499947
        },
        {
          "name": "E2",
          "midi": 40,
          "time": 31.382894453125004,
          "velocity": 0.5511811023622047,
          "duration": 0.12571835937499998
        },
        {
          "name": "E2",
          "midi": 40,
          "time": 31.555308203125005,
          "velocity": 0.7086614173228346,
          "duration": 0.15086203124999997
        },
        {
          "name": "E3",
          "midi": 52,
          "time": 31.727721953125005,
          "velocity": 0.8976377952755905,
          "duration": 0.25862062499999894
        },
        {
          "name": "B2",
          "midi": 47,
          "time": 31.734905859375004,
          "velocity": 0.8582677165354331,
          "duration": 0.25143671874999995
        },
        {
          "name": "E2",
          "midi": 40,
          "time": 31.738497812500004,
          "velocity": 0.8582677165354331,
          "duration": 0.20114937499999996
        },
        {
          "name": "B2",
          "midi": 47,
          "time": 32.079733359375005,
          "velocity": 0.8740157480314961,
          "duration": 0.19396546875000098
        },
        {
          "name": "D3",
          "midi": 50,
          "time": 32.24137125000001,
          "velocity": 0.7952755905511811,
          "duration": 0.33764359375000197
        },
        {
          "name": "B2",
          "midi": 47,
          "time": 32.56105507812501,
          "velocity": 0.6377952755905512,
          "duration": 0.19755742187500402
        },
        {
          "name": "D3",
          "midi": 50,
          "time": 32.74065273437501,
          "velocity": 0.9212598425196851,
          "duration": 0.33764359375000197
        },
        {
          "name": "E3",
          "midi": 52,
          "time": 33.107031953125016,
          "velocity": 0.7322834645669292,
          "duration": 0.2119252343749949
        },
        {
          "name": "B2",
          "midi": 47,
          "time": 33.114215859375015,
          "velocity": 0.7322834645669292,
          "duration": 0.2047413281249959
        },
        {
          "name": "E2",
          "midi": 40,
          "time": 33.114215859375015,
          "velocity": 0.7244094488188977,
          "duration": 0.16522984374999794
        },
        {
          "name": "E2",
          "midi": 40,
          "time": 33.27944570312501,
          "velocity": 0.3700787401574803,
          "duration": 0.11494249999999795
        },
        {
          "name": "E2",
          "midi": 40,
          "time": 33.45904335937501,
          "velocity": 0.4330708661417323,
          "duration": 0.12571835937499998
        },
        {
          "name": "E2",
          "midi": 40,
          "time": 33.631457109375006,
          "velocity": 0.5039370078740157,
          "duration": 0.143678125000001
        },
        {
          "name": "E3",
          "midi": 52,
          "time": 33.78591109375001,
          "velocity": 0.8110236220472441,
          "duration": 0.2298849999999959
        },
        {
          "name": "B2",
          "midi": 47,
          "time": 33.79309500000001,
          "velocity": 0.7086614173228346,
          "duration": 0.20114937499999996
        },
        {
          "name": "E2",
          "midi": 40,
          "time": 33.79668695312501,
          "velocity": 0.7322834645669292,
          "duration": 0.17241374999999692
        },
        {
          "name": "E2",
          "midi": 40,
          "time": 33.96910070312501,
          "velocity": 0.4251968503937008,
          "duration": 0.10416664062499592
        },
        {
          "name": "E2",
          "midi": 40,
          "time": 34.141514453125005,
          "velocity": 0.5511811023622047,
          "duration": 0.12571835937499998
        },
        {
          "name": "E2",
          "midi": 40,
          "time": 34.313928203125,
          "velocity": 0.7086614173228346,
          "duration": 0.15086203124999997
        },
        {
          "name": "E3",
          "midi": 52,
          "time": 34.486341953125,
          "velocity": 0.8976377952755905,
          "duration": 0.25862062499999894
        },
        {
          "name": "B2",
          "midi": 47,
          "time": 34.493525859375,
          "velocity": 0.8582677165354331,
          "duration": 0.25143671874999995
        },
        {
          "name": "E2",
          "midi": 40,
          "time": 34.4971178125,
          "velocity": 0.8582677165354331,
          "duration": 0.20114937499999996
        },
        {
          "name": "B2",
          "midi": 47,
          "time": 34.838353359375,
          "velocity": 0.8740157480314961,
          "duration": 0.19396546875000098
        },
        {
          "name": "D3",
          "midi": 50,
          "time": 34.99999125,
          "velocity": 0.7952755905511811,
          "duration": 0.33764359375000197
        },
        {
          "name": "B2",
          "midi": 47,
          "time": 35.319675078125,
          "velocity": 0.6377952755905512,
          "duration": 0.19755742187500402
        },
        {
          "name": "D3",
          "midi": 50,
          "time": 35.499272734375005,
          "velocity": 0.9212598425196851,
          "duration": 0.33764359375000197
        },
        {
          "name": "E3",
          "midi": 52,
          "time": 35.86565195312501,
          "velocity": 0.7322834645669292,
          "duration": 0.2119252343749949
        },
        {
          "name": "B2",
          "midi": 47,
          "time": 35.87283585937501,
          "velocity": 0.7322834645669292,
          "duration": 0.2047413281249959
        },
        {
          "name": "E2",
          "midi": 40,
          "time": 35.87283585937501,
          "velocity": 0.7244094488188977,
          "duration": 0.16522984374999794
        },
        {
          "name": "E2",
          "midi": 40,
          "time": 36.03806570312501,
          "velocity": 0.3700787401574803,
          "duration": 0.11494249999999795
        },
        {
          "name": "E2",
          "midi": 40,
          "time": 36.217663359375,
          "velocity": 0.4330708661417323,
          "duration": 0.12571835937499998
        },
        {
          "name": "E2",
          "midi": 40,
          "time": 36.390077109375,
          "velocity": 0.5039370078740157,
          "duration": 0.143678125000001
        },
        {
          "name": "E3",
          "midi": 52,
          "time": 36.54453109375,
          "velocity": 0.8110236220472441,
          "duration": 0.2298849999999959
        },
        {
          "name": "B2",
          "midi": 47,
          "time": 36.551715,
          "velocity": 0.7086614173228346,
          "duration": 0.20114937499999996
        },
        {
          "name": "E2",
          "midi": 40,
          "time": 36.555306953125005,
          "velocity": 0.7322834645669292,
          "duration": 0.17241374999999692
        },
        {
          "name": "E2",
          "midi": 40,
          "time": 36.727720703125,
          "velocity": 0.4251968503937008,
          "duration": 0.10416664062499592
        },
        {
          "name": "E2",
          "midi": 40,
          "time": 36.900134453125,
          "velocity": 0.5511811023622047,
          "duration": 0.12571835937499998
        },
        {
          "name": "E2",
          "midi": 40,
          "time": 37.072548203124995,
          "velocity": 0.7086614173228346,
          "duration": 0.15086203124999997
        },
        {
          "name": "E3",
          "midi": 52,
          "time": 37.24496195312499,
          "velocity": 0.8976377952755905,
          "duration": 0.12571835937500708
        },
        {
          "name": "B2",
          "midi": 47,
          "time": 37.25214585937499,
          "velocity": 0.8582677165354331,
          "duration": 0.1364942187500091
        },
        {
          "name": "E2",
          "midi": 40,
          "time": 37.255737812499994,
          "velocity": 0.8582677165354331,
          "duration": 0.11135054687500201
        },
        {
          "name": "A3",
          "midi": 57,
          "time": 37.388640078125,
          "velocity": 0.7322834645669292,
          "duration": 0.1436781250000081
        },
        {
          "name": "D4",
          "midi": 62,
          "time": 37.395823984375,
          "velocity": 0.6771653543307087,
          "duration": 0.1185344531250081
        },
        {
          "name": "D3",
          "midi": 50,
          "time": 37.40659984375,
          "velocity": 0.6771653543307087,
          "duration": 0.11494250000000505
        },
        {
          "name": "D4",
          "midi": 62,
          "time": 37.56105382812501,
          "velocity": 0.7480314960629921,
          "duration": 0.08261492187499897
        },
        {
          "name": "A3",
          "midi": 57,
          "time": 37.57182968750001,
          "velocity": 0.6771653543307087,
          "duration": 0.05387929687499593
        },
        {
          "name": "D3",
          "midi": 50,
          "time": 37.57901359375001,
          "velocity": 0.4566929133858268,
          "duration": 0.05028734374999999
        },
        {
          "name": "D3",
          "midi": 50,
          "time": 37.74065148437501,
          "velocity": 0.7795275590551181,
          "duration": 0.31968382812500096
        },
        {
          "name": "D4",
          "midi": 62,
          "time": 37.75142734375001,
          "velocity": 0.8267716535433071,
          "duration": 0.27658039062499995
        },
        {
          "name": "A3",
          "midi": 57,
          "time": 37.75142734375001,
          "velocity": 0.7952755905511811,
          "duration": 0.2658045312499979
        },
        {
          "name": "D4",
          "midi": 62,
          "time": 38.10343875000001,
          "velocity": 0.889763779527559,
          "duration": 0.26939648437500807
        },
        {
          "name": "D3",
          "midi": 50,
          "time": 38.11421460937501,
          "velocity": 0.8740157480314961,
          "duration": 0.305316015625003
        },
        {
          "name": "A3",
          "midi": 57,
          "time": 38.117806562500014,
          "velocity": 0.937007874015748,
          "duration": 0.287356250000002
        },
        {
          "name": "D4",
          "midi": 62,
          "time": 38.45185820312501,
          "velocity": 0.7244094488188977,
          "duration": 0.093390781250001
        },
        {
          "name": "D3",
          "midi": 50,
          "time": 38.469817968750014,
          "velocity": 0.5590551181102362,
          "duration": 0.07543101562499999
        },
        {
          "name": "A3",
          "midi": 57,
          "time": 38.47700187500001,
          "velocity": 0.6850393700787402,
          "duration": 0.057471249999998975
        },
        {
          "name": "E3",
          "midi": 52,
          "time": 38.62427195312502,
          "velocity": 0.7322834645669292,
          "duration": 0.2119252343749949
        },
        {
          "name": "B2",
          "midi": 47,
          "time": 38.631455859375016,
          "velocity": 0.7322834645669292,
          "duration": 0.2047413281249959
        },
        {
          "name": "E2",
          "midi": 40,
          "time": 38.631455859375016,
          "velocity": 0.7244094488188977,
          "duration": 0.16522984374999794
        },
        {
          "name": "E2",
          "midi": 40,
          "time": 38.796685703125014,
          "velocity": 0.3700787401574803,
          "duration": 0.11494249999999795
        },
        {
          "name": "E2",
          "midi": 40,
          "time": 38.97628335937501,
          "velocity": 0.4330708661417323,
          "duration": 0.12571835937499998
        },
        {
          "name": "E2",
          "midi": 40,
          "time": 39.14869710937501,
          "velocity": 0.5039370078740157,
          "duration": 0.143678125000001
        },
        {
          "name": "E3",
          "midi": 52,
          "time": 39.30315109375001,
          "velocity": 0.8110236220472441,
          "duration": 0.2298849999999959
        },
        {
          "name": "B2",
          "midi": 47,
          "time": 39.31033500000001,
          "velocity": 0.7086614173228346,
          "duration": 0.20114937499999996
        },
        {
          "name": "E2",
          "midi": 40,
          "time": 39.31392695312501,
          "velocity": 0.7322834645669292,
          "duration": 0.17241374999999692
        },
        {
          "name": "E2",
          "midi": 40,
          "time": 39.48634070312501,
          "velocity": 0.4251968503937008,
          "duration": 0.10416664062499592
        },
        {
          "name": "E2",
          "midi": 40,
          "time": 39.658754453125006,
          "velocity": 0.5511811023622047,
          "duration": 0.12571835937499998
        },
        {
          "name": "E2",
          "midi": 40,
          "time": 39.831168203125,
          "velocity": 0.7086614173228346,
          "duration": 0.15086203124999997
        },
        {
          "name": "E3",
          "midi": 52,
          "time": 40.003581953125,
          "velocity": 0.8976377952755905,
          "duration": 0.12571835937500708
        },
        {
          "name": "B2",
          "midi": 47,
          "time": 40.010765859375,
          "velocity": 0.8582677165354331,
          "duration": 0.1364942187500091
        },
        {
          "name": "E2",
          "midi": 40,
          "time": 40.0143578125,
          "velocity": 0.8582677165354331,
          "duration": 0.11135054687500201
        },
        {
          "name": "A3",
          "midi": 57,
          "time": 40.14726007812501,
          "velocity": 0.7322834645669292,
          "duration": 0.1436781250000081
        },
        {
          "name": "D4",
          "midi": 62,
          "time": 40.15444398437501,
          "velocity": 0.6771653543307087,
          "duration": 0.1185344531250081
        },
        {
          "name": "D3",
          "midi": 50,
          "time": 40.16521984375001,
          "velocity": 0.6771653543307087,
          "duration": 0.11494250000000505
        },
        {
          "name": "D4",
          "midi": 62,
          "time": 40.31967382812502,
          "velocity": 0.7480314960629921,
          "duration": 0.08261492187499897
        },
        {
          "name": "A3",
          "midi": 57,
          "time": 40.33044968750002,
          "velocity": 0.6771653543307087,
          "duration": 0.05387929687499593
        },
        {
          "name": "D3",
          "midi": 50,
          "time": 40.33763359375002,
          "velocity": 0.4566929133858268,
          "duration": 0.05028734374999999
        },
        {
          "name": "D3",
          "midi": 50,
          "time": 40.499271484375015,
          "velocity": 0.7795275590551181,
          "duration": 0.31968382812500096
        },
        {
          "name": "D4",
          "midi": 62,
          "time": 40.51004734375002,
          "velocity": 0.8267716535433071,
          "duration": 0.27658039062499995
        },
        {
          "name": "A3",
          "midi": 57,
          "time": 40.51004734375002,
          "velocity": 0.7952755905511811,
          "duration": 0.2658045312499979
        },
        {
          "name": "D4",
          "midi": 62,
          "time": 40.86205875000002,
          "velocity": 0.889763779527559,
          "duration": 0.26939648437500807
        },
        {
          "name": "D3",
          "midi": 50,
          "time": 40.87283460937502,
          "velocity": 0.8740157480314961,
          "duration": 0.305316015625003
        },
        {
          "name": "A3",
          "midi": 57,
          "time": 40.87642656250002,
          "velocity": 0.937007874015748,
          "duration": 0.287356250000002
        },
        {
          "name": "D4",
          "midi": 62,
          "time": 41.21047820312502,
          "velocity": 0.7244094488188977,
          "duration": 0.093390781250001
        },
        {
          "name": "D3",
          "midi": 50,
          "time": 41.22843796875002,
          "velocity": 0.5590551181102362,
          "duration": 0.07543101562499999
        },
        {
          "name": "A3",
          "midi": 57,
          "time": 41.23562187500002,
          "velocity": 0.6850393700787402,
          "duration": 0.057471249999998975
        },
        {
          "name": "E3",
          "midi": 52,
          "time": 41.382891953125025,
          "velocity": 0.7322834645669292,
          "duration": 0.2119252343749949
        },
        {
          "name": "B2",
          "midi": 47,
          "time": 41.390075859375024,
          "velocity": 0.7322834645669292,
          "duration": 0.2047413281249959
        },
        {
          "name": "E2",
          "midi": 40,
          "time": 41.390075859375024,
          "velocity": 0.7244094488188977,
          "duration": 0.16522984374999794
        },
        {
          "name": "E2",
          "midi": 40,
          "time": 41.55530570312502,
          "velocity": 0.3700787401574803,
          "duration": 0.11494249999999795
        },
        {
          "name": "E2",
          "midi": 40,
          "time": 41.73490335937502,
          "velocity": 0.4330708661417323,
          "duration": 0.12571835937499998
        },
        {
          "name": "E2",
          "midi": 40,
          "time": 41.907317109375015,
          "velocity": 0.5039370078740157,
          "duration": 0.143678125000001
        },
        {
          "name": "E3",
          "midi": 52,
          "time": 42.06177109375002,
          "velocity": 0.8110236220472441,
          "duration": 0.2298849999999959
        },
        {
          "name": "B2",
          "midi": 47,
          "time": 42.06895500000002,
          "velocity": 0.7086614173228346,
          "duration": 0.20114937499999996
        },
        {
          "name": "E2",
          "midi": 40,
          "time": 42.07254695312502,
          "velocity": 0.7322834645669292,
          "duration": 0.17241374999999692
        },
        {
          "name": "E2",
          "midi": 40,
          "time": 42.24496070312502,
          "velocity": 0.4251968503937008,
          "duration": 0.10416664062499592
        },
        {
          "name": "E2",
          "midi": 40,
          "time": 42.417374453125014,
          "velocity": 0.5511811023622047,
          "duration": 0.12571835937499998
        },
        {
          "name": "E2",
          "midi": 40,
          "time": 42.58978820312501,
          "velocity": 0.7086614173228346,
          "duration": 0.15086203124999997
        },
        {
          "name": "E3",
          "midi": 52,
          "time": 42.76220195312501,
          "velocity": 0.8976377952755905,
          "duration": 0.12571835937500708
        },
        {
          "name": "B2",
          "midi": 47,
          "time": 42.76938585937501,
          "velocity": 0.8582677165354331,
          "duration": 0.1364942187500091
        },
        {
          "name": "E2",
          "midi": 40,
          "time": 42.77297781250001,
          "velocity": 0.8582677165354331,
          "duration": 0.11135054687500201
        },
        {
          "name": "A3",
          "midi": 57,
          "time": 42.905880078125016,
          "velocity": 0.7322834645669292,
          "duration": 0.1436781250000081
        },
        {
          "name": "D4",
          "midi": 62,
          "time": 42.913063984375015,
          "velocity": 0.6771653543307087,
          "duration": 0.1185344531250081
        },
        {
          "name": "D3",
          "midi": 50,
          "time": 42.92383984375002,
          "velocity": 0.6771653543307087,
          "duration": 0.11494250000000505
        },
        {
          "name": "D4",
          "midi": 62,
          "time": 43.07829382812503,
          "velocity": 0.7480314960629921,
          "duration": 0.08261492187499897
        },
        {
          "name": "A3",
          "midi": 57,
          "time": 43.08906968750003,
          "velocity": 0.6771653543307087,
          "duration": 0.05387929687499593
        },
        {
          "name": "D3",
          "midi": 50,
          "time": 43.09625359375003,
          "velocity": 0.4566929133858268,
          "duration": 0.05028734374999999
        },
        {
          "name": "D3",
          "midi": 50,
          "time": 43.25789148437502,
          "velocity": 0.7795275590551181,
          "duration": 0.31968382812500096
        },
        {
          "name": "D4",
          "midi": 62,
          "time": 43.268667343750025,
          "velocity": 0.8267716535433071,
          "duration": 0.27658039062499995
        },
        {
          "name": "A3",
          "midi": 57,
          "time": 43.268667343750025,
          "velocity": 0.7952755905511811,
          "duration": 0.2658045312499979
        },
        {
          "name": "D4",
          "midi": 62,
          "time": 43.620678750000025,
          "velocity": 0.889763779527559,
          "duration": 0.26939648437500807
        },
        {
          "name": "D3",
          "midi": 50,
          "time": 43.63145460937503,
          "velocity": 0.8740157480314961,
          "duration": 0.305316015625003
        },
        {
          "name": "A3",
          "midi": 57,
          "time": 43.63504656250003,
          "velocity": 0.937007874015748,
          "duration": 0.287356250000002
        },
        {
          "name": "D4",
          "midi": 62,
          "time": 43.96909820312503,
          "velocity": 0.7244094488188977,
          "duration": 0.093390781250001
        },
        {
          "name": "D3",
          "midi": 50,
          "time": 43.98705796875003,
          "velocity": 0.5590551181102362,
          "duration": 0.07543101562499999
        },
        {
          "name": "A3",
          "midi": 57,
          "time": 43.99424187500003,
          "velocity": 0.6850393700787402,
          "duration": 0.057471249999998975
        },
        {
          "name": "E3",
          "midi": 52,
          "time": 44.14151195312503,
          "velocity": 0.7322834645669292,
          "duration": 0.2119252343749949
        },
        {
          "name": "B2",
          "midi": 47,
          "time": 44.14869585937503,
          "velocity": 0.7322834645669292,
          "duration": 0.2047413281249959
        },
        {
          "name": "E2",
          "midi": 40,
          "time": 44.14869585937503,
          "velocity": 0.7244094488188977,
          "duration": 0.16522984374999794
        },
        {
          "name": "E2",
          "midi": 40,
          "time": 44.31392570312503,
          "velocity": 0.3700787401574803,
          "duration": 0.11494249999999795
        },
        {
          "name": "E2",
          "midi": 40,
          "time": 44.493523359375025,
          "velocity": 0.4330708661417323,
          "duration": 0.12571835937499998
        },
        {
          "name": "E2",
          "midi": 40,
          "time": 44.66593710937502,
          "velocity": 0.5039370078740157,
          "duration": 0.143678125000001
        },
        {
          "name": "E3",
          "midi": 52,
          "time": 44.820391093750025,
          "velocity": 0.8110236220472441,
          "duration": 0.2298849999999959
        },
        {
          "name": "B2",
          "midi": 47,
          "time": 44.827575000000024,
          "velocity": 0.7086614173228346,
          "duration": 0.20114937499999996
        },
        {
          "name": "E2",
          "midi": 40,
          "time": 44.83116695312503,
          "velocity": 0.7322834645669292,
          "duration": 0.17241374999999692
        },
        {
          "name": "E2",
          "midi": 40,
          "time": 45.003580703125024,
          "velocity": 0.4251968503937008,
          "duration": 0.10416664062499592
        },
        {
          "name": "E2",
          "midi": 40,
          "time": 45.17599445312502,
          "velocity": 0.5511811023622047,
          "duration": 0.12571835937499998
        },
        {
          "name": "E2",
          "midi": 40,
          "time": 45.34840820312502,
          "velocity": 0.7086614173228346,
          "duration": 0.15086203124999997
        },
        {
          "name": "E3",
          "midi": 52,
          "time": 45.520821953125015,
          "velocity": 0.8976377952755905,
          "duration": 0.12571835937500708
        },
        {
          "name": "B2",
          "midi": 47,
          "time": 45.528005859375014,
          "velocity": 0.8582677165354331,
          "duration": 0.1364942187500091
        },
        {
          "name": "E2",
          "midi": 40,
          "time": 45.53159781250002,
          "velocity": 0.8582677165354331,
          "duration": 0.11135054687500201
        },
        {
          "name": "A3",
          "midi": 57,
          "time": 45.66450007812502,
          "velocity": 0.7322834645669292,
          "duration": 0.1436781250000081
        },
        {
          "name": "D4",
          "midi": 62,
          "time": 45.67168398437502,
          "velocity": 0.6771653543307087,
          "duration": 0.1185344531250081
        },
        {
          "name": "D3",
          "midi": 50,
          "time": 45.682459843750024,
          "velocity": 0.6771653543307087,
          "duration": 0.11494250000000505
        },
        {
          "name": "D4",
          "midi": 62,
          "time": 45.836913828125034,
          "velocity": 0.7480314960629921,
          "duration": 0.08261492187499897
        },
        {
          "name": "A3",
          "midi": 57,
          "time": 45.847689687500036,
          "velocity": 0.6771653543307087,
          "duration": 0.05387929687499593
        },
        {
          "name": "D3",
          "midi": 50,
          "time": 45.854873593750035,
          "velocity": 0.4566929133858268,
          "duration": 0.05028734374999999
        },
        {
          "name": "D3",
          "midi": 50,
          "time": 46.01651148437503,
          "velocity": 0.7795275590551181,
          "duration": 0.31968382812500096
        },
        {
          "name": "D4",
          "midi": 62,
          "time": 46.02728734375003,
          "velocity": 0.8267716535433071,
          "duration": 0.27658039062499995
        },
        {
          "name": "A3",
          "midi": 57,
          "time": 46.02728734375003,
          "velocity": 0.7952755905511811,
          "duration": 0.2658045312499979
        },
        {
          "name": "D4",
          "midi": 62,
          "time": 46.37929875000003,
          "velocity": 0.889763779527559,
          "duration": 0.26939648437500807
        },
        {
          "name": "D3",
          "midi": 50,
          "time": 46.390074609375034,
          "velocity": 0.8740157480314961,
          "duration": 0.305316015625003
        },
        {
          "name": "A3",
          "midi": 57,
          "time": 46.39366656250004,
          "velocity": 0.937007874015748,
          "duration": 0.287356250000002
        },
        {
          "name": "D4",
          "midi": 62,
          "time": 46.727718203125036,
          "velocity": 0.7244094488188977,
          "duration": 0.093390781250001
        },
        {
          "name": "D3",
          "midi": 50,
          "time": 46.74567796875004,
          "velocity": 0.5590551181102362,
          "duration": 0.07543101562499999
        },
        {
          "name": "A3",
          "midi": 57,
          "time": 46.752861875000036,
          "velocity": 0.6850393700787402,
          "duration": 0.057471249999998975
        },
        {
          "name": "E3",
          "midi": 52,
          "time": 46.90013195312504,
          "velocity": 0.7322834645669292,
          "duration": 0.2119252343749949
        },
        {
          "name": "B2",
          "midi": 47,
          "time": 46.90731585937504,
          "velocity": 0.7322834645669292,
          "duration": 0.2047413281249959
        },
        {
          "name": "E2",
          "midi": 40,
          "time": 46.90731585937504,
          "velocity": 0.7244094488188977,
          "duration": 0.16522984374999794
        },
        {
          "name": "E2",
          "midi": 40,
          "time": 47.07254570312504,
          "velocity": 0.3700787401574803,
          "duration": 0.11494249999999795
        },
        {
          "name": "E2",
          "midi": 40,
          "time": 47.25214335937503,
          "velocity": 0.4330708661417323,
          "duration": 0.12571835937499998
        },
        {
          "name": "E2",
          "midi": 40,
          "time": 47.42455710937503,
          "velocity": 0.5039370078740157,
          "duration": 0.143678125000001
        },
        {
          "name": "E3",
          "midi": 52,
          "time": 47.57901109375003,
          "velocity": 0.8110236220472441,
          "duration": 0.2298849999999959
        },
        {
          "name": "B2",
          "midi": 47,
          "time": 47.58619500000003,
          "velocity": 0.7086614173228346,
          "duration": 0.20114937499999996
        },
        {
          "name": "E2",
          "midi": 40,
          "time": 47.589786953125035,
          "velocity": 0.7322834645669292,
          "duration": 0.17241374999999692
        },
        {
          "name": "E2",
          "midi": 40,
          "time": 47.76220070312503,
          "velocity": 0.4251968503937008,
          "duration": 0.10416664062499592
        },
        {
          "name": "E2",
          "midi": 40,
          "time": 47.93461445312503,
          "velocity": 0.5511811023622047,
          "duration": 0.12571835937499998
        },
        {
          "name": "E2",
          "midi": 40,
          "time": 48.107028203125026,
          "velocity": 0.7086614173228346,
          "duration": 0.15086203124999997
        },
        {
          "name": "E3",
          "midi": 52,
          "time": 48.27944195312502,
          "velocity": 0.8976377952755905,
          "duration": 0.25862062499999894
        },
        {
          "name": "B2",
          "midi": 47,
          "time": 48.28662585937502,
          "velocity": 0.8582677165354331,
          "duration": 0.25143671874999995
        },
        {
          "name": "E2",
          "midi": 40,
          "time": 48.290217812500025,
          "velocity": 0.8582677165354331,
          "duration": 0.20114937499999996
        },
        {
          "name": "B2",
          "midi": 47,
          "time": 48.63145335937502,
          "velocity": 0.8740157480314961,
          "duration": 0.19396546875000098
        },
        {
          "name": "D3",
          "midi": 50,
          "time": 48.793091250000025,
          "velocity": 0.7952755905511811,
          "duration": 0.33764359375000197
        },
        {
          "name": "B2",
          "midi": 47,
          "time": 49.112775078125026,
          "velocity": 0.6377952755905512,
          "duration": 0.19755742187500402
        },
        {
          "name": "D3",
          "midi": 50,
          "time": 49.29237273437503,
          "velocity": 0.9212598425196851,
          "duration": 0.33764359375000197
        },
        {
          "name": "E3",
          "midi": 52,
          "time": 49.658751953125034,
          "velocity": 0.7322834645669292,
          "duration": 0.2119252343749949
        },
        {
          "name": "B2",
          "midi": 47,
          "time": 49.66593585937503,
          "velocity": 0.7322834645669292,
          "duration": 0.2047413281249959
        },
        {
          "name": "E2",
          "midi": 40,
          "time": 49.66593585937503,
          "velocity": 0.7244094488188977,
          "duration": 0.16522984374999794
        },
        {
          "name": "E2",
          "midi": 40,
          "time": 49.83116570312503,
          "velocity": 0.3700787401574803,
          "duration": 0.11494249999999795
        },
        {
          "name": "E2",
          "midi": 40,
          "time": 50.01076335937503,
          "velocity": 0.4330708661417323,
          "duration": 0.12571835937499998
        },
        {
          "name": "E2",
          "midi": 40,
          "time": 50.18317710937502,
          "velocity": 0.5039370078740157,
          "duration": 0.143678125000001
        },
        {
          "name": "E3",
          "midi": 52,
          "time": 50.337631093750026,
          "velocity": 0.8110236220472441,
          "duration": 0.2298849999999959
        },
        {
          "name": "B2",
          "midi": 47,
          "time": 50.344815000000025,
          "velocity": 0.7086614173228346,
          "duration": 0.20114937499999996
        },
        {
          "name": "E2",
          "midi": 40,
          "time": 50.34840695312503,
          "velocity": 0.7322834645669292,
          "duration": 0.17241374999999692
        },
        {
          "name": "E2",
          "midi": 40,
          "time": 50.520820703125025,
          "velocity": 0.4251968503937008,
          "duration": 0.10416664062499592
        },
        {
          "name": "E2",
          "midi": 40,
          "time": 50.69323445312502,
          "velocity": 0.5511811023622047,
          "duration": 0.12571835937499998
        },
        {
          "name": "E2",
          "midi": 40,
          "time": 50.86564820312502,
          "velocity": 0.7086614173228346,
          "duration": 0.15086203124999997
        },
        {
          "name": "E3",
          "midi": 52,
          "time": 51.038061953125016,
          "velocity": 0.8976377952755905,
          "duration": 0.25862062499999894
        },
        {
          "name": "B2",
          "midi": 47,
          "time": 51.045245859375015,
          "velocity": 0.8582677165354331,
          "duration": 0.25143671874999995
        },
        {
          "name": "E2",
          "midi": 40,
          "time": 51.04883781250002,
          "velocity": 0.8582677165354331,
          "duration": 0.20114937499999996
        },
        {
          "name": "B2",
          "midi": 47,
          "time": 51.390073359375016,
          "velocity": 0.8740157480314961,
          "duration": 0.19396546875000098
        },
        {
          "name": "D3",
          "midi": 50,
          "time": 51.55171125000002,
          "velocity": 0.7952755905511811,
          "duration": 0.33764359375000197
        },
        {
          "name": "B2",
          "midi": 47,
          "time": 51.87139507812502,
          "velocity": 0.6377952755905512,
          "duration": 0.19755742187500402
        },
        {
          "name": "D3",
          "midi": 50,
          "time": 52.05099273437502,
          "velocity": 0.9212598425196851,
          "duration": 0.33764359375000197
        },
        {
          "name": "E3",
          "midi": 52,
          "time": 52.41737195312503,
          "velocity": 0.7322834645669292,
          "duration": 0.2119252343749949
        },
        {
          "name": "B2",
          "midi": 47,
          "time": 52.424555859375026,
          "velocity": 0.7322834645669292,
          "duration": 0.2047413281249959
        },
        {
          "name": "E2",
          "midi": 40,
          "time": 52.424555859375026,
          "velocity": 0.7244094488188977,
          "duration": 0.16522984374999794
        },
        {
          "name": "E2",
          "midi": 40,
          "time": 52.589785703125024,
          "velocity": 0.3700787401574803,
          "duration": 0.11494249999999795
        },
        {
          "name": "E2",
          "midi": 40,
          "time": 52.76938335937502,
          "velocity": 0.4330708661417323,
          "duration": 0.12571835937499998
        },
        {
          "name": "E2",
          "midi": 40,
          "time": 52.94179710937502,
          "velocity": 0.5039370078740157,
          "duration": 0.143678125000001
        },
        {
          "name": "E3",
          "midi": 52,
          "time": 53.09625109375002,
          "velocity": 0.8110236220472441,
          "duration": 0.2298849999999959
        },
        {
          "name": "B2",
          "midi": 47,
          "time": 53.10343500000002,
          "velocity": 0.7086614173228346,
          "duration": 0.20114937499999996
        },
        {
          "name": "E2",
          "midi": 40,
          "time": 53.10702695312502,
          "velocity": 0.7322834645669292,
          "duration": 0.17241374999999692
        },
        {
          "name": "E2",
          "midi": 40,
          "time": 53.27944070312502,
          "velocity": 0.4251968503937008,
          "duration": 0.10416664062499592
        },
        {
          "name": "E2",
          "midi": 40,
          "time": 53.451854453125016,
          "velocity": 0.5511811023622047,
          "duration": 0.12571835937499998
        },
        {
          "name": "E2",
          "midi": 40,
          "time": 53.62426820312501,
          "velocity": 0.7086614173228346,
          "duration": 0.15086203124999997
        },
        {
          "name": "E3",
          "midi": 52,
          "time": 53.79668195312501,
          "velocity": 0.8976377952755905,
          "duration": 0.25862062499999894
        },
        {
          "name": "B2",
          "midi": 47,
          "time": 53.80386585937501,
          "velocity": 0.8582677165354331,
          "duration": 0.25143671874999995
        },
        {
          "name": "E2",
          "midi": 40,
          "time": 53.80745781250001,
          "velocity": 0.8582677165354331,
          "duration": 0.20114937499999996
        },
        {
          "name": "B2",
          "midi": 47,
          "time": 54.14869335937501,
          "velocity": 0.8740157480314961,
          "duration": 0.19396546875000098
        },
        {
          "name": "D3",
          "midi": 50,
          "time": 54.31033125000001,
          "velocity": 0.7952755905511811,
          "duration": 0.33764359375000197
        },
        {
          "name": "B2",
          "midi": 47,
          "time": 54.63001507812501,
          "velocity": 0.6377952755905512,
          "duration": 0.19755742187500402
        },
        {
          "name": "D3",
          "midi": 50,
          "time": 54.809612734375015,
          "velocity": 0.9212598425196851,
          "duration": 0.33764359375000197
        },
        {
          "name": "E3",
          "midi": 52,
          "time": 55.17599195312502,
          "velocity": 0.7322834645669292,
          "duration": 0.2119252343749949
        },
        {
          "name": "B2",
          "midi": 47,
          "time": 55.18317585937502,
          "velocity": 0.7322834645669292,
          "duration": 0.2047413281249959
        },
        {
          "name": "E2",
          "midi": 40,
          "time": 55.18317585937502,
          "velocity": 0.7244094488188977,
          "duration": 0.16522984374999794
        },
        {
          "name": "E2",
          "midi": 40,
          "time": 55.34840570312502,
          "velocity": 0.3700787401574803,
          "duration": 0.11494249999999795
        },
        {
          "name": "E2",
          "midi": 40,
          "time": 55.52800335937501,
          "velocity": 0.4330708661417323,
          "duration": 0.12571835937499998
        },
        {
          "name": "E2",
          "midi": 40,
          "time": 55.70041710937501,
          "velocity": 0.5039370078740157,
          "duration": 0.143678125000001
        },
        {
          "name": "E3",
          "midi": 52,
          "time": 55.85487109375001,
          "velocity": 0.8110236220472441,
          "duration": 0.2298849999999959
        },
        {
          "name": "B2",
          "midi": 47,
          "time": 55.86205500000001,
          "velocity": 0.7086614173228346,
          "duration": 0.20114937499999996
        },
        {
          "name": "E2",
          "midi": 40,
          "time": 55.865646953125015,
          "velocity": 0.7322834645669292,
          "duration": 0.17241374999999692
        },
        {
          "name": "E2",
          "midi": 40,
          "time": 56.03806070312501,
          "velocity": 0.4251968503937008,
          "duration": 0.10416664062499592
        },
        {
          "name": "E2",
          "midi": 40,
          "time": 56.21047445312501,
          "velocity": 0.5511811023622047,
          "duration": 0.12571835937499998
        },
        {
          "name": "E2",
          "midi": 40,
          "time": 56.382888203125006,
          "velocity": 0.7086614173228346,
          "duration": 0.15086203124999997
        },
        {
          "name": "E3",
          "midi": 52,
          "time": 56.555301953125,
          "velocity": 0.8976377952755905,
          "duration": 0.25862062499999894
        },
        {
          "name": "B2",
          "midi": 47,
          "time": 56.562485859375,
          "velocity": 0.8582677165354331,
          "duration": 0.25143671874999995
        },
        {
          "name": "E2",
          "midi": 40,
          "time": 56.566077812500005,
          "velocity": 0.8582677165354331,
          "duration": 0.20114937499999996
        },
        {
          "name": "B2",
          "midi": 47,
          "time": 56.907313359375,
          "velocity": 0.8740157480314961,
          "duration": 0.19396546875000098
        },
        {
          "name": "D3",
          "midi": 50,
          "time": 57.068951250000005,
          "velocity": 0.7952755905511811,
          "duration": 0.33764359375000197
        },
        {
          "name": "B2",
          "midi": 47,
          "time": 57.388635078125006,
          "velocity": 0.6377952755905512,
          "duration": 0.19755742187500402
        },
        {
          "name": "D3",
          "midi": 50,
          "time": 57.56823273437501,
          "velocity": 0.9212598425196851,
          "duration": 0.33764359375000197
        },
        {
          "name": "E3",
          "midi": 52,
          "time": 57.934611953125014,
          "velocity": 0.7322834645669292,
          "duration": 0.2119252343749949
        },
        {
          "name": "B2",
          "midi": 47,
          "time": 57.94179585937501,
          "velocity": 0.7322834645669292,
          "duration": 0.2047413281249959
        },
        {
          "name": "E2",
          "midi": 40,
          "time": 57.94179585937501,
          "velocity": 0.7244094488188977,
          "duration": 0.16522984374999794
        },
        {
          "name": "E2",
          "midi": 40,
          "time": 58.10702570312501,
          "velocity": 0.3700787401574803,
          "duration": 0.11494249999999795
        },
        {
          "name": "E2",
          "midi": 40,
          "time": 58.28662335937501,
          "velocity": 0.4330708661417323,
          "duration": 0.12571835937499998
        },
        {
          "name": "E2",
          "midi": 40,
          "time": 58.459037109375004,
          "velocity": 0.5039370078740157,
          "duration": 0.143678125000001
        },
        {
          "name": "E3",
          "midi": 52,
          "time": 58.61349109375001,
          "velocity": 0.8110236220472441,
          "duration": 0.2298849999999959
        },
        {
          "name": "B2",
          "midi": 47,
          "time": 58.620675000000006,
          "velocity": 0.7086614173228346,
          "duration": 0.20114937499999996
        },
        {
          "name": "E2",
          "midi": 40,
          "time": 58.62426695312501,
          "velocity": 0.7322834645669292,
          "duration": 0.17241374999999692
        },
        {
          "name": "E2",
          "midi": 40,
          "time": 58.796680703125006,
          "velocity": 0.4251968503937008,
          "duration": 0.10416664062499592
        },
        {
          "name": "E2",
          "midi": 40,
          "time": 58.969094453125,
          "velocity": 0.5511811023622047,
          "duration": 0.12571835937499998
        },
        {
          "name": "E2",
          "midi": 40,
          "time": 59.141508203125,
          "velocity": 0.7086614173228346,
          "duration": 0.15086203124999997
        },
        {
          "name": "E3",
          "midi": 52,
          "time": 59.313921953124996,
          "velocity": 0.8976377952755905,
          "duration": 0.25862062499999894
        },
        {
          "name": "B2",
          "midi": 47,
          "time": 59.321105859374995,
          "velocity": 0.8582677165354331,
          "duration": 0.25143671874999995
        },
        {
          "name": "E2",
          "midi": 40,
          "time": 59.3246978125,
          "velocity": 0.8582677165354331,
          "duration": 0.20114937499999996
        },
        {
          "name": "B2",
          "midi": 47,
          "time": 59.665933359374996,
          "velocity": 0.8740157480314961,
          "duration": 0.19396546875000098
        },
        {
          "name": "D3",
          "midi": 50,
          "time": 59.82757125,
          "velocity": 0.7952755905511811,
          "duration": 0.33764359375000197
        },
        {
          "name": "B2",
          "midi": 47,
          "time": 60.147255078125,
          "velocity": 0.6377952755905512,
          "duration": 0.19755742187500402
        },
        {
          "name": "D3",
          "midi": 50,
          "time": 60.326852734375,
          "velocity": 0.9212598425196851,
          "duration": 0.33764359375000197
        },
        {
          "name": "E3",
          "midi": 52,
          "time": 60.69323195312501,
          "velocity": 0.7322834645669292,
          "duration": 0.2119252343749949
        },
        {
          "name": "B2",
          "midi": 47,
          "time": 60.700415859375006,
          "velocity": 0.7322834645669292,
          "duration": 0.2047413281249959
        },
        {
          "name": "E2",
          "midi": 40,
          "time": 60.700415859375006,
          "velocity": 0.7244094488188977,
          "duration": 0.16522984374999794
        },
        {
          "name": "E2",
          "midi": 40,
          "time": 60.865645703125004,
          "velocity": 0.3700787401574803,
          "duration": 0.11494249999999795
        },
        {
          "name": "E2",
          "midi": 40,
          "time": 61.045243359375,
          "velocity": 0.4330708661417323,
          "duration": 0.12571835937499998
        },
        {
          "name": "E2",
          "midi": 40,
          "time": 61.217657109375,
          "velocity": 0.5039370078740157,
          "duration": 0.143678125000001
        },
        {
          "name": "E3",
          "midi": 52,
          "time": 61.37211109375,
          "velocity": 0.8110236220472441,
          "duration": 0.2298849999999959
        },
        {
          "name": "B2",
          "midi": 47,
          "time": 61.379295,
          "velocity": 0.7086614173228346,
          "duration": 0.20114937499999996
        },
        {
          "name": "E2",
          "midi": 40,
          "time": 61.382886953125,
          "velocity": 0.7322834645669292,
          "duration": 0.17241374999999692
        },
        {
          "name": "E2",
          "midi": 40,
          "time": 61.555300703125,
          "velocity": 0.4251968503937008,
          "duration": 0.10416664062499592
        },
        {
          "name": "E2",
          "midi": 40,
          "time": 61.727714453124996,
          "velocity": 0.5511811023622047,
          "duration": 0.12571835937499998
        },
        {
          "name": "E2",
          "midi": 40,
          "time": 61.90012820312499,
          "velocity": 0.7086614173228346,
          "duration": 0.15086203124999997
        },
        {
          "name": "E3",
          "midi": 52,
          "time": 62.07254195312499,
          "velocity": 0.8976377952755905,
          "duration": 0.25862062499999894
        },
        {
          "name": "B2",
          "midi": 47,
          "time": 62.07972585937499,
          "velocity": 0.8582677165354331,
          "duration": 0.25143671874999995
        },
        {
          "name": "E2",
          "midi": 40,
          "time": 62.08331781249999,
          "velocity": 0.8582677165354331,
          "duration": 0.20114937499999996
        },
        {
          "name": "B2",
          "midi": 47,
          "time": 62.42455335937499,
          "velocity": 0.8740157480314961,
          "duration": 0.19396546875000098
        },
        {
          "name": "D3",
          "midi": 50,
          "time": 62.58619124999999,
          "velocity": 0.7952755905511811,
          "duration": 0.33764359375000197
        },
        {
          "name": "B2",
          "midi": 47,
          "time": 62.90587507812499,
          "velocity": 0.6377952755905512,
          "duration": 0.19755742187500402
        },
        {
          "name": "D3",
          "midi": 50,
          "time": 63.085472734374996,
          "velocity": 0.9212598425196851,
          "duration": 0.33764359375000197
        },
        {
          "name": "E3",
          "midi": 52,
          "time": 63.451851953125,
          "velocity": 0.7322834645669292,
          "duration": 0.2119252343749949
        },
        {
          "name": "B2",
          "midi": 47,
          "time": 63.459035859375,
          "velocity": 0.7322834645669292,
          "duration": 0.2047413281249959
        },
        {
          "name": "E2",
          "midi": 40,
          "time": 63.459035859375,
          "velocity": 0.7244094488188977,
          "duration": 0.16522984374999794
        },
        {
          "name": "E2",
          "midi": 40,
          "time": 63.624265703125,
          "velocity": 0.3700787401574803,
          "duration": 0.11494249999999795
        },
        {
          "name": "E2",
          "midi": 40,
          "time": 63.80386335937499,
          "velocity": 0.4330708661417323,
          "duration": 0.12571835937499998
        },
        {
          "name": "E2",
          "midi": 40,
          "time": 63.97627710937499,
          "velocity": 0.5039370078740157,
          "duration": 0.14367812499999388
        },
        {
          "name": "E3",
          "midi": 52,
          "time": 64.13073109374999,
          "velocity": 0.8110236220472441,
          "duration": 0.2298850000000101
        },
        {
          "name": "B2",
          "midi": 47,
          "time": 64.13791499999999,
          "velocity": 0.7086614173228346,
          "duration": 0.20114937499999996
        },
        {
          "name": "E2",
          "midi": 40,
          "time": 64.14150695312499,
          "velocity": 0.7322834645669292,
          "duration": 0.17241375000000403
        },
        {
          "name": "E2",
          "midi": 40,
          "time": 64.31392070312499,
          "velocity": 0.4251968503937008,
          "duration": 0.10416664062501013
        },
        {
          "name": "E2",
          "midi": 40,
          "time": 64.486334453125,
          "velocity": 0.5511811023622047,
          "duration": 0.12571835937499998
        },
        {
          "name": "E2",
          "midi": 40,
          "time": 64.658748203125,
          "velocity": 0.7086614173228346,
          "duration": 0.15086203124999997
        },
        {
          "name": "E3",
          "midi": 52,
          "time": 64.831161953125,
          "velocity": 0.8976377952755905,
          "duration": 0.25862062500000604
        },
        {
          "name": "B2",
          "midi": 47,
          "time": 64.83834585937501,
          "velocity": 0.8582677165354331,
          "duration": 0.25143671874999995
        },
        {
          "name": "E2",
          "midi": 40,
          "time": 64.8419378125,
          "velocity": 0.8582677165354331,
          "duration": 0.20114937499999996
        },
        {
          "name": "B2",
          "midi": 47,
          "time": 65.183173359375,
          "velocity": 0.8740157480314961,
          "duration": 0.19396546875000809
        },
        {
          "name": "D3",
          "midi": 50,
          "time": 65.34481125,
          "velocity": 0.7952755905511811,
          "duration": 0.33764359375000197
        },
        {
          "name": "B2",
          "midi": 47,
          "time": 65.66449507812501,
          "velocity": 0.6377952755905512,
          "duration": 0.1975574218749898
        },
        {
          "name": "D3",
          "midi": 50,
          "time": 65.84409273437501,
          "velocity": 0.9212598425196851,
          "duration": 0.33764359374998776
        },
        {
          "name": "E3",
          "midi": 52,
          "time": 66.210471953125,
          "velocity": 0.7322834645669292,
          "duration": 0.211925234375002
        },
        {
          "name": "B2",
          "midi": 47,
          "time": 66.217655859375,
          "velocity": 0.7322834645669292,
          "duration": 0.2047413281249959
        },
        {
          "name": "E2",
          "midi": 40,
          "time": 66.217655859375,
          "velocity": 0.7244094488188977,
          "duration": 0.16522984374999794
        },
        {
          "name": "E2",
          "midi": 40,
          "time": 66.382885703125,
          "velocity": 0.3700787401574803,
          "duration": 0.11494249999999795
        },
        {
          "name": "E2",
          "midi": 40,
          "time": 66.562483359375,
          "velocity": 0.4330708661417323,
          "duration": 0.12571835937499998
        },
        {
          "name": "E2",
          "midi": 40,
          "time": 66.734897109375,
          "velocity": 0.5039370078740157,
          "duration": 0.14367812499999388
        },
        {
          "name": "E3",
          "midi": 52,
          "time": 66.88935109375,
          "velocity": 0.8110236220472441,
          "duration": 0.2298850000000101
        },
        {
          "name": "B2",
          "midi": 47,
          "time": 66.896535,
          "velocity": 0.7086614173228346,
          "duration": 0.20114937499999996
        },
        {
          "name": "E2",
          "midi": 40,
          "time": 66.900126953125,
          "velocity": 0.7322834645669292,
          "duration": 0.17241375000000403
        },
        {
          "name": "E2",
          "midi": 40,
          "time": 67.072540703125,
          "velocity": 0.4251968503937008,
          "duration": 0.10416664062501013
        },
        {
          "name": "E2",
          "midi": 40,
          "time": 67.244954453125,
          "velocity": 0.5511811023622047,
          "duration": 0.12571835937499998
        },
        {
          "name": "E2",
          "midi": 40,
          "time": 67.41736820312501,
          "velocity": 0.7086614173228346,
          "duration": 0.15086203124999997
        },
        {
          "name": "E3",
          "midi": 52,
          "time": 67.58978195312501,
          "velocity": 0.8976377952755905,
          "duration": 0.25862062500000604
        },
        {
          "name": "B2",
          "midi": 47,
          "time": 67.59696585937502,
          "velocity": 0.8582677165354331,
          "duration": 0.25143671874999995
        },
        {
          "name": "E2",
          "midi": 40,
          "time": 67.60055781250001,
          "velocity": 0.8582677165354331,
          "duration": 0.20114937499999996
        },
        {
          "name": "B2",
          "midi": 47,
          "time": 67.94179335937501,
          "velocity": 0.8740157480314961,
          "duration": 0.19396546875000809
        },
        {
          "name": "D3",
          "midi": 50,
          "time": 68.10343125000001,
          "velocity": 0.7952755905511811,
          "duration": 0.33764359375000197
        },
        {
          "name": "B2",
          "midi": 47,
          "time": 68.42311507812502,
          "velocity": 0.6377952755905512,
          "duration": 0.1975574218749898
        },
        {
          "name": "D3",
          "midi": 50,
          "time": 68.60271273437502,
          "velocity": 0.9212598425196851,
          "duration": 0.33764359374998776
        },
        {
          "name": "E3",
          "midi": 52,
          "time": 68.969091953125,
          "velocity": 0.7322834645669292,
          "duration": 0.211925234375002
        },
        {
          "name": "B2",
          "midi": 47,
          "time": 68.97627585937501,
          "velocity": 0.7322834645669292,
          "duration": 0.2047413281249959
        },
        {
          "name": "E2",
          "midi": 40,
          "time": 68.97627585937501,
          "velocity": 0.7244094488188977,
          "duration": 0.16522984374999794
        },
        {
          "name": "E2",
          "midi": 40,
          "time": 69.141505703125,
          "velocity": 0.3700787401574803,
          "duration": 0.11494249999999795
        },
        {
          "name": "E2",
          "midi": 40,
          "time": 69.321103359375,
          "velocity": 0.4330708661417323,
          "duration": 0.12571835937499998
        },
        {
          "name": "E2",
          "midi": 40,
          "time": 69.493517109375,
          "velocity": 0.5039370078740157,
          "duration": 0.14367812499999388
        },
        {
          "name": "E3",
          "midi": 52,
          "time": 69.64797109375,
          "velocity": 0.8110236220472441,
          "duration": 0.2298850000000101
        },
        {
          "name": "B2",
          "midi": 47,
          "time": 69.65515500000001,
          "velocity": 0.7086614173228346,
          "duration": 0.20114937499999996
        },
        {
          "name": "E2",
          "midi": 40,
          "time": 69.658746953125,
          "velocity": 0.7322834645669292,
          "duration": 0.17241375000000403
        },
        {
          "name": "E2",
          "midi": 40,
          "time": 69.83116070312501,
          "velocity": 0.4251968503937008,
          "duration": 0.10416664062501013
        },
        {
          "name": "E2",
          "midi": 40,
          "time": 70.00357445312501,
          "velocity": 0.5511811023622047,
          "duration": 0.12571835937499998
        },
        {
          "name": "E2",
          "midi": 40,
          "time": 70.17598820312502,
          "velocity": 0.7086614173228346,
          "duration": 0.15086203124999997
        },
        {
          "name": "E3",
          "midi": 52,
          "time": 70.34840195312502,
          "velocity": 0.8976377952755905,
          "duration": 0.25862062500000604
        },
        {
          "name": "B2",
          "midi": 47,
          "time": 70.35558585937503,
          "velocity": 0.8582677165354331,
          "duration": 0.25143671874999995
        },
        {
          "name": "E2",
          "midi": 40,
          "time": 70.35917781250002,
          "velocity": 0.8582677165354331,
          "duration": 0.20114937499999996
        },
        {
          "name": "B2",
          "midi": 47,
          "time": 70.70041335937502,
          "velocity": 0.8740157480314961,
          "duration": 0.19396546875000809
        },
        {
          "name": "D3",
          "midi": 50,
          "time": 70.86205125000002,
          "velocity": 0.7952755905511811,
          "duration": 0.33764359375000197
        },
        {
          "name": "B2",
          "midi": 47,
          "time": 71.18173507812503,
          "velocity": 0.6377952755905512,
          "duration": 0.1975574218749898
        },
        {
          "name": "D3",
          "midi": 50,
          "time": 71.36133273437503,
          "velocity": 0.9212598425196851,
          "duration": 0.33764359374998776
        },
        {
          "name": "E3",
          "midi": 52,
          "time": 71.72771195312501,
          "velocity": 0.7322834645669292,
          "duration": 0.211925234375002
        },
        {
          "name": "B2",
          "midi": 47,
          "time": 71.73489585937502,
          "velocity": 0.7322834645669292,
          "duration": 0.2047413281249959
        },
        {
          "name": "E2",
          "midi": 40,
          "time": 71.73489585937502,
          "velocity": 0.7244094488188977,
          "duration": 0.16522984374999794
        },
        {
          "name": "E2",
          "midi": 40,
          "time": 71.90012570312501,
          "velocity": 0.3700787401574803,
          "duration": 0.11494249999999795
        },
        {
          "name": "E2",
          "midi": 40,
          "time": 72.07972335937501,
          "velocity": 0.4330708661417323,
          "duration": 0.12571835937499998
        },
        {
          "name": "E2",
          "midi": 40,
          "time": 72.25213710937501,
          "velocity": 0.5039370078740157,
          "duration": 0.14367812499999388
        },
        {
          "name": "E3",
          "midi": 52,
          "time": 72.40659109375001,
          "velocity": 0.8110236220472441,
          "duration": 0.2298850000000101
        },
        {
          "name": "B2",
          "midi": 47,
          "time": 72.41377500000002,
          "velocity": 0.7086614173228346,
          "duration": 0.20114937499999996
        },
        {
          "name": "E2",
          "midi": 40,
          "time": 72.41736695312501,
          "velocity": 0.7322834645669292,
          "duration": 0.17241375000000403
        },
        {
          "name": "E2",
          "midi": 40,
          "time": 72.58978070312502,
          "velocity": 0.4251968503937008,
          "duration": 0.10416664062501013
        },
        {
          "name": "E2",
          "midi": 40,
          "time": 72.76219445312502,
          "velocity": 0.5511811023622047,
          "duration": 0.12571835937499998
        },
        {
          "name": "E2",
          "midi": 40,
          "time": 72.93460820312502,
          "velocity": 0.7086614173228346,
          "duration": 0.15086203124999997
        },
        {
          "name": "E3",
          "midi": 52,
          "time": 73.10702195312503,
          "velocity": 0.8976377952755905,
          "duration": 0.12571835937499998
        },
        {
          "name": "B2",
          "midi": 47,
          "time": 73.11420585937503,
          "velocity": 0.8582677165354331,
          "duration": 0.1364942187499878
        },
        {
          "name": "E2",
          "midi": 40,
          "time": 73.11779781250003,
          "velocity": 0.8582677165354331,
          "duration": 0.11135054687500201
        },
        {
          "name": "A3",
          "midi": 57,
          "time": 73.25070007812502,
          "velocity": 0.7322834645669292,
          "duration": 0.1436781250000081
        },
        {
          "name": "D4",
          "midi": 62,
          "time": 73.25788398437503,
          "velocity": 0.6771653543307087,
          "duration": 0.11853445312499389
        },
        {
          "name": "D3",
          "midi": 50,
          "time": 73.26865984375003,
          "velocity": 0.6771653543307087,
          "duration": 0.11494249999999795
        },
        {
          "name": "D4",
          "midi": 62,
          "time": 73.42311382812503,
          "velocity": 0.7480314960629921,
          "duration": 0.08261492187500608
        },
        {
          "name": "A3",
          "midi": 57,
          "time": 73.43388968750003,
          "velocity": 0.6771653543307087,
          "duration": 0.05387929687501014
        },
        {
          "name": "D3",
          "midi": 50,
          "time": 73.44107359375003,
          "velocity": 0.4566929133858268,
          "duration": 0.05028734374999999
        },
        {
          "name": "D3",
          "midi": 50,
          "time": 73.60271148437504,
          "velocity": 0.7795275590551181,
          "duration": 0.31968382812500806
        },
        {
          "name": "D4",
          "midi": 62,
          "time": 73.61348734375004,
          "velocity": 0.8267716535433071,
          "duration": 0.27658039062499995
        },
        {
          "name": "A3",
          "midi": 57,
          "time": 73.61348734375004,
          "velocity": 0.7952755905511811,
          "duration": 0.2658045312499979
        },
        {
          "name": "D4",
          "midi": 62,
          "time": 73.96549875000004,
          "velocity": 0.889763779527559,
          "duration": 0.26939648437499386
        },
        {
          "name": "D3",
          "midi": 50,
          "time": 73.97627460937504,
          "velocity": 0.8740157480314961,
          "duration": 0.3053160156249959
        },
        {
          "name": "A3",
          "midi": 57,
          "time": 73.97986656250004,
          "velocity": 0.937007874015748,
          "duration": 0.287356250000002
        },
        {
          "name": "D4",
          "midi": 62,
          "time": 74.31391820312504,
          "velocity": 0.7244094488188977,
          "duration": 0.0933907812500081
        },
        {
          "name": "D3",
          "midi": 50,
          "time": 74.33187796875004,
          "velocity": 0.5590551181102362,
          "duration": 0.0754310156250142
        },
        {
          "name": "A3",
          "midi": 57,
          "time": 74.33906187500004,
          "velocity": 0.6850393700787402,
          "duration": 0.05747125000000608
        },
        {
          "name": "E3",
          "midi": 52,
          "time": 74.48633195312505,
          "velocity": 0.7322834645669292,
          "duration": 0.211925234375002
        },
        {
          "name": "B2",
          "midi": 47,
          "time": 74.49351585937505,
          "velocity": 0.7322834645669292,
          "duration": 0.2047413281249959
        },
        {
          "name": "E2",
          "midi": 40,
          "time": 74.49351585937505,
          "velocity": 0.7244094488188977,
          "duration": 0.16522984374999794
        },
        {
          "name": "E2",
          "midi": 40,
          "time": 74.65874570312505,
          "velocity": 0.3700787401574803,
          "duration": 0.11494249999999795
        },
        {
          "name": "E2",
          "midi": 40,
          "time": 74.83834335937505,
          "velocity": 0.4330708661417323,
          "duration": 0.12571835937499998
        },
        {
          "name": "E2",
          "midi": 40,
          "time": 75.01075710937505,
          "velocity": 0.5039370078740157,
          "duration": 0.14367812499999388
        },
        {
          "name": "E3",
          "midi": 52,
          "time": 75.16521109375005,
          "velocity": 0.8110236220472441,
          "duration": 0.2298850000000101
        },
        {
          "name": "B2",
          "midi": 47,
          "time": 75.17239500000005,
          "velocity": 0.7086614173228346,
          "duration": 0.20114937499999996
        },
        {
          "name": "E2",
          "midi": 40,
          "time": 75.17598695312505,
          "velocity": 0.7322834645669292,
          "duration": 0.17241375000000403
        },
        {
          "name": "E2",
          "midi": 40,
          "time": 75.34840070312505,
          "velocity": 0.4251968503937008,
          "duration": 0.10416664062501013
        },
        {
          "name": "E2",
          "midi": 40,
          "time": 75.52081445312506,
          "velocity": 0.5511811023622047,
          "duration": 0.12571835937499998
        },
        {
          "name": "E2",
          "midi": 40,
          "time": 75.69322820312506,
          "velocity": 0.7086614173228346,
          "duration": 0.15086203124999997
        },
        {
          "name": "E3",
          "midi": 52,
          "time": 75.86564195312506,
          "velocity": 0.8976377952755905,
          "duration": 0.12571835937499998
        },
        {
          "name": "B2",
          "midi": 47,
          "time": 75.87282585937507,
          "velocity": 0.8582677165354331,
          "duration": 0.1364942187499878
        },
        {
          "name": "E2",
          "midi": 40,
          "time": 75.87641781250007,
          "velocity": 0.8582677165354331,
          "duration": 0.11135054687500201
        },
        {
          "name": "A3",
          "midi": 57,
          "time": 76.00932007812506,
          "velocity": 0.7322834645669292,
          "duration": 0.1436781250000081
        },
        {
          "name": "D4",
          "midi": 62,
          "time": 76.01650398437506,
          "velocity": 0.6771653543307087,
          "duration": 0.11853445312499389
        },
        {
          "name": "D3",
          "midi": 50,
          "time": 76.02727984375007,
          "velocity": 0.6771653543307087,
          "duration": 0.11494249999999795
        },
        {
          "name": "D4",
          "midi": 62,
          "time": 76.18173382812506,
          "velocity": 0.7480314960629921,
          "duration": 0.08261492187500608
        },
        {
          "name": "A3",
          "midi": 57,
          "time": 76.19250968750006,
          "velocity": 0.6771653543307087,
          "duration": 0.05387929687501014
        },
        {
          "name": "D3",
          "midi": 50,
          "time": 76.19969359375007,
          "velocity": 0.4566929133858268,
          "duration": 0.05028734374999999
        },
        {
          "name": "D3",
          "midi": 50,
          "time": 76.36133148437507,
          "velocity": 0.7795275590551181,
          "duration": 0.31968382812500806
        },
        {
          "name": "D4",
          "midi": 62,
          "time": 76.37210734375007,
          "velocity": 0.8267716535433071,
          "duration": 0.27658039062499995
        },
        {
          "name": "A3",
          "midi": 57,
          "time": 76.37210734375007,
          "velocity": 0.7952755905511811,
          "duration": 0.2658045312499979
        },
        {
          "name": "D4",
          "midi": 62,
          "time": 76.72411875000007,
          "velocity": 0.889763779527559,
          "duration": 0.26939648437499386
        },
        {
          "name": "D3",
          "midi": 50,
          "time": 76.73489460937508,
          "velocity": 0.8740157480314961,
          "duration": 0.3053160156249959
        },
        {
          "name": "A3",
          "midi": 57,
          "time": 76.73848656250007,
          "velocity": 0.937007874015748,
          "duration": 0.287356250000002
        },
        {
          "name": "D4",
          "midi": 62,
          "time": 77.07253820312508,
          "velocity": 0.7244094488188977,
          "duration": 0.0933907812500081
        },
        {
          "name": "D3",
          "midi": 50,
          "time": 77.09049796875007,
          "velocity": 0.5590551181102362,
          "duration": 0.0754310156250142
        },
        {
          "name": "A3",
          "midi": 57,
          "time": 77.09768187500008,
          "velocity": 0.6850393700787402,
          "duration": 0.05747125000000608
        },
        {
          "name": "E3",
          "midi": 52,
          "time": 77.24495195312508,
          "velocity": 0.7322834645669292,
          "duration": 0.211925234375002
        },
        {
          "name": "B2",
          "midi": 47,
          "time": 77.25213585937509,
          "velocity": 0.7322834645669292,
          "duration": 0.2047413281249959
        },
        {
          "name": "E2",
          "midi": 40,
          "time": 77.25213585937509,
          "velocity": 0.7244094488188977,
          "duration": 0.16522984374999794
        },
        {
          "name": "E2",
          "midi": 40,
          "time": 77.41736570312509,
          "velocity": 0.3700787401574803,
          "duration": 0.11494249999999795
        },
        {
          "name": "E2",
          "midi": 40,
          "time": 77.59696335937508,
          "velocity": 0.4330708661417323,
          "duration": 0.12571835937499998
        },
        {
          "name": "E2",
          "midi": 40,
          "time": 77.76937710937509,
          "velocity": 0.5039370078740157,
          "duration": 0.14367812499999388
        },
        {
          "name": "E3",
          "midi": 52,
          "time": 77.92383109375008,
          "velocity": 0.8110236220472441,
          "duration": 0.2298850000000101
        },
        {
          "name": "B2",
          "midi": 47,
          "time": 77.93101500000009,
          "velocity": 0.7086614173228346,
          "duration": 0.20114937499999996
        },
        {
          "name": "E2",
          "midi": 40,
          "time": 77.93460695312508,
          "velocity": 0.7322834645669292,
          "duration": 0.17241375000000403
        },
        {
          "name": "E2",
          "midi": 40,
          "time": 78.10702070312509,
          "velocity": 0.4251968503937008,
          "duration": 0.10416664062501013
        },
        {
          "name": "E2",
          "midi": 40,
          "time": 78.27943445312509,
          "velocity": 0.5511811023622047,
          "duration": 0.12571835937499998
        },
        {
          "name": "E2",
          "midi": 40,
          "time": 78.4518482031251,
          "velocity": 0.7086614173228346,
          "duration": 0.15086203124999997
        },
        {
          "name": "E3",
          "midi": 52,
          "time": 78.6242619531251,
          "velocity": 0.8976377952755905,
          "duration": 0.12571835937499998
        },
        {
          "name": "B2",
          "midi": 47,
          "time": 78.6314458593751,
          "velocity": 0.8582677165354331,
          "duration": 0.1364942187499878
        },
        {
          "name": "E2",
          "midi": 40,
          "time": 78.6350378125001,
          "velocity": 0.8582677165354331,
          "duration": 0.11135054687500201
        },
        {
          "name": "A3",
          "midi": 57,
          "time": 78.7679400781251,
          "velocity": 0.7322834645669292,
          "duration": 0.1436781250000081
        },
        {
          "name": "D4",
          "midi": 62,
          "time": 78.7751239843751,
          "velocity": 0.6771653543307087,
          "duration": 0.11853445312499389
        },
        {
          "name": "D3",
          "midi": 50,
          "time": 78.7858998437501,
          "velocity": 0.6771653543307087,
          "duration": 0.11494249999999795
        },
        {
          "name": "D4",
          "midi": 62,
          "time": 78.9403538281251,
          "velocity": 0.7480314960629921,
          "duration": 0.08261492187500608
        },
        {
          "name": "A3",
          "midi": 57,
          "time": 78.9511296875001,
          "velocity": 0.6771653543307087,
          "duration": 0.05387929687501014
        },
        {
          "name": "D3",
          "midi": 50,
          "time": 78.9583135937501,
          "velocity": 0.4566929133858268,
          "duration": 0.05028734374999999
        },
        {
          "name": "D3",
          "midi": 50,
          "time": 79.11995148437511,
          "velocity": 0.7795275590551181,
          "duration": 0.31968382812500806
        },
        {
          "name": "D4",
          "midi": 62,
          "time": 79.13072734375011,
          "velocity": 0.8267716535433071,
          "duration": 0.27658039062499995
        },
        {
          "name": "A3",
          "midi": 57,
          "time": 79.13072734375011,
          "velocity": 0.7952755905511811,
          "duration": 0.2658045312499979
        },
        {
          "name": "D4",
          "midi": 62,
          "time": 79.48273875000011,
          "velocity": 0.889763779527559,
          "duration": 0.26939648437499386
        },
        {
          "name": "D3",
          "midi": 50,
          "time": 79.49351460937511,
          "velocity": 0.8740157480314961,
          "duration": 0.3053160156249959
        },
        {
          "name": "A3",
          "midi": 57,
          "time": 79.49710656250011,
          "velocity": 0.937007874015748,
          "duration": 0.287356250000002
        },
        {
          "name": "D4",
          "midi": 62,
          "time": 79.83115820312511,
          "velocity": 0.7244094488188977,
          "duration": 0.0933907812500081
        },
        {
          "name": "D3",
          "midi": 50,
          "time": 79.84911796875011,
          "velocity": 0.5590551181102362,
          "duration": 0.0754310156250142
        },
        {
          "name": "A3",
          "midi": 57,
          "time": 79.85630187500011,
          "velocity": 0.6850393700787402,
          "duration": 0.05747125000000608
        },
        {
          "name": "E3",
          "midi": 52,
          "time": 80.00357195312512,
          "velocity": 0.7322834645669292,
          "duration": 0.211925234375002
        },
        {
          "name": "B2",
          "midi": 47,
          "time": 80.01075585937512,
          "velocity": 0.7322834645669292,
          "duration": 0.2047413281249959
        },
        {
          "name": "E2",
          "midi": 40,
          "time": 80.01075585937512,
          "velocity": 0.7244094488188977,
          "duration": 0.16522984374999794
        },
        {
          "name": "E2",
          "midi": 40,
          "time": 80.17598570312512,
          "velocity": 0.3700787401574803,
          "duration": 0.11494249999999795
        },
        {
          "name": "E2",
          "midi": 40,
          "time": 80.35558335937512,
          "velocity": 0.4330708661417323,
          "duration": 0.12571835937499998
        },
        {
          "name": "E2",
          "midi": 40,
          "time": 80.52799710937512,
          "velocity": 0.5039370078740157,
          "duration": 0.14367812499999388
        },
        {
          "name": "E3",
          "midi": 52,
          "time": 80.68245109375012,
          "velocity": 0.8110236220472441,
          "duration": 0.2298850000000101
        },
        {
          "name": "B2",
          "midi": 47,
          "time": 80.68963500000012,
          "velocity": 0.7086614173228346,
          "duration": 0.20114937499999996
        },
        {
          "name": "E2",
          "midi": 40,
          "time": 80.69322695312512,
          "velocity": 0.7322834645669292,
          "duration": 0.17241375000000403
        },
        {
          "name": "E2",
          "midi": 40,
          "time": 80.86564070312512,
          "velocity": 0.4251968503937008,
          "duration": 0.10416664062501013
        },
        {
          "name": "E2",
          "midi": 40,
          "time": 81.03805445312513,
          "velocity": 0.5511811023622047,
          "duration": 0.12571835937499998
        },
        {
          "name": "E2",
          "midi": 40,
          "time": 81.21046820312513,
          "velocity": 0.7086614173228346,
          "duration": 0.15086203124999997
        },
        {
          "name": "E3",
          "midi": 52,
          "time": 81.38288195312514,
          "velocity": 0.8976377952755905,
          "duration": 0.12571835937499998
        },
        {
          "name": "B2",
          "midi": 47,
          "time": 81.39006585937514,
          "velocity": 0.8582677165354331,
          "duration": 0.1364942187499878
        },
        {
          "name": "E2",
          "midi": 40,
          "time": 81.39365781250014,
          "velocity": 0.8582677165354331,
          "duration": 0.11135054687500201
        },
        {
          "name": "A3",
          "midi": 57,
          "time": 81.52656007812513,
          "velocity": 0.7322834645669292,
          "duration": 0.1436781250000081
        },
        {
          "name": "D4",
          "midi": 62,
          "time": 81.53374398437514,
          "velocity": 0.6771653543307087,
          "duration": 0.11853445312499389
        },
        {
          "name": "D3",
          "midi": 50,
          "time": 81.54451984375014,
          "velocity": 0.6771653543307087,
          "duration": 0.11494249999999795
        },
        {
          "name": "D4",
          "midi": 62,
          "time": 81.69897382812513,
          "velocity": 0.7480314960629921,
          "duration": 0.08261492187500608
        },
        {
          "name": "A3",
          "midi": 57,
          "time": 81.70974968750014,
          "velocity": 0.6771653543307087,
          "duration": 0.05387929687501014
        },
        {
          "name": "D3",
          "midi": 50,
          "time": 81.71693359375014,
          "velocity": 0.4566929133858268,
          "duration": 0.05028734374999999
        },
        {
          "name": "D3",
          "midi": 50,
          "time": 81.87857148437514,
          "velocity": 0.7795275590551181,
          "duration": 0.31968382812500806
        },
        {
          "name": "D4",
          "midi": 62,
          "time": 81.88934734375015,
          "velocity": 0.8267716535433071,
          "duration": 0.27658039062499995
        },
        {
          "name": "A3",
          "midi": 57,
          "time": 81.88934734375015,
          "velocity": 0.7952755905511811,
          "duration": 0.2658045312499979
        },
        {
          "name": "D4",
          "midi": 62,
          "time": 82.24135875000015,
          "velocity": 0.889763779527559,
          "duration": 0.26939648437499386
        },
        {
          "name": "D3",
          "midi": 50,
          "time": 82.25213460937515,
          "velocity": 0.8740157480314961,
          "duration": 0.3053160156249959
        },
        {
          "name": "A3",
          "midi": 57,
          "time": 82.25572656250014,
          "velocity": 0.937007874015748,
          "duration": 0.287356250000002
        },
        {
          "name": "D4",
          "midi": 62,
          "time": 82.58977820312515,
          "velocity": 0.7244094488188977,
          "duration": 0.0933907812500081
        },
        {
          "name": "D3",
          "midi": 50,
          "time": 82.60773796875014,
          "velocity": 0.5590551181102362,
          "duration": 0.0754310156250142
        },
        {
          "name": "A3",
          "midi": 57,
          "time": 82.61492187500015,
          "velocity": 0.6850393700787402,
          "duration": 0.05747125000000608
        },
        {
          "name": "E3",
          "midi": 52,
          "time": 82.78733562500015,
          "velocity": 0.6535433070866141,
          "duration": 5.804596249999989
        },
        {
          "name": "E4",
          "midi": 64,
          "time": 82.79092757812515,
          "velocity": 0.7244094488188977,
          "duration": 5.801004296874993
        },
        {
          "name": "B3",
          "midi": 59,
          "time": 82.79092757812515,
          "velocity": 0.7007874015748031,
          "duration": 5.801004296874993
        },
        {
          "name": "B2",
          "midi": 47,
          "time": 118.62066000000016,
          "velocity": 0.7637795275590551,
          "duration": 0.2909482031249979
        },
        {
          "name": "E2",
          "midi": 40,
          "time": 118.63502781250016,
          "velocity": 0.8267716535433071,
          "duration": 0.30172406249999995
        },
        {
          "name": "E3",
          "midi": 52,
          "time": 118.63502781250016,
          "velocity": 0.905511811023622,
          "duration": 0.27658039062499995
        },
        {
          "name": "B2",
          "midi": 47,
          "time": 119.14149320312515,
          "velocity": 0.7952755905511811,
          "duration": 0.4022987499999999
        },
        {
          "name": "E2",
          "midi": 40,
          "time": 119.14867710937516,
          "velocity": 0.8582677165354331,
          "duration": 0.39511484374999384
        },
        {
          "name": "E3",
          "midi": 52,
          "time": 119.14867710937516,
          "velocity": 0.952755905511811,
          "duration": 0.31968382812499385
        },
        {
          "name": "E3",
          "midi": 52,
          "time": 121.37209609375014,
          "velocity": 0.9212598425196851,
          "duration": 0.3160918750000121
        },
        {
          "name": "E2",
          "midi": 40,
          "time": 121.37209609375014,
          "velocity": 0.8740157480314961,
          "duration": 0.3053160156250101
        },
        {
          "name": "B2",
          "midi": 47,
          "time": 121.37928000000015,
          "velocity": 0.8267716535433071,
          "duration": 0.2909482031249979
        },
        {
          "name": "B2",
          "midi": 47,
          "time": 121.90011320312516,
          "velocity": 0.84251968503937,
          "duration": 0.31249992187498776
        },
        {
          "name": "E3",
          "midi": 52,
          "time": 121.90011320312516,
          "velocity": 0.905511811023622,
          "duration": 0.26939648437499386
        },
        {
          "name": "E2",
          "midi": 40,
          "time": 121.90011320312516,
          "velocity": 0.889763779527559,
          "duration": 0.32686773437498573
        },
        {
          "name": "E3",
          "midi": 52,
          "time": 124.12353218750015,
          "velocity": 0.937007874015748,
          "duration": 0.34482750000000806
        },
        {
          "name": "B2",
          "midi": 47,
          "time": 124.13071609375015,
          "velocity": 0.7480314960629921,
          "duration": 0.323275781250004
        },
        {
          "name": "E2",
          "midi": 40,
          "time": 124.13071609375015,
          "velocity": 0.8582677165354331,
          "duration": 0.323275781250004
        },
        {
          "name": "E3",
          "midi": 52,
          "time": 124.65873320312515,
          "velocity": 0.952755905511811,
          "duration": 0.26939648437500807
        },
        {
          "name": "B2",
          "midi": 47,
          "time": 124.66591710937516,
          "velocity": 0.8740157480314961,
          "duration": 0.33405164062500603
        },
        {
          "name": "E2",
          "midi": 40,
          "time": 124.66591710937516,
          "velocity": 0.8740157480314961,
          "duration": 0.32686773437499994
        },
        {
          "name": "E3",
          "midi": 52,
          "time": 126.88933609375016,
          "velocity": 0.937007874015748,
          "duration": 0.35201140624999994
        },
        {
          "name": "B2",
          "midi": 47,
          "time": 126.88933609375016,
          "velocity": 0.84251968503937,
          "duration": 0.33764359375000197
        },
        {
          "name": "E2",
          "midi": 40,
          "time": 126.88933609375016,
          "velocity": 0.8740157480314961,
          "duration": 0.32686773437499994
        },
        {
          "name": "E3",
          "midi": 52,
          "time": 127.41735320312516,
          "velocity": 0.937007874015748,
          "duration": 0.26580453125001213
        },
        {
          "name": "B2",
          "midi": 47,
          "time": 127.42453710937517,
          "velocity": 0.8110236220472441,
          "duration": 0.2801723437500101
        },
        {
          "name": "E2",
          "midi": 40,
          "time": 127.42453710937517,
          "velocity": 0.8582677165354331,
          "duration": 0.26939648437500807
        },
        {
          "name": "E3",
          "midi": 52,
          "time": 129.65873195312517,
          "velocity": 0.9212598425196851,
          "duration": 0.3412355468749979
        },
        {
          "name": "B2",
          "midi": 47,
          "time": 129.65873195312517,
          "velocity": 0.8267716535433071,
          "duration": 0.3412355468749979
        },
        {
          "name": "E2",
          "midi": 40,
          "time": 129.65873195312517,
          "velocity": 0.8740157480314961,
          "duration": 0.33405164062500603
        },
        {
          "name": "E3",
          "midi": 52,
          "time": 130.18315710937517,
          "velocity": 0.937007874015748,
          "duration": 0.27658039062501416
        },
        {
          "name": "B2",
          "midi": 47,
          "time": 130.18315710937517,
          "velocity": 0.8582677165354331,
          "duration": 0.3053160156250385
        },
        {
          "name": "E2",
          "midi": 40,
          "time": 130.18315710937517,
          "velocity": 0.889763779527559,
          "duration": 0.29094820312502634
        },
        {
          "name": "E3",
          "midi": 52,
          "time": 132.4065760937502,
          "velocity": 0.937007874015748,
          "duration": 0.35560335937498166
        },
        {
          "name": "E2",
          "midi": 40,
          "time": 132.4137600000002,
          "velocity": 0.8582677165354331,
          "duration": 0.3304596874999959
        },
        {
          "name": "B2",
          "midi": 47,
          "time": 132.4137600000002,
          "velocity": 0.8110236220472441,
          "duration": 0.31968382812499385
        },
        {
          "name": "E3",
          "midi": 52,
          "time": 132.9345932031252,
          "velocity": 0.952755905511811,
          "duration": 0.34482749999997964
        },
        {
          "name": "B2",
          "midi": 47,
          "time": 132.94177710937518,
          "velocity": 0.8740157480314961,
          "duration": 0.35560335937498166
        },
        {
          "name": "E2",
          "midi": 40,
          "time": 132.94177710937518,
          "velocity": 0.905511811023622,
          "duration": 0.36278726562497354
        },
        {
          "name": "B2",
          "midi": 47,
          "time": 134.14867335937518,
          "velocity": 0.937007874015748,
          "duration": 0.24784476562501823
        },
        {
          "name": "D3",
          "midi": 50,
          "time": 134.3498227343752,
          "velocity": 0.8582677165354331,
          "duration": 0.31968382812499385
        },
        {
          "name": "B2",
          "midi": 47,
          "time": 134.6695065625002,
          "velocity": 0.8267716535433071,
          "duration": 0.20114937499999996
        },
        {
          "name": "D3",
          "midi": 50,
          "time": 134.8598800781252,
          "velocity": 0.905511811023622,
          "duration": 0.27658039062501416
        },
        {
          "name": "E3",
          "midi": 52,
          "time": 135.1759719531252,
          "velocity": 0.7322834645669292,
          "duration": 0.211925234375002
        },
        {
          "name": "B2",
          "midi": 47,
          "time": 135.1831558593752,
          "velocity": 0.7322834645669292,
          "duration": 0.2047413281250101
        },
        {
          "name": "E2",
          "midi": 40,
          "time": 135.1831558593752,
          "velocity": 0.7244094488188977,
          "duration": 0.16522984375001215
        },
        {
          "name": "E2",
          "midi": 40,
          "time": 135.34838570312522,
          "velocity": 0.3700787401574803,
          "duration": 0.11494250000001216
        },
        {
          "name": "E2",
          "midi": 40,
          "time": 135.52798335937524,
          "velocity": 0.4330708661417323,
          "duration": 0.1257183593750142
        },
        {
          "name": "E2",
          "midi": 40,
          "time": 135.70039710937525,
          "velocity": 0.5039370078740157,
          "duration": 0.1436781250000081
        },
        {
          "name": "E3",
          "midi": 52,
          "time": 135.85485109375026,
          "velocity": 0.8110236220472441,
          "duration": 0.22988500000002432
        },
        {
          "name": "B2",
          "midi": 47,
          "time": 135.86203500000025,
          "velocity": 0.7086614173228346,
          "duration": 0.20114937500002839
        },
        {
          "name": "E2",
          "midi": 40,
          "time": 135.86562695312526,
          "velocity": 0.7322834645669292,
          "duration": 0.17241375000000403
        },
        {
          "name": "E2",
          "midi": 40,
          "time": 136.03804070312526,
          "velocity": 0.4251968503937008,
          "duration": 0.10416664062501013
        },
        {
          "name": "E2",
          "midi": 40,
          "time": 136.21045445312527,
          "velocity": 0.5511811023622047,
          "duration": 0.1257183593750142
        },
        {
          "name": "E2",
          "midi": 40,
          "time": 136.38286820312527,
          "velocity": 0.7086614173228346,
          "duration": 0.15086203124999997
        },
        {
          "name": "E3",
          "midi": 52,
          "time": 136.55528195312527,
          "velocity": 0.8976377952755905,
          "duration": 0.25862062499999183
        },
        {
          "name": "B2",
          "midi": 47,
          "time": 136.56246585937527,
          "velocity": 0.8582677165354331,
          "duration": 0.25143671874999995
        },
        {
          "name": "E2",
          "midi": 40,
          "time": 136.56605781250028,
          "velocity": 0.8582677165354331,
          "duration": 0.20114937499999996
        },
        {
          "name": "B2",
          "midi": 47,
          "time": 136.9072933593753,
          "velocity": 0.8740157480314961,
          "duration": 0.19396546875000809
        },
        {
          "name": "D3",
          "midi": 50,
          "time": 137.0689312500003,
          "velocity": 0.7952755905511811,
          "duration": 0.33764359374998776
        },
        {
          "name": "B2",
          "midi": 47,
          "time": 137.3886150781253,
          "velocity": 0.6377952755905512,
          "duration": 0.1975574218749898
        },
        {
          "name": "D3",
          "midi": 50,
          "time": 137.5682127343753,
          "velocity": 0.9212598425196851,
          "duration": 0.33764359374998776
        },
        {
          "name": "E3",
          "midi": 52,
          "time": 137.93459195312528,
          "velocity": 0.7322834645669292,
          "duration": 0.211925234375002
        },
        {
          "name": "B2",
          "midi": 47,
          "time": 137.94177585937527,
          "velocity": 0.7322834645669292,
          "duration": 0.2047413281250101
        },
        {
          "name": "E2",
          "midi": 40,
          "time": 137.94177585937527,
          "velocity": 0.7244094488188977,
          "duration": 0.16522984375001215
        },
        {
          "name": "E2",
          "midi": 40,
          "time": 138.10700570312528,
          "velocity": 0.3700787401574803,
          "duration": 0.11494250000001216
        },
        {
          "name": "E2",
          "midi": 40,
          "time": 138.2866033593753,
          "velocity": 0.4330708661417323,
          "duration": 0.1257183593750142
        },
        {
          "name": "E2",
          "midi": 40,
          "time": 138.4590171093753,
          "velocity": 0.5039370078740157,
          "duration": 0.1436781250000081
        },
        {
          "name": "E3",
          "midi": 52,
          "time": 138.61347109375032,
          "velocity": 0.8110236220472441,
          "duration": 0.22988500000002432
        },
        {
          "name": "B2",
          "midi": 47,
          "time": 138.6206550000003,
          "velocity": 0.7086614173228346,
          "duration": 0.20114937500002839
        },
        {
          "name": "E2",
          "midi": 40,
          "time": 138.62424695312532,
          "velocity": 0.7322834645669292,
          "duration": 0.17241375000000403
        },
        {
          "name": "E2",
          "midi": 40,
          "time": 138.79666070312533,
          "velocity": 0.4251968503937008,
          "duration": 0.10416664062501013
        },
        {
          "name": "E2",
          "midi": 40,
          "time": 138.96907445312533,
          "velocity": 0.5511811023622047,
          "duration": 0.1257183593750142
        },
        {
          "name": "E2",
          "midi": 40,
          "time": 139.14148820312533,
          "velocity": 0.7086614173228346,
          "duration": 0.15086203124999997
        },
        {
          "name": "E3",
          "midi": 52,
          "time": 139.31390195312534,
          "velocity": 0.8976377952755905,
          "duration": 0.25862062499999183
        },
        {
          "name": "B2",
          "midi": 47,
          "time": 139.32108585937533,
          "velocity": 0.8582677165354331,
          "duration": 0.25143671874999995
        },
        {
          "name": "E2",
          "midi": 40,
          "time": 139.32467781250034,
          "velocity": 0.8582677165354331,
          "duration": 0.20114937499999996
        },
        {
          "name": "B2",
          "midi": 47,
          "time": 139.66591335937537,
          "velocity": 0.8740157480314961,
          "duration": 0.19396546875000809
        },
        {
          "name": "D3",
          "midi": 50,
          "time": 139.82755125000037,
          "velocity": 0.7952755905511811,
          "duration": 0.33764359374998776
        },
        {
          "name": "B2",
          "midi": 47,
          "time": 140.14723507812536,
          "velocity": 0.6377952755905512,
          "duration": 0.1975574218749898
        },
        {
          "name": "D3",
          "midi": 50,
          "time": 140.32683273437536,
          "velocity": 0.9212598425196851,
          "duration": 0.33764359374998776
        },
        {
          "name": "E3",
          "midi": 52,
          "time": 140.69321195312534,
          "velocity": 0.7322834645669292,
          "duration": 0.211925234375002
        },
        {
          "name": "B2",
          "midi": 47,
          "time": 140.70039585937533,
          "velocity": 0.7322834645669292,
          "duration": 0.2047413281250101
        },
        {
          "name": "E2",
          "midi": 40,
          "time": 140.70039585937533,
          "velocity": 0.7244094488188977,
          "duration": 0.16522984375001215
        },
        {
          "name": "E2",
          "midi": 40,
          "time": 140.86562570312535,
          "velocity": 0.3700787401574803,
          "duration": 0.11494250000001216
        },
        {
          "name": "E2",
          "midi": 40,
          "time": 141.04522335937537,
          "velocity": 0.4330708661417323,
          "duration": 0.1257183593750142
        },
        {
          "name": "E2",
          "midi": 40,
          "time": 141.21763710937537,
          "velocity": 0.5039370078740157,
          "duration": 0.1436781250000081
        },
        {
          "name": "E3",
          "midi": 52,
          "time": 141.37209109375038,
          "velocity": 0.8110236220472441,
          "duration": 0.22988500000002432
        },
        {
          "name": "B2",
          "midi": 47,
          "time": 141.37927500000038,
          "velocity": 0.7086614173228346,
          "duration": 0.20114937500002839
        },
        {
          "name": "E2",
          "midi": 40,
          "time": 141.3828669531254,
          "velocity": 0.7322834645669292,
          "duration": 0.17241375000000403
        },
        {
          "name": "E2",
          "midi": 40,
          "time": 141.5552807031254,
          "velocity": 0.4251968503937008,
          "duration": 0.10416664062501013
        },
        {
          "name": "E2",
          "midi": 40,
          "time": 141.7276944531254,
          "velocity": 0.5511811023622047,
          "duration": 0.1257183593750142
        },
        {
          "name": "E2",
          "midi": 40,
          "time": 141.9001082031254,
          "velocity": 0.7086614173228346,
          "duration": 0.15086203124999997
        },
        {
          "name": "E3",
          "midi": 52,
          "time": 142.0725219531254,
          "velocity": 0.8976377952755905,
          "duration": 0.25862062499999183
        },
        {
          "name": "B2",
          "midi": 47,
          "time": 142.0797058593754,
          "velocity": 0.8582677165354331,
          "duration": 0.25143671874999995
        },
        {
          "name": "E2",
          "midi": 40,
          "time": 142.0832978125004,
          "velocity": 0.8582677165354331,
          "duration": 0.20114937499999996
        },
        {
          "name": "B2",
          "midi": 47,
          "time": 142.42453335937543,
          "velocity": 0.8740157480314961,
          "duration": 0.19396546875000809
        },
        {
          "name": "D3",
          "midi": 50,
          "time": 142.58617125000043,
          "velocity": 0.7952755905511811,
          "duration": 0.33764359374998776
        },
        {
          "name": "B2",
          "midi": 47,
          "time": 142.90585507812543,
          "velocity": 0.6377952755905512,
          "duration": 0.1975574218749898
        },
        {
          "name": "D3",
          "midi": 50,
          "time": 143.08545273437542,
          "velocity": 0.9212598425196851,
          "duration": 0.33764359374998776
        },
        {
          "name": "E3",
          "midi": 52,
          "time": 143.4518319531254,
          "velocity": 0.7322834645669292,
          "duration": 0.211925234375002
        },
        {
          "name": "B2",
          "midi": 47,
          "time": 143.4590158593754,
          "velocity": 0.7322834645669292,
          "duration": 0.2047413281250101
        },
        {
          "name": "E2",
          "midi": 40,
          "time": 143.4590158593754,
          "velocity": 0.7244094488188977,
          "duration": 0.16522984375001215
        },
        {
          "name": "E2",
          "midi": 40,
          "time": 143.6242457031254,
          "velocity": 0.3700787401574803,
          "duration": 0.11494250000001216
        },
        {
          "name": "E2",
          "midi": 40,
          "time": 143.80384335937543,
          "velocity": 0.4330708661417323,
          "duration": 0.1257183593750142
        },
        {
          "name": "E2",
          "midi": 40,
          "time": 143.97625710937544,
          "velocity": 0.5039370078740157,
          "duration": 0.1436781250000081
        },
        {
          "name": "E3",
          "midi": 52,
          "time": 144.13071109375045,
          "velocity": 0.8110236220472441,
          "duration": 0.22988500000002432
        },
        {
          "name": "B2",
          "midi": 47,
          "time": 144.13789500000044,
          "velocity": 0.7086614173228346,
          "duration": 0.20114937500002839
        },
        {
          "name": "E2",
          "midi": 40,
          "time": 144.14148695312545,
          "velocity": 0.7322834645669292,
          "duration": 0.17241375000000403
        },
        {
          "name": "E2",
          "midi": 40,
          "time": 144.31390070312546,
          "velocity": 0.4251968503937008,
          "duration": 0.10416664062501013
        },
        {
          "name": "E2",
          "midi": 40,
          "time": 144.48631445312546,
          "velocity": 0.5511811023622047,
          "duration": 0.1257183593750142
        },
        {
          "name": "E2",
          "midi": 40,
          "time": 144.65872820312546,
          "velocity": 0.7086614173228346,
          "duration": 0.15086203124999997
        },
        {
          "name": "E3",
          "midi": 52,
          "time": 144.83114195312547,
          "velocity": 0.8976377952755905,
          "duration": 0.25862062499999183
        },
        {
          "name": "B2",
          "midi": 47,
          "time": 144.83832585937546,
          "velocity": 0.8582677165354331,
          "duration": 0.25143671874999995
        },
        {
          "name": "E2",
          "midi": 40,
          "time": 144.84191781250047,
          "velocity": 0.8582677165354331,
          "duration": 0.20114937499999996
        },
        {
          "name": "B2",
          "midi": 47,
          "time": 145.1831533593755,
          "velocity": 0.8740157480314961,
          "duration": 0.19396546875000809
        },
        {
          "name": "D3",
          "midi": 50,
          "time": 145.3447912500005,
          "velocity": 0.7952755905511811,
          "duration": 0.33764359374998776
        },
        {
          "name": "B2",
          "midi": 47,
          "time": 145.6644750781255,
          "velocity": 0.6377952755905512,
          "duration": 0.1975574218749898
        },
        {
          "name": "D3",
          "midi": 50,
          "time": 145.8440727343755,
          "velocity": 0.9212598425196851,
          "duration": 0.33764359374998776
        },
        {
          "name": "E3",
          "midi": 52,
          "time": 146.21045195312547,
          "velocity": 0.7322834645669292,
          "duration": 0.211925234375002
        },
        {
          "name": "B2",
          "midi": 47,
          "time": 146.21763585937546,
          "velocity": 0.7322834645669292,
          "duration": 0.2047413281250101
        },
        {
          "name": "E2",
          "midi": 40,
          "time": 146.21763585937546,
          "velocity": 0.7244094488188977,
          "duration": 0.16522984375001215
        },
        {
          "name": "E2",
          "midi": 40,
          "time": 146.38286570312547,
          "velocity": 0.3700787401574803,
          "duration": 0.11494250000001216
        },
        {
          "name": "E2",
          "midi": 40,
          "time": 146.5624633593755,
          "velocity": 0.4330708661417323,
          "duration": 0.1257183593750142
        },
        {
          "name": "E2",
          "midi": 40,
          "time": 146.7348771093755,
          "velocity": 0.5039370078740157,
          "duration": 0.1436781250000081
        },
        {
          "name": "E3",
          "midi": 52,
          "time": 146.8893310937505,
          "velocity": 0.8110236220472441,
          "duration": 0.22988500000002432
        },
        {
          "name": "B2",
          "midi": 47,
          "time": 146.8965150000005,
          "velocity": 0.7086614173228346,
          "duration": 0.20114937500002839
        },
        {
          "name": "E2",
          "midi": 40,
          "time": 146.90010695312552,
          "velocity": 0.7322834645669292,
          "duration": 0.17241375000000403
        },
        {
          "name": "E2",
          "midi": 40,
          "time": 147.07252070312552,
          "velocity": 0.4251968503937008,
          "duration": 0.10416664062501013
        },
        {
          "name": "E2",
          "midi": 40,
          "time": 147.24493445312552,
          "velocity": 0.5511811023622047,
          "duration": 0.1257183593750142
        },
        {
          "name": "E2",
          "midi": 40,
          "time": 147.41734820312553,
          "velocity": 0.7086614173228346,
          "duration": 0.15086203124999997
        },
        {
          "name": "E3",
          "midi": 52,
          "time": 147.58976195312553,
          "velocity": 0.8976377952755905,
          "duration": 0.25862062499999183
        },
        {
          "name": "B2",
          "midi": 47,
          "time": 147.59694585937552,
          "velocity": 0.8582677165354331,
          "duration": 0.25143671874999995
        },
        {
          "name": "E2",
          "midi": 40,
          "time": 147.60053781250053,
          "velocity": 0.8582677165354331,
          "duration": 0.20114937499999996
        },
        {
          "name": "B2",
          "midi": 47,
          "time": 147.94177335937556,
          "velocity": 0.8740157480314961,
          "duration": 0.19396546875000809
        },
        {
          "name": "D3",
          "midi": 50,
          "time": 148.10341125000056,
          "velocity": 0.7952755905511811,
          "duration": 0.33764359374998776
        },
        {
          "name": "B2",
          "midi": 47,
          "time": 148.42309507812556,
          "velocity": 0.6377952755905512,
          "duration": 0.1975574218749898
        },
        {
          "name": "D3",
          "midi": 50,
          "time": 148.60269273437555,
          "velocity": 0.9212598425196851,
          "duration": 0.33764359374998776
        },
        {
          "name": "E3",
          "midi": 52,
          "time": 148.96907195312554,
          "velocity": 0.7322834645669292,
          "duration": 0.211925234375002
        },
        {
          "name": "B2",
          "midi": 47,
          "time": 148.97625585937553,
          "velocity": 0.7322834645669292,
          "duration": 0.2047413281250101
        },
        {
          "name": "E2",
          "midi": 40,
          "time": 148.97625585937553,
          "velocity": 0.7244094488188977,
          "duration": 0.16522984375001215
        },
        {
          "name": "E2",
          "midi": 40,
          "time": 149.14148570312554,
          "velocity": 0.3700787401574803,
          "duration": 0.11494250000001216
        },
        {
          "name": "E2",
          "midi": 40,
          "time": 149.32108335937556,
          "velocity": 0.4330708661417323,
          "duration": 0.1257183593750142
        },
        {
          "name": "E2",
          "midi": 40,
          "time": 149.49349710937557,
          "velocity": 0.5039370078740157,
          "duration": 0.1436781250000081
        },
        {
          "name": "E3",
          "midi": 52,
          "time": 149.64795109375058,
          "velocity": 0.8110236220472441,
          "duration": 0.22988500000002432
        },
        {
          "name": "B2",
          "midi": 47,
          "time": 149.65513500000057,
          "velocity": 0.7086614173228346,
          "duration": 0.20114937500002839
        },
        {
          "name": "E2",
          "midi": 40,
          "time": 149.65872695312558,
          "velocity": 0.7322834645669292,
          "duration": 0.17241375000000403
        },
        {
          "name": "E2",
          "midi": 40,
          "time": 149.83114070312558,
          "velocity": 0.4251968503937008,
          "duration": 0.10416664062501013
        },
        {
          "name": "E2",
          "midi": 40,
          "time": 150.0035544531256,
          "velocity": 0.5511811023622047,
          "duration": 0.1257183593750142
        },
        {
          "name": "E2",
          "midi": 40,
          "time": 150.1759682031256,
          "velocity": 0.7086614173228346,
          "duration": 0.15086203124999997
        },
        {
          "name": "E3",
          "midi": 52,
          "time": 150.3483819531256,
          "velocity": 0.8976377952755905,
          "duration": 0.25862062499999183
        },
        {
          "name": "B2",
          "midi": 47,
          "time": 150.3555658593756,
          "velocity": 0.8582677165354331,
          "duration": 0.25143671874999995
        },
        {
          "name": "E2",
          "midi": 40,
          "time": 150.3591578125006,
          "velocity": 0.8582677165354331,
          "duration": 0.20114937499999996
        },
        {
          "name": "B2",
          "midi": 47,
          "time": 150.70039335937562,
          "velocity": 0.8740157480314961,
          "duration": 0.19396546875000809
        },
        {
          "name": "D3",
          "midi": 50,
          "time": 150.86203125000063,
          "velocity": 0.7952755905511811,
          "duration": 0.33764359374998776
        },
        {
          "name": "B2",
          "midi": 47,
          "time": 151.18171507812562,
          "velocity": 0.6377952755905512,
          "duration": 0.1975574218749898
        },
        {
          "name": "D3",
          "midi": 50,
          "time": 151.36131273437562,
          "velocity": 0.9212598425196851,
          "duration": 0.33764359374998776
        },
        {
          "name": "E3",
          "midi": 52,
          "time": 151.7276919531256,
          "velocity": 0.7322834645669292,
          "duration": 0.211925234375002
        },
        {
          "name": "B2",
          "midi": 47,
          "time": 151.7348758593756,
          "velocity": 0.7322834645669292,
          "duration": 0.2047413281250101
        },
        {
          "name": "E2",
          "midi": 40,
          "time": 151.7348758593756,
          "velocity": 0.7244094488188977,
          "duration": 0.16522984375001215
        },
        {
          "name": "E2",
          "midi": 40,
          "time": 151.9001057031256,
          "velocity": 0.3700787401574803,
          "duration": 0.11494250000001216
        },
        {
          "name": "E2",
          "midi": 40,
          "time": 152.07970335937563,
          "velocity": 0.4330708661417323,
          "duration": 0.1257183593750142
        },
        {
          "name": "E2",
          "midi": 40,
          "time": 152.25211710937563,
          "velocity": 0.5039370078740157,
          "duration": 0.1436781250000081
        },
        {
          "name": "E3",
          "midi": 52,
          "time": 152.40657109375064,
          "velocity": 0.8110236220472441,
          "duration": 0.22988500000002432
        },
        {
          "name": "B2",
          "midi": 47,
          "time": 152.41375500000063,
          "velocity": 0.7086614173228346,
          "duration": 0.20114937500002839
        },
        {
          "name": "E2",
          "midi": 40,
          "time": 152.41734695312564,
          "velocity": 0.7322834645669292,
          "duration": 0.17241375000000403
        },
        {
          "name": "E2",
          "midi": 40,
          "time": 152.58976070312565,
          "velocity": 0.4251968503937008,
          "duration": 0.10416664062501013
        },
        {
          "name": "E2",
          "midi": 40,
          "time": 152.76217445312565,
          "velocity": 0.5511811023622047,
          "duration": 0.1257183593750142
        },
        {
          "name": "E2",
          "midi": 40,
          "time": 152.93458820312566,
          "velocity": 0.7086614173228346,
          "duration": 0.15086203124999997
        },
        {
          "name": "E3",
          "midi": 52,
          "time": 153.10700195312566,
          "velocity": 0.8976377952755905,
          "duration": 0.25862062499999183
        },
        {
          "name": "B2",
          "midi": 47,
          "time": 153.11418585937565,
          "velocity": 0.8582677165354331,
          "duration": 0.25143671874999995
        },
        {
          "name": "E2",
          "midi": 40,
          "time": 153.11777781250066,
          "velocity": 0.8582677165354331,
          "duration": 0.20114937499999996
        },
        {
          "name": "B2",
          "midi": 47,
          "time": 153.4590133593757,
          "velocity": 0.8740157480314961,
          "duration": 0.19396546875000809
        },
        {
          "name": "D3",
          "midi": 50,
          "time": 153.6206512500007,
          "velocity": 0.7952755905511811,
          "duration": 0.33764359374998776
        },
        {
          "name": "B2",
          "midi": 47,
          "time": 153.94033507812568,
          "velocity": 0.6377952755905512,
          "duration": 0.1975574218749898
        },
        {
          "name": "D3",
          "midi": 50,
          "time": 154.11993273437568,
          "velocity": 0.9212598425196851,
          "duration": 0.33764359374998776
        },
        {
          "name": "E3",
          "midi": 52,
          "time": 154.48631195312566,
          "velocity": 0.7322834645669292,
          "duration": 0.211925234375002
        },
        {
          "name": "B2",
          "midi": 47,
          "time": 154.49349585937566,
          "velocity": 0.7322834645669292,
          "duration": 0.2047413281250101
        },
        {
          "name": "E2",
          "midi": 40,
          "time": 154.49349585937566,
          "velocity": 0.7244094488188977,
          "duration": 0.16522984375001215
        },
        {
          "name": "E2",
          "midi": 40,
          "time": 154.65872570312567,
          "velocity": 0.3700787401574803,
          "duration": 0.11494250000001216
        },
        {
          "name": "E2",
          "midi": 40,
          "time": 154.8383233593757,
          "velocity": 0.4330708661417323,
          "duration": 0.1257183593750142
        },
        {
          "name": "E2",
          "midi": 40,
          "time": 155.0107371093757,
          "velocity": 0.5039370078740157,
          "duration": 0.1436781250000081
        },
        {
          "name": "E3",
          "midi": 52,
          "time": 155.1651910937507,
          "velocity": 0.8110236220472441,
          "duration": 0.22988500000002432
        },
        {
          "name": "B2",
          "midi": 47,
          "time": 155.1723750000007,
          "velocity": 0.7086614173228346,
          "duration": 0.20114937500002839
        },
        {
          "name": "E2",
          "midi": 40,
          "time": 155.1759669531257,
          "velocity": 0.7322834645669292,
          "duration": 0.17241375000000403
        },
        {
          "name": "E2",
          "midi": 40,
          "time": 155.3483807031257,
          "velocity": 0.4251968503937008,
          "duration": 0.10416664062501013
        },
        {
          "name": "E2",
          "midi": 40,
          "time": 155.52079445312572,
          "velocity": 0.5511811023622047,
          "duration": 0.1257183593750142
        },
        {
          "name": "E2",
          "midi": 40,
          "time": 155.69320820312572,
          "velocity": 0.7086614173228346,
          "duration": 0.15086203124999997
        },
        {
          "name": "E3",
          "midi": 52,
          "time": 155.86562195312572,
          "velocity": 0.8976377952755905,
          "duration": 0.25862062499999183
        },
        {
          "name": "B2",
          "midi": 47,
          "time": 155.87280585937572,
          "velocity": 0.8582677165354331,
          "duration": 0.25143671874999995
        },
        {
          "name": "E2",
          "midi": 40,
          "time": 155.87639781250073,
          "velocity": 0.8582677165354331,
          "duration": 0.20114937499999996
        },
        {
          "name": "B2",
          "midi": 47,
          "time": 156.21763335937575,
          "velocity": 0.8740157480314961,
          "duration": 0.19396546875000809
        },
        {
          "name": "D3",
          "midi": 50,
          "time": 156.37927125000076,
          "velocity": 0.7952755905511811,
          "duration": 0.33764359374998776
        },
        {
          "name": "B2",
          "midi": 47,
          "time": 156.69895507812575,
          "velocity": 0.6377952755905512,
          "duration": 0.1975574218749898
        },
        {
          "name": "D3",
          "midi": 50,
          "time": 156.87855273437575,
          "velocity": 0.9212598425196851,
          "duration": 0.33764359374998776
        },
        {
          "name": "E3",
          "midi": 52,
          "time": 157.24493195312573,
          "velocity": 0.7322834645669292,
          "duration": 0.211925234375002
        },
        {
          "name": "B2",
          "midi": 47,
          "time": 157.25211585937572,
          "velocity": 0.7322834645669292,
          "duration": 0.2047413281250101
        },
        {
          "name": "E2",
          "midi": 40,
          "time": 157.25211585937572,
          "velocity": 0.7244094488188977,
          "duration": 0.16522984375001215
        },
        {
          "name": "E2",
          "midi": 40,
          "time": 157.41734570312573,
          "velocity": 0.3700787401574803,
          "duration": 0.11494250000001216
        },
        {
          "name": "E2",
          "midi": 40,
          "time": 157.59694335937576,
          "velocity": 0.4330708661417323,
          "duration": 0.1257183593750142
        },
        {
          "name": "E2",
          "midi": 40,
          "time": 157.76935710937576,
          "velocity": 0.5039370078740157,
          "duration": 0.1436781250000081
        },
        {
          "name": "E3",
          "midi": 52,
          "time": 157.92381109375077,
          "velocity": 0.8110236220472441,
          "duration": 0.22988500000002432
        },
        {
          "name": "B2",
          "midi": 47,
          "time": 157.93099500000076,
          "velocity": 0.7086614173228346,
          "duration": 0.20114937500002839
        },
        {
          "name": "E2",
          "midi": 40,
          "time": 157.93458695312577,
          "velocity": 0.7322834645669292,
          "duration": 0.17241375000000403
        },
        {
          "name": "E2",
          "midi": 40,
          "time": 158.10700070312578,
          "velocity": 0.4251968503937008,
          "duration": 0.10416664062501013
        },
        {
          "name": "E2",
          "midi": 40,
          "time": 158.27941445312578,
          "velocity": 0.5511811023622047,
          "duration": 0.1257183593750142
        },
        {
          "name": "E2",
          "midi": 40,
          "time": 158.45182820312579,
          "velocity": 0.7086614173228346,
          "duration": 0.15086203124999997
        },
        {
          "name": "E3",
          "midi": 52,
          "time": 158.6242419531258,
          "velocity": 0.8976377952755905,
          "duration": 0.25862062499999183
        },
        {
          "name": "B2",
          "midi": 47,
          "time": 158.63142585937578,
          "velocity": 0.8582677165354331,
          "duration": 0.25143671874999995
        },
        {
          "name": "E2",
          "midi": 40,
          "time": 158.6350178125008,
          "velocity": 0.8582677165354331,
          "duration": 0.20114937499999996
        },
        {
          "name": "B2",
          "midi": 47,
          "time": 158.97625335937582,
          "velocity": 0.8740157480314961,
          "duration": 0.19396546875000809
        },
        {
          "name": "D3",
          "midi": 50,
          "time": 159.13789125000082,
          "velocity": 0.7952755905511811,
          "duration": 0.33764359374998776
        },
        {
          "name": "B2",
          "midi": 47,
          "time": 159.4575750781258,
          "velocity": 0.6377952755905512,
          "duration": 0.1975574218749898
        },
        {
          "name": "D3",
          "midi": 50,
          "time": 159.6371727343758,
          "velocity": 0.9212598425196851,
          "duration": 0.33764359374998776
        },
        {
          "name": "E3",
          "midi": 52,
          "time": 160.0035519531258,
          "velocity": 0.7322834645669292,
          "duration": 0.211925234375002
        },
        {
          "name": "B2",
          "midi": 47,
          "time": 160.01073585937579,
          "velocity": 0.7322834645669292,
          "duration": 0.2047413281250101
        },
        {
          "name": "E2",
          "midi": 40,
          "time": 160.01073585937579,
          "velocity": 0.7244094488188977,
          "duration": 0.16522984375001215
        },
        {
          "name": "E2",
          "midi": 40,
          "time": 160.1759657031258,
          "velocity": 0.3700787401574803,
          "duration": 0.11494250000001216
        },
        {
          "name": "E2",
          "midi": 40,
          "time": 160.35556335937582,
          "velocity": 0.4330708661417323,
          "duration": 0.1257183593750142
        },
        {
          "name": "E2",
          "midi": 40,
          "time": 160.52797710937583,
          "velocity": 0.5039370078740157,
          "duration": 0.1436781250000081
        },
        {
          "name": "E3",
          "midi": 52,
          "time": 160.68243109375084,
          "velocity": 0.8110236220472441,
          "duration": 0.22988500000002432
        },
        {
          "name": "B2",
          "midi": 47,
          "time": 160.68961500000083,
          "velocity": 0.7086614173228346,
          "duration": 0.20114937500002839
        },
        {
          "name": "E2",
          "midi": 40,
          "time": 160.69320695312584,
          "velocity": 0.7322834645669292,
          "duration": 0.17241375000000403
        },
        {
          "name": "E2",
          "midi": 40,
          "time": 160.86562070312584,
          "velocity": 0.4251968503937008,
          "duration": 0.10416664062501013
        },
        {
          "name": "E2",
          "midi": 40,
          "time": 161.03803445312585,
          "velocity": 0.5511811023622047,
          "duration": 0.1257183593750142
        },
        {
          "name": "E2",
          "midi": 40,
          "time": 161.21044820312585,
          "velocity": 0.7086614173228346,
          "duration": 0.15086203124999997
        },
        {
          "name": "E3",
          "midi": 52,
          "time": 161.38286195312585,
          "velocity": 0.8976377952755905,
          "duration": 0.25862062499999183
        },
        {
          "name": "B2",
          "midi": 47,
          "time": 161.39004585937585,
          "velocity": 0.8582677165354331,
          "duration": 0.25143671874999995
        },
        {
          "name": "E2",
          "midi": 40,
          "time": 161.39363781250086,
          "velocity": 0.8582677165354331,
          "duration": 0.20114937499999996
        },
        {
          "name": "B2",
          "midi": 47,
          "time": 161.73487335937588,
          "velocity": 0.8740157480314961,
          "duration": 0.19396546875000809
        },
        {
          "name": "D3",
          "midi": 50,
          "time": 161.89651125000088,
          "velocity": 0.7952755905511811,
          "duration": 0.33764359374998776
        },
        {
          "name": "B2",
          "midi": 47,
          "time": 162.21619507812588,
          "velocity": 0.6377952755905512,
          "duration": 0.1975574218749898
        },
        {
          "name": "D3",
          "midi": 50,
          "time": 162.39579273437587,
          "velocity": 0.9212598425196851,
          "duration": 0.33764359374998776
        },
        {
          "name": "E3",
          "midi": 52,
          "time": 162.76217195312586,
          "velocity": 0.7322834645669292,
          "duration": 0.211925234375002
        },
        {
          "name": "B2",
          "midi": 47,
          "time": 162.76935585937585,
          "velocity": 0.7322834645669292,
          "duration": 0.2047413281250101
        },
        {
          "name": "E2",
          "midi": 40,
          "time": 162.76935585937585,
          "velocity": 0.7244094488188977,
          "duration": 0.16522984375001215
        },
        {
          "name": "E2",
          "midi": 40,
          "time": 162.93458570312586,
          "velocity": 0.3700787401574803,
          "duration": 0.11494250000001216
        },
        {
          "name": "E2",
          "midi": 40,
          "time": 163.1141833593759,
          "velocity": 0.4330708661417323,
          "duration": 0.1257183593750142
        },
        {
          "name": "E2",
          "midi": 40,
          "time": 163.2865971093759,
          "velocity": 0.5039370078740157,
          "duration": 0.1436781250000081
        },
        {
          "name": "E3",
          "midi": 52,
          "time": 163.4410510937509,
          "velocity": 0.8110236220472441,
          "duration": 0.22988500000002432
        },
        {
          "name": "B2",
          "midi": 47,
          "time": 163.4482350000009,
          "velocity": 0.7086614173228346,
          "duration": 0.20114937500002839
        },
        {
          "name": "E2",
          "midi": 40,
          "time": 163.4518269531259,
          "velocity": 0.7322834645669292,
          "duration": 0.17241375000000403
        },
        {
          "name": "E2",
          "midi": 40,
          "time": 163.6242407031259,
          "velocity": 0.4251968503937008,
          "duration": 0.10416664062501013
        },
        {
          "name": "E2",
          "midi": 40,
          "time": 163.7966544531259,
          "velocity": 0.5511811023622047,
          "duration": 0.1257183593750142
        },
        {
          "name": "E2",
          "midi": 40,
          "time": 163.96906820312591,
          "velocity": 0.7086614173228346,
          "duration": 0.15086203124999997
        },
        {
          "name": "E3",
          "midi": 52,
          "time": 164.14148195312592,
          "velocity": 0.8976377952755905,
          "duration": 0.1257183593750142
        },
        {
          "name": "B2",
          "midi": 47,
          "time": 164.1486658593759,
          "velocity": 0.8582677165354331,
          "duration": 0.13649421875001622
        },
        {
          "name": "E2",
          "midi": 40,
          "time": 164.15225781250092,
          "velocity": 0.8582677165354331,
          "duration": 0.11135054687500201
        },
        {
          "name": "A3",
          "midi": 57,
          "time": 164.28516007812593,
          "velocity": 0.7322834645669292,
          "duration": 0.14367812499997967
        },
        {
          "name": "D4",
          "midi": 62,
          "time": 164.29234398437592,
          "velocity": 0.6771653543307087,
          "duration": 0.11853445312499389
        },
        {
          "name": "D3",
          "midi": 50,
          "time": 164.30311984375092,
          "velocity": 0.6771653543307087,
          "duration": 0.11494249999998374
        },
        {
          "name": "D4",
          "midi": 62,
          "time": 164.4575738281259,
          "velocity": 0.7480314960629921,
          "duration": 0.08261492187500608
        },
        {
          "name": "A3",
          "midi": 57,
          "time": 164.4683496875009,
          "velocity": 0.6771653543307087,
          "duration": 0.05387929687498172
        },
        {
          "name": "D3",
          "midi": 50,
          "time": 164.4755335937509,
          "velocity": 0.4566929133858268,
          "duration": 0.05028734374999999
        },
        {
          "name": "D3",
          "midi": 50,
          "time": 164.6371714843759,
          "velocity": 0.7795275590551181,
          "duration": 0.3196838281250223
        },
        {
          "name": "D4",
          "midi": 62,
          "time": 164.6479473437509,
          "velocity": 0.8267716535433071,
          "duration": 0.27658039062501416
        },
        {
          "name": "A3",
          "midi": 57,
          "time": 164.6479473437509,
          "velocity": 0.7952755905511811,
          "duration": 0.26580453125001213
        },
        {
          "name": "D4",
          "midi": 62,
          "time": 164.99995875000093,
          "velocity": 0.889763779527559,
          "duration": 0.2693964843750223
        },
        {
          "name": "D3",
          "midi": 50,
          "time": 165.01073460937593,
          "velocity": 0.8740157480314961,
          "duration": 0.3053160156250385
        },
        {
          "name": "A3",
          "midi": 57,
          "time": 165.01432656250094,
          "velocity": 0.937007874015748,
          "duration": 0.2873562500000162
        },
        {
          "name": "D4",
          "midi": 62,
          "time": 165.34837820312598,
          "velocity": 0.7244094488188977,
          "duration": 0.09339078124997968
        },
        {
          "name": "D3",
          "midi": 50,
          "time": 165.36633796875097,
          "velocity": 0.5590551181102362,
          "duration": 0.07543101562498578
        },
        {
          "name": "A3",
          "midi": 57,
          "time": 165.37352187500096,
          "velocity": 0.6850393700787402,
          "duration": 0.05747124999999187
        },
        {
          "name": "E3",
          "midi": 52,
          "time": 165.52079195312595,
          "velocity": 0.7322834645669292,
          "duration": 0.211925234375002
        },
        {
          "name": "B2",
          "midi": 47,
          "time": 165.52797585937594,
          "velocity": 0.7322834645669292,
          "duration": 0.2047413281250101
        },
        {
          "name": "E2",
          "midi": 40,
          "time": 165.52797585937594,
          "velocity": 0.7244094488188977,
          "duration": 0.16522984375001215
        },
        {
          "name": "E2",
          "midi": 40,
          "time": 165.69320570312595,
          "velocity": 0.3700787401574803,
          "duration": 0.11494250000001216
        },
        {
          "name": "E2",
          "midi": 40,
          "time": 165.87280335937598,
          "velocity": 0.4330708661417323,
          "duration": 0.1257183593750142
        },
        {
          "name": "E2",
          "midi": 40,
          "time": 166.04521710937598,
          "velocity": 0.5039370078740157,
          "duration": 0.1436781250000081
        },
        {
          "name": "E3",
          "midi": 52,
          "time": 166.199671093751,
          "velocity": 0.8110236220472441,
          "duration": 0.22988500000002432
        },
        {
          "name": "B2",
          "midi": 47,
          "time": 166.20685500000099,
          "velocity": 0.7086614173228346,
          "duration": 0.20114937500002839
        },
        {
          "name": "E2",
          "midi": 40,
          "time": 166.210446953126,
          "velocity": 0.7322834645669292,
          "duration": 0.17241375000000403
        },
        {
          "name": "E2",
          "midi": 40,
          "time": 166.382860703126,
          "velocity": 0.4251968503937008,
          "duration": 0.10416664062501013
        },
        {
          "name": "E2",
          "midi": 40,
          "time": 166.555274453126,
          "velocity": 0.5511811023622047,
          "duration": 0.1257183593750142
        },
        {
          "name": "E2",
          "midi": 40,
          "time": 166.727688203126,
          "velocity": 0.7086614173228346,
          "duration": 0.15086203124999997
        },
        {
          "name": "E3",
          "midi": 52,
          "time": 166.900101953126,
          "velocity": 0.8976377952755905,
          "duration": 0.1257183593750142
        },
        {
          "name": "B2",
          "midi": 47,
          "time": 166.907285859376,
          "velocity": 0.8582677165354331,
          "duration": 0.13649421875001622
        },
        {
          "name": "E2",
          "midi": 40,
          "time": 166.910877812501,
          "velocity": 0.8582677165354331,
          "duration": 0.11135054687500201
        },
        {
          "name": "A3",
          "midi": 57,
          "time": 167.04378007812602,
          "velocity": 0.7322834645669292,
          "duration": 0.14367812499997967
        },
        {
          "name": "D4",
          "midi": 62,
          "time": 167.050963984376,
          "velocity": 0.6771653543307087,
          "duration": 0.11853445312499389
        },
        {
          "name": "D3",
          "midi": 50,
          "time": 167.061739843751,
          "velocity": 0.6771653543307087,
          "duration": 0.11494249999998374
        },
        {
          "name": "D4",
          "midi": 62,
          "time": 167.216193828126,
          "velocity": 0.7480314960629921,
          "duration": 0.08261492187500608
        },
        {
          "name": "A3",
          "midi": 57,
          "time": 167.226969687501,
          "velocity": 0.6771653543307087,
          "duration": 0.05387929687498172
        },
        {
          "name": "D3",
          "midi": 50,
          "time": 167.234153593751,
          "velocity": 0.4566929133858268,
          "duration": 0.05028734374999999
        },
        {
          "name": "D3",
          "midi": 50,
          "time": 167.395791484376,
          "velocity": 0.7795275590551181,
          "duration": 0.3196838281250223
        },
        {
          "name": "D4",
          "midi": 62,
          "time": 167.406567343751,
          "velocity": 0.8267716535433071,
          "duration": 0.27658039062501416
        },
        {
          "name": "A3",
          "midi": 57,
          "time": 167.406567343751,
          "velocity": 0.7952755905511811,
          "duration": 0.26580453125001213
        },
        {
          "name": "D4",
          "midi": 62,
          "time": 167.75857875000102,
          "velocity": 0.889763779527559,
          "duration": 0.2693964843750223
        },
        {
          "name": "D3",
          "midi": 50,
          "time": 167.76935460937602,
          "velocity": 0.8740157480314961,
          "duration": 0.3053160156250385
        },
        {
          "name": "A3",
          "midi": 57,
          "time": 167.77294656250103,
          "velocity": 0.937007874015748,
          "duration": 0.2873562500000162
        },
        {
          "name": "D4",
          "midi": 62,
          "time": 168.10699820312607,
          "velocity": 0.7244094488188977,
          "duration": 0.09339078124997968
        },
        {
          "name": "D3",
          "midi": 50,
          "time": 168.12495796875106,
          "velocity": 0.5590551181102362,
          "duration": 0.07543101562498578
        },
        {
          "name": "A3",
          "midi": 57,
          "time": 168.13214187500105,
          "velocity": 0.6850393700787402,
          "duration": 0.05747124999999187
        },
        {
          "name": "E3",
          "midi": 52,
          "time": 168.27941195312604,
          "velocity": 0.7322834645669292,
          "duration": 0.211925234375002
        },
        {
          "name": "B2",
          "midi": 47,
          "time": 168.28659585937604,
          "velocity": 0.7322834645669292,
          "duration": 0.2047413281250101
        },
        {
          "name": "E2",
          "midi": 40,
          "time": 168.28659585937604,
          "velocity": 0.7244094488188977,
          "duration": 0.16522984375001215
        },
        {
          "name": "E2",
          "midi": 40,
          "time": 168.45182570312605,
          "velocity": 0.3700787401574803,
          "duration": 0.11494250000001216
        },
        {
          "name": "E2",
          "midi": 40,
          "time": 168.63142335937607,
          "velocity": 0.4330708661417323,
          "duration": 0.1257183593750142
        },
        {
          "name": "E2",
          "midi": 40,
          "time": 168.80383710937608,
          "velocity": 0.5039370078740157,
          "duration": 0.1436781250000081
        },
        {
          "name": "E3",
          "midi": 52,
          "time": 168.9582910937511,
          "velocity": 0.8110236220472441,
          "duration": 0.22988500000002432
        },
        {
          "name": "B2",
          "midi": 47,
          "time": 168.96547500000108,
          "velocity": 0.7086614173228346,
          "duration": 0.20114937500002839
        },
        {
          "name": "E2",
          "midi": 40,
          "time": 168.9690669531261,
          "velocity": 0.7322834645669292,
          "duration": 0.17241375000000403
        },
        {
          "name": "E2",
          "midi": 40,
          "time": 169.1414807031261,
          "velocity": 0.4251968503937008,
          "duration": 0.10416664062501013
        },
        {
          "name": "E2",
          "midi": 40,
          "time": 169.3138944531261,
          "velocity": 0.5511811023622047,
          "duration": 0.1257183593750142
        },
        {
          "name": "E2",
          "midi": 40,
          "time": 169.4863082031261,
          "velocity": 0.7086614173228346,
          "duration": 0.15086203124999997
        },
        {
          "name": "E3",
          "midi": 52,
          "time": 169.6587219531261,
          "velocity": 0.8976377952755905,
          "duration": 0.1257183593750142
        },
        {
          "name": "B2",
          "midi": 47,
          "time": 169.6659058593761,
          "velocity": 0.8582677165354331,
          "duration": 0.13649421875001622
        },
        {
          "name": "E2",
          "midi": 40,
          "time": 169.6694978125011,
          "velocity": 0.8582677165354331,
          "duration": 0.11135054687500201
        },
        {
          "name": "A3",
          "midi": 57,
          "time": 169.8024000781261,
          "velocity": 0.7322834645669292,
          "duration": 0.14367812499997967
        },
        {
          "name": "D4",
          "midi": 62,
          "time": 169.8095839843761,
          "velocity": 0.6771653543307087,
          "duration": 0.11853445312499389
        },
        {
          "name": "D3",
          "midi": 50,
          "time": 169.8203598437511,
          "velocity": 0.6771653543307087,
          "duration": 0.11494249999998374
        },
        {
          "name": "D4",
          "midi": 62,
          "time": 169.9748138281261,
          "velocity": 0.7480314960629921,
          "duration": 0.08261492187500608
        },
        {
          "name": "A3",
          "midi": 57,
          "time": 169.9855896875011,
          "velocity": 0.6771653543307087,
          "duration": 0.05387929687498172
        },
        {
          "name": "D3",
          "midi": 50,
          "time": 169.99277359375108,
          "velocity": 0.4566929133858268,
          "duration": 0.05028734374999999
        },
        {
          "name": "D3",
          "midi": 50,
          "time": 170.15441148437608,
          "velocity": 0.7795275590551181,
          "duration": 0.3196838281250223
        },
        {
          "name": "D4",
          "midi": 62,
          "time": 170.1651873437511,
          "velocity": 0.8267716535433071,
          "duration": 0.27658039062501416
        },
        {
          "name": "A3",
          "midi": 57,
          "time": 170.1651873437511,
          "velocity": 0.7952755905511811,
          "duration": 0.26580453125001213
        },
        {
          "name": "D4",
          "midi": 62,
          "time": 170.5171987500011,
          "velocity": 0.889763779527559,
          "duration": 0.2693964843750223
        },
        {
          "name": "D3",
          "midi": 50,
          "time": 170.52797460937612,
          "velocity": 0.8740157480314961,
          "duration": 0.3053160156250385
        },
        {
          "name": "A3",
          "midi": 57,
          "time": 170.53156656250113,
          "velocity": 0.937007874015748,
          "duration": 0.2873562500000162
        },
        {
          "name": "D4",
          "midi": 62,
          "time": 170.86561820312616,
          "velocity": 0.7244094488188977,
          "duration": 0.09339078124997968
        },
        {
          "name": "D3",
          "midi": 50,
          "time": 170.88357796875115,
          "velocity": 0.5590551181102362,
          "duration": 0.07543101562498578
        },
        {
          "name": "A3",
          "midi": 57,
          "time": 170.89076187500115,
          "velocity": 0.6850393700787402,
          "duration": 0.05747124999999187
        },
        {
          "name": "E3",
          "midi": 52,
          "time": 171.03803195312614,
          "velocity": 0.7322834645669292,
          "duration": 0.211925234375002
        },
        {
          "name": "B2",
          "midi": 47,
          "time": 171.04521585937613,
          "velocity": 0.7322834645669292,
          "duration": 0.2047413281250101
        },
        {
          "name": "E2",
          "midi": 40,
          "time": 171.04521585937613,
          "velocity": 0.7244094488188977,
          "duration": 0.16522984375001215
        },
        {
          "name": "E2",
          "midi": 40,
          "time": 171.21044570312614,
          "velocity": 0.3700787401574803,
          "duration": 0.11494250000001216
        },
        {
          "name": "E2",
          "midi": 40,
          "time": 171.39004335937616,
          "velocity": 0.4330708661417323,
          "duration": 0.1257183593750142
        },
        {
          "name": "E2",
          "midi": 40,
          "time": 171.56245710937617,
          "velocity": 0.5039370078740157,
          "duration": 0.1436781250000081
        },
        {
          "name": "E3",
          "midi": 52,
          "time": 171.71691109375118,
          "velocity": 0.8110236220472441,
          "duration": 0.22988500000002432
        },
        {
          "name": "B2",
          "midi": 47,
          "time": 171.72409500000117,
          "velocity": 0.7086614173228346,
          "duration": 0.20114937500002839
        },
        {
          "name": "E2",
          "midi": 40,
          "time": 171.72768695312618,
          "velocity": 0.7322834645669292,
          "duration": 0.17241375000000403
        },
        {
          "name": "E2",
          "midi": 40,
          "time": 171.90010070312618,
          "velocity": 0.4251968503937008,
          "duration": 0.10416664062501013
        },
        {
          "name": "E2",
          "midi": 40,
          "time": 172.0725144531262,
          "velocity": 0.5511811023622047,
          "duration": 0.1257183593750142
        },
        {
          "name": "E2",
          "midi": 40,
          "time": 172.2449282031262,
          "velocity": 0.7086614173228346,
          "duration": 0.15086203124999997
        },
        {
          "name": "E3",
          "midi": 52,
          "time": 172.4173419531262,
          "velocity": 0.8976377952755905,
          "duration": 0.1257183593750142
        },
        {
          "name": "B2",
          "midi": 47,
          "time": 172.4245258593762,
          "velocity": 0.8582677165354331,
          "duration": 0.13649421875001622
        },
        {
          "name": "E2",
          "midi": 40,
          "time": 172.4281178125012,
          "velocity": 0.8582677165354331,
          "duration": 0.11135054687500201
        },
        {
          "name": "A3",
          "midi": 57,
          "time": 172.5610200781262,
          "velocity": 0.7322834645669292,
          "duration": 0.14367812499997967
        },
        {
          "name": "D4",
          "midi": 62,
          "time": 172.5682039843762,
          "velocity": 0.6771653543307087,
          "duration": 0.11853445312499389
        },
        {
          "name": "D3",
          "midi": 50,
          "time": 172.5789798437512,
          "velocity": 0.6771653543307087,
          "duration": 0.11494249999998374
        },
        {
          "name": "D4",
          "midi": 62,
          "time": 172.73343382812618,
          "velocity": 0.7480314960629921,
          "duration": 0.08261492187500608
        },
        {
          "name": "A3",
          "midi": 57,
          "time": 172.74420968750118,
          "velocity": 0.6771653543307087,
          "duration": 0.05387929687498172
        },
        {
          "name": "D3",
          "midi": 50,
          "time": 172.75139359375117,
          "velocity": 0.4566929133858268,
          "duration": 0.05028734374999999
        },
        {
          "name": "D3",
          "midi": 50,
          "time": 172.91303148437618,
          "velocity": 0.7795275590551181,
          "duration": 0.3196838281250223
        },
        {
          "name": "D4",
          "midi": 62,
          "time": 172.92380734375118,
          "velocity": 0.8267716535433071,
          "duration": 0.27658039062501416
        },
        {
          "name": "A3",
          "midi": 57,
          "time": 172.92380734375118,
          "velocity": 0.7952755905511811,
          "duration": 0.26580453125001213
        },
        {
          "name": "D4",
          "midi": 62,
          "time": 173.2758187500012,
          "velocity": 0.889763779527559,
          "duration": 0.2693964843750223
        },
        {
          "name": "D3",
          "midi": 50,
          "time": 173.2865946093762,
          "velocity": 0.8740157480314961,
          "duration": 0.3053160156250385
        },
        {
          "name": "A3",
          "midi": 57,
          "time": 173.29018656250122,
          "velocity": 0.937007874015748,
          "duration": 0.2873562500000162
        },
        {
          "name": "D4",
          "midi": 62,
          "time": 173.62423820312625,
          "velocity": 0.7244094488188977,
          "duration": 0.09339078124997968
        },
        {
          "name": "D3",
          "midi": 50,
          "time": 173.64219796875125,
          "velocity": 0.5590551181102362,
          "duration": 0.07543101562498578
        },
        {
          "name": "A3",
          "midi": 57,
          "time": 173.64938187500124,
          "velocity": 0.6850393700787402,
          "duration": 0.05747124999999187
        },
        {
          "name": "E3",
          "midi": 52,
          "time": 173.82179562500127,
          "velocity": 0.6535433070866141,
          "duration": 5.804596250000145
        },
        {
          "name": "E4",
          "midi": 64,
          "time": 173.82538757812628,
          "velocity": 0.7244094488188977,
          "duration": 5.801004296875135
        },
        {
          "name": "B3",
          "midi": 59,
          "time": 173.82538757812628,
          "velocity": 0.7007874015748031,
          "duration": 5.801004296875135
        },
        {
          "name": "E3",
          "midi": 52,
          "time": 194.50426171875142,
          "velocity": 0.889763779527559,
          "duration": 0.42025851562499383
        },
        {
          "name": "E2",
          "midi": 40,
          "time": 194.50426171875142,
          "velocity": 0.937007874015748,
          "duration": 0.43103437499999586
        },
        {
          "name": "B2",
          "midi": 47,
          "time": 194.52222148437642,
          "velocity": 0.905511811023622,
          "duration": 0.4022987499999999
        },
        {
          "name": "A3",
          "midi": 57,
          "time": 195.6249510937514,
          "velocity": 0.9212598425196851,
          "duration": 4.770113749999979
        },
        {
          "name": "E3",
          "midi": 52,
          "time": 195.6249510937514,
          "velocity": 0.9212598425196851,
          "duration": 4.734194218749991
        },
        {
          "name": "A2",
          "midi": 45,
          "time": 195.6429108593764,
          "velocity": 0.952755905511811,
          "duration": 4.759337890624977
        },
        {
          "name": "B2",
          "midi": 47,
          "time": 205.8727933593764,
          "velocity": 0.937007874015748,
          "duration": 0.24784476562501823
        },
        {
          "name": "D3",
          "midi": 50,
          "time": 206.07394273437643,
          "velocity": 0.8582677165354331,
          "duration": 0.31968382812499385
        },
        {
          "name": "B2",
          "midi": 47,
          "time": 206.39362656250142,
          "velocity": 0.8267716535433071,
          "duration": 0.20114937499999996
        },
        {
          "name": "D3",
          "midi": 50,
          "time": 206.58400007812642,
          "velocity": 0.905511811023622,
          "duration": 0.27658039062501416
        },
        {
          "name": "E3",
          "midi": 52,
          "time": 206.90009195312643,
          "velocity": 0.7322834645669292,
          "duration": 0.211925234375002
        },
        {
          "name": "B2",
          "midi": 47,
          "time": 206.90727585937643,
          "velocity": 0.7322834645669292,
          "duration": 0.2047413281250101
        },
        {
          "name": "E2",
          "midi": 40,
          "time": 206.90727585937643,
          "velocity": 0.7244094488188977,
          "duration": 0.16522984375001215
        },
        {
          "name": "E2",
          "midi": 40,
          "time": 207.07250570312644,
          "velocity": 0.3700787401574803,
          "duration": 0.11494250000001216
        },
        {
          "name": "E2",
          "midi": 40,
          "time": 207.25210335937646,
          "velocity": 0.4330708661417323,
          "duration": 0.1257183593750142
        },
        {
          "name": "E2",
          "midi": 40,
          "time": 207.42451710937647,
          "velocity": 0.5039370078740157,
          "duration": 0.1436781250000081
        },
        {
          "name": "E3",
          "midi": 52,
          "time": 207.57897109375148,
          "velocity": 0.8110236220472441,
          "duration": 0.22988500000002432
        },
        {
          "name": "B2",
          "midi": 47,
          "time": 207.58615500000147,
          "velocity": 0.7086614173228346,
          "duration": 0.20114937500002839
        },
        {
          "name": "E2",
          "midi": 40,
          "time": 207.58974695312648,
          "velocity": 0.7322834645669292,
          "duration": 0.17241375000000403
        },
        {
          "name": "E2",
          "midi": 40,
          "time": 207.76216070312648,
          "velocity": 0.4251968503937008,
          "duration": 0.10416664062501013
        },
        {
          "name": "E2",
          "midi": 40,
          "time": 207.9345744531265,
          "velocity": 0.5511811023622047,
          "duration": 0.1257183593750142
        },
        {
          "name": "E2",
          "midi": 40,
          "time": 208.1069882031265,
          "velocity": 0.7086614173228346,
          "duration": 0.15086203124999997
        },
        {
          "name": "E3",
          "midi": 52,
          "time": 208.2794019531265,
          "velocity": 0.8976377952755905,
          "duration": 0.25862062499999183
        },
        {
          "name": "B2",
          "midi": 47,
          "time": 208.2865858593765,
          "velocity": 0.8582677165354331,
          "duration": 0.25143671874999995
        },
        {
          "name": "E2",
          "midi": 40,
          "time": 208.2901778125015,
          "velocity": 0.8582677165354331,
          "duration": 0.20114937499999996
        },
        {
          "name": "B2",
          "midi": 47,
          "time": 208.63141335937652,
          "velocity": 0.8740157480314961,
          "duration": 0.19396546875000809
        },
        {
          "name": "D3",
          "midi": 50,
          "time": 208.79305125000153,
          "velocity": 0.7952755905511811,
          "duration": 0.33764359374998776
        },
        {
          "name": "B2",
          "midi": 47,
          "time": 209.11273507812652,
          "velocity": 0.6377952755905512,
          "duration": 0.1975574218749898
        },
        {
          "name": "D3",
          "midi": 50,
          "time": 209.29233273437652,
          "velocity": 0.9212598425196851,
          "duration": 0.33764359374998776
        },
        {
          "name": "E3",
          "midi": 52,
          "time": 209.6587119531265,
          "velocity": 0.7322834645669292,
          "duration": 0.211925234375002
        },
        {
          "name": "B2",
          "midi": 47,
          "time": 209.6658958593765,
          "velocity": 0.7322834645669292,
          "duration": 0.2047413281250101
        },
        {
          "name": "E2",
          "midi": 40,
          "time": 209.6658958593765,
          "velocity": 0.7244094488188977,
          "duration": 0.16522984375001215
        },
        {
          "name": "E2",
          "midi": 40,
          "time": 209.8311257031265,
          "velocity": 0.3700787401574803,
          "duration": 0.11494250000001216
        },
        {
          "name": "E2",
          "midi": 40,
          "time": 210.01072335937653,
          "velocity": 0.4330708661417323,
          "duration": 0.1257183593750142
        },
        {
          "name": "E2",
          "midi": 40,
          "time": 210.18313710937653,
          "velocity": 0.5039370078740157,
          "duration": 0.1436781250000081
        },
        {
          "name": "E3",
          "midi": 52,
          "time": 210.33759109375154,
          "velocity": 0.8110236220472441,
          "duration": 0.22988500000002432
        },
        {
          "name": "B2",
          "midi": 47,
          "time": 210.34477500000153,
          "velocity": 0.7086614173228346,
          "duration": 0.20114937500002839
        },
        {
          "name": "E2",
          "midi": 40,
          "time": 210.34836695312654,
          "velocity": 0.7322834645669292,
          "duration": 0.17241375000000403
        },
        {
          "name": "E2",
          "midi": 40,
          "time": 210.52078070312655,
          "velocity": 0.4251968503937008,
          "duration": 0.10416664062501013
        },
        {
          "name": "E2",
          "midi": 40,
          "time": 210.69319445312655,
          "velocity": 0.5511811023622047,
          "duration": 0.1257183593750142
        },
        {
          "name": "E2",
          "midi": 40,
          "time": 210.86560820312656,
          "velocity": 0.7086614173228346,
          "duration": 0.15086203124999997
        },
        {
          "name": "E3",
          "midi": 52,
          "time": 211.03802195312656,
          "velocity": 0.8976377952755905,
          "duration": 0.25862062499999183
        },
        {
          "name": "B2",
          "midi": 47,
          "time": 211.04520585937655,
          "velocity": 0.8582677165354331,
          "duration": 0.25143671874999995
        },
        {
          "name": "E2",
          "midi": 40,
          "time": 211.04879781250156,
          "velocity": 0.8582677165354331,
          "duration": 0.20114937499999996
        },
        {
          "name": "B2",
          "midi": 47,
          "time": 211.3900333593766,
          "velocity": 0.8740157480314961,
          "duration": 0.19396546875000809
        },
        {
          "name": "D3",
          "midi": 50,
          "time": 211.5516712500016,
          "velocity": 0.7952755905511811,
          "duration": 0.33764359374998776
        },
        {
          "name": "B2",
          "midi": 47,
          "time": 211.87135507812658,
          "velocity": 0.6377952755905512,
          "duration": 0.1975574218749898
        },
        {
          "name": "D3",
          "midi": 50,
          "time": 212.05095273437658,
          "velocity": 0.9212598425196851,
          "duration": 0.33764359374998776
        },
        {
          "name": "E3",
          "midi": 52,
          "time": 212.41733195312656,
          "velocity": 0.7322834645669292,
          "duration": 0.211925234375002
        },
        {
          "name": "B2",
          "midi": 47,
          "time": 212.42451585937656,
          "velocity": 0.7322834645669292,
          "duration": 0.2047413281250101
        },
        {
          "name": "E2",
          "midi": 40,
          "time": 212.42451585937656,
          "velocity": 0.7244094488188977,
          "duration": 0.16522984375001215
        },
        {
          "name": "E2",
          "midi": 40,
          "time": 212.58974570312657,
          "velocity": 0.3700787401574803,
          "duration": 0.11494250000001216
        },
        {
          "name": "E2",
          "midi": 40,
          "time": 212.7693433593766,
          "velocity": 0.4330708661417323,
          "duration": 0.1257183593750142
        },
        {
          "name": "E2",
          "midi": 40,
          "time": 212.9417571093766,
          "velocity": 0.5039370078740157,
          "duration": 0.1436781250000081
        },
        {
          "name": "E3",
          "midi": 52,
          "time": 213.0962110937516,
          "velocity": 0.8110236220472441,
          "duration": 0.22988500000002432
        },
        {
          "name": "B2",
          "midi": 47,
          "time": 213.1033950000016,
          "velocity": 0.7086614173228346,
          "duration": 0.20114937500002839
        },
        {
          "name": "E2",
          "midi": 40,
          "time": 213.1069869531266,
          "velocity": 0.7322834645669292,
          "duration": 0.17241375000000403
        },
        {
          "name": "E2",
          "midi": 40,
          "time": 213.2794007031266,
          "velocity": 0.4251968503937008,
          "duration": 0.10416664062501013
        },
        {
          "name": "E2",
          "midi": 40,
          "time": 213.45181445312662,
          "velocity": 0.5511811023622047,
          "duration": 0.1257183593750142
        },
        {
          "name": "E2",
          "midi": 40,
          "time": 213.62422820312662,
          "velocity": 0.7086614173228346,
          "duration": 0.15086203124999997
        },
        {
          "name": "E3",
          "midi": 52,
          "time": 213.79664195312662,
          "velocity": 0.8976377952755905,
          "duration": 0.25862062499999183
        },
        {
          "name": "B2",
          "midi": 47,
          "time": 213.80382585937662,
          "velocity": 0.8582677165354331,
          "duration": 0.25143671874999995
        },
        {
          "name": "E2",
          "midi": 40,
          "time": 213.80741781250163,
          "velocity": 0.8582677165354331,
          "duration": 0.20114937499999996
        },
        {
          "name": "B2",
          "midi": 47,
          "time": 214.14865335937665,
          "velocity": 0.8740157480314961,
          "duration": 0.19396546875000809
        },
        {
          "name": "D3",
          "midi": 50,
          "time": 214.31029125000165,
          "velocity": 0.7952755905511811,
          "duration": 0.33764359374998776
        },
        {
          "name": "B2",
          "midi": 47,
          "time": 214.62997507812665,
          "velocity": 0.6377952755905512,
          "duration": 0.1975574218749898
        },
        {
          "name": "D3",
          "midi": 50,
          "time": 214.80957273437664,
          "velocity": 0.9212598425196851,
          "duration": 0.33764359374998776
        },
        {
          "name": "E3",
          "midi": 52,
          "time": 215.17595195312663,
          "velocity": 0.7322834645669292,
          "duration": 0.211925234375002
        },
        {
          "name": "B2",
          "midi": 47,
          "time": 215.18313585937662,
          "velocity": 0.7322834645669292,
          "duration": 0.2047413281250101
        },
        {
          "name": "E2",
          "midi": 40,
          "time": 215.18313585937662,
          "velocity": 0.7244094488188977,
          "duration": 0.16522984375001215
        },
        {
          "name": "E2",
          "midi": 40,
          "time": 215.34836570312663,
          "velocity": 0.3700787401574803,
          "duration": 0.11494250000001216
        },
        {
          "name": "E2",
          "midi": 40,
          "time": 215.52796335937666,
          "velocity": 0.4330708661417323,
          "duration": 0.1257183593750142
        },
        {
          "name": "E2",
          "midi": 40,
          "time": 215.70037710937666,
          "velocity": 0.5039370078740157,
          "duration": 0.1436781250000081
        },
        {
          "name": "E3",
          "midi": 52,
          "time": 215.85483109375167,
          "velocity": 0.8110236220472441,
          "duration": 0.22988500000002432
        },
        {
          "name": "B2",
          "midi": 47,
          "time": 215.86201500000166,
          "velocity": 0.7086614173228346,
          "duration": 0.20114937500002839
        },
        {
          "name": "E2",
          "midi": 40,
          "time": 215.86560695312667,
          "velocity": 0.7322834645669292,
          "duration": 0.17241375000000403
        },
        {
          "name": "E2",
          "midi": 40,
          "time": 216.03802070312668,
          "velocity": 0.4251968503937008,
          "duration": 0.10416664062501013
        },
        {
          "name": "E2",
          "midi": 40,
          "time": 216.21043445312668,
          "velocity": 0.5511811023622047,
          "duration": 0.1257183593750142
        },
        {
          "name": "E2",
          "midi": 40,
          "time": 216.38284820312668,
          "velocity": 0.7086614173228346,
          "duration": 0.15086203124999997
        },
        {
          "name": "E3",
          "midi": 52,
          "time": 216.5552619531267,
          "velocity": 0.8976377952755905,
          "duration": 0.25862062499999183
        },
        {
          "name": "B2",
          "midi": 47,
          "time": 216.56244585937668,
          "velocity": 0.8582677165354331,
          "duration": 0.25143671874999995
        },
        {
          "name": "E2",
          "midi": 40,
          "time": 216.5660378125017,
          "velocity": 0.8582677165354331,
          "duration": 0.20114937499999996
        },
        {
          "name": "B2",
          "midi": 47,
          "time": 216.90727335937672,
          "velocity": 0.8740157480314961,
          "duration": 0.19396546875000809
        },
        {
          "name": "D3",
          "midi": 50,
          "time": 217.06891125000172,
          "velocity": 0.7952755905511811,
          "duration": 0.33764359374998776
        },
        {
          "name": "B2",
          "midi": 47,
          "time": 217.3885950781267,
          "velocity": 0.6377952755905512,
          "duration": 0.1975574218749898
        },
        {
          "name": "D3",
          "midi": 50,
          "time": 217.5681927343767,
          "velocity": 0.9212598425196851,
          "duration": 0.33764359374998776
        },
        {
          "name": "E3",
          "midi": 52,
          "time": 217.9345719531267,
          "velocity": 0.7322834645669292,
          "duration": 0.211925234375002
        },
        {
          "name": "B2",
          "midi": 47,
          "time": 217.94175585937668,
          "velocity": 0.7322834645669292,
          "duration": 0.2047413281250101
        },
        {
          "name": "E2",
          "midi": 40,
          "time": 217.94175585937668,
          "velocity": 0.7244094488188977,
          "duration": 0.16522984375001215
        },
        {
          "name": "E2",
          "midi": 40,
          "time": 218.1069857031267,
          "velocity": 0.3700787401574803,
          "duration": 0.11494250000001216
        },
        {
          "name": "E2",
          "midi": 40,
          "time": 218.28658335937672,
          "velocity": 0.4330708661417323,
          "duration": 0.1257183593750142
        },
        {
          "name": "E2",
          "midi": 40,
          "time": 218.45899710937672,
          "velocity": 0.5039370078740157,
          "duration": 0.1436781250000081
        },
        {
          "name": "E3",
          "midi": 52,
          "time": 218.61345109375173,
          "velocity": 0.8110236220472441,
          "duration": 0.22988500000002432
        },
        {
          "name": "B2",
          "midi": 47,
          "time": 218.62063500000173,
          "velocity": 0.7086614173228346,
          "duration": 0.20114937500002839
        },
        {
          "name": "E2",
          "midi": 40,
          "time": 218.62422695312674,
          "velocity": 0.7322834645669292,
          "duration": 0.17241375000000403
        },
        {
          "name": "E2",
          "midi": 40,
          "time": 218.79664070312674,
          "velocity": 0.4251968503937008,
          "duration": 0.10416664062501013
        },
        {
          "name": "E2",
          "midi": 40,
          "time": 218.96905445312674,
          "velocity": 0.5511811023622047,
          "duration": 0.1257183593750142
        },
        {
          "name": "E2",
          "midi": 40,
          "time": 219.14146820312675,
          "velocity": 0.7086614173228346,
          "duration": 0.15086203124999997
        },
        {
          "name": "E3",
          "midi": 52,
          "time": 219.31388195312675,
          "velocity": 0.8976377952755905,
          "duration": 0.25862062499999183
        },
        {
          "name": "B2",
          "midi": 47,
          "time": 219.32106585937674,
          "velocity": 0.8582677165354331,
          "duration": 0.25143671874999995
        },
        {
          "name": "E2",
          "midi": 40,
          "time": 219.32465781250175,
          "velocity": 0.8582677165354331,
          "duration": 0.20114937499999996
        },
        {
          "name": "B2",
          "midi": 47,
          "time": 219.66589335937678,
          "velocity": 0.8740157480314961,
          "duration": 0.19396546875000809
        },
        {
          "name": "D3",
          "midi": 50,
          "time": 219.82753125000178,
          "velocity": 0.7952755905511811,
          "duration": 0.33764359374998776
        },
        {
          "name": "B2",
          "midi": 47,
          "time": 220.14721507812678,
          "velocity": 0.6377952755905512,
          "duration": 0.1975574218749898
        },
        {
          "name": "D3",
          "midi": 50,
          "time": 220.32681273437677,
          "velocity": 0.9212598425196851,
          "duration": 0.33764359374998776
        },
        {
          "name": "E3",
          "midi": 52,
          "time": 220.69319195312676,
          "velocity": 0.7322834645669292,
          "duration": 0.211925234375002
        },
        {
          "name": "B2",
          "midi": 47,
          "time": 220.70037585937675,
          "velocity": 0.7322834645669292,
          "duration": 0.2047413281250101
        },
        {
          "name": "E2",
          "midi": 40,
          "time": 220.70037585937675,
          "velocity": 0.7244094488188977,
          "duration": 0.16522984375001215
        },
        {
          "name": "E2",
          "midi": 40,
          "time": 220.86560570312676,
          "velocity": 0.3700787401574803,
          "duration": 0.11494250000001216
        },
        {
          "name": "E2",
          "midi": 40,
          "time": 221.04520335937679,
          "velocity": 0.4330708661417323,
          "duration": 0.1257183593750142
        },
        {
          "name": "E2",
          "midi": 40,
          "time": 221.2176171093768,
          "velocity": 0.5039370078740157,
          "duration": 0.1436781250000081
        },
        {
          "name": "E3",
          "midi": 52,
          "time": 221.3720710937518,
          "velocity": 0.8110236220472441,
          "duration": 0.22988500000002432
        },
        {
          "name": "B2",
          "midi": 47,
          "time": 221.3792550000018,
          "velocity": 0.7086614173228346,
          "duration": 0.20114937500002839
        },
        {
          "name": "E2",
          "midi": 40,
          "time": 221.3828469531268,
          "velocity": 0.7322834645669292,
          "duration": 0.17241375000000403
        },
        {
          "name": "E2",
          "midi": 40,
          "time": 221.5552607031268,
          "velocity": 0.4251968503937008,
          "duration": 0.10416664062501013
        },
        {
          "name": "E2",
          "midi": 40,
          "time": 221.7276744531268,
          "velocity": 0.5511811023622047,
          "duration": 0.1257183593750142
        },
        {
          "name": "E2",
          "midi": 40,
          "time": 221.9000882031268,
          "velocity": 0.7086614173228346,
          "duration": 0.15086203124999997
        },
        {
          "name": "E3",
          "midi": 52,
          "time": 222.07250195312682,
          "velocity": 0.8976377952755905,
          "duration": 0.25862062499999183
        },
        {
          "name": "B2",
          "midi": 47,
          "time": 222.0796858593768,
          "velocity": 0.8582677165354331,
          "duration": 0.25143671874999995
        },
        {
          "name": "E2",
          "midi": 40,
          "time": 222.08327781250182,
          "velocity": 0.8582677165354331,
          "duration": 0.20114937499999996
        },
        {
          "name": "B2",
          "midi": 47,
          "time": 222.42451335937685,
          "velocity": 0.8740157480314961,
          "duration": 0.19396546875000809
        },
        {
          "name": "D3",
          "midi": 50,
          "time": 222.58615125000185,
          "velocity": 0.7952755905511811,
          "duration": 0.33764359374998776
        },
        {
          "name": "B2",
          "midi": 47,
          "time": 222.90583507812684,
          "velocity": 0.6377952755905512,
          "duration": 0.1975574218749898
        },
        {
          "name": "D3",
          "midi": 50,
          "time": 223.08543273437684,
          "velocity": 0.9212598425196851,
          "duration": 0.33764359374998776
        },
        {
          "name": "E3",
          "midi": 52,
          "time": 223.45181195312682,
          "velocity": 0.7322834645669292,
          "duration": 0.211925234375002
        },
        {
          "name": "B2",
          "midi": 47,
          "time": 223.4589958593768,
          "velocity": 0.7322834645669292,
          "duration": 0.2047413281250101
        },
        {
          "name": "E2",
          "midi": 40,
          "time": 223.4589958593768,
          "velocity": 0.7244094488188977,
          "duration": 0.16522984375001215
        },
        {
          "name": "E2",
          "midi": 40,
          "time": 223.62422570312683,
          "velocity": 0.3700787401574803,
          "duration": 0.11494250000001216
        },
        {
          "name": "E2",
          "midi": 40,
          "time": 223.80382335937685,
          "velocity": 0.4330708661417323,
          "duration": 0.1257183593750142
        },
        {
          "name": "E2",
          "midi": 40,
          "time": 223.97623710937685,
          "velocity": 0.5039370078740157,
          "duration": 0.1436781250000081
        },
        {
          "name": "E3",
          "midi": 52,
          "time": 224.13069109375186,
          "velocity": 0.8110236220472441,
          "duration": 0.22988500000002432
        },
        {
          "name": "B2",
          "midi": 47,
          "time": 224.13787500000186,
          "velocity": 0.7086614173228346,
          "duration": 0.20114937500002839
        },
        {
          "name": "E2",
          "midi": 40,
          "time": 224.14146695312687,
          "velocity": 0.7322834645669292,
          "duration": 0.17241375000000403
        },
        {
          "name": "E2",
          "midi": 40,
          "time": 224.31388070312687,
          "velocity": 0.4251968503937008,
          "duration": 0.10416664062501013
        },
        {
          "name": "E2",
          "midi": 40,
          "time": 224.48629445312687,
          "velocity": 0.5511811023622047,
          "duration": 0.1257183593750142
        },
        {
          "name": "E2",
          "midi": 40,
          "time": 224.65870820312688,
          "velocity": 0.7086614173228346,
          "duration": 0.15086203124999997
        },
        {
          "name": "E3",
          "midi": 52,
          "time": 224.83112195312688,
          "velocity": 0.8976377952755905,
          "duration": 0.25862062499999183
        },
        {
          "name": "B2",
          "midi": 47,
          "time": 224.83830585937687,
          "velocity": 0.8582677165354331,
          "duration": 0.25143671874999995
        },
        {
          "name": "E2",
          "midi": 40,
          "time": 224.84189781250188,
          "velocity": 0.8582677165354331,
          "duration": 0.20114937499999996
        },
        {
          "name": "B2",
          "midi": 47,
          "time": 225.1831333593769,
          "velocity": 0.8740157480314961,
          "duration": 0.19396546875000809
        },
        {
          "name": "D3",
          "midi": 50,
          "time": 225.3447712500019,
          "velocity": 0.7952755905511811,
          "duration": 0.33764359374998776
        },
        {
          "name": "B2",
          "midi": 47,
          "time": 225.6644550781269,
          "velocity": 0.6377952755905512,
          "duration": 0.1975574218749898
        },
        {
          "name": "D3",
          "midi": 50,
          "time": 225.8440527343769,
          "velocity": 0.9212598425196851,
          "duration": 0.33764359374998776
        },
        {
          "name": "E3",
          "midi": 52,
          "time": 226.21043195312689,
          "velocity": 0.7322834645669292,
          "duration": 0.211925234375002
        },
        {
          "name": "B2",
          "midi": 47,
          "time": 226.21761585937688,
          "velocity": 0.7322834645669292,
          "duration": 0.2047413281250101
        },
        {
          "name": "E2",
          "midi": 40,
          "time": 226.21761585937688,
          "velocity": 0.7244094488188977,
          "duration": 0.16522984375001215
        },
        {
          "name": "E2",
          "midi": 40,
          "time": 226.3828457031269,
          "velocity": 0.3700787401574803,
          "duration": 0.11494250000001216
        },
        {
          "name": "E2",
          "midi": 40,
          "time": 226.5624433593769,
          "velocity": 0.4330708661417323,
          "duration": 0.1257183593750142
        },
        {
          "name": "E2",
          "midi": 40,
          "time": 226.73485710937692,
          "velocity": 0.5039370078740157,
          "duration": 0.1436781250000081
        },
        {
          "name": "E3",
          "midi": 52,
          "time": 226.88931109375193,
          "velocity": 0.8110236220472441,
          "duration": 0.22988500000002432
        },
        {
          "name": "B2",
          "midi": 47,
          "time": 226.89649500000192,
          "velocity": 0.7086614173228346,
          "duration": 0.20114937500002839
        },
        {
          "name": "E2",
          "midi": 40,
          "time": 226.90008695312693,
          "velocity": 0.7322834645669292,
          "duration": 0.17241375000000403
        },
        {
          "name": "E2",
          "midi": 40,
          "time": 227.07250070312693,
          "velocity": 0.4251968503937008,
          "duration": 0.10416664062501013
        },
        {
          "name": "E2",
          "midi": 40,
          "time": 227.24491445312694,
          "velocity": 0.5511811023622047,
          "duration": 0.1257183593750142
        },
        {
          "name": "E2",
          "midi": 40,
          "time": 227.41732820312694,
          "velocity": 0.7086614173228346,
          "duration": 0.15086203124999997
        },
        {
          "name": "E3",
          "midi": 52,
          "time": 227.58974195312695,
          "velocity": 0.8976377952755905,
          "duration": 0.25862062499999183
        },
        {
          "name": "B2",
          "midi": 47,
          "time": 227.59692585937694,
          "velocity": 0.8582677165354331,
          "duration": 0.25143671874999995
        },
        {
          "name": "E2",
          "midi": 40,
          "time": 227.60051781250195,
          "velocity": 0.8582677165354331,
          "duration": 0.20114937499999996
        },
        {
          "name": "B2",
          "midi": 47,
          "time": 227.94175335937697,
          "velocity": 0.8740157480314961,
          "duration": 0.19396546875000809
        },
        {
          "name": "D3",
          "midi": 50,
          "time": 228.10339125000198,
          "velocity": 0.7952755905511811,
          "duration": 0.33764359374998776
        },
        {
          "name": "B2",
          "midi": 47,
          "time": 228.42307507812697,
          "velocity": 0.6377952755905512,
          "duration": 0.1975574218749898
        },
        {
          "name": "D3",
          "midi": 50,
          "time": 228.60267273437697,
          "velocity": 0.9212598425196851,
          "duration": 0.33764359374998776
        },
        {
          "name": "E3",
          "midi": 52,
          "time": 228.96905195312695,
          "velocity": 0.7322834645669292,
          "duration": 0.211925234375002
        },
        {
          "name": "B2",
          "midi": 47,
          "time": 228.97623585937694,
          "velocity": 0.7322834645669292,
          "duration": 0.2047413281250101
        },
        {
          "name": "E2",
          "midi": 40,
          "time": 228.97623585937694,
          "velocity": 0.7244094488188977,
          "duration": 0.16522984375001215
        },
        {
          "name": "E2",
          "midi": 40,
          "time": 229.14146570312695,
          "velocity": 0.3700787401574803,
          "duration": 0.11494250000001216
        },
        {
          "name": "E2",
          "midi": 40,
          "time": 229.32106335937698,
          "velocity": 0.4330708661417323,
          "duration": 0.1257183593750142
        },
        {
          "name": "E2",
          "midi": 40,
          "time": 229.49347710937698,
          "velocity": 0.5039370078740157,
          "duration": 0.1436781250000081
        },
        {
          "name": "E3",
          "midi": 52,
          "time": 229.647931093752,
          "velocity": 0.8110236220472441,
          "duration": 0.22988500000002432
        },
        {
          "name": "B2",
          "midi": 47,
          "time": 229.65511500000198,
          "velocity": 0.7086614173228346,
          "duration": 0.20114937500002839
        },
        {
          "name": "E2",
          "midi": 40,
          "time": 229.658706953127,
          "velocity": 0.7322834645669292,
          "duration": 0.17241375000000403
        },
        {
          "name": "E2",
          "midi": 40,
          "time": 229.831120703127,
          "velocity": 0.4251968503937008,
          "duration": 0.10416664062501013
        },
        {
          "name": "E2",
          "midi": 40,
          "time": 230.003534453127,
          "velocity": 0.5511811023622047,
          "duration": 0.1257183593750142
        },
        {
          "name": "E2",
          "midi": 40,
          "time": 230.175948203127,
          "velocity": 0.7086614173228346,
          "duration": 0.15086203124999997
        },
        {
          "name": "E3",
          "midi": 52,
          "time": 230.348361953127,
          "velocity": 0.8976377952755905,
          "duration": 0.25862062499999183
        },
        {
          "name": "B2",
          "midi": 47,
          "time": 230.355545859377,
          "velocity": 0.8582677165354331,
          "duration": 0.25143671874999995
        },
        {
          "name": "E2",
          "midi": 40,
          "time": 230.359137812502,
          "velocity": 0.8582677165354331,
          "duration": 0.20114937499999996
        },
        {
          "name": "B2",
          "midi": 47,
          "time": 230.70037335937704,
          "velocity": 0.8740157480314961,
          "duration": 0.19396546875000809
        },
        {
          "name": "D3",
          "midi": 50,
          "time": 230.86201125000204,
          "velocity": 0.7952755905511811,
          "duration": 0.33764359374998776
        },
        {
          "name": "B2",
          "midi": 47,
          "time": 231.18169507812704,
          "velocity": 0.6377952755905512,
          "duration": 0.1975574218749898
        },
        {
          "name": "D3",
          "midi": 50,
          "time": 231.36129273437703,
          "velocity": 0.9212598425196851,
          "duration": 0.33764359374998776
        },
        {
          "name": "E3",
          "midi": 52,
          "time": 231.72767195312701,
          "velocity": 0.7322834645669292,
          "duration": 0.211925234375002
        },
        {
          "name": "B2",
          "midi": 47,
          "time": 231.734855859377,
          "velocity": 0.7322834645669292,
          "duration": 0.2047413281250101
        },
        {
          "name": "E2",
          "midi": 40,
          "time": 231.734855859377,
          "velocity": 0.7244094488188977,
          "duration": 0.16522984375001215
        },
        {
          "name": "E2",
          "midi": 40,
          "time": 231.90008570312702,
          "velocity": 0.3700787401574803,
          "duration": 0.11494250000001216
        },
        {
          "name": "E2",
          "midi": 40,
          "time": 232.07968335937704,
          "velocity": 0.4330708661417323,
          "duration": 0.1257183593750142
        },
        {
          "name": "E2",
          "midi": 40,
          "time": 232.25209710937705,
          "velocity": 0.5039370078740157,
          "duration": 0.1436781250000081
        },
        {
          "name": "E3",
          "midi": 52,
          "time": 232.40655109375206,
          "velocity": 0.8110236220472441,
          "duration": 0.22988500000002432
        },
        {
          "name": "B2",
          "midi": 47,
          "time": 232.41373500000205,
          "velocity": 0.7086614173228346,
          "duration": 0.20114937500002839
        },
        {
          "name": "E2",
          "midi": 40,
          "time": 232.41732695312706,
          "velocity": 0.7322834645669292,
          "duration": 0.17241375000000403
        },
        {
          "name": "E2",
          "midi": 40,
          "time": 232.58974070312706,
          "velocity": 0.4251968503937008,
          "duration": 0.10416664062501013
        },
        {
          "name": "E2",
          "midi": 40,
          "time": 232.76215445312707,
          "velocity": 0.5511811023622047,
          "duration": 0.1257183593750142
        },
        {
          "name": "E2",
          "midi": 40,
          "time": 232.93456820312707,
          "velocity": 0.7086614173228346,
          "duration": 0.15086203124999997
        },
        {
          "name": "E3",
          "midi": 52,
          "time": 233.10698195312708,
          "velocity": 0.8976377952755905,
          "duration": 0.25862062499999183
        },
        {
          "name": "B2",
          "midi": 47,
          "time": 233.11416585937707,
          "velocity": 0.8582677165354331,
          "duration": 0.25143671874999995
        },
        {
          "name": "E2",
          "midi": 40,
          "time": 233.11775781250208,
          "velocity": 0.8582677165354331,
          "duration": 0.20114937499999996
        },
        {
          "name": "B2",
          "midi": 47,
          "time": 233.4589933593771,
          "velocity": 0.8740157480314961,
          "duration": 0.19396546875000809
        },
        {
          "name": "D3",
          "midi": 50,
          "time": 233.6206312500021,
          "velocity": 0.7952755905511811,
          "duration": 0.33764359374998776
        },
        {
          "name": "B2",
          "midi": 47,
          "time": 233.9403150781271,
          "velocity": 0.6377952755905512,
          "duration": 0.1975574218749898
        },
        {
          "name": "D3",
          "midi": 50,
          "time": 234.1199127343771,
          "velocity": 0.9212598425196851,
          "duration": 0.33764359374998776
        },
        {
          "name": "E3",
          "midi": 52,
          "time": 234.51143562500212,
          "velocity": 0.6535433070866141,
          "duration": 5.804596250000145
        },
        {
          "name": "E4",
          "midi": 64,
          "time": 234.51502757812713,
          "velocity": 0.7244094488188977,
          "duration": 5.801004296875135
        },
        {
          "name": "B3",
          "midi": 59,
          "time": 234.51502757812713,
          "velocity": 0.7007874015748031,
          "duration": 5.801004296875135
        }
      ],
      "controlChanges": {
        "1": [
          {
            "number": 1,
            "time": 83.52727796875014,
            "value": 0.5511811023622047
          },
          {
            "number": 1,
            "time": 83.54882968750015,
            "value": 0.1889763779527559
          },
          {
            "number": 1,
            "time": 83.57397335937515,
            "value": 0
          },
          {
            "number": 1,
            "time": 83.74638710937515,
            "value": 0.031496062992125984
          },
          {
            "number": 1,
            "time": 83.76434687500014,
            "value": 0
          },
          {
            "number": 1,
            "time": 83.99782382812515,
            "value": 0.3700787401574803
          },
          {
            "number": 1,
            "time": 84.02296750000015,
            "value": 0.6062992125984252
          },
          {
            "number": 1,
            "time": 84.04451921875015,
            "value": 0.023622047244094488
          },
          {
            "number": 1,
            "time": 84.06247898437515,
            "value": 0
          },
          {
            "number": 1,
            "time": 84.23489273437515,
            "value": 0.08661417322834646
          },
          {
            "number": 1,
            "time": 84.25644445312516,
            "value": 0.2440944881889764
          },
          {
            "number": 1,
            "time": 84.26722031250016,
            "value": 0
          },
          {
            "number": 1,
            "time": 84.45759382812516,
            "value": 0.5118110236220472
          },
          {
            "number": 1,
            "time": 84.47555359375015,
            "value": 0.8267716535433071
          },
          {
            "number": 1,
            "time": 84.49710531250015,
            "value": 0.7401574803149606
          },
          {
            "number": 1,
            "time": 84.51506507812515,
            "value": 0.015748031496062992
          },
          {
            "number": 1,
            "time": 84.54020875000015,
            "value": 0
          },
          {
            "number": 1,
            "time": 84.71262250000015,
            "value": 0.2125984251968504
          },
          {
            "number": 1,
            "time": 84.73417421875016,
            "value": 0.18110236220472442
          },
          {
            "number": 1,
            "time": 84.75572593750016,
            "value": 0
          },
          {
            "number": 1,
            "time": 85.09696148437516,
            "value": 0.015748031496062992
          },
          {
            "number": 1,
            "time": 85.11492125000015,
            "value": 0.14173228346456693
          },
          {
            "number": 1,
            "time": 85.13647296875016,
            "value": 0
          },
          {
            "number": 1,
            "time": 85.43101312500015,
            "value": 0.6929133858267716
          },
          {
            "number": 1,
            "time": 85.45256484375015,
            "value": 0.7165354330708661
          },
          {
            "number": 1,
            "time": 85.47052460937515,
            "value": 0.5984251968503937
          },
          {
            "number": 1,
            "time": 85.49207632812515,
            "value": 0
          },
          {
            "number": 1,
            "time": 85.60701882812515,
            "value": 0.5039370078740157
          },
          {
            "number": 1,
            "time": 85.61779468750015,
            "value": 0.7007874015748031
          },
          {
            "number": 1,
            "time": 85.64293835937515,
            "value": 0.4330708661417323
          },
          {
            "number": 1,
            "time": 85.66089812500014,
            "value": 0
          },
          {
            "number": 1,
            "time": 85.77943257812514,
            "value": 0.36220472440944884
          },
          {
            "number": 1,
            "time": 85.80457625000014,
            "value": 0.8110236220472441
          },
          {
            "number": 1,
            "time": 85.82612796875014,
            "value": 0.8740157480314961
          },
          {
            "number": 1,
            "time": 85.84767968750015,
            "value": 0.8818897637795275
          },
          {
            "number": 1,
            "time": 85.87282335937515,
            "value": 0.8582677165354331
          },
          {
            "number": 1,
            "time": 85.89437507812515,
            "value": 0.84251968503937
          },
          {
            "number": 1,
            "time": 85.91233484375014,
            "value": 0.8188976377952756
          },
          {
            "number": 1,
            "time": 85.93388656250015,
            "value": 0.8661417322834646
          },
          {
            "number": 1,
            "time": 85.95903023437515,
            "value": 0.8818897637795275
          },
          {
            "number": 1,
            "time": 85.97699000000014,
            "value": 0.8976377952755905
          },
          {
            "number": 1,
            "time": 85.99135781250014,
            "value": 0.905511811023622
          },
          {
            "number": 1,
            "time": 86.01650148437514,
            "value": 0.9133858267716536
          },
          {
            "number": 1,
            "time": 86.07756468750014,
            "value": 0.905511811023622
          },
          {
            "number": 1,
            "time": 86.11348421875014,
            "value": 0.9212598425196851
          },
          {
            "number": 1,
            "time": 86.22124281250015,
            "value": 0.9291338582677166
          },
          {
            "number": 1,
            "time": 86.37210484375015,
            "value": 0.937007874015748
          },
          {
            "number": 1,
            "time": 86.56607031250014,
            "value": 0.9448818897637795
          },
          {
            "number": 1,
            "time": 87.32756437500015,
            "value": 0.952755905511811
          },
          {
            "number": 1,
            "time": 87.34193218750015,
            "value": 0.9448818897637795
          },
          {
            "number": 1,
            "time": 87.36707585937515,
            "value": 0.952755905511811
          },
          {
            "number": 1,
            "time": 87.39581148437514,
            "value": 0.9448818897637795
          },
          {
            "number": 1,
            "time": 87.52871375000015,
            "value": 0.952755905511811
          },
          {
            "number": 1,
            "time": 88.29020781250016,
            "value": 0.9448818897637795
          },
          {
            "number": 1,
            "time": 88.38359859375016,
            "value": 0.937007874015748
          },
          {
            "number": 1,
            "time": 88.43029398437515,
            "value": 0.9291338582677166
          },
          {
            "number": 1,
            "time": 88.48058132812515,
            "value": 0.9212598425196851
          },
          {
            "number": 1,
            "time": 88.49854109375015,
            "value": 0.905511811023622
          },
          {
            "number": 1,
            "time": 88.50931695312515,
            "value": 0.6771653543307087
          },
          {
            "number": 1,
            "time": 88.53446062500015,
            "value": 0.5511811023622047
          },
          {
            "number": 1,
            "time": 88.54882843750015,
            "value": 0.29133858267716534
          },
          {
            "number": 1,
            "time": 88.56678820312514,
            "value": 0
          },
          {
            "number": 1,
            "time": 174.56173796875126,
            "value": 0.5511811023622047
          },
          {
            "number": 1,
            "time": 174.58328968750126,
            "value": 0.1889763779527559
          },
          {
            "number": 1,
            "time": 174.60843335937628,
            "value": 0
          },
          {
            "number": 1,
            "time": 174.78084710937628,
            "value": 0.031496062992125984
          },
          {
            "number": 1,
            "time": 174.79880687500128,
            "value": 0
          },
          {
            "number": 1,
            "time": 175.03228382812628,
            "value": 0.3700787401574803
          },
          {
            "number": 1,
            "time": 175.0574275000013,
            "value": 0.6062992125984252
          },
          {
            "number": 1,
            "time": 175.0789792187513,
            "value": 0.023622047244094488
          },
          {
            "number": 1,
            "time": 175.0969389843763,
            "value": 0
          },
          {
            "number": 1,
            "time": 175.2693527343763,
            "value": 0.08661417322834646
          },
          {
            "number": 1,
            "time": 175.2909044531263,
            "value": 0.2440944881889764
          },
          {
            "number": 1,
            "time": 175.3016803125013,
            "value": 0
          },
          {
            "number": 1,
            "time": 175.4920538281263,
            "value": 0.5118110236220472
          },
          {
            "number": 1,
            "time": 175.5100135937513,
            "value": 0.8267716535433071
          },
          {
            "number": 1,
            "time": 175.5315653125013,
            "value": 0.7401574803149606
          },
          {
            "number": 1,
            "time": 175.5495250781263,
            "value": 0.015748031496062992
          },
          {
            "number": 1,
            "time": 175.5746687500013,
            "value": 0
          },
          {
            "number": 1,
            "time": 175.7470825000013,
            "value": 0.2125984251968504
          },
          {
            "number": 1,
            "time": 175.76863421875132,
            "value": 0.18110236220472442
          },
          {
            "number": 1,
            "time": 175.79018593750132,
            "value": 0
          },
          {
            "number": 1,
            "time": 176.13142148437632,
            "value": 0.015748031496062992
          },
          {
            "number": 1,
            "time": 176.1493812500013,
            "value": 0.14173228346456693
          },
          {
            "number": 1,
            "time": 176.17093296875132,
            "value": 0
          },
          {
            "number": 1,
            "time": 176.46547312500132,
            "value": 0.6929133858267716
          },
          {
            "number": 1,
            "time": 176.48702484375133,
            "value": 0.7165354330708661
          },
          {
            "number": 1,
            "time": 176.50498460937632,
            "value": 0.5984251968503937
          },
          {
            "number": 1,
            "time": 176.52653632812633,
            "value": 0
          },
          {
            "number": 1,
            "time": 176.64147882812634,
            "value": 0.5039370078740157
          },
          {
            "number": 1,
            "time": 176.65225468750134,
            "value": 0.7007874015748031
          },
          {
            "number": 1,
            "time": 176.67739835937635,
            "value": 0.4330708661417323
          },
          {
            "number": 1,
            "time": 176.69535812500135,
            "value": 0
          },
          {
            "number": 1,
            "time": 176.81389257812634,
            "value": 0.36220472440944884
          },
          {
            "number": 1,
            "time": 176.83903625000136,
            "value": 0.8110236220472441
          },
          {
            "number": 1,
            "time": 176.86058796875136,
            "value": 0.8740157480314961
          },
          {
            "number": 1,
            "time": 176.88213968750136,
            "value": 0.8818897637795275
          },
          {
            "number": 1,
            "time": 176.90728335937638,
            "value": 0.8582677165354331
          },
          {
            "number": 1,
            "time": 176.92883507812638,
            "value": 0.84251968503937
          },
          {
            "number": 1,
            "time": 176.94679484375138,
            "value": 0.8188976377952756
          },
          {
            "number": 1,
            "time": 176.96834656250138,
            "value": 0.8661417322834646
          },
          {
            "number": 1,
            "time": 176.9934902343764,
            "value": 0.8818897637795275
          },
          {
            "number": 1,
            "time": 177.0114500000014,
            "value": 0.8976377952755905
          },
          {
            "number": 1,
            "time": 177.0258178125014,
            "value": 0.905511811023622
          },
          {
            "number": 1,
            "time": 177.05096148437642,
            "value": 0.9133858267716536
          },
          {
            "number": 1,
            "time": 177.11202468750142,
            "value": 0.905511811023622
          },
          {
            "number": 1,
            "time": 177.1479442187514,
            "value": 0.9212598425196851
          },
          {
            "number": 1,
            "time": 177.2557028125014,
            "value": 0.9291338582677166
          },
          {
            "number": 1,
            "time": 177.4065648437514,
            "value": 0.937007874015748
          },
          {
            "number": 1,
            "time": 177.6005303125014,
            "value": 0.9448818897637795
          },
          {
            "number": 1,
            "time": 178.3620243750014,
            "value": 0.952755905511811
          },
          {
            "number": 1,
            "time": 178.3763921875014,
            "value": 0.9448818897637795
          },
          {
            "number": 1,
            "time": 178.40153585937642,
            "value": 0.952755905511811
          },
          {
            "number": 1,
            "time": 178.43027148437642,
            "value": 0.9448818897637795
          },
          {
            "number": 1,
            "time": 178.56317375000143,
            "value": 0.952755905511811
          },
          {
            "number": 1,
            "time": 179.32466781250142,
            "value": 0.9448818897637795
          },
          {
            "number": 1,
            "time": 179.41805859375143,
            "value": 0.937007874015748
          },
          {
            "number": 1,
            "time": 179.46475398437642,
            "value": 0.9291338582677166
          },
          {
            "number": 1,
            "time": 179.51504132812642,
            "value": 0.9212598425196851
          },
          {
            "number": 1,
            "time": 179.5330010937514,
            "value": 0.905511811023622
          },
          {
            "number": 1,
            "time": 179.5437769531264,
            "value": 0.6771653543307087
          },
          {
            "number": 1,
            "time": 179.56892062500143,
            "value": 0.5511811023622047
          },
          {
            "number": 1,
            "time": 179.58328843750144,
            "value": 0.29133858267716534
          },
          {
            "number": 1,
            "time": 179.60124820312643,
            "value": 0
          },
          {
            "number": 1,
            "time": 235.2513779687521,
            "value": 0.5511811023622047
          },
          {
            "number": 1,
            "time": 235.2729296875021,
            "value": 0.1889763779527559
          },
          {
            "number": 1,
            "time": 235.29807335937713,
            "value": 0
          },
          {
            "number": 1,
            "time": 235.47048710937713,
            "value": 0.031496062992125984
          },
          {
            "number": 1,
            "time": 235.48844687500213,
            "value": 0
          },
          {
            "number": 1,
            "time": 235.72192382812713,
            "value": 0.3700787401574803
          },
          {
            "number": 1,
            "time": 235.74706750000215,
            "value": 0.6062992125984252
          },
          {
            "number": 1,
            "time": 235.76861921875215,
            "value": 0.023622047244094488
          },
          {
            "number": 1,
            "time": 235.78657898437714,
            "value": 0
          },
          {
            "number": 1,
            "time": 235.95899273437715,
            "value": 0.08661417322834646
          },
          {
            "number": 1,
            "time": 235.98054445312715,
            "value": 0.2440944881889764
          },
          {
            "number": 1,
            "time": 235.99132031250215,
            "value": 0
          },
          {
            "number": 1,
            "time": 236.18169382812715,
            "value": 0.5118110236220472
          },
          {
            "number": 1,
            "time": 236.19965359375215,
            "value": 0.8267716535433071
          },
          {
            "number": 1,
            "time": 236.22120531250215,
            "value": 0.7401574803149606
          },
          {
            "number": 1,
            "time": 236.23916507812714,
            "value": 0.015748031496062992
          },
          {
            "number": 1,
            "time": 236.26430875000216,
            "value": 0
          },
          {
            "number": 1,
            "time": 236.43672250000216,
            "value": 0.2125984251968504
          },
          {
            "number": 1,
            "time": 236.45827421875217,
            "value": 0.18110236220472442
          },
          {
            "number": 1,
            "time": 236.47982593750217,
            "value": 0
          },
          {
            "number": 1,
            "time": 236.82106148437717,
            "value": 0.015748031496062992
          },
          {
            "number": 1,
            "time": 236.83902125000216,
            "value": 0.14173228346456693
          },
          {
            "number": 1,
            "time": 236.86057296875217,
            "value": 0
          },
          {
            "number": 1,
            "time": 237.15511312500217,
            "value": 0.6929133858267716
          },
          {
            "number": 1,
            "time": 237.17666484375218,
            "value": 0.7165354330708661
          },
          {
            "number": 1,
            "time": 237.19462460937717,
            "value": 0.5984251968503937
          },
          {
            "number": 1,
            "time": 237.21617632812718,
            "value": 0
          },
          {
            "number": 1,
            "time": 237.3311188281272,
            "value": 0.5039370078740157
          },
          {
            "number": 1,
            "time": 237.3418946875022,
            "value": 0.7007874015748031
          },
          {
            "number": 1,
            "time": 237.3670383593772,
            "value": 0.4330708661417323
          },
          {
            "number": 1,
            "time": 237.3849981250022,
            "value": 0
          },
          {
            "number": 1,
            "time": 237.5035325781272,
            "value": 0.36220472440944884
          },
          {
            "number": 1,
            "time": 237.5286762500022,
            "value": 0.8110236220472441
          },
          {
            "number": 1,
            "time": 237.5502279687522,
            "value": 0.8740157480314961
          },
          {
            "number": 1,
            "time": 237.57177968750221,
            "value": 0.8818897637795275
          },
          {
            "number": 1,
            "time": 237.59692335937723,
            "value": 0.8582677165354331
          },
          {
            "number": 1,
            "time": 237.61847507812723,
            "value": 0.84251968503937
          },
          {
            "number": 1,
            "time": 237.63643484375223,
            "value": 0.8188976377952756
          },
          {
            "number": 1,
            "time": 237.65798656250223,
            "value": 0.8661417322834646
          },
          {
            "number": 1,
            "time": 237.68313023437724,
            "value": 0.8818897637795275
          },
          {
            "number": 1,
            "time": 237.70109000000224,
            "value": 0.8976377952755905
          },
          {
            "number": 1,
            "time": 237.71545781250225,
            "value": 0.905511811023622
          },
          {
            "number": 1,
            "time": 237.74060148437727,
            "value": 0.9133858267716536
          },
          {
            "number": 1,
            "time": 237.80166468750227,
            "value": 0.905511811023622
          },
          {
            "number": 1,
            "time": 237.83758421875226,
            "value": 0.9212598425196851
          },
          {
            "number": 1,
            "time": 237.94534281250225,
            "value": 0.9291338582677166
          },
          {
            "number": 1,
            "time": 238.09620484375225,
            "value": 0.937007874015748
          },
          {
            "number": 1,
            "time": 238.29017031250226,
            "value": 0.9448818897637795
          },
          {
            "number": 1,
            "time": 239.05166437500225,
            "value": 0.952755905511811
          },
          {
            "number": 1,
            "time": 239.06603218750226,
            "value": 0.9448818897637795
          },
          {
            "number": 1,
            "time": 239.09117585937727,
            "value": 0.952755905511811
          },
          {
            "number": 1,
            "time": 239.11991148437727,
            "value": 0.9448818897637795
          },
          {
            "number": 1,
            "time": 239.25281375000228,
            "value": 0.952755905511811
          },
          {
            "number": 1,
            "time": 240.01430781250227,
            "value": 0.9448818897637795
          },
          {
            "number": 1,
            "time": 240.10769859375227,
            "value": 0.937007874015748
          },
          {
            "number": 1,
            "time": 240.15439398437726,
            "value": 0.9291338582677166
          },
          {
            "number": 1,
            "time": 240.20468132812726,
            "value": 0.9212598425196851
          },
          {
            "number": 1,
            "time": 240.22264109375226,
            "value": 0.905511811023622
          },
          {
            "number": 1,
            "time": 240.23341695312726,
            "value": 0.6771653543307087
          },
          {
            "number": 1,
            "time": 240.25856062500227,
            "value": 0.5511811023622047
          },
          {
            "number": 1,
            "time": 240.2729284375023,
            "value": 0.29133858267716534
          },
          {
            "number": 1,
            "time": 240.29088820312728,
            "value": 0
          },
          {
            "number": 1,
            "time": 243.2758012500023,
            "value": 0
          }
        ],
        "7": [
          {
            "number": 7,
            "time": 0,
            "value": 0.7874015748031497
          },
          {
            "number": 7,
            "time": 242.9309737500023,
            "value": 0.7874015748031497
          }
        ],
        "10": [
          {
            "number": 10,
            "time": 0,
            "value": 0.47244094488188976
          },
          {
            "number": 10,
            "time": 243.6206287500023,
            "value": 0.5039370078740157
          }
        ],
        "11": [
          {
            "number": 11,
            "time": 243.96545625000232,
            "value": 1
          }
        ],
        "64": [
          {
            "number": 64,
            "time": 244.31028375000233,
            "value": 0
          }
        ],
        "91": [
          {
            "number": 91,
            "time": 1.670258203125,
            "value": 0.8661417322834646
          },
          {
            "number": 91,
            "time": 134.08401820312517,
            "value": 0.8661417322834646
          },
          {
            "number": 91,
            "time": 205.8081382031264,
            "value": 0.8661417322834646
          },
          {
            "number": 91,
            "time": 244.82752500000234,
            "value": 0.31496062992125984
          }
        ],
        "93": [
          {
            "number": 93,
            "time": 245.34476625000235,
            "value": 0
          }
        ],
        "121": [
          {
            "number": 121,
            "time": 242.7585600000023,
            "value": 0
          }
        ],
        "123": [
          {
            "number": 123,
            "time": 246.72407625000235,
            "value": 0
          }
        ]
      },
      "instrument": ""
    },
    {
      "name": "Guitar 2            ",
      "notes": [
        {
          "name": "E2",
          "midi": 40,
          "time": 2.9346257031250005,
          "velocity": 0.41732283464566927,
          "duration": 0.12212640625000004
        },
        {
          "name": "E2",
          "midi": 40,
          "time": 3.1070394531250005,
          "velocity": 0.44881889763779526,
          "duration": 0.11494250000000017
        },
        {
          "name": "E2",
          "midi": 40,
          "time": 3.2794532031250005,
          "velocity": 0.49606299212598426,
          "duration": 0.08261492187499986
        },
        {
          "name": "E2",
          "midi": 40,
          "time": 3.6242807031250006,
          "velocity": 0.3858267716535433,
          "duration": 0.12571835937499998
        },
        {
          "name": "E2",
          "midi": 40,
          "time": 3.7966944531250006,
          "velocity": 0.4330708661417323,
          "duration": 0.12212640625000004
        },
        {
          "name": "E2",
          "midi": 40,
          "time": 3.9691082031250007,
          "velocity": 0.4881889763779528,
          "duration": 0.07543101562499999
        },
        {
          "name": "E2",
          "midi": 40,
          "time": 4.3031598437500005,
          "velocity": 0.3858267716535433,
          "duration": 0.12571835937499998
        },
        {
          "name": "E2",
          "midi": 40,
          "time": 4.486349453125,
          "velocity": 0.4330708661417323,
          "duration": 0.11494249999999973
        },
        {
          "name": "E2",
          "midi": 40,
          "time": 4.658763203125,
          "velocity": 0.4645669291338583,
          "duration": 0.06465515624999973
        },
        {
          "name": "E2",
          "midi": 40,
          "time": 5.003590703125,
          "velocity": 0.3779527559055118,
          "duration": 0.11135054687500023
        },
        {
          "name": "E2",
          "midi": 40,
          "time": 5.1760044531250005,
          "velocity": 0.4251968503937008,
          "duration": 0.11494249999999973
        },
        {
          "name": "E2",
          "midi": 40,
          "time": 5.348418203125,
          "velocity": 0.4566929133858268,
          "duration": 0.06824710937500011
        },
        {
          "name": "E2",
          "midi": 40,
          "time": 5.68246984375,
          "velocity": 0.3543307086614173,
          "duration": 0.1221264062499996
        },
        {
          "name": "E2",
          "midi": 40,
          "time": 5.865659453125,
          "velocity": 0.4094488188976378,
          "duration": 0.09339078125000011
        },
        {
          "name": "E2",
          "midi": 40,
          "time": 6.045257109375,
          "velocity": 0.4881889763779528,
          "duration": 0.05028734374999999
        },
        {
          "name": "E2",
          "midi": 40,
          "time": 6.37212484375,
          "velocity": 0.3858267716535433,
          "duration": 0.10775859374999985
        },
        {
          "name": "E2",
          "midi": 40,
          "time": 6.555314453125,
          "velocity": 0.4409448818897638,
          "duration": 0.06465515624999973
        },
        {
          "name": "E2",
          "midi": 40,
          "time": 8.451865703125,
          "velocity": 0.41732283464566927,
          "duration": 0.05747125000000075
        },
        {
          "name": "E2",
          "midi": 40,
          "time": 8.624279453125,
          "velocity": 0.44881889763779526,
          "duration": 0.05747125000000075
        },
        {
          "name": "E2",
          "midi": 40,
          "time": 8.796693203125,
          "velocity": 0.49606299212598426,
          "duration": 0.08261492187500075
        },
        {
          "name": "E2",
          "midi": 40,
          "time": 9.141520703125002,
          "velocity": 0.3858267716535433,
          "duration": 0.06465515624999973
        },
        {
          "name": "E2",
          "midi": 40,
          "time": 9.313934453125002,
          "velocity": 0.4330708661417323,
          "duration": 0.05747125000000075
        },
        {
          "name": "E2",
          "midi": 40,
          "time": 9.486348203125003,
          "velocity": 0.4881889763779528,
          "duration": 0.07543101562499999
        },
        {
          "name": "E2",
          "midi": 40,
          "time": 9.820399843750003,
          "velocity": 0.3858267716535433,
          "duration": 0.07543101562499999
        },
        {
          "name": "E2",
          "midi": 40,
          "time": 10.003589453125004,
          "velocity": 0.4330708661417323,
          "duration": 0.05747125000000075
        },
        {
          "name": "E2",
          "midi": 40,
          "time": 10.176003203125005,
          "velocity": 0.4645669291338583,
          "duration": 0.06465515624999973
        },
        {
          "name": "E2",
          "midi": 40,
          "time": 10.520830703125004,
          "velocity": 0.3779527559055118,
          "duration": 0.06465515624999973
        },
        {
          "name": "E2",
          "midi": 40,
          "time": 10.693244453125004,
          "velocity": 0.4251968503937008,
          "duration": 0.06465515624999973
        },
        {
          "name": "E2",
          "midi": 40,
          "time": 10.865658203125005,
          "velocity": 0.4566929133858268,
          "duration": 0.06824710937499923
        },
        {
          "name": "E2",
          "midi": 40,
          "time": 11.199709843750004,
          "velocity": 0.3543307086614173,
          "duration": 0.06465515624999973
        },
        {
          "name": "E2",
          "midi": 40,
          "time": 11.382899453125003,
          "velocity": 0.4094488188976378,
          "duration": 0.05387929687499948
        },
        {
          "name": "E2",
          "midi": 40,
          "time": 11.562497109375002,
          "velocity": 0.4881889763779528,
          "duration": 0.05028734374999999
        },
        {
          "name": "E2",
          "midi": 40,
          "time": 11.889364843750002,
          "velocity": 0.3858267716535433,
          "duration": 0.07543101562499999
        },
        {
          "name": "E2",
          "midi": 40,
          "time": 12.072554453125003,
          "velocity": 0.4409448818897638,
          "duration": 0.06465515624999973
        },
        {
          "name": "E2",
          "midi": 40,
          "time": 13.958329843750002,
          "velocity": 0.3543307086614173,
          "duration": 0.06465515624999973
        },
        {
          "name": "E2",
          "midi": 40,
          "time": 14.141519453125001,
          "velocity": 0.4094488188976378,
          "duration": 0.05387929687499948
        },
        {
          "name": "E2",
          "midi": 40,
          "time": 14.321117109375,
          "velocity": 0.4881889763779528,
          "duration": 0.05028734374999999
        },
        {
          "name": "E2",
          "midi": 40,
          "time": 14.64798484375,
          "velocity": 0.3858267716535433,
          "duration": 0.07543101562499999
        },
        {
          "name": "E2",
          "midi": 40,
          "time": 14.831174453125001,
          "velocity": 0.4409448818897638,
          "duration": 0.06465515624999973
        },
        {
          "name": "E2",
          "midi": 40,
          "time": 16.71694984375,
          "velocity": 0.3543307086614173,
          "duration": 0.06465515625000151
        },
        {
          "name": "E2",
          "midi": 40,
          "time": 16.900139453125004,
          "velocity": 0.4094488188976378,
          "duration": 0.05387929687499948
        },
        {
          "name": "E2",
          "midi": 40,
          "time": 17.079737109375003,
          "velocity": 0.4881889763779528,
          "duration": 0.05028734374999999
        },
        {
          "name": "E2",
          "midi": 40,
          "time": 17.406604843750003,
          "velocity": 0.3858267716535433,
          "duration": 0.07543101562499999
        },
        {
          "name": "E2",
          "midi": 40,
          "time": 17.589794453125002,
          "velocity": 0.4409448818897638,
          "duration": 0.06465515625000151
        },
        {
          "name": "E2",
          "midi": 40,
          "time": 19.475569843750005,
          "velocity": 0.3543307086614173,
          "duration": 0.06465515625000151
        },
        {
          "name": "E2",
          "midi": 40,
          "time": 19.658759453125008,
          "velocity": 0.4094488188976378,
          "duration": 0.05387929687499948
        },
        {
          "name": "E2",
          "midi": 40,
          "time": 19.838357109375007,
          "velocity": 0.4881889763779528,
          "duration": 0.05028734374999999
        },
        {
          "name": "E2",
          "midi": 40,
          "time": 20.165224843750007,
          "velocity": 0.3858267716535433,
          "duration": 0.07543101562499999
        },
        {
          "name": "E2",
          "midi": 40,
          "time": 20.348414453125006,
          "velocity": 0.4409448818897638,
          "duration": 0.06465515625000151
        },
        {
          "name": "E2",
          "midi": 40,
          "time": 22.23418984375001,
          "velocity": 0.3543307086614173,
          "duration": 0.06465515625000151
        },
        {
          "name": "E2",
          "midi": 40,
          "time": 22.41737945312501,
          "velocity": 0.4094488188976378,
          "duration": 0.05387929687499948
        },
        {
          "name": "E2",
          "midi": 40,
          "time": 22.59697710937501,
          "velocity": 0.4881889763779528,
          "duration": 0.05028734374999999
        },
        {
          "name": "E2",
          "midi": 40,
          "time": 22.92384484375001,
          "velocity": 0.3858267716535433,
          "duration": 0.07543101562499999
        },
        {
          "name": "E2",
          "midi": 40,
          "time": 23.10703445312501,
          "velocity": 0.4409448818897638,
          "duration": 0.06465515625000151
        },
        {
          "name": "E2",
          "midi": 40,
          "time": 24.992809843750013,
          "velocity": 0.3543307086614173,
          "duration": 0.06465515625000151
        },
        {
          "name": "E2",
          "midi": 40,
          "time": 25.175999453125016,
          "velocity": 0.4094488188976378,
          "duration": 0.05387929687499948
        },
        {
          "name": "E2",
          "midi": 40,
          "time": 25.355597109375015,
          "velocity": 0.4881889763779528,
          "duration": 0.05028734374999999
        },
        {
          "name": "E2",
          "midi": 40,
          "time": 25.682464843750015,
          "velocity": 0.3858267716535433,
          "duration": 0.07543101562499999
        },
        {
          "name": "E2",
          "midi": 40,
          "time": 25.865654453125014,
          "velocity": 0.4409448818897638,
          "duration": 0.06465515625000151
        },
        {
          "name": "E2",
          "midi": 40,
          "time": 27.751429843750017,
          "velocity": 0.3543307086614173,
          "duration": 0.06465515625000151
        },
        {
          "name": "E2",
          "midi": 40,
          "time": 27.93461945312502,
          "velocity": 0.4094488188976378,
          "duration": 0.05387929687499948
        },
        {
          "name": "E2",
          "midi": 40,
          "time": 28.11421710937502,
          "velocity": 0.4881889763779528,
          "duration": 0.05028734374999999
        },
        {
          "name": "E2",
          "midi": 40,
          "time": 28.44108484375002,
          "velocity": 0.3858267716535433,
          "duration": 0.07543101562499999
        },
        {
          "name": "E2",
          "midi": 40,
          "time": 28.624274453125018,
          "velocity": 0.4409448818897638,
          "duration": 0.06465515625000151
        },
        {
          "name": "E2",
          "midi": 40,
          "time": 30.51004984375002,
          "velocity": 0.3543307086614173,
          "duration": 0.06465515625000151
        },
        {
          "name": "E2",
          "midi": 40,
          "time": 30.693239453125024,
          "velocity": 0.4094488188976378,
          "duration": 0.05387929687499948
        },
        {
          "name": "E2",
          "midi": 40,
          "time": 30.872837109375023,
          "velocity": 0.4881889763779528,
          "duration": 0.05028734374999999
        },
        {
          "name": "E2",
          "midi": 40,
          "time": 31.199704843750023,
          "velocity": 0.3858267716535433,
          "duration": 0.07543101562499999
        },
        {
          "name": "E2",
          "midi": 40,
          "time": 31.382894453125022,
          "velocity": 0.4409448818897638,
          "duration": 0.06465515625000151
        },
        {
          "name": "E2",
          "midi": 40,
          "time": 33.268669843750025,
          "velocity": 0.3543307086614173,
          "duration": 0.06465515624999796
        },
        {
          "name": "E2",
          "midi": 40,
          "time": 33.451859453125024,
          "velocity": 0.4094488188976378,
          "duration": 0.053879296875003035
        },
        {
          "name": "E2",
          "midi": 40,
          "time": 33.63145710937503,
          "velocity": 0.4881889763779528,
          "duration": 0.05028734374999999
        },
        {
          "name": "E2",
          "midi": 40,
          "time": 33.95832484375003,
          "velocity": 0.3858267716535433,
          "duration": 0.07543101562499999
        },
        {
          "name": "E2",
          "midi": 40,
          "time": 34.141514453125026,
          "velocity": 0.4409448818897638,
          "duration": 0.06465515624999796
        },
        {
          "name": "E2",
          "midi": 40,
          "time": 36.027289843750026,
          "velocity": 0.3543307086614173,
          "duration": 0.06465515624999796
        },
        {
          "name": "E2",
          "midi": 40,
          "time": 36.210479453125025,
          "velocity": 0.4094488188976378,
          "duration": 0.053879296875003035
        },
        {
          "name": "E2",
          "midi": 40,
          "time": 36.39007710937503,
          "velocity": 0.4881889763779528,
          "duration": 0.05028734374999999
        },
        {
          "name": "E2",
          "midi": 40,
          "time": 36.71694484375003,
          "velocity": 0.3858267716535433,
          "duration": 0.07543101562499999
        },
        {
          "name": "E2",
          "midi": 40,
          "time": 36.90013445312503,
          "velocity": 0.4409448818897638,
          "duration": 0.06465515624999796
        },
        {
          "name": "E2",
          "midi": 40,
          "time": 38.78590984375003,
          "velocity": 0.3543307086614173,
          "duration": 0.06465515624999796
        },
        {
          "name": "E2",
          "midi": 40,
          "time": 38.969099453125025,
          "velocity": 0.4094488188976378,
          "duration": 0.053879296875003035
        },
        {
          "name": "E2",
          "midi": 40,
          "time": 39.14869710937503,
          "velocity": 0.4881889763779528,
          "duration": 0.05028734374999999
        },
        {
          "name": "E2",
          "midi": 40,
          "time": 39.47556484375003,
          "velocity": 0.3858267716535433,
          "duration": 0.07543101562499999
        },
        {
          "name": "E2",
          "midi": 40,
          "time": 39.65875445312503,
          "velocity": 0.4409448818897638,
          "duration": 0.06465515624999796
        },
        {
          "name": "E2",
          "midi": 40,
          "time": 41.54452984375003,
          "velocity": 0.3543307086614173,
          "duration": 0.06465515624999796
        },
        {
          "name": "E2",
          "midi": 40,
          "time": 41.727719453125026,
          "velocity": 0.4094488188976378,
          "duration": 0.053879296875003035
        },
        {
          "name": "E2",
          "midi": 40,
          "time": 41.90731710937503,
          "velocity": 0.4881889763779528,
          "duration": 0.05028734374999999
        },
        {
          "name": "E2",
          "midi": 40,
          "time": 42.23418484375003,
          "velocity": 0.3858267716535433,
          "duration": 0.07543101562499999
        },
        {
          "name": "E2",
          "midi": 40,
          "time": 42.41737445312503,
          "velocity": 0.4409448818897638,
          "duration": 0.06465515624999796
        },
        {
          "name": "E2",
          "midi": 40,
          "time": 44.30314984375003,
          "velocity": 0.3543307086614173,
          "duration": 0.06465515624999796
        },
        {
          "name": "E2",
          "midi": 40,
          "time": 44.48633945312503,
          "velocity": 0.4094488188976378,
          "duration": 0.053879296875003035
        },
        {
          "name": "E2",
          "midi": 40,
          "time": 44.66593710937503,
          "velocity": 0.4881889763779528,
          "duration": 0.05028734374999999
        },
        {
          "name": "E2",
          "midi": 40,
          "time": 44.99280484375003,
          "velocity": 0.3858267716535433,
          "duration": 0.07543101562499999
        },
        {
          "name": "E2",
          "midi": 40,
          "time": 45.17599445312503,
          "velocity": 0.4409448818897638,
          "duration": 0.06465515624999796
        },
        {
          "name": "E2",
          "midi": 40,
          "time": 47.06176984375003,
          "velocity": 0.3543307086614173,
          "duration": 0.06465515624999796
        },
        {
          "name": "E2",
          "midi": 40,
          "time": 47.24495945312503,
          "velocity": 0.4094488188976378,
          "duration": 0.053879296875003035
        },
        {
          "name": "E2",
          "midi": 40,
          "time": 47.42455710937503,
          "velocity": 0.4881889763779528,
          "duration": 0.05028734374999999
        },
        {
          "name": "E2",
          "midi": 40,
          "time": 47.75142484375003,
          "velocity": 0.3858267716535433,
          "duration": 0.07543101562499999
        },
        {
          "name": "E2",
          "midi": 40,
          "time": 47.93461445312503,
          "velocity": 0.4409448818897638,
          "duration": 0.06465515624999796
        },
        {
          "name": "E2",
          "midi": 40,
          "time": 49.82038984375003,
          "velocity": 0.3543307086614173,
          "duration": 0.06465515624999796
        },
        {
          "name": "E2",
          "midi": 40,
          "time": 50.00357945312503,
          "velocity": 0.4094488188976378,
          "duration": 0.053879296875003035
        },
        {
          "name": "E2",
          "midi": 40,
          "time": 50.18317710937503,
          "velocity": 0.4881889763779528,
          "duration": 0.05028734374999999
        },
        {
          "name": "E2",
          "midi": 40,
          "time": 50.51004484375003,
          "velocity": 0.3858267716535433,
          "duration": 0.07543101562499999
        },
        {
          "name": "E2",
          "midi": 40,
          "time": 50.69323445312503,
          "velocity": 0.4409448818897638,
          "duration": 0.06465515624999796
        },
        {
          "name": "E2",
          "midi": 40,
          "time": 52.57900984375003,
          "velocity": 0.3543307086614173,
          "duration": 0.06465515624999796
        },
        {
          "name": "E2",
          "midi": 40,
          "time": 52.76219945312503,
          "velocity": 0.4094488188976378,
          "duration": 0.053879296875003035
        },
        {
          "name": "E2",
          "midi": 40,
          "time": 52.94179710937503,
          "velocity": 0.4881889763779528,
          "duration": 0.05028734374999999
        },
        {
          "name": "E2",
          "midi": 40,
          "time": 53.26866484375003,
          "velocity": 0.3858267716535433,
          "duration": 0.07543101562499999
        },
        {
          "name": "E2",
          "midi": 40,
          "time": 53.45185445312503,
          "velocity": 0.4409448818897638,
          "duration": 0.06465515624999796
        },
        {
          "name": "E2",
          "midi": 40,
          "time": 55.33762984375003,
          "velocity": 0.3543307086614173,
          "duration": 0.06465515624999796
        },
        {
          "name": "E2",
          "midi": 40,
          "time": 55.52081945312503,
          "velocity": 0.4094488188976378,
          "duration": 0.053879296875003035
        },
        {
          "name": "E2",
          "midi": 40,
          "time": 55.70041710937503,
          "velocity": 0.4881889763779528,
          "duration": 0.05028734374999999
        },
        {
          "name": "E2",
          "midi": 40,
          "time": 56.02728484375003,
          "velocity": 0.3858267716535433,
          "duration": 0.07543101562499999
        },
        {
          "name": "E2",
          "midi": 40,
          "time": 56.21047445312503,
          "velocity": 0.4409448818897638,
          "duration": 0.06465515624999796
        },
        {
          "name": "E2",
          "midi": 40,
          "time": 58.09624984375003,
          "velocity": 0.3543307086614173,
          "duration": 0.06465515624999796
        },
        {
          "name": "E2",
          "midi": 40,
          "time": 58.27943945312503,
          "velocity": 0.4094488188976378,
          "duration": 0.053879296875003035
        },
        {
          "name": "E2",
          "midi": 40,
          "time": 58.45903710937503,
          "velocity": 0.4881889763779528,
          "duration": 0.05028734374999999
        },
        {
          "name": "E2",
          "midi": 40,
          "time": 58.78590484375003,
          "velocity": 0.3858267716535433,
          "duration": 0.07543101562499999
        },
        {
          "name": "E2",
          "midi": 40,
          "time": 58.96909445312503,
          "velocity": 0.4409448818897638,
          "duration": 0.06465515624999796
        },
        {
          "name": "E2",
          "midi": 40,
          "time": 60.85486984375003,
          "velocity": 0.3543307086614173,
          "duration": 0.06465515624999796
        },
        {
          "name": "E2",
          "midi": 40,
          "time": 61.03805945312503,
          "velocity": 0.4094488188976378,
          "duration": 0.053879296875003035
        },
        {
          "name": "E2",
          "midi": 40,
          "time": 61.21765710937503,
          "velocity": 0.4881889763779528,
          "duration": 0.05028734374999999
        },
        {
          "name": "E2",
          "midi": 40,
          "time": 61.54452484375003,
          "velocity": 0.3858267716535433,
          "duration": 0.07543101562499999
        },
        {
          "name": "E2",
          "midi": 40,
          "time": 61.72771445312503,
          "velocity": 0.4409448818897638,
          "duration": 0.06465515624999796
        },
        {
          "name": "E2",
          "midi": 40,
          "time": 63.61348984375003,
          "velocity": 0.3543307086614173,
          "duration": 0.06465515624999796
        },
        {
          "name": "E2",
          "midi": 40,
          "time": 63.79667945312503,
          "velocity": 0.4094488188976378,
          "duration": 0.053879296875003035
        },
        {
          "name": "E2",
          "midi": 40,
          "time": 63.97627710937503,
          "velocity": 0.4881889763779528,
          "duration": 0.05028734374999999
        },
        {
          "name": "E2",
          "midi": 40,
          "time": 64.30314484375003,
          "velocity": 0.3858267716535433,
          "duration": 0.07543101562499999
        },
        {
          "name": "E2",
          "midi": 40,
          "time": 64.48633445312504,
          "velocity": 0.4409448818897638,
          "duration": 0.06465515624999796
        },
        {
          "name": "E2",
          "midi": 40,
          "time": 66.37210984375004,
          "velocity": 0.3543307086614173,
          "duration": 0.06465515624999796
        },
        {
          "name": "E2",
          "midi": 40,
          "time": 66.55529945312503,
          "velocity": 0.4094488188976378,
          "duration": 0.05387929687499593
        },
        {
          "name": "E2",
          "midi": 40,
          "time": 66.73489710937503,
          "velocity": 0.4881889763779528,
          "duration": 0.05028734374999999
        },
        {
          "name": "E2",
          "midi": 40,
          "time": 67.06176484375003,
          "velocity": 0.3858267716535433,
          "duration": 0.07543101562499999
        },
        {
          "name": "E2",
          "midi": 40,
          "time": 67.24495445312503,
          "velocity": 0.4409448818897638,
          "duration": 0.06465515624999796
        },
        {
          "name": "E2",
          "midi": 40,
          "time": 69.13072984375003,
          "velocity": 0.3543307086614173,
          "duration": 0.06465515624999796
        },
        {
          "name": "E2",
          "midi": 40,
          "time": 69.31391945312502,
          "velocity": 0.4094488188976378,
          "duration": 0.05387929687499593
        },
        {
          "name": "E2",
          "midi": 40,
          "time": 69.49351710937502,
          "velocity": 0.4881889763779528,
          "duration": 0.05028734374999999
        },
        {
          "name": "E2",
          "midi": 40,
          "time": 69.82038484375002,
          "velocity": 0.3858267716535433,
          "duration": 0.07543101562499999
        },
        {
          "name": "E2",
          "midi": 40,
          "time": 70.00357445312503,
          "velocity": 0.4409448818897638,
          "duration": 0.06465515624999796
        },
        {
          "name": "E2",
          "midi": 40,
          "time": 71.88934984375003,
          "velocity": 0.3543307086614173,
          "duration": 0.06465515624999796
        },
        {
          "name": "E2",
          "midi": 40,
          "time": 72.07253945312502,
          "velocity": 0.4094488188976378,
          "duration": 0.05387929687499593
        },
        {
          "name": "E2",
          "midi": 40,
          "time": 72.25213710937501,
          "velocity": 0.4881889763779528,
          "duration": 0.05028734374999999
        },
        {
          "name": "E2",
          "midi": 40,
          "time": 72.57900484375001,
          "velocity": 0.3858267716535433,
          "duration": 0.07543101562499999
        },
        {
          "name": "E2",
          "midi": 40,
          "time": 72.76219445312502,
          "velocity": 0.4409448818897638,
          "duration": 0.06465515624999796
        },
        {
          "name": "E2",
          "midi": 40,
          "time": 74.64796984375002,
          "velocity": 0.3543307086614173,
          "duration": 0.06465515624999796
        },
        {
          "name": "E2",
          "midi": 40,
          "time": 74.83115945312501,
          "velocity": 0.4094488188976378,
          "duration": 0.05387929687499593
        },
        {
          "name": "E2",
          "midi": 40,
          "time": 75.010757109375,
          "velocity": 0.4881889763779528,
          "duration": 0.05028734374999999
        },
        {
          "name": "E2",
          "midi": 40,
          "time": 75.33762484375,
          "velocity": 0.3858267716535433,
          "duration": 0.07543101562499999
        },
        {
          "name": "E2",
          "midi": 40,
          "time": 75.52081445312501,
          "velocity": 0.4409448818897638,
          "duration": 0.06465515624999796
        },
        {
          "name": "E2",
          "midi": 40,
          "time": 77.40658984375001,
          "velocity": 0.3543307086614173,
          "duration": 0.06465515624999796
        },
        {
          "name": "E2",
          "midi": 40,
          "time": 77.589779453125,
          "velocity": 0.4094488188976378,
          "duration": 0.05387929687499593
        },
        {
          "name": "E2",
          "midi": 40,
          "time": 77.769377109375,
          "velocity": 0.4881889763779528,
          "duration": 0.05028734374999999
        },
        {
          "name": "E2",
          "midi": 40,
          "time": 78.09624484375,
          "velocity": 0.3858267716535433,
          "duration": 0.07543101562499999
        },
        {
          "name": "E2",
          "midi": 40,
          "time": 78.279434453125,
          "velocity": 0.4409448818897638,
          "duration": 0.06465515624999796
        },
        {
          "name": "E2",
          "midi": 40,
          "time": 80.16520984375,
          "velocity": 0.3543307086614173,
          "duration": 0.06465515624999796
        },
        {
          "name": "E2",
          "midi": 40,
          "time": 80.348399453125,
          "velocity": 0.4094488188976378,
          "duration": 0.05387929687499593
        },
        {
          "name": "E2",
          "midi": 40,
          "time": 80.527997109375,
          "velocity": 0.4881889763779528,
          "duration": 0.05028734374999999
        },
        {
          "name": "E2",
          "midi": 40,
          "time": 80.85486484375,
          "velocity": 0.3858267716535433,
          "duration": 0.07543101562499999
        },
        {
          "name": "E2",
          "midi": 40,
          "time": 81.038054453125,
          "velocity": 0.4409448818897638,
          "duration": 0.06465515624999796
        },
        {
          "name": "E2",
          "midi": 40,
          "time": 135.33760984375,
          "velocity": 0.3543307086614173,
          "duration": 0.06465515625001217
        },
        {
          "name": "E2",
          "midi": 40,
          "time": 135.520799453125,
          "velocity": 0.4094488188976378,
          "duration": 0.05387929687501014
        },
        {
          "name": "E2",
          "midi": 40,
          "time": 135.70039710937502,
          "velocity": 0.4881889763779528,
          "duration": 0.05028734374999999
        },
        {
          "name": "E2",
          "midi": 40,
          "time": 136.02726484375003,
          "velocity": 0.3858267716535433,
          "duration": 0.0754310156250142
        },
        {
          "name": "E2",
          "midi": 40,
          "time": 136.21045445312504,
          "velocity": 0.4409448818897638,
          "duration": 0.06465515625001217
        },
        {
          "name": "E2",
          "midi": 40,
          "time": 138.09622984375005,
          "velocity": 0.3543307086614173,
          "duration": 0.06465515625001217
        },
        {
          "name": "E2",
          "midi": 40,
          "time": 138.27941945312506,
          "velocity": 0.4094488188976378,
          "duration": 0.05387929687501014
        },
        {
          "name": "E2",
          "midi": 40,
          "time": 138.45901710937508,
          "velocity": 0.4881889763779528,
          "duration": 0.05028734374999999
        },
        {
          "name": "E2",
          "midi": 40,
          "time": 138.7858848437501,
          "velocity": 0.3858267716535433,
          "duration": 0.0754310156250142
        },
        {
          "name": "E2",
          "midi": 40,
          "time": 138.9690744531251,
          "velocity": 0.4409448818897638,
          "duration": 0.06465515625001217
        },
        {
          "name": "E2",
          "midi": 40,
          "time": 140.85484984375012,
          "velocity": 0.3543307086614173,
          "duration": 0.06465515625001217
        },
        {
          "name": "E2",
          "midi": 40,
          "time": 141.03803945312512,
          "velocity": 0.4094488188976378,
          "duration": 0.05387929687501014
        },
        {
          "name": "E2",
          "midi": 40,
          "time": 141.21763710937515,
          "velocity": 0.4881889763779528,
          "duration": 0.05028734374999999
        },
        {
          "name": "E2",
          "midi": 40,
          "time": 141.54450484375016,
          "velocity": 0.3858267716535433,
          "duration": 0.0754310156250142
        },
        {
          "name": "E2",
          "midi": 40,
          "time": 141.72769445312517,
          "velocity": 0.4409448818897638,
          "duration": 0.06465515625001217
        },
        {
          "name": "E2",
          "midi": 40,
          "time": 143.61346984375018,
          "velocity": 0.3543307086614173,
          "duration": 0.06465515625001217
        },
        {
          "name": "E2",
          "midi": 40,
          "time": 143.7966594531252,
          "velocity": 0.4094488188976378,
          "duration": 0.05387929687501014
        },
        {
          "name": "E2",
          "midi": 40,
          "time": 143.9762571093752,
          "velocity": 0.4881889763779528,
          "duration": 0.05028734374999999
        },
        {
          "name": "E2",
          "midi": 40,
          "time": 144.30312484375023,
          "velocity": 0.3858267716535433,
          "duration": 0.0754310156250142
        },
        {
          "name": "E2",
          "midi": 40,
          "time": 144.48631445312523,
          "velocity": 0.4409448818897638,
          "duration": 0.06465515625001217
        },
        {
          "name": "E2",
          "midi": 40,
          "time": 146.37208984375025,
          "velocity": 0.3543307086614173,
          "duration": 0.06465515625001217
        },
        {
          "name": "E2",
          "midi": 40,
          "time": 146.55527945312525,
          "velocity": 0.4094488188976378,
          "duration": 0.05387929687501014
        },
        {
          "name": "E2",
          "midi": 40,
          "time": 146.73487710937528,
          "velocity": 0.4881889763779528,
          "duration": 0.05028734374999999
        },
        {
          "name": "E2",
          "midi": 40,
          "time": 147.0617448437503,
          "velocity": 0.3858267716535433,
          "duration": 0.0754310156250142
        },
        {
          "name": "E2",
          "midi": 40,
          "time": 147.2449344531253,
          "velocity": 0.4409448818897638,
          "duration": 0.06465515625001217
        },
        {
          "name": "E2",
          "midi": 40,
          "time": 149.1307098437503,
          "velocity": 0.3543307086614173,
          "duration": 0.06465515625001217
        },
        {
          "name": "E2",
          "midi": 40,
          "time": 149.31389945312532,
          "velocity": 0.4094488188976378,
          "duration": 0.05387929687501014
        },
        {
          "name": "E2",
          "midi": 40,
          "time": 149.49349710937534,
          "velocity": 0.4881889763779528,
          "duration": 0.05028734374999999
        },
        {
          "name": "E2",
          "midi": 40,
          "time": 149.82036484375035,
          "velocity": 0.3858267716535433,
          "duration": 0.0754310156250142
        },
        {
          "name": "E2",
          "midi": 40,
          "time": 150.00355445312536,
          "velocity": 0.4409448818897638,
          "duration": 0.06465515625001217
        },
        {
          "name": "E2",
          "midi": 40,
          "time": 151.88932984375037,
          "velocity": 0.3543307086614173,
          "duration": 0.06465515625001217
        },
        {
          "name": "E2",
          "midi": 40,
          "time": 152.07251945312538,
          "velocity": 0.4094488188976378,
          "duration": 0.05387929687501014
        },
        {
          "name": "E2",
          "midi": 40,
          "time": 152.2521171093754,
          "velocity": 0.4881889763779528,
          "duration": 0.05028734374999999
        },
        {
          "name": "E2",
          "midi": 40,
          "time": 152.57898484375042,
          "velocity": 0.3858267716535433,
          "duration": 0.0754310156250142
        },
        {
          "name": "E2",
          "midi": 40,
          "time": 152.76217445312543,
          "velocity": 0.4409448818897638,
          "duration": 0.06465515625001217
        },
        {
          "name": "E2",
          "midi": 40,
          "time": 154.64794984375044,
          "velocity": 0.3543307086614173,
          "duration": 0.06465515625001217
        },
        {
          "name": "E2",
          "midi": 40,
          "time": 154.83113945312545,
          "velocity": 0.4094488188976378,
          "duration": 0.05387929687501014
        },
        {
          "name": "E2",
          "midi": 40,
          "time": 155.01073710937547,
          "velocity": 0.4881889763779528,
          "duration": 0.05028734374999999
        },
        {
          "name": "E2",
          "midi": 40,
          "time": 155.33760484375048,
          "velocity": 0.3858267716535433,
          "duration": 0.0754310156250142
        },
        {
          "name": "E2",
          "midi": 40,
          "time": 155.5207944531255,
          "velocity": 0.4409448818897638,
          "duration": 0.06465515625001217
        },
        {
          "name": "E2",
          "midi": 40,
          "time": 157.4065698437505,
          "velocity": 0.3543307086614173,
          "duration": 0.06465515625001217
        },
        {
          "name": "E2",
          "midi": 40,
          "time": 157.5897594531255,
          "velocity": 0.4094488188976378,
          "duration": 0.05387929687501014
        },
        {
          "name": "E2",
          "midi": 40,
          "time": 157.76935710937553,
          "velocity": 0.4881889763779528,
          "duration": 0.05028734374999999
        },
        {
          "name": "E2",
          "midi": 40,
          "time": 158.09622484375055,
          "velocity": 0.3858267716535433,
          "duration": 0.0754310156250142
        },
        {
          "name": "E2",
          "midi": 40,
          "time": 158.27941445312555,
          "velocity": 0.4409448818897638,
          "duration": 0.06465515625001217
        },
        {
          "name": "E2",
          "midi": 40,
          "time": 160.16518984375057,
          "velocity": 0.3543307086614173,
          "duration": 0.06465515625001217
        },
        {
          "name": "E2",
          "midi": 40,
          "time": 160.34837945312557,
          "velocity": 0.4094488188976378,
          "duration": 0.05387929687501014
        },
        {
          "name": "E2",
          "midi": 40,
          "time": 160.5279771093756,
          "velocity": 0.4881889763779528,
          "duration": 0.05028734374999999
        },
        {
          "name": "E2",
          "midi": 40,
          "time": 160.8548448437506,
          "velocity": 0.3858267716535433,
          "duration": 0.0754310156250142
        },
        {
          "name": "E2",
          "midi": 40,
          "time": 161.03803445312562,
          "velocity": 0.4409448818897638,
          "duration": 0.06465515625001217
        },
        {
          "name": "E2",
          "midi": 40,
          "time": 162.92380984375063,
          "velocity": 0.3543307086614173,
          "duration": 0.06465515625001217
        },
        {
          "name": "E2",
          "midi": 40,
          "time": 163.10699945312564,
          "velocity": 0.4094488188976378,
          "duration": 0.05387929687501014
        },
        {
          "name": "E2",
          "midi": 40,
          "time": 163.28659710937566,
          "velocity": 0.4881889763779528,
          "duration": 0.05028734374999999
        },
        {
          "name": "E2",
          "midi": 40,
          "time": 163.61346484375068,
          "velocity": 0.3858267716535433,
          "duration": 0.0754310156250142
        },
        {
          "name": "E2",
          "midi": 40,
          "time": 163.79665445312568,
          "velocity": 0.4409448818897638,
          "duration": 0.06465515625001217
        },
        {
          "name": "E2",
          "midi": 40,
          "time": 165.6824298437507,
          "velocity": 0.3543307086614173,
          "duration": 0.06465515625001217
        },
        {
          "name": "E2",
          "midi": 40,
          "time": 165.8656194531257,
          "velocity": 0.4094488188976378,
          "duration": 0.05387929687501014
        },
        {
          "name": "E2",
          "midi": 40,
          "time": 166.04521710937573,
          "velocity": 0.4881889763779528,
          "duration": 0.05028734374999999
        },
        {
          "name": "E2",
          "midi": 40,
          "time": 166.37208484375074,
          "velocity": 0.3858267716535433,
          "duration": 0.0754310156250142
        },
        {
          "name": "E2",
          "midi": 40,
          "time": 166.55527445312575,
          "velocity": 0.4409448818897638,
          "duration": 0.06465515625001217
        },
        {
          "name": "E2",
          "midi": 40,
          "time": 168.44104984375076,
          "velocity": 0.3543307086614173,
          "duration": 0.06465515625001217
        },
        {
          "name": "E2",
          "midi": 40,
          "time": 168.62423945312577,
          "velocity": 0.4094488188976378,
          "duration": 0.05387929687501014
        },
        {
          "name": "E2",
          "midi": 40,
          "time": 168.8038371093758,
          "velocity": 0.4881889763779528,
          "duration": 0.05028734374999999
        },
        {
          "name": "E2",
          "midi": 40,
          "time": 169.1307048437508,
          "velocity": 0.3858267716535433,
          "duration": 0.0754310156250142
        },
        {
          "name": "E2",
          "midi": 40,
          "time": 169.3138944531258,
          "velocity": 0.4409448818897638,
          "duration": 0.06465515625001217
        },
        {
          "name": "E2",
          "midi": 40,
          "time": 171.19966984375083,
          "velocity": 0.3543307086614173,
          "duration": 0.06465515625001217
        },
        {
          "name": "E2",
          "midi": 40,
          "time": 171.38285945312583,
          "velocity": 0.4094488188976378,
          "duration": 0.05387929687501014
        },
        {
          "name": "E2",
          "midi": 40,
          "time": 171.56245710937586,
          "velocity": 0.4881889763779528,
          "duration": 0.05028734374999999
        },
        {
          "name": "E2",
          "midi": 40,
          "time": 171.88932484375087,
          "velocity": 0.3858267716535433,
          "duration": 0.0754310156250142
        },
        {
          "name": "E2",
          "midi": 40,
          "time": 172.07251445312588,
          "velocity": 0.4409448818897638,
          "duration": 0.06465515625001217
        },
        {
          "name": "E2",
          "midi": 40,
          "time": 207.0617298437509,
          "velocity": 0.3543307086614173,
          "duration": 0.06465515625001217
        },
        {
          "name": "E2",
          "midi": 40,
          "time": 207.2449194531259,
          "velocity": 0.4094488188976378,
          "duration": 0.05387929687501014
        },
        {
          "name": "E2",
          "midi": 40,
          "time": 207.42451710937593,
          "velocity": 0.4881889763779528,
          "duration": 0.05028734374999999
        },
        {
          "name": "E2",
          "midi": 40,
          "time": 207.75138484375094,
          "velocity": 0.3858267716535433,
          "duration": 0.0754310156250142
        },
        {
          "name": "E2",
          "midi": 40,
          "time": 207.93457445312595,
          "velocity": 0.4409448818897638,
          "duration": 0.06465515625001217
        },
        {
          "name": "E2",
          "midi": 40,
          "time": 209.82034984375096,
          "velocity": 0.3543307086614173,
          "duration": 0.06465515625001217
        },
        {
          "name": "E2",
          "midi": 40,
          "time": 210.00353945312597,
          "velocity": 0.4094488188976378,
          "duration": 0.05387929687501014
        },
        {
          "name": "E2",
          "midi": 40,
          "time": 210.183137109376,
          "velocity": 0.4881889763779528,
          "duration": 0.05028734374999999
        },
        {
          "name": "E2",
          "midi": 40,
          "time": 210.510004843751,
          "velocity": 0.3858267716535433,
          "duration": 0.0754310156250142
        },
        {
          "name": "E2",
          "midi": 40,
          "time": 210.693194453126,
          "velocity": 0.4409448818897638,
          "duration": 0.06465515625001217
        },
        {
          "name": "E2",
          "midi": 40,
          "time": 212.57896984375103,
          "velocity": 0.3543307086614173,
          "duration": 0.06465515625001217
        },
        {
          "name": "E2",
          "midi": 40,
          "time": 212.76215945312603,
          "velocity": 0.4094488188976378,
          "duration": 0.05387929687501014
        },
        {
          "name": "E2",
          "midi": 40,
          "time": 212.94175710937606,
          "velocity": 0.4881889763779528,
          "duration": 0.05028734374999999
        },
        {
          "name": "E2",
          "midi": 40,
          "time": 213.26862484375107,
          "velocity": 0.3858267716535433,
          "duration": 0.0754310156250142
        },
        {
          "name": "E2",
          "midi": 40,
          "time": 213.45181445312608,
          "velocity": 0.4409448818897638,
          "duration": 0.06465515625001217
        },
        {
          "name": "E2",
          "midi": 40,
          "time": 215.3375898437511,
          "velocity": 0.3543307086614173,
          "duration": 0.06465515625001217
        },
        {
          "name": "E2",
          "midi": 40,
          "time": 215.5207794531261,
          "velocity": 0.4094488188976378,
          "duration": 0.05387929687501014
        },
        {
          "name": "E2",
          "midi": 40,
          "time": 215.70037710937612,
          "velocity": 0.4881889763779528,
          "duration": 0.05028734374999999
        },
        {
          "name": "E2",
          "midi": 40,
          "time": 216.02724484375113,
          "velocity": 0.3858267716535433,
          "duration": 0.0754310156250142
        },
        {
          "name": "E2",
          "midi": 40,
          "time": 216.21043445312614,
          "velocity": 0.4409448818897638,
          "duration": 0.06465515625001217
        },
        {
          "name": "E2",
          "midi": 40,
          "time": 218.09620984375115,
          "velocity": 0.3543307086614173,
          "duration": 0.06465515625001217
        },
        {
          "name": "E2",
          "midi": 40,
          "time": 218.27939945312616,
          "velocity": 0.4094488188976378,
          "duration": 0.05387929687501014
        },
        {
          "name": "E2",
          "midi": 40,
          "time": 218.45899710937618,
          "velocity": 0.4881889763779528,
          "duration": 0.05028734374999999
        },
        {
          "name": "E2",
          "midi": 40,
          "time": 218.7858648437512,
          "velocity": 0.3858267716535433,
          "duration": 0.0754310156250142
        },
        {
          "name": "E2",
          "midi": 40,
          "time": 218.9690544531262,
          "velocity": 0.4409448818897638,
          "duration": 0.06465515625001217
        },
        {
          "name": "E2",
          "midi": 40,
          "time": 220.85482984375122,
          "velocity": 0.3543307086614173,
          "duration": 0.06465515625001217
        },
        {
          "name": "E2",
          "midi": 40,
          "time": 221.03801945312622,
          "velocity": 0.4094488188976378,
          "duration": 0.05387929687501014
        },
        {
          "name": "E2",
          "midi": 40,
          "time": 221.21761710937625,
          "velocity": 0.4881889763779528,
          "duration": 0.05028734374999999
        },
        {
          "name": "E2",
          "midi": 40,
          "time": 221.54448484375126,
          "velocity": 0.3858267716535433,
          "duration": 0.0754310156250142
        },
        {
          "name": "E2",
          "midi": 40,
          "time": 221.72767445312627,
          "velocity": 0.4409448818897638,
          "duration": 0.06465515625001217
        },
        {
          "name": "E2",
          "midi": 40,
          "time": 223.61344984375128,
          "velocity": 0.3543307086614173,
          "duration": 0.06465515625001217
        },
        {
          "name": "E2",
          "midi": 40,
          "time": 223.7966394531263,
          "velocity": 0.4094488188976378,
          "duration": 0.05387929687501014
        },
        {
          "name": "E2",
          "midi": 40,
          "time": 223.9762371093763,
          "velocity": 0.4881889763779528,
          "duration": 0.05028734374999999
        },
        {
          "name": "E2",
          "midi": 40,
          "time": 224.30310484375133,
          "velocity": 0.3858267716535433,
          "duration": 0.0754310156250142
        },
        {
          "name": "E2",
          "midi": 40,
          "time": 224.48629445312633,
          "velocity": 0.4409448818897638,
          "duration": 0.06465515625001217
        },
        {
          "name": "E2",
          "midi": 40,
          "time": 226.37206984375135,
          "velocity": 0.3543307086614173,
          "duration": 0.06465515625001217
        },
        {
          "name": "E2",
          "midi": 40,
          "time": 226.55525945312635,
          "velocity": 0.4094488188976378,
          "duration": 0.05387929687501014
        },
        {
          "name": "E2",
          "midi": 40,
          "time": 226.73485710937638,
          "velocity": 0.4881889763779528,
          "duration": 0.05028734374999999
        },
        {
          "name": "E2",
          "midi": 40,
          "time": 227.0617248437514,
          "velocity": 0.3858267716535433,
          "duration": 0.0754310156250142
        },
        {
          "name": "E2",
          "midi": 40,
          "time": 227.2449144531264,
          "velocity": 0.4409448818897638,
          "duration": 0.06465515625001217
        },
        {
          "name": "E2",
          "midi": 40,
          "time": 229.1306898437514,
          "velocity": 0.3543307086614173,
          "duration": 0.06465515625001217
        },
        {
          "name": "E2",
          "midi": 40,
          "time": 229.31387945312642,
          "velocity": 0.4094488188976378,
          "duration": 0.05387929687501014
        },
        {
          "name": "E2",
          "midi": 40,
          "time": 229.49347710937644,
          "velocity": 0.4881889763779528,
          "duration": 0.05028734374999999
        },
        {
          "name": "E2",
          "midi": 40,
          "time": 229.82034484375146,
          "velocity": 0.3858267716535433,
          "duration": 0.0754310156250142
        },
        {
          "name": "E2",
          "midi": 40,
          "time": 230.00353445312646,
          "velocity": 0.4409448818897638,
          "duration": 0.06465515625001217
        },
        {
          "name": "E2",
          "midi": 40,
          "time": 231.88930984375148,
          "velocity": 0.3543307086614173,
          "duration": 0.06465515625001217
        },
        {
          "name": "E2",
          "midi": 40,
          "time": 232.07249945312648,
          "velocity": 0.4094488188976378,
          "duration": 0.05387929687501014
        },
        {
          "name": "E2",
          "midi": 40,
          "time": 232.2520971093765,
          "velocity": 0.4881889763779528,
          "duration": 0.05028734374999999
        },
        {
          "name": "E2",
          "midi": 40,
          "time": 232.57896484375152,
          "velocity": 0.3858267716535433,
          "duration": 0.0754310156250142
        },
        {
          "name": "E2",
          "midi": 40,
          "time": 232.76215445312653,
          "velocity": 0.4409448818897638,
          "duration": 0.06465515625001217
        }
      ],
      "controlChanges": {
        "1": [
          {
            "number": 1,
            "time": 234.99994125000154,
            "value": 0
          }
        ],
        "7": [
          {
            "number": 7,
            "time": 0,
            "value": 0.7874015748031497
          },
          {
            "number": 7,
            "time": 234.65511375000153,
            "value": 0.7874015748031497
          }
        ],
        "10": [
          {
            "number": 10,
            "time": 0,
            "value": 0.984251968503937
          },
          {
            "number": 10,
            "time": 235.34476875000155,
            "value": 0.5039370078740157
          }
        ],
        "11": [
          {
            "number": 11,
            "time": 235.68959625000156,
            "value": 1
          }
        ],
        "64": [
          {
            "number": 64,
            "time": 236.03442375000157,
            "value": 0
          }
        ],
        "91": [
          {
            "number": 91,
            "time": 0.6896549999999999,
            "value": 1
          },
          {
            "number": 91,
            "time": 236.55166500000158,
            "value": 0.31496062992125984
          }
        ],
        "93": [
          {
            "number": 93,
            "time": 0.176005703125,
            "value": 1
          },
          {
            "number": 93,
            "time": 237.0689062500016,
            "value": 0
          }
        ],
        "121": [
          {
            "number": 121,
            "time": 234.48270000000153,
            "value": 0
          }
        ],
        "123": [
          {
            "number": 123,
            "time": 238.4482162500016,
            "value": 0
          }
        ]
      },
      "instrument": ""
    },
    {
      "name": "Guitar 3            ",
      "notes": [
        {
          "name": "E3",
          "midi": 52,
          "time": 38.92240406250001,
          "velocity": 0.84251968503937,
          "duration": 1.1566089062500424
        },
        {
          "name": "B3",
          "midi": 59,
          "time": 38.936771875000005,
          "velocity": 0.937007874015748,
          "duration": 1.1314652343750424
        },
        {
          "name": "E4",
          "midi": 64,
          "time": 38.95832359375,
          "velocity": 0.889763779527559,
          "duration": 1.1386491406250485
        },
        {
          "name": "E3",
          "midi": 52,
          "time": 41.681024062500086,
          "velocity": 0.84251968503937,
          "duration": 1.156608906250014
        },
        {
          "name": "B3",
          "midi": 59,
          "time": 41.695391875000084,
          "velocity": 0.937007874015748,
          "duration": 1.131465234375014
        },
        {
          "name": "E4",
          "midi": 64,
          "time": 41.71694359375008,
          "velocity": 0.889763779527559,
          "duration": 1.13864914062502
        },
        {
          "name": "E4",
          "midi": 64,
          "time": 44.46478773437513,
          "velocity": 0.905511811023622,
          "duration": 1.2248560156250292
        },
        {
          "name": "E3",
          "midi": 52,
          "time": 44.47556359375013,
          "velocity": 0.8740157480314961,
          "duration": 1.1961203906250262
        },
        {
          "name": "B3",
          "midi": 59,
          "time": 44.47556359375013,
          "velocity": 0.9212598425196851,
          "duration": 1.1997123437500292
        },
        {
          "name": "E4",
          "midi": 64,
          "time": 47.223407734375186,
          "velocity": 0.905511811023622,
          "duration": 1.2248560156250292
        },
        {
          "name": "E3",
          "midi": 52,
          "time": 47.23418359375019,
          "velocity": 0.8740157480314961,
          "duration": 1.1961203906250262
        },
        {
          "name": "B3",
          "midi": 59,
          "time": 47.23418359375019,
          "velocity": 0.9212598425196851,
          "duration": 1.1997123437500292
        },
        {
          "name": "E4",
          "midi": 64,
          "time": 74.75572843750024,
          "velocity": 0.905511811023622,
          "duration": 1.357758281250014
        },
        {
          "name": "B3",
          "midi": 59,
          "time": 74.75572843750024,
          "velocity": 0.905511811023622,
          "duration": 1.3505743750000079
        },
        {
          "name": "E3",
          "midi": 52,
          "time": 74.77009625000024,
          "velocity": 0.7795275590551181,
          "duration": 1.33620656250001
        },
        {
          "name": "E3",
          "midi": 52,
          "time": 77.58618750000028,
          "velocity": 0.84251968503937,
          "duration": 1.1997123437499653
        },
        {
          "name": "B3",
          "midi": 59,
          "time": 77.58977945312527,
          "velocity": 0.937007874015748,
          "duration": 1.2068962499999714
        },
        {
          "name": "E4",
          "midi": 64,
          "time": 77.60055531250028,
          "velocity": 0.7480314960629921,
          "duration": 1.2033042968749754
        },
        {
          "name": "E4",
          "midi": 64,
          "time": 80.31966382812529,
          "velocity": 0.8740157480314961,
          "duration": 1.3397985156249774
        },
        {
          "name": "B3",
          "midi": 59,
          "time": 80.33043968750029,
          "velocity": 0.905511811023622,
          "duration": 1.3182467968749734
        },
        {
          "name": "E3",
          "midi": 52,
          "time": 80.34480750000029,
          "velocity": 0.8582677165354331,
          "duration": 1.2931031249999734
        },
        {
          "name": "E3",
          "midi": 52,
          "time": 83.02081257812529,
          "velocity": 0.7637795275590551,
          "duration": 6.282326015625017
        },
        {
          "name": "B3",
          "midi": 59,
          "time": 83.03158843750029,
          "velocity": 0.9212598425196851,
          "duration": 6.271550156250015
        },
        {
          "name": "E4",
          "midi": 64,
          "time": 83.03158843750029,
          "velocity": 0.905511811023622,
          "duration": 6.293101875000019
        },
        {
          "name": "E4",
          "midi": 64,
          "time": 165.79018843750032,
          "velocity": 0.905511811023622,
          "duration": 1.3577582812499145
        },
        {
          "name": "B3",
          "midi": 59,
          "time": 165.79018843750032,
          "velocity": 0.905511811023622,
          "duration": 1.3505743749999226
        },
        {
          "name": "E3",
          "midi": 52,
          "time": 165.80455625000033,
          "velocity": 0.7795275590551181,
          "duration": 1.3362065624999104
        },
        {
          "name": "E3",
          "midi": 52,
          "time": 168.62064750000005,
          "velocity": 0.84251968503937,
          "duration": 1.199712343749951
        },
        {
          "name": "B3",
          "midi": 59,
          "time": 168.62423945312506,
          "velocity": 0.937007874015748,
          "duration": 1.206896249999943
        },
        {
          "name": "E4",
          "midi": 64,
          "time": 168.63501531250006,
          "velocity": 0.7480314960629921,
          "duration": 1.2033042968749328
        },
        {
          "name": "E4",
          "midi": 64,
          "time": 171.3541238281249,
          "velocity": 0.8740157480314961,
          "duration": 1.3397985156249774
        },
        {
          "name": "B3",
          "midi": 59,
          "time": 171.3648996874999,
          "velocity": 0.905511811023622,
          "duration": 1.3182467968749734
        },
        {
          "name": "E3",
          "midi": 52,
          "time": 171.3792674999999,
          "velocity": 0.8582677165354331,
          "duration": 1.2931031249999592
        },
        {
          "name": "E3",
          "midi": 52,
          "time": 174.05527257812486,
          "velocity": 0.7637795275590551,
          "duration": 6.282326015624818
        },
        {
          "name": "B3",
          "midi": 59,
          "time": 174.06604843749986,
          "velocity": 0.9212598425196851,
          "duration": 6.271550156249816
        },
        {
          "name": "E4",
          "midi": 64,
          "time": 174.06604843749986,
          "velocity": 0.905511811023622,
          "duration": 6.29310187499982
        },
        {
          "name": "E3",
          "midi": 52,
          "time": 234.74491257812443,
          "velocity": 0.7637795275590551,
          "duration": 6.282326015624989
        },
        {
          "name": "B3",
          "midi": 59,
          "time": 234.75568843749943,
          "velocity": 0.9212598425196851,
          "duration": 6.271550156249987
        },
        {
          "name": "E4",
          "midi": 64,
          "time": 234.75568843749943,
          "velocity": 0.905511811023622,
          "duration": 6.293101874999991
        }
      ],
      "controlChanges": {
        "1": [
          {
            "number": 1,
            "time": 243.27580124999943,
            "value": 0
          }
        ],
        "7": [
          {
            "number": 7,
            "time": 0,
            "value": 0.7874015748031497
          },
          {
            "number": 7,
            "time": 242.93097374999942,
            "value": 0.7874015748031497
          }
        ],
        "10": [
          {
            "number": 10,
            "time": 0,
            "value": 0.3464566929133858
          },
          {
            "number": 10,
            "time": 38.62068,
            "value": 0.9921259842519685
          },
          {
            "number": 10,
            "time": 38.706886875,
            "value": 0.968503937007874
          },
          {
            "number": 10,
            "time": 38.793093750000004,
            "value": 0.937007874015748
          },
          {
            "number": 10,
            "time": 38.879300625000006,
            "value": 0.905511811023622
          },
          {
            "number": 10,
            "time": 38.9655075,
            "value": 0.8740157480314961
          },
          {
            "number": 10,
            "time": 39.051714375,
            "value": 0.84251968503937
          },
          {
            "number": 10,
            "time": 39.137921250000005,
            "value": 0.8110236220472441
          },
          {
            "number": 10,
            "time": 39.22412812500001,
            "value": 0.7795275590551181
          },
          {
            "number": 10,
            "time": 39.31033500000001,
            "value": 0.7480314960629921
          },
          {
            "number": 10,
            "time": 39.39654187500001,
            "value": 0.7165354330708661
          },
          {
            "number": 10,
            "time": 39.48274875000001,
            "value": 0.6850393700787402
          },
          {
            "number": 10,
            "time": 39.568955625000015,
            "value": 0.6535433070866141
          },
          {
            "number": 10,
            "time": 39.655162500000024,
            "value": 0.6220472440944882
          },
          {
            "number": 10,
            "time": 39.741369375000026,
            "value": 0.5905511811023622
          },
          {
            "number": 10,
            "time": 39.82757625000003,
            "value": 0.5590551181102362
          },
          {
            "number": 10,
            "time": 39.91378312500004,
            "value": 0.5275590551181102
          },
          {
            "number": 10,
            "time": 39.99999000000005,
            "value": 0.49606299212598426
          },
          {
            "number": 10,
            "time": 40.08619687500005,
            "value": 0.4645669291338583
          },
          {
            "number": 10,
            "time": 40.17240375000005,
            "value": 0.4330708661417323
          },
          {
            "number": 10,
            "time": 40.25861062500005,
            "value": 0.4015748031496063
          },
          {
            "number": 10,
            "time": 40.344817500000055,
            "value": 0.3700787401574803
          },
          {
            "number": 10,
            "time": 40.43102437500006,
            "value": 0.33858267716535434
          },
          {
            "number": 10,
            "time": 40.51723125000006,
            "value": 0.30708661417322836
          },
          {
            "number": 10,
            "time": 40.60343812500006,
            "value": 0.2755905511811024
          },
          {
            "number": 10,
            "time": 40.68964500000006,
            "value": 0.2440944881889764
          },
          {
            "number": 10,
            "time": 40.775851875000065,
            "value": 0.2125984251968504
          },
          {
            "number": 10,
            "time": 40.86205875000007,
            "value": 0.18110236220472442
          },
          {
            "number": 10,
            "time": 40.94826562500007,
            "value": 0.14960629921259844
          },
          {
            "number": 10,
            "time": 41.03447250000007,
            "value": 0.11811023622047244
          },
          {
            "number": 10,
            "time": 41.12067937500007,
            "value": 0.08661417322834646
          },
          {
            "number": 10,
            "time": 41.206886250000075,
            "value": 0.05511811023622047
          },
          {
            "number": 10,
            "time": 41.29309312500008,
            "value": 0.023622047244094488
          },
          {
            "number": 10,
            "time": 41.375708046875076,
            "value": 0
          },
          {
            "number": 10,
            "time": 41.37930000000008,
            "value": 0.9921259842519685
          },
          {
            "number": 10,
            "time": 41.42240343750008,
            "value": 0.984251968503937
          },
          {
            "number": 10,
            "time": 41.46550687500008,
            "value": 0.968503937007874
          },
          {
            "number": 10,
            "time": 41.50861031250008,
            "value": 0.952755905511811
          },
          {
            "number": 10,
            "time": 41.55171375000008,
            "value": 0.937007874015748
          },
          {
            "number": 10,
            "time": 41.594817187500084,
            "value": 0.9212598425196851
          },
          {
            "number": 10,
            "time": 41.637920625000085,
            "value": 0.905511811023622
          },
          {
            "number": 10,
            "time": 41.681024062500086,
            "value": 0.889763779527559
          },
          {
            "number": 10,
            "time": 41.72412750000008,
            "value": 0.8740157480314961
          },
          {
            "number": 10,
            "time": 41.76723093750008,
            "value": 0.8582677165354331
          },
          {
            "number": 10,
            "time": 41.81033437500008,
            "value": 0.84251968503937
          },
          {
            "number": 10,
            "time": 41.85343781250008,
            "value": 0.8267716535433071
          },
          {
            "number": 10,
            "time": 41.896541250000084,
            "value": 0.8110236220472441
          },
          {
            "number": 10,
            "time": 41.939644687500085,
            "value": 0.7952755905511811
          },
          {
            "number": 10,
            "time": 41.982748125000086,
            "value": 0.7795275590551181
          },
          {
            "number": 10,
            "time": 42.02585156250009,
            "value": 0.7637795275590551
          },
          {
            "number": 10,
            "time": 42.06895500000009,
            "value": 0.7480314960629921
          },
          {
            "number": 10,
            "time": 42.11205843750009,
            "value": 0.7322834645669292
          },
          {
            "number": 10,
            "time": 42.15516187500009,
            "value": 0.7165354330708661
          },
          {
            "number": 10,
            "time": 42.19826531250009,
            "value": 0.7007874015748031
          },
          {
            "number": 10,
            "time": 42.24136875000009,
            "value": 0.6850393700787402
          },
          {
            "number": 10,
            "time": 42.28447218750009,
            "value": 0.6692913385826772
          },
          {
            "number": 10,
            "time": 42.327575625000094,
            "value": 0.6535433070866141
          },
          {
            "number": 10,
            "time": 42.370679062500095,
            "value": 0.6377952755905512
          },
          {
            "number": 10,
            "time": 42.413782500000096,
            "value": 0.6220472440944882
          },
          {
            "number": 10,
            "time": 42.4568859375001,
            "value": 0.6062992125984252
          },
          {
            "number": 10,
            "time": 42.4999893750001,
            "value": 0.5905511811023622
          },
          {
            "number": 10,
            "time": 42.54309281250009,
            "value": 0.5748031496062992
          },
          {
            "number": 10,
            "time": 42.58619625000009,
            "value": 0.5590551181102362
          },
          {
            "number": 10,
            "time": 42.629299687500094,
            "value": 0.5433070866141733
          },
          {
            "number": 10,
            "time": 42.672403125000095,
            "value": 0.5275590551181102
          },
          {
            "number": 10,
            "time": 42.715506562500096,
            "value": 0.5118110236220472
          },
          {
            "number": 10,
            "time": 42.7586100000001,
            "value": 0.49606299212598426
          },
          {
            "number": 10,
            "time": 42.8017134375001,
            "value": 0.48031496062992124
          },
          {
            "number": 10,
            "time": 42.8448168750001,
            "value": 0.4645669291338583
          },
          {
            "number": 10,
            "time": 42.8879203125001,
            "value": 0.44881889763779526
          },
          {
            "number": 10,
            "time": 42.931023750000094,
            "value": 0.4330708661417323
          },
          {
            "number": 10,
            "time": 42.974127187500095,
            "value": 0.41732283464566927
          },
          {
            "number": 10,
            "time": 43.017230625000096,
            "value": 0.4015748031496063
          },
          {
            "number": 10,
            "time": 43.0603340625001,
            "value": 0.3858267716535433
          },
          {
            "number": 10,
            "time": 43.1034375000001,
            "value": 0.3700787401574803
          },
          {
            "number": 10,
            "time": 43.1465409375001,
            "value": 0.3543307086614173
          },
          {
            "number": 10,
            "time": 43.1896443750001,
            "value": 0.33858267716535434
          },
          {
            "number": 10,
            "time": 43.2327478125001,
            "value": 0.3228346456692913
          },
          {
            "number": 10,
            "time": 43.2758512500001,
            "value": 0.30708661417322836
          },
          {
            "number": 10,
            "time": 43.3189546875001,
            "value": 0.29133858267716534
          },
          {
            "number": 10,
            "time": 43.362058125000104,
            "value": 0.2755905511811024
          },
          {
            "number": 10,
            "time": 43.405161562500105,
            "value": 0.25984251968503935
          },
          {
            "number": 10,
            "time": 43.448265000000106,
            "value": 0.2440944881889764
          },
          {
            "number": 10,
            "time": 43.49136843750011,
            "value": 0.2283464566929134
          },
          {
            "number": 10,
            "time": 43.53447187500011,
            "value": 0.2125984251968504
          },
          {
            "number": 10,
            "time": 43.57757531250011,
            "value": 0.1968503937007874
          },
          {
            "number": 10,
            "time": 43.62067875000011,
            "value": 0.18110236220472442
          },
          {
            "number": 10,
            "time": 43.66378218750011,
            "value": 0.16535433070866143
          },
          {
            "number": 10,
            "time": 43.70688562500011,
            "value": 0.14960629921259844
          },
          {
            "number": 10,
            "time": 43.74998906250011,
            "value": 0.13385826771653545
          },
          {
            "number": 10,
            "time": 43.793092500000114,
            "value": 0.11811023622047244
          },
          {
            "number": 10,
            "time": 43.836195937500115,
            "value": 0.10236220472440945
          },
          {
            "number": 10,
            "time": 43.879299375000116,
            "value": 0.08661417322834646
          },
          {
            "number": 10,
            "time": 43.92240281250012,
            "value": 0.07086614173228346
          },
          {
            "number": 10,
            "time": 43.96550625000012,
            "value": 0.05511811023622047
          },
          {
            "number": 10,
            "time": 44.00860968750012,
            "value": 0.03937007874015748
          },
          {
            "number": 10,
            "time": 44.05171312500012,
            "value": 0.023622047244094488
          },
          {
            "number": 10,
            "time": 44.09481656250012,
            "value": 0.007874015748031496
          },
          {
            "number": 10,
            "time": 44.13432804687512,
            "value": 0
          },
          {
            "number": 10,
            "time": 44.13792000000012,
            "value": 0.9921259842519685
          },
          {
            "number": 10,
            "time": 44.224126875000124,
            "value": 0.968503937007874
          },
          {
            "number": 10,
            "time": 44.310333750000126,
            "value": 0.937007874015748
          },
          {
            "number": 10,
            "time": 44.39654062500013,
            "value": 0.905511811023622
          },
          {
            "number": 10,
            "time": 44.48274750000013,
            "value": 0.8740157480314961
          },
          {
            "number": 10,
            "time": 44.56895437500013,
            "value": 0.84251968503937
          },
          {
            "number": 10,
            "time": 44.655161250000134,
            "value": 0.8110236220472441
          },
          {
            "number": 10,
            "time": 44.741368125000136,
            "value": 0.7795275590551181
          },
          {
            "number": 10,
            "time": 44.82757500000014,
            "value": 0.7480314960629921
          },
          {
            "number": 10,
            "time": 44.91378187500014,
            "value": 0.7165354330708661
          },
          {
            "number": 10,
            "time": 44.99998875000014,
            "value": 0.6850393700787402
          },
          {
            "number": 10,
            "time": 45.086195625000144,
            "value": 0.6535433070866141
          },
          {
            "number": 10,
            "time": 45.172402500000146,
            "value": 0.6220472440944882
          },
          {
            "number": 10,
            "time": 45.25860937500015,
            "value": 0.5905511811023622
          },
          {
            "number": 10,
            "time": 45.34481625000016,
            "value": 0.5590551181102362
          },
          {
            "number": 10,
            "time": 45.43102312500015,
            "value": 0.5275590551181102
          },
          {
            "number": 10,
            "time": 45.517230000000154,
            "value": 0.49606299212598426
          },
          {
            "number": 10,
            "time": 45.603436875000156,
            "value": 0.4645669291338583
          },
          {
            "number": 10,
            "time": 45.68964375000016,
            "value": 0.4330708661417323
          },
          {
            "number": 10,
            "time": 45.77585062500016,
            "value": 0.4015748031496063
          },
          {
            "number": 10,
            "time": 45.862057500000155,
            "value": 0.3700787401574803
          },
          {
            "number": 10,
            "time": 45.94826437500016,
            "value": 0.33858267716535434
          },
          {
            "number": 10,
            "time": 46.03447125000016,
            "value": 0.30708661417322836
          },
          {
            "number": 10,
            "time": 46.12067812500016,
            "value": 0.2755905511811024
          },
          {
            "number": 10,
            "time": 46.20688500000016,
            "value": 0.2440944881889764
          },
          {
            "number": 10,
            "time": 46.293091875000165,
            "value": 0.2125984251968504
          },
          {
            "number": 10,
            "time": 46.37929875000017,
            "value": 0.18110236220472442
          },
          {
            "number": 10,
            "time": 46.46550562500017,
            "value": 0.14960629921259844
          },
          {
            "number": 10,
            "time": 46.55171250000017,
            "value": 0.11811023622047244
          },
          {
            "number": 10,
            "time": 46.63791937500017,
            "value": 0.08661417322834646
          },
          {
            "number": 10,
            "time": 46.724126250000175,
            "value": 0.05511811023622047
          },
          {
            "number": 10,
            "time": 46.81033312500018,
            "value": 0.023622047244094488
          },
          {
            "number": 10,
            "time": 46.892948046875176,
            "value": 0
          },
          {
            "number": 10,
            "time": 46.89654000000018,
            "value": 0.9921259842519685
          },
          {
            "number": 10,
            "time": 46.98274687500018,
            "value": 0.968503937007874
          },
          {
            "number": 10,
            "time": 47.06895375000018,
            "value": 0.937007874015748
          },
          {
            "number": 10,
            "time": 47.155160625000185,
            "value": 0.905511811023622
          },
          {
            "number": 10,
            "time": 47.24136750000019,
            "value": 0.8740157480314961
          },
          {
            "number": 10,
            "time": 47.32757437500019,
            "value": 0.84251968503937
          },
          {
            "number": 10,
            "time": 47.41378125000019,
            "value": 0.8110236220472441
          },
          {
            "number": 10,
            "time": 47.49998812500019,
            "value": 0.7795275590551181
          },
          {
            "number": 10,
            "time": 47.586195000000195,
            "value": 0.7480314960629921
          },
          {
            "number": 10,
            "time": 47.6724018750002,
            "value": 0.7165354330708661
          },
          {
            "number": 10,
            "time": 47.7586087500002,
            "value": 0.6850393700787402
          },
          {
            "number": 10,
            "time": 47.8448156250002,
            "value": 0.6535433070866141
          },
          {
            "number": 10,
            "time": 47.9310225000002,
            "value": 0.6220472440944882
          },
          {
            "number": 10,
            "time": 48.017229375000205,
            "value": 0.5905511811023622
          },
          {
            "number": 10,
            "time": 48.103436250000215,
            "value": 0.5590551181102362
          },
          {
            "number": 10,
            "time": 48.18964312500021,
            "value": 0.5275590551181102
          },
          {
            "number": 10,
            "time": 48.27585000000021,
            "value": 0.49606299212598426
          },
          {
            "number": 10,
            "time": 48.36205687500021,
            "value": 0.4645669291338583
          },
          {
            "number": 10,
            "time": 48.448263750000216,
            "value": 0.4330708661417323
          },
          {
            "number": 10,
            "time": 48.53447062500022,
            "value": 0.4015748031496063
          },
          {
            "number": 10,
            "time": 48.62067750000021,
            "value": 0.3700787401574803
          },
          {
            "number": 10,
            "time": 48.706884375000215,
            "value": 0.33858267716535434
          },
          {
            "number": 10,
            "time": 48.79309125000022,
            "value": 0.30708661417322836
          },
          {
            "number": 10,
            "time": 48.87929812500022,
            "value": 0.2755905511811024
          },
          {
            "number": 10,
            "time": 48.96550500000022,
            "value": 0.2440944881889764
          },
          {
            "number": 10,
            "time": 49.05171187500022,
            "value": 0.2125984251968504
          },
          {
            "number": 10,
            "time": 49.137918750000225,
            "value": 0.18110236220472442
          },
          {
            "number": 10,
            "time": 49.22412562500023,
            "value": 0.14960629921259844
          },
          {
            "number": 10,
            "time": 49.31033250000023,
            "value": 0.11811023622047244
          },
          {
            "number": 10,
            "time": 49.39653937500023,
            "value": 0.08661417322834646
          },
          {
            "number": 10,
            "time": 49.48274625000023,
            "value": 0.05511811023622047
          },
          {
            "number": 10,
            "time": 49.568953125000235,
            "value": 0.023622047244094488
          },
          {
            "number": 10,
            "time": 49.651568046875234,
            "value": 0
          },
          {
            "number": 10,
            "time": 74.48274000000023,
            "value": 0.9921259842519685
          },
          {
            "number": 10,
            "time": 74.56894687500024,
            "value": 0.968503937007874
          },
          {
            "number": 10,
            "time": 74.65515375000024,
            "value": 0.937007874015748
          },
          {
            "number": 10,
            "time": 74.74136062500024,
            "value": 0.905511811023622
          },
          {
            "number": 10,
            "time": 74.82756750000024,
            "value": 0.8740157480314961
          },
          {
            "number": 10,
            "time": 74.91377437500024,
            "value": 0.84251968503937
          },
          {
            "number": 10,
            "time": 74.99998125000025,
            "value": 0.8110236220472441
          },
          {
            "number": 10,
            "time": 75.08618812500025,
            "value": 0.7795275590551181
          },
          {
            "number": 10,
            "time": 75.17239500000025,
            "value": 0.7480314960629921
          },
          {
            "number": 10,
            "time": 75.25860187500025,
            "value": 0.7165354330708661
          },
          {
            "number": 10,
            "time": 75.34480875000025,
            "value": 0.6850393700787402
          },
          {
            "number": 10,
            "time": 75.43101562500026,
            "value": 0.6535433070866141
          },
          {
            "number": 10,
            "time": 75.51722250000024,
            "value": 0.6220472440944882
          },
          {
            "number": 10,
            "time": 75.60342937500025,
            "value": 0.5905511811023622
          },
          {
            "number": 10,
            "time": 75.68963625000025,
            "value": 0.5590551181102362
          },
          {
            "number": 10,
            "time": 75.77584312500025,
            "value": 0.5275590551181102
          },
          {
            "number": 10,
            "time": 75.86205000000024,
            "value": 0.49606299212598426
          },
          {
            "number": 10,
            "time": 75.94825687500024,
            "value": 0.4645669291338583
          },
          {
            "number": 10,
            "time": 76.03446375000024,
            "value": 0.4330708661417323
          },
          {
            "number": 10,
            "time": 76.12067062500026,
            "value": 0.4015748031496063
          },
          {
            "number": 10,
            "time": 76.20687750000025,
            "value": 0.3700787401574803
          },
          {
            "number": 10,
            "time": 76.29308437500025,
            "value": 0.33858267716535434
          },
          {
            "number": 10,
            "time": 76.37929125000025,
            "value": 0.30708661417322836
          },
          {
            "number": 10,
            "time": 76.46549812500025,
            "value": 0.2755905511811024
          },
          {
            "number": 10,
            "time": 76.55170500000025,
            "value": 0.2440944881889764
          },
          {
            "number": 10,
            "time": 76.63791187500026,
            "value": 0.2125984251968504
          },
          {
            "number": 10,
            "time": 76.72411875000026,
            "value": 0.18110236220472442
          },
          {
            "number": 10,
            "time": 76.81032562500026,
            "value": 0.14960629921259844
          },
          {
            "number": 10,
            "time": 76.89653250000026,
            "value": 0.11811023622047244
          },
          {
            "number": 10,
            "time": 76.98273937500026,
            "value": 0.08661417322834646
          },
          {
            "number": 10,
            "time": 77.06894625000027,
            "value": 0.05511811023622047
          },
          {
            "number": 10,
            "time": 77.15515312500027,
            "value": 0.023622047244094488
          },
          {
            "number": 10,
            "time": 77.23776804687527,
            "value": 0
          },
          {
            "number": 10,
            "time": 77.24136000000027,
            "value": 0.9921259842519685
          },
          {
            "number": 10,
            "time": 77.32756687500027,
            "value": 0.968503937007874
          },
          {
            "number": 10,
            "time": 77.41377375000027,
            "value": 0.937007874015748
          },
          {
            "number": 10,
            "time": 77.49998062500028,
            "value": 0.905511811023622
          },
          {
            "number": 10,
            "time": 77.58618750000028,
            "value": 0.8740157480314961
          },
          {
            "number": 10,
            "time": 77.67239437500028,
            "value": 0.84251968503937
          },
          {
            "number": 10,
            "time": 77.75860125000028,
            "value": 0.8110236220472441
          },
          {
            "number": 10,
            "time": 77.84480812500028,
            "value": 0.7795275590551181
          },
          {
            "number": 10,
            "time": 77.93101500000029,
            "value": 0.7480314960629921
          },
          {
            "number": 10,
            "time": 78.01722187500029,
            "value": 0.7165354330708661
          },
          {
            "number": 10,
            "time": 78.10342875000029,
            "value": 0.6850393700787402
          },
          {
            "number": 10,
            "time": 78.18963562500029,
            "value": 0.6535433070866141
          },
          {
            "number": 10,
            "time": 78.2758425000003,
            "value": 0.6220472440944882
          },
          {
            "number": 10,
            "time": 78.36204937500028,
            "value": 0.5905511811023622
          },
          {
            "number": 10,
            "time": 78.44825625000028,
            "value": 0.5590551181102362
          },
          {
            "number": 10,
            "time": 78.53446312500027,
            "value": 0.5275590551181102
          },
          {
            "number": 10,
            "time": 78.62067000000026,
            "value": 0.49606299212598426
          },
          {
            "number": 10,
            "time": 78.70687687500025,
            "value": 0.4645669291338583
          },
          {
            "number": 10,
            "time": 78.79308375000025,
            "value": 0.4330708661417323
          },
          {
            "number": 10,
            "time": 78.87929062500025,
            "value": 0.4015748031496063
          },
          {
            "number": 10,
            "time": 78.96549750000025,
            "value": 0.3700787401574803
          },
          {
            "number": 10,
            "time": 79.05170437500026,
            "value": 0.33858267716535434
          },
          {
            "number": 10,
            "time": 79.13791125000026,
            "value": 0.30708661417322836
          },
          {
            "number": 10,
            "time": 79.22411812500026,
            "value": 0.2755905511811024
          },
          {
            "number": 10,
            "time": 79.31032500000026,
            "value": 0.2440944881889764
          },
          {
            "number": 10,
            "time": 79.39653187500026,
            "value": 0.2125984251968504
          },
          {
            "number": 10,
            "time": 79.48273875000027,
            "value": 0.18110236220472442
          },
          {
            "number": 10,
            "time": 79.56894562500027,
            "value": 0.14960629921259844
          },
          {
            "number": 10,
            "time": 79.65515250000027,
            "value": 0.11811023622047244
          },
          {
            "number": 10,
            "time": 79.74135937500027,
            "value": 0.08661417322834646
          },
          {
            "number": 10,
            "time": 79.82756625000027,
            "value": 0.05511811023622047
          },
          {
            "number": 10,
            "time": 79.91377312500028,
            "value": 0.023622047244094488
          },
          {
            "number": 10,
            "time": 79.99638804687528,
            "value": 0
          },
          {
            "number": 10,
            "time": 79.99998000000028,
            "value": 0.9921259842519685
          },
          {
            "number": 10,
            "time": 80.08618687500028,
            "value": 0.968503937007874
          },
          {
            "number": 10,
            "time": 80.17239375000028,
            "value": 0.937007874015748
          },
          {
            "number": 10,
            "time": 80.25860062500028,
            "value": 0.905511811023622
          },
          {
            "number": 10,
            "time": 80.34480750000029,
            "value": 0.8740157480314961
          },
          {
            "number": 10,
            "time": 80.43101437500029,
            "value": 0.84251968503937
          },
          {
            "number": 10,
            "time": 80.51722125000029,
            "value": 0.8110236220472441
          },
          {
            "number": 10,
            "time": 80.60342812500029,
            "value": 0.7795275590551181
          },
          {
            "number": 10,
            "time": 80.6896350000003,
            "value": 0.7480314960629921
          },
          {
            "number": 10,
            "time": 80.7758418750003,
            "value": 0.7165354330708661
          },
          {
            "number": 10,
            "time": 80.8620487500003,
            "value": 0.6850393700787402
          },
          {
            "number": 10,
            "time": 80.9482556250003,
            "value": 0.6535433070866141
          },
          {
            "number": 10,
            "time": 81.0344625000003,
            "value": 0.6220472440944882
          },
          {
            "number": 10,
            "time": 81.12066937500029,
            "value": 0.5905511811023622
          },
          {
            "number": 10,
            "time": 81.20687625000028,
            "value": 0.5590551181102362
          },
          {
            "number": 10,
            "time": 81.29308312500027,
            "value": 0.5275590551181102
          },
          {
            "number": 10,
            "time": 81.37929000000027,
            "value": 0.49606299212598426
          },
          {
            "number": 10,
            "time": 81.46549687500026,
            "value": 0.4645669291338583
          },
          {
            "number": 10,
            "time": 81.55170375000026,
            "value": 0.4330708661417323
          },
          {
            "number": 10,
            "time": 81.63791062500026,
            "value": 0.4015748031496063
          },
          {
            "number": 10,
            "time": 81.72411750000026,
            "value": 0.3700787401574803
          },
          {
            "number": 10,
            "time": 81.81032437500026,
            "value": 0.33858267716535434
          },
          {
            "number": 10,
            "time": 81.89653125000027,
            "value": 0.30708661417322836
          },
          {
            "number": 10,
            "time": 81.98273812500027,
            "value": 0.2755905511811024
          },
          {
            "number": 10,
            "time": 82.06894500000027,
            "value": 0.2440944881889764
          },
          {
            "number": 10,
            "time": 82.15515187500027,
            "value": 0.2125984251968504
          },
          {
            "number": 10,
            "time": 82.24135875000027,
            "value": 0.18110236220472442
          },
          {
            "number": 10,
            "time": 82.32756562500028,
            "value": 0.14960629921259844
          },
          {
            "number": 10,
            "time": 82.41377250000028,
            "value": 0.11811023622047244
          },
          {
            "number": 10,
            "time": 82.49997937500028,
            "value": 0.08661417322834646
          },
          {
            "number": 10,
            "time": 82.58618625000028,
            "value": 0.05511811023622047
          },
          {
            "number": 10,
            "time": 82.67239312500028,
            "value": 0.023622047244094488
          },
          {
            "number": 10,
            "time": 82.75500804687529,
            "value": 0
          },
          {
            "number": 10,
            "time": 82.75860000000029,
            "value": 0.9921259842519685
          },
          {
            "number": 10,
            "time": 82.84480687500029,
            "value": 0.984251968503937
          },
          {
            "number": 10,
            "time": 82.93101375000029,
            "value": 0.9763779527559056
          },
          {
            "number": 10,
            "time": 83.01722062500029,
            "value": 0.968503937007874
          },
          {
            "number": 10,
            "time": 83.1034275000003,
            "value": 0.952755905511811
          },
          {
            "number": 10,
            "time": 83.1896343750003,
            "value": 0.9448818897637795
          },
          {
            "number": 10,
            "time": 83.2758412500003,
            "value": 0.937007874015748
          },
          {
            "number": 10,
            "time": 83.3620481250003,
            "value": 0.9212598425196851
          },
          {
            "number": 10,
            "time": 83.4482550000003,
            "value": 0.9133858267716536
          },
          {
            "number": 10,
            "time": 83.5344618750003,
            "value": 0.905511811023622
          },
          {
            "number": 10,
            "time": 83.6206687500003,
            "value": 0.889763779527559
          },
          {
            "number": 10,
            "time": 83.70687562500031,
            "value": 0.8818897637795275
          },
          {
            "number": 10,
            "time": 83.79308250000031,
            "value": 0.8740157480314961
          },
          {
            "number": 10,
            "time": 83.87928937500031,
            "value": 0.8582677165354331
          },
          {
            "number": 10,
            "time": 83.96549625000031,
            "value": 0.8503937007874016
          },
          {
            "number": 10,
            "time": 84.05170312500032,
            "value": 0.84251968503937
          },
          {
            "number": 10,
            "time": 84.13791000000032,
            "value": 0.8267716535433071
          },
          {
            "number": 10,
            "time": 84.22411687500032,
            "value": 0.8188976377952756
          },
          {
            "number": 10,
            "time": 84.31032375000032,
            "value": 0.8110236220472441
          },
          {
            "number": 10,
            "time": 84.39653062500032,
            "value": 0.7952755905511811
          },
          {
            "number": 10,
            "time": 84.48273750000031,
            "value": 0.7874015748031497
          },
          {
            "number": 10,
            "time": 84.56894437500031,
            "value": 0.7795275590551181
          },
          {
            "number": 10,
            "time": 84.65515125000032,
            "value": 0.7637795275590551
          },
          {
            "number": 10,
            "time": 84.7413581250003,
            "value": 0.7559055118110236
          },
          {
            "number": 10,
            "time": 84.8275650000003,
            "value": 0.7480314960629921
          },
          {
            "number": 10,
            "time": 84.91377187500031,
            "value": 0.7322834645669292
          },
          {
            "number": 10,
            "time": 84.99997875000031,
            "value": 0.7244094488188977
          },
          {
            "number": 10,
            "time": 85.08618562500031,
            "value": 0.7165354330708661
          },
          {
            "number": 10,
            "time": 85.17239250000031,
            "value": 0.7007874015748031
          },
          {
            "number": 10,
            "time": 85.2585993750003,
            "value": 0.6929133858267716
          },
          {
            "number": 10,
            "time": 85.3448062500003,
            "value": 0.6850393700787402
          },
          {
            "number": 10,
            "time": 85.4310131250003,
            "value": 0.6692913385826772
          },
          {
            "number": 10,
            "time": 85.51722000000031,
            "value": 0.6614173228346457
          },
          {
            "number": 10,
            "time": 85.6034268750003,
            "value": 0.6535433070866141
          },
          {
            "number": 10,
            "time": 85.6896337500003,
            "value": 0.6456692913385826
          },
          {
            "number": 10,
            "time": 85.7758406250003,
            "value": 0.6299212598425197
          },
          {
            "number": 10,
            "time": 85.86204750000029,
            "value": 0.6220472440944882
          },
          {
            "number": 10,
            "time": 85.94825437500029,
            "value": 0.6141732283464567
          },
          {
            "number": 10,
            "time": 86.03446125000029,
            "value": 0.5984251968503937
          },
          {
            "number": 10,
            "time": 86.1206681250003,
            "value": 0.5905511811023622
          },
          {
            "number": 10,
            "time": 86.2068750000003,
            "value": 0.5826771653543307
          },
          {
            "number": 10,
            "time": 86.2930818750003,
            "value": 0.5669291338582677
          },
          {
            "number": 10,
            "time": 86.37928875000028,
            "value": 0.5590551181102362
          },
          {
            "number": 10,
            "time": 86.46549562500029,
            "value": 0.5511811023622047
          },
          {
            "number": 10,
            "time": 86.55170250000029,
            "value": 0.5354330708661418
          },
          {
            "number": 10,
            "time": 86.63790937500029,
            "value": 0.5275590551181102
          },
          {
            "number": 10,
            "time": 86.72411625000028,
            "value": 0.5196850393700787
          },
          {
            "number": 10,
            "time": 86.81032312500028,
            "value": 0.5039370078740157
          },
          {
            "number": 10,
            "time": 86.89653000000027,
            "value": 0.49606299212598426
          },
          {
            "number": 10,
            "time": 86.98273687500027,
            "value": 0.4881889763779528
          },
          {
            "number": 10,
            "time": 87.06894375000027,
            "value": 0.47244094488188976
          },
          {
            "number": 10,
            "time": 87.15515062500027,
            "value": 0.4645669291338583
          },
          {
            "number": 10,
            "time": 87.24135750000028,
            "value": 0.4566929133858268
          },
          {
            "number": 10,
            "time": 87.32756437500029,
            "value": 0.4409448818897638
          },
          {
            "number": 10,
            "time": 87.41377125000028,
            "value": 0.4330708661417323
          },
          {
            "number": 10,
            "time": 87.49997812500028,
            "value": 0.4251968503937008
          },
          {
            "number": 10,
            "time": 87.58618500000027,
            "value": 0.4094488188976378
          },
          {
            "number": 10,
            "time": 87.67239187500027,
            "value": 0.4015748031496063
          },
          {
            "number": 10,
            "time": 87.75859875000027,
            "value": 0.3937007874015748
          },
          {
            "number": 10,
            "time": 87.84480562500028,
            "value": 0.3779527559055118
          },
          {
            "number": 10,
            "time": 87.93101250000028,
            "value": 0.3700787401574803
          },
          {
            "number": 10,
            "time": 88.01721937500028,
            "value": 0.36220472440944884
          },
          {
            "number": 10,
            "time": 88.10342625000028,
            "value": 0.3464566929133858
          },
          {
            "number": 10,
            "time": 88.18963312500028,
            "value": 0.33858267716535434
          },
          {
            "number": 10,
            "time": 88.27584000000029,
            "value": 0.33070866141732286
          },
          {
            "number": 10,
            "time": 88.36204687500029,
            "value": 0.31496062992125984
          },
          {
            "number": 10,
            "time": 88.44825375000029,
            "value": 0.30708661417322836
          },
          {
            "number": 10,
            "time": 88.53446062500029,
            "value": 0.2992125984251969
          },
          {
            "number": 10,
            "time": 88.6206675000003,
            "value": 0.29133858267716534
          },
          {
            "number": 10,
            "time": 88.7068743750003,
            "value": 0.2755905511811024
          },
          {
            "number": 10,
            "time": 88.7930812500003,
            "value": 0.2677165354330709
          },
          {
            "number": 10,
            "time": 88.8792881250003,
            "value": 0.25984251968503935
          },
          {
            "number": 10,
            "time": 88.9654950000003,
            "value": 0.2440944881889764
          },
          {
            "number": 10,
            "time": 89.0517018750003,
            "value": 0.23622047244094488
          },
          {
            "number": 10,
            "time": 89.1379087500003,
            "value": 0.2283464566929134
          },
          {
            "number": 10,
            "time": 89.22411562500031,
            "value": 0.2125984251968504
          },
          {
            "number": 10,
            "time": 89.31032250000031,
            "value": 0.2047244094488189
          },
          {
            "number": 10,
            "time": 89.3965293750003,
            "value": 0.1968503937007874
          },
          {
            "number": 10,
            "time": 89.4827362500003,
            "value": 0.18110236220472442
          },
          {
            "number": 10,
            "time": 89.5689431250003,
            "value": 0.1732283464566929
          },
          {
            "number": 10,
            "time": 89.6551500000003,
            "value": 0.16535433070866143
          },
          {
            "number": 10,
            "time": 89.7413568750003,
            "value": 0.14960629921259844
          },
          {
            "number": 10,
            "time": 89.82756375000031,
            "value": 0.14173228346456693
          },
          {
            "number": 10,
            "time": 89.91377062500031,
            "value": 0.13385826771653545
          },
          {
            "number": 10,
            "time": 89.99997750000031,
            "value": 0.11811023622047244
          },
          {
            "number": 10,
            "time": 90.08618437500031,
            "value": 0.11023622047244094
          },
          {
            "number": 10,
            "time": 90.17239125000032,
            "value": 0.10236220472440945
          },
          {
            "number": 10,
            "time": 90.25859812500032,
            "value": 0.08661417322834646
          },
          {
            "number": 10,
            "time": 90.34480500000032,
            "value": 0.07874015748031496
          },
          {
            "number": 10,
            "time": 90.43101187500032,
            "value": 0.07086614173228346
          },
          {
            "number": 10,
            "time": 90.51721875000032,
            "value": 0.05511811023622047
          },
          {
            "number": 10,
            "time": 90.60342562500033,
            "value": 0.047244094488188976
          },
          {
            "number": 10,
            "time": 90.68963250000033,
            "value": 0.03937007874015748
          },
          {
            "number": 10,
            "time": 90.77583937500033,
            "value": 0.023622047244094488
          },
          {
            "number": 10,
            "time": 90.86204625000033,
            "value": 0.015748031496062992
          },
          {
            "number": 10,
            "time": 90.94825312500033,
            "value": 0.007874015748031496
          },
          {
            "number": 10,
            "time": 91.03086804687534,
            "value": 0
          },
          {
            "number": 10,
            "time": 165.51720000000034,
            "value": 0.9921259842519685
          },
          {
            "number": 10,
            "time": 165.60340687500033,
            "value": 0.968503937007874
          },
          {
            "number": 10,
            "time": 165.68961375000032,
            "value": 0.937007874015748
          },
          {
            "number": 10,
            "time": 165.7758206250003,
            "value": 0.905511811023622
          },
          {
            "number": 10,
            "time": 165.86202750000032,
            "value": 0.8740157480314961
          },
          {
            "number": 10,
            "time": 165.9482343750003,
            "value": 0.84251968503937
          },
          {
            "number": 10,
            "time": 166.0344412500003,
            "value": 0.8110236220472441
          },
          {
            "number": 10,
            "time": 166.1206481250003,
            "value": 0.7795275590551181
          },
          {
            "number": 10,
            "time": 166.20685500000027,
            "value": 0.7480314960629921
          },
          {
            "number": 10,
            "time": 166.29306187500026,
            "value": 0.7165354330708661
          },
          {
            "number": 10,
            "time": 166.37926875000025,
            "value": 0.6850393700787402
          },
          {
            "number": 10,
            "time": 166.46547562500024,
            "value": 0.6535433070866141
          },
          {
            "number": 10,
            "time": 166.55168250000025,
            "value": 0.6220472440944882
          },
          {
            "number": 10,
            "time": 166.63788937500027,
            "value": 0.5905511811023622
          },
          {
            "number": 10,
            "time": 166.72409625000026,
            "value": 0.5590551181102362
          },
          {
            "number": 10,
            "time": 166.81030312500027,
            "value": 0.5275590551181102
          },
          {
            "number": 10,
            "time": 166.89651000000026,
            "value": 0.49606299212598426
          },
          {
            "number": 10,
            "time": 166.98271687500025,
            "value": 0.4645669291338583
          },
          {
            "number": 10,
            "time": 167.06892375000024,
            "value": 0.4330708661417323
          },
          {
            "number": 10,
            "time": 167.15513062500023,
            "value": 0.4015748031496063
          },
          {
            "number": 10,
            "time": 167.2413375000002,
            "value": 0.3700787401574803
          },
          {
            "number": 10,
            "time": 167.3275443750002,
            "value": 0.33858267716535434
          },
          {
            "number": 10,
            "time": 167.4137512500002,
            "value": 0.30708661417322836
          },
          {
            "number": 10,
            "time": 167.49995812500018,
            "value": 0.2755905511811024
          },
          {
            "number": 10,
            "time": 167.58616500000016,
            "value": 0.2440944881889764
          },
          {
            "number": 10,
            "time": 167.67237187500015,
            "value": 0.2125984251968504
          },
          {
            "number": 10,
            "time": 167.75857875000014,
            "value": 0.18110236220472442
          },
          {
            "number": 10,
            "time": 167.84478562500013,
            "value": 0.14960629921259844
          },
          {
            "number": 10,
            "time": 167.93099250000012,
            "value": 0.11811023622047244
          },
          {
            "number": 10,
            "time": 168.0171993750001,
            "value": 0.08661417322834646
          },
          {
            "number": 10,
            "time": 168.1034062500001,
            "value": 0.05511811023622047
          },
          {
            "number": 10,
            "time": 168.18961312500008,
            "value": 0.023622047244094488
          },
          {
            "number": 10,
            "time": 168.27222804687509,
            "value": 0
          },
          {
            "number": 10,
            "time": 168.2758200000001,
            "value": 0.9921259842519685
          },
          {
            "number": 10,
            "time": 168.36202687500008,
            "value": 0.952755905511811
          },
          {
            "number": 10,
            "time": 168.44823375000007,
            "value": 0.9133858267716536
          },
          {
            "number": 10,
            "time": 168.53444062500006,
            "value": 0.8740157480314961
          },
          {
            "number": 10,
            "time": 168.62064750000005,
            "value": 0.8267716535433071
          },
          {
            "number": 10,
            "time": 168.70685437500006,
            "value": 0.7874015748031497
          },
          {
            "number": 10,
            "time": 168.79306125000005,
            "value": 0.7480314960629921
          },
          {
            "number": 10,
            "time": 168.87926812500004,
            "value": 0.7007874015748031
          },
          {
            "number": 10,
            "time": 168.96547500000003,
            "value": 0.6614173228346457
          },
          {
            "number": 10,
            "time": 169.051681875,
            "value": 0.6220472440944882
          },
          {
            "number": 10,
            "time": 169.13788875,
            "value": 0.5826771653543307
          },
          {
            "number": 10,
            "time": 169.224095625,
            "value": 0.5354330708661418
          },
          {
            "number": 10,
            "time": 169.31030249999998,
            "value": 0.49606299212598426
          },
          {
            "number": 10,
            "time": 169.39650937499997,
            "value": 0.4566929133858268
          },
          {
            "number": 10,
            "time": 169.48271624999995,
            "value": 0.4094488188976378
          },
          {
            "number": 10,
            "time": 169.56892312499997,
            "value": 0.3700787401574803
          },
          {
            "number": 10,
            "time": 169.65512999999999,
            "value": 0.33070866141732286
          },
          {
            "number": 10,
            "time": 169.741336875,
            "value": 0.29133858267716534
          },
          {
            "number": 10,
            "time": 169.82754375,
            "value": 0.2440944881889764
          },
          {
            "number": 10,
            "time": 169.913750625,
            "value": 0.2047244094488189
          },
          {
            "number": 10,
            "time": 169.99995750000002,
            "value": 0.16535433070866143
          },
          {
            "number": 10,
            "time": 170.086164375,
            "value": 0.11811023622047244
          },
          {
            "number": 10,
            "time": 170.17237125,
            "value": 0.07874015748031496
          },
          {
            "number": 10,
            "time": 170.25857812499999,
            "value": 0.03937007874015748
          },
          {
            "number": 10,
            "time": 170.34478499999997,
            "value": 0
          },
          {
            "number": 10,
            "time": 170.43099187499996,
            "value": 0.2125984251968504
          },
          {
            "number": 10,
            "time": 170.51719874999995,
            "value": 0.18110236220472442
          },
          {
            "number": 10,
            "time": 170.60340562499994,
            "value": 0.14960629921259844
          },
          {
            "number": 10,
            "time": 170.68961249999992,
            "value": 0.11811023622047244
          },
          {
            "number": 10,
            "time": 170.7758193749999,
            "value": 0.08661417322834646
          },
          {
            "number": 10,
            "time": 170.8620262499999,
            "value": 0.05511811023622047
          },
          {
            "number": 10,
            "time": 170.9482331249999,
            "value": 0.023622047244094488
          },
          {
            "number": 10,
            "time": 171.0308480468749,
            "value": 0
          },
          {
            "number": 10,
            "time": 173.79305999999988,
            "value": 0.9921259842519685
          },
          {
            "number": 10,
            "time": 173.87926687499987,
            "value": 0.984251968503937
          },
          {
            "number": 10,
            "time": 173.96547374999986,
            "value": 0.9763779527559056
          },
          {
            "number": 10,
            "time": 174.05168062499985,
            "value": 0.968503937007874
          },
          {
            "number": 10,
            "time": 174.13788749999986,
            "value": 0.952755905511811
          },
          {
            "number": 10,
            "time": 174.22409437499985,
            "value": 0.9448818897637795
          },
          {
            "number": 10,
            "time": 174.31030124999984,
            "value": 0.937007874015748
          },
          {
            "number": 10,
            "time": 174.39650812499983,
            "value": 0.9212598425196851
          },
          {
            "number": 10,
            "time": 174.4827149999998,
            "value": 0.9133858267716536
          },
          {
            "number": 10,
            "time": 174.5689218749998,
            "value": 0.905511811023622
          },
          {
            "number": 10,
            "time": 174.6551287499998,
            "value": 0.889763779527559
          },
          {
            "number": 10,
            "time": 174.74133562499978,
            "value": 0.8818897637795275
          },
          {
            "number": 10,
            "time": 174.82754249999977,
            "value": 0.8740157480314961
          },
          {
            "number": 10,
            "time": 174.91374937499975,
            "value": 0.8582677165354331
          },
          {
            "number": 10,
            "time": 174.99995624999974,
            "value": 0.8503937007874016
          },
          {
            "number": 10,
            "time": 175.08616312499973,
            "value": 0.84251968503937
          },
          {
            "number": 10,
            "time": 175.17236999999975,
            "value": 0.8267716535433071
          },
          {
            "number": 10,
            "time": 175.25857687499973,
            "value": 0.8188976377952756
          },
          {
            "number": 10,
            "time": 175.34478374999975,
            "value": 0.8110236220472441
          },
          {
            "number": 10,
            "time": 175.43099062499974,
            "value": 0.7952755905511811
          },
          {
            "number": 10,
            "time": 175.51719749999975,
            "value": 0.7874015748031497
          },
          {
            "number": 10,
            "time": 175.60340437499977,
            "value": 0.7795275590551181
          },
          {
            "number": 10,
            "time": 175.68961124999979,
            "value": 0.7637795275590551
          },
          {
            "number": 10,
            "time": 175.77581812499977,
            "value": 0.7559055118110236
          },
          {
            "number": 10,
            "time": 175.8620249999998,
            "value": 0.7480314960629921
          },
          {
            "number": 10,
            "time": 175.94823187499978,
            "value": 0.7322834645669292
          },
          {
            "number": 10,
            "time": 176.0344387499998,
            "value": 0.7244094488188977
          },
          {
            "number": 10,
            "time": 176.12064562499978,
            "value": 0.7165354330708661
          },
          {
            "number": 10,
            "time": 176.2068524999998,
            "value": 0.7007874015748031
          },
          {
            "number": 10,
            "time": 176.29305937499979,
            "value": 0.6929133858267716
          },
          {
            "number": 10,
            "time": 176.3792662499998,
            "value": 0.6850393700787402
          },
          {
            "number": 10,
            "time": 176.46547312499982,
            "value": 0.6692913385826772
          },
          {
            "number": 10,
            "time": 176.55167999999983,
            "value": 0.6614173228346457
          },
          {
            "number": 10,
            "time": 176.63788687499985,
            "value": 0.6535433070866141
          },
          {
            "number": 10,
            "time": 176.72409374999987,
            "value": 0.6456692913385826
          },
          {
            "number": 10,
            "time": 176.81030062499985,
            "value": 0.6299212598425197
          },
          {
            "number": 10,
            "time": 176.89650749999984,
            "value": 0.6220472440944882
          },
          {
            "number": 10,
            "time": 176.98271437499983,
            "value": 0.6141732283464567
          },
          {
            "number": 10,
            "time": 177.06892124999982,
            "value": 0.5984251968503937
          },
          {
            "number": 10,
            "time": 177.15512812499983,
            "value": 0.5905511811023622
          },
          {
            "number": 10,
            "time": 177.24133499999982,
            "value": 0.5826771653543307
          },
          {
            "number": 10,
            "time": 177.32754187499984,
            "value": 0.5669291338582677
          },
          {
            "number": 10,
            "time": 177.41374874999983,
            "value": 0.5590551181102362
          },
          {
            "number": 10,
            "time": 177.49995562499984,
            "value": 0.5511811023622047
          },
          {
            "number": 10,
            "time": 177.58616249999983,
            "value": 0.5354330708661418
          },
          {
            "number": 10,
            "time": 177.67236937499985,
            "value": 0.5275590551181102
          },
          {
            "number": 10,
            "time": 177.75857624999983,
            "value": 0.5196850393700787
          },
          {
            "number": 10,
            "time": 177.84478312499982,
            "value": 0.5039370078740157
          },
          {
            "number": 10,
            "time": 177.9309899999998,
            "value": 0.49606299212598426
          },
          {
            "number": 10,
            "time": 178.01719687499983,
            "value": 0.4881889763779528
          },
          {
            "number": 10,
            "time": 178.1034037499998,
            "value": 0.47244094488188976
          },
          {
            "number": 10,
            "time": 178.18961062499983,
            "value": 0.4645669291338583
          },
          {
            "number": 10,
            "time": 178.27581749999982,
            "value": 0.4566929133858268
          },
          {
            "number": 10,
            "time": 178.3620243749998,
            "value": 0.4409448818897638
          },
          {
            "number": 10,
            "time": 178.44823124999982,
            "value": 0.4330708661417323
          },
          {
            "number": 10,
            "time": 178.53443812499984,
            "value": 0.4251968503937008
          },
          {
            "number": 10,
            "time": 178.62064499999985,
            "value": 0.4094488188976378
          },
          {
            "number": 10,
            "time": 178.70685187499984,
            "value": 0.4015748031496063
          },
          {
            "number": 10,
            "time": 178.79305874999986,
            "value": 0.3937007874015748
          },
          {
            "number": 10,
            "time": 178.87926562499987,
            "value": 0.3779527559055118
          },
          {
            "number": 10,
            "time": 178.96547249999986,
            "value": 0.3700787401574803
          },
          {
            "number": 10,
            "time": 179.05167937499985,
            "value": 0.36220472440944884
          },
          {
            "number": 10,
            "time": 179.13788624999984,
            "value": 0.3464566929133858
          },
          {
            "number": 10,
            "time": 179.22409312499983,
            "value": 0.33858267716535434
          },
          {
            "number": 10,
            "time": 179.3102999999998,
            "value": 0.33070866141732286
          },
          {
            "number": 10,
            "time": 179.3965068749998,
            "value": 0.31496062992125984
          },
          {
            "number": 10,
            "time": 179.4827137499998,
            "value": 0.30708661417322836
          },
          {
            "number": 10,
            "time": 179.56892062499978,
            "value": 0.2992125984251969
          },
          {
            "number": 10,
            "time": 179.65512749999976,
            "value": 0.29133858267716534
          },
          {
            "number": 10,
            "time": 179.74133437499975,
            "value": 0.2755905511811024
          },
          {
            "number": 10,
            "time": 179.82754124999974,
            "value": 0.2677165354330709
          },
          {
            "number": 10,
            "time": 179.91374812499973,
            "value": 0.25984251968503935
          },
          {
            "number": 10,
            "time": 179.99995499999972,
            "value": 0.2440944881889764
          },
          {
            "number": 10,
            "time": 180.0861618749997,
            "value": 0.23622047244094488
          },
          {
            "number": 10,
            "time": 180.1723687499997,
            "value": 0.2283464566929134
          },
          {
            "number": 10,
            "time": 180.25857562499968,
            "value": 0.2125984251968504
          },
          {
            "number": 10,
            "time": 180.34478249999967,
            "value": 0.2047244094488189
          },
          {
            "number": 10,
            "time": 180.43098937499965,
            "value": 0.1968503937007874
          },
          {
            "number": 10,
            "time": 180.51719624999964,
            "value": 0.18110236220472442
          },
          {
            "number": 10,
            "time": 180.60340312499963,
            "value": 0.1732283464566929
          },
          {
            "number": 10,
            "time": 180.68960999999962,
            "value": 0.16535433070866143
          },
          {
            "number": 10,
            "time": 180.7758168749996,
            "value": 0.14960629921259844
          },
          {
            "number": 10,
            "time": 180.8620237499996,
            "value": 0.14173228346456693
          },
          {
            "number": 10,
            "time": 180.94823062499958,
            "value": 0.13385826771653545
          },
          {
            "number": 10,
            "time": 181.03443749999957,
            "value": 0.11811023622047244
          },
          {
            "number": 10,
            "time": 181.12064437499956,
            "value": 0.11023622047244094
          },
          {
            "number": 10,
            "time": 181.20685124999954,
            "value": 0.10236220472440945
          },
          {
            "number": 10,
            "time": 181.29305812499953,
            "value": 0.08661417322834646
          },
          {
            "number": 10,
            "time": 181.37926499999952,
            "value": 0.07874015748031496
          },
          {
            "number": 10,
            "time": 181.4654718749995,
            "value": 0.07086614173228346
          },
          {
            "number": 10,
            "time": 181.5516787499995,
            "value": 0.05511811023622047
          },
          {
            "number": 10,
            "time": 181.63788562499948,
            "value": 0.047244094488188976
          },
          {
            "number": 10,
            "time": 181.72409249999947,
            "value": 0.03937007874015748
          },
          {
            "number": 10,
            "time": 181.81029937499946,
            "value": 0.023622047244094488
          },
          {
            "number": 10,
            "time": 181.89650624999945,
            "value": 0.015748031496062992
          },
          {
            "number": 10,
            "time": 181.98271312499944,
            "value": 0.007874015748031496
          },
          {
            "number": 10,
            "time": 182.06532804687444,
            "value": 0
          },
          {
            "number": 10,
            "time": 234.48269999999945,
            "value": 0.9921259842519685
          },
          {
            "number": 10,
            "time": 234.56890687499944,
            "value": 0.984251968503937
          },
          {
            "number": 10,
            "time": 234.65511374999943,
            "value": 0.968503937007874
          },
          {
            "number": 10,
            "time": 234.74132062499942,
            "value": 0.952755905511811
          },
          {
            "number": 10,
            "time": 234.82752749999943,
            "value": 0.937007874015748
          },
          {
            "number": 10,
            "time": 234.91373437499942,
            "value": 0.9212598425196851
          },
          {
            "number": 10,
            "time": 234.9999412499994,
            "value": 0.905511811023622
          },
          {
            "number": 10,
            "time": 235.0861481249994,
            "value": 0.889763779527559
          },
          {
            "number": 10,
            "time": 235.17235499999938,
            "value": 0.8740157480314961
          },
          {
            "number": 10,
            "time": 235.25856187499937,
            "value": 0.8582677165354331
          },
          {
            "number": 10,
            "time": 235.34476874999936,
            "value": 0.84251968503937
          },
          {
            "number": 10,
            "time": 235.43097562499935,
            "value": 0.8267716535433071
          },
          {
            "number": 10,
            "time": 235.51718249999934,
            "value": 0.8110236220472441
          },
          {
            "number": 10,
            "time": 235.60338937499932,
            "value": 0.7952755905511811
          },
          {
            "number": 10,
            "time": 235.6895962499993,
            "value": 0.7795275590551181
          },
          {
            "number": 10,
            "time": 235.7758031249993,
            "value": 0.7637795275590551
          },
          {
            "number": 10,
            "time": 235.86200999999932,
            "value": 0.7480314960629921
          },
          {
            "number": 10,
            "time": 235.9482168749993,
            "value": 0.7322834645669292
          },
          {
            "number": 10,
            "time": 236.03442374999932,
            "value": 0.7165354330708661
          },
          {
            "number": 10,
            "time": 236.1206306249993,
            "value": 0.7007874015748031
          },
          {
            "number": 10,
            "time": 236.20683749999932,
            "value": 0.6850393700787402
          },
          {
            "number": 10,
            "time": 236.29304437499934,
            "value": 0.6692913385826772
          },
          {
            "number": 10,
            "time": 236.37925124999936,
            "value": 0.6535433070866141
          },
          {
            "number": 10,
            "time": 236.46545812499934,
            "value": 0.6377952755905512
          },
          {
            "number": 10,
            "time": 236.55166499999936,
            "value": 0.6220472440944882
          },
          {
            "number": 10,
            "time": 236.63787187499935,
            "value": 0.6062992125984252
          },
          {
            "number": 10,
            "time": 236.72407874999936,
            "value": 0.5905511811023622
          },
          {
            "number": 10,
            "time": 236.81028562499935,
            "value": 0.5748031496062992
          },
          {
            "number": 10,
            "time": 236.89649249999937,
            "value": 0.5590551181102362
          },
          {
            "number": 10,
            "time": 236.98269937499936,
            "value": 0.5433070866141733
          },
          {
            "number": 10,
            "time": 237.06890624999937,
            "value": 0.5275590551181102
          },
          {
            "number": 10,
            "time": 237.1551131249994,
            "value": 0.5118110236220472
          },
          {
            "number": 10,
            "time": 237.2413199999994,
            "value": 0.49606299212598426
          },
          {
            "number": 10,
            "time": 237.32752687499942,
            "value": 0.48031496062992124
          },
          {
            "number": 10,
            "time": 237.41373374999944,
            "value": 0.4645669291338583
          },
          {
            "number": 10,
            "time": 237.49994062499943,
            "value": 0.44881889763779526
          },
          {
            "number": 10,
            "time": 237.5861474999994,
            "value": 0.4330708661417323
          },
          {
            "number": 10,
            "time": 237.6723543749994,
            "value": 0.41732283464566927
          },
          {
            "number": 10,
            "time": 237.7585612499994,
            "value": 0.4015748031496063
          },
          {
            "number": 10,
            "time": 237.8447681249994,
            "value": 0.3858267716535433
          },
          {
            "number": 10,
            "time": 237.9309749999994,
            "value": 0.3700787401574803
          },
          {
            "number": 10,
            "time": 238.0171818749994,
            "value": 0.3543307086614173
          },
          {
            "number": 10,
            "time": 238.1033887499994,
            "value": 0.33858267716535434
          },
          {
            "number": 10,
            "time": 238.1895956249994,
            "value": 0.3228346456692913
          },
          {
            "number": 10,
            "time": 238.2758024999994,
            "value": 0.30708661417322836
          },
          {
            "number": 10,
            "time": 238.36200937499942,
            "value": 0.29133858267716534
          },
          {
            "number": 10,
            "time": 238.4482162499994,
            "value": 0.2755905511811024
          },
          {
            "number": 10,
            "time": 238.5344231249994,
            "value": 0.25984251968503935
          },
          {
            "number": 10,
            "time": 238.62062999999938,
            "value": 0.2440944881889764
          },
          {
            "number": 10,
            "time": 238.7068368749994,
            "value": 0.2283464566929134
          },
          {
            "number": 10,
            "time": 238.79304374999938,
            "value": 0.2125984251968504
          },
          {
            "number": 10,
            "time": 238.8792506249994,
            "value": 0.1968503937007874
          },
          {
            "number": 10,
            "time": 238.9654574999994,
            "value": 0.18110236220472442
          },
          {
            "number": 10,
            "time": 239.05166437499938,
            "value": 0.16535433070866143
          },
          {
            "number": 10,
            "time": 239.1378712499994,
            "value": 0.14960629921259844
          },
          {
            "number": 10,
            "time": 239.2240781249994,
            "value": 0.13385826771653545
          },
          {
            "number": 10,
            "time": 239.31028499999942,
            "value": 0.11811023622047244
          },
          {
            "number": 10,
            "time": 239.3964918749994,
            "value": 0.10236220472440945
          },
          {
            "number": 10,
            "time": 239.48269874999943,
            "value": 0.08661417322834646
          },
          {
            "number": 10,
            "time": 239.56890562499945,
            "value": 0.07086614173228346
          },
          {
            "number": 10,
            "time": 239.65511249999943,
            "value": 0.05511811023622047
          },
          {
            "number": 10,
            "time": 239.74131937499942,
            "value": 0.03937007874015748
          },
          {
            "number": 10,
            "time": 239.8275262499994,
            "value": 0.023622047244094488
          },
          {
            "number": 10,
            "time": 239.9137331249994,
            "value": 0.007874015748031496
          },
          {
            "number": 10,
            "time": 239.9963480468744,
            "value": 0
          },
          {
            "number": 10,
            "time": 243.62062874999944,
            "value": 0.5039370078740157
          }
        ],
        "11": [
          {
            "number": 11,
            "time": 243.96545624999945,
            "value": 1
          }
        ],
        "64": [
          {
            "number": 64,
            "time": 239.9999399999994,
            "value": 1
          },
          {
            "number": 64,
            "time": 244.31028374999946,
            "value": 0
          }
        ],
        "91": [
          {
            "number": 91,
            "time": 36.551715,
            "value": 1
          },
          {
            "number": 91,
            "time": 244.82752499999947,
            "value": 0.31496062992125984
          }
        ],
        "93": [
          {
            "number": 93,
            "time": 36.1637840625,
            "value": 0.7559055118110236
          },
          {
            "number": 93,
            "time": 245.34476624999948,
            "value": 0
          }
        ],
        "121": [
          {
            "number": 121,
            "time": 242.75855999999942,
            "value": 0
          }
        ],
        "123": [
          {
            "number": 123,
            "time": 246.72407624999948,
            "value": 0
          }
        ]
      },
      "instrument": ""
    },
    {
      "name": "Solo Guitar         ",
      "notes": [
        {
          "name": "B4",
          "midi": 71,
          "time": 119.60126320312501,
          "velocity": 0.889763779527559,
          "duration": 0.2550286718749959
        },
        {
          "name": "E5",
          "midi": 76,
          "time": 119.83114820312501,
          "velocity": 0.7244094488188977,
          "duration": 0.11135054687500201
        },
        {
          "name": "D5",
          "midi": 74,
          "time": 119.94249875000001,
          "velocity": 0.7952755905511811,
          "duration": 0.07902296874999593
        },
        {
          "name": "B4",
          "midi": 71,
          "time": 120.02152171875001,
          "velocity": 0.6692913385826772,
          "duration": 0.12212640624998983
        },
        {
          "name": "A#4",
          "midi": 70,
          "time": 120.125688359375,
          "velocity": 0.984251968503937,
          "duration": 0.09698273437498983
        },
        {
          "name": "A4",
          "midi": 69,
          "time": 120.25140671874999,
          "velocity": 0.889763779527559,
          "duration": 0.2298850000000101
        },
        {
          "name": "G4",
          "midi": 67,
          "time": 120.4741078125,
          "velocity": 0.6299212598425197,
          "duration": 0.11494250000001216
        },
        {
          "name": "A4",
          "midi": 69,
          "time": 120.6177859375,
          "velocity": 0.9212598425196851,
          "duration": 0.237068906250002
        },
        {
          "name": "G4",
          "midi": 67,
          "time": 120.85485484375,
          "velocity": 0.6141732283464567,
          "duration": 0.0682471093749939
        },
        {
          "name": "A4",
          "midi": 69,
          "time": 120.99853296875,
          "velocity": 0.8740157480314961,
          "duration": 0.211925234375002
        },
        {
          "name": "G4",
          "midi": 67,
          "time": 121.188906484375,
          "velocity": 0.6062992125984252,
          "duration": 0.06106320312500202
        },
        {
          "name": "B4",
          "midi": 71,
          "time": 121.361320234375,
          "velocity": 0.9212598425196851,
          "duration": 0.5495688281249897
        },
        {
          "name": "B3",
          "midi": 59,
          "time": 122.38861882812498,
          "velocity": 0.905511811023622,
          "duration": 0.19037351562501215
        },
        {
          "name": "D4",
          "midi": 62,
          "time": 122.54307281249999,
          "velocity": 0.905511811023622,
          "duration": 0.17241375000000403
        },
        {
          "name": "B3",
          "midi": 59,
          "time": 122.70471070312499,
          "velocity": 0.8110236220472441,
          "duration": 0.0933907812500081
        },
        {
          "name": "A3",
          "midi": 57,
          "time": 122.798101484375,
          "velocity": 0.7795275590551181,
          "duration": 0.08620687500000201
        },
        {
          "name": "G3",
          "midi": 55,
          "time": 122.8735325,
          "velocity": 0.84251968503937,
          "duration": 0.07902296874999593
        },
        {
          "name": "A3",
          "midi": 57,
          "time": 122.95255546874999,
          "velocity": 0.8582677165354331,
          "duration": 0.25143671874999995
        },
        {
          "name": "G3",
          "midi": 55,
          "time": 123.200400234375,
          "velocity": 0.905511811023622,
          "duration": 0.06106320312500202
        },
        {
          "name": "A3",
          "midi": 57,
          "time": 123.38358984375,
          "velocity": 0.905511811023622,
          "duration": 0.10775859375000607
        },
        {
          "name": "G3",
          "midi": 55,
          "time": 123.46979671875,
          "velocity": 0.7480314960629921,
          "duration": 0.0754310156250142
        },
        {
          "name": "E3",
          "midi": 52,
          "time": 123.53804382812501,
          "velocity": 0.7007874015748031,
          "duration": 0.06824710937500811
        },
        {
          "name": "D3",
          "midi": 50,
          "time": 123.61347484375003,
          "velocity": 0.7480314960629921,
          "duration": 0.05747125000000608
        },
        {
          "name": "E3",
          "midi": 52,
          "time": 123.68172195312503,
          "velocity": 0.937007874015748,
          "duration": 0.459770000000006
        },
        {
          "name": "B4",
          "midi": 71,
          "time": 124.97482507812505,
          "velocity": 0.9212598425196851,
          "duration": 0.35201140624999994
        },
        {
          "name": "D5",
          "midi": 74,
          "time": 125.29091695312505,
          "velocity": 0.8582677165354331,
          "duration": 0.20114937499999996
        },
        {
          "name": "E5",
          "midi": 76,
          "time": 125.51721000000005,
          "velocity": 0.8267716535433071,
          "duration": 0.12931031249999592
        },
        {
          "name": "E5",
          "midi": 76,
          "time": 125.74709500000004,
          "velocity": 0.968503937007874,
          "duration": 0.21551718749998372
        },
        {
          "name": "G5",
          "midi": 79,
          "time": 126.03804320312503,
          "velocity": 0.8740157480314961,
          "duration": 0.10416664062499592
        },
        {
          "name": "E5",
          "midi": 76,
          "time": 126.25715234375002,
          "velocity": 0.905511811023622,
          "duration": 0.797413593750008
        },
        {
          "name": "E5",
          "midi": 76,
          "time": 127.67238187500003,
          "velocity": 0.889763779527559,
          "duration": 0.26221257812497356
        },
        {
          "name": "G5",
          "midi": 79,
          "time": 127.934594453125,
          "velocity": 0.905511811023622,
          "duration": 0.09339078124999389
        },
        {
          "name": "B5",
          "midi": 83,
          "time": 128.171663359375,
          "velocity": 0.889763779527559,
          "duration": 0.434626328125006
        },
        {
          "name": "G5",
          "midi": 79,
          "time": 128.591921875,
          "velocity": 0.7322834645669292,
          "duration": 0.08979882812499795
        },
        {
          "name": "E5",
          "midi": 76,
          "time": 128.6637609375,
          "velocity": 0.7244094488188977,
          "duration": 0.13290226562500607
        },
        {
          "name": "C#5",
          "midi": 73,
          "time": 128.84335859375,
          "velocity": 0.968503937007874,
          "duration": 0.10416664062501013
        },
        {
          "name": "G5",
          "midi": 79,
          "time": 129.033732109375,
          "velocity": 0.8110236220472441,
          "duration": 0.161637890625002
        },
        {
          "name": "E5",
          "midi": 76,
          "time": 129.19537,
          "velocity": 0.905511811023622,
          "duration": 0.635775703125006
        },
        {
          "name": "E5",
          "midi": 76,
          "time": 130.488473125,
          "velocity": 0.9212598425196851,
          "duration": 0.1436781250000081
        },
        {
          "name": "C#6",
          "midi": 85,
          "time": 130.79019718750004,
          "velocity": 0.968503937007874,
          "duration": 0.1867815625000162
        },
        {
          "name": "C6",
          "midi": 84,
          "time": 131.09551320312505,
          "velocity": 0.889763779527559,
          "duration": 0.14008617187499794
        },
        {
          "name": "B5",
          "midi": 83,
          "time": 131.39364531250004,
          "velocity": 0.84251968503937,
          "duration": 0.15804593749999185
        },
        {
          "name": "G5",
          "midi": 79,
          "time": 131.78516820312504,
          "velocity": 0.8740157480314961,
          "duration": 0.14008617187499794
        },
        {
          "name": "E5",
          "midi": 76,
          "time": 131.92525437500004,
          "velocity": 0.84251968503937,
          "duration": 0.11494250000001216
        },
        {
          "name": "C#5",
          "midi": 73,
          "time": 132.05456468750006,
          "velocity": 0.9212598425196851,
          "duration": 0.0862068749999878
        },
        {
          "name": "G5",
          "midi": 79,
          "time": 132.19465085937506,
          "velocity": 0.8740157480314961,
          "duration": 0.11853445312499389
        },
        {
          "name": "E5",
          "midi": 76,
          "time": 132.31318531250005,
          "velocity": 0.8267716535433071,
          "duration": 0.5926722656250263
        },
        {
          "name": "F#5",
          "midi": 78,
          "time": 133.0459437500001,
          "velocity": 0.9212598425196851,
          "duration": 0.19396546875000809
        },
        {
          "name": "G5",
          "midi": 79,
          "time": 133.23272531250012,
          "velocity": 0.8582677165354331,
          "duration": 0.1975574218749898
        },
        {
          "name": "G#5",
          "midi": 80,
          "time": 133.5488171875001,
          "velocity": 0.968503937007874,
          "duration": 0.17241375000000403
        },
        {
          "name": "G#5",
          "midi": 80,
          "time": 133.87927687500013,
          "velocity": 0.968503937007874,
          "duration": 0.3376435937500446
        },
        {
          "name": "A5",
          "midi": 81,
          "time": 134.21692046875017,
          "velocity": 0.889763779527559,
          "duration": 0.3915228906249979
        },
        {
          "name": "B5",
          "midi": 83,
          "time": 134.59766750000017,
          "velocity": 0.84251968503937,
          "duration": 0.15804593749999185
        },
        {
          "name": "E5",
          "midi": 76,
          "time": 134.77367320312516,
          "velocity": 0.905511811023622,
          "duration": 0.6501435156249897
        }
      ],
      "controlChanges": {
        "1": [
          {
            "number": 1,
            "time": 138.44824125000017,
            "value": 0
          }
        ],
        "7": [
          {
            "number": 7,
            "time": 0,
            "value": 0.9448818897637795
          },
          {
            "number": 7,
            "time": 138.10341375000016,
            "value": 0.7874015748031497
          }
        ],
        "10": [
          {
            "number": 10,
            "time": 0,
            "value": 0.7007874015748031
          },
          {
            "number": 10,
            "time": 138.79306875000017,
            "value": 0.5039370078740157
          }
        ],
        "11": [
          {
            "number": 11,
            "time": 139.13789625000018,
            "value": 1
          }
        ],
        "64": [
          {
            "number": 64,
            "time": 139.4827237500002,
            "value": 0
          }
        ],
        "91": [
          {
            "number": 91,
            "time": 119.46476898437501,
            "value": 0.984251968503937
          },
          {
            "number": 91,
            "time": 139.9999650000002,
            "value": 0.31496062992125984
          }
        ],
        "93": [
          {
            "number": 93,
            "time": 119.46476898437501,
            "value": 0.8661417322834646
          },
          {
            "number": 93,
            "time": 140.5172062500002,
            "value": 0
          }
        ],
        "121": [
          {
            "number": 121,
            "time": 137.93100000000015,
            "value": 0
          }
        ],
        "123": [
          {
            "number": 123,
            "time": 141.89651625000022,
            "value": 0
          }
        ]
      },
      "instrument": ""
    }
  ]
}
